<svg width="288" height="288" viewBox="0 0 288 288" fill="none" xmlns="http://www.w3.org/2000/svg">
<mask id="mask0_221:13931" style="mask-type:alpha" maskUnits="userSpaceOnUse" x="0" y="0" width="288" height="288">
<circle cx="144" cy="144" r="144" fill="#C4C4C4"/>
</mask>
<g mask="url(#mask0_221:13931)">
<path d="M2339.87 597.453H-396V-21.996H2339.87V597.453Z" fill="#FFFEFA"/>
<path d="M192.725 263.836H-9.83069V241.169H192.725V263.836Z" fill="#57B9D4"/>
<path d="M47.4493 263.836H40.4987V213.615H47.4493V263.836Z" fill="#CA8B2F"/>
<path d="M142.9 263.836H135.948V213.615H142.9V263.836Z" fill="#CA8B2F"/>
<path d="M193.735 212.304H-9.83069V205.619H193.735V212.304Z" fill="#E8C080"/>
<path d="M139.423 141.276C140.183 141.276 140.796 141.889 140.796 142.636C140.796 143.383 140.183 143.996 139.423 143.996C138.676 143.996 138.063 143.383 138.063 142.636C138.063 141.889 138.676 141.276 139.423 141.276Z" fill="#E8C080"/>
<path d="M43.7027 141.276C44.4494 141.276 45.0627 141.889 45.0627 142.636C45.0627 143.383 44.4494 143.996 43.7027 143.996C42.9427 143.996 42.3293 143.383 42.3293 142.636C42.3293 141.889 42.9427 141.276 43.7027 141.276Z" fill="#E8C080"/>
<path d="M263.236 100.103V124.169H250.169L254.396 100.103H263.236Z" fill="#4D7591"/>
<path d="M263.236 168.091V224.409H235.916V204.731C236.009 204.543 236.089 204.343 236.129 204.117L242.463 168.091H263.236Z" fill="#4D7591"/>
<path d="M295.583 244.183V260.477H267.236V244.183H295.583Z" fill="#57B9D4"/>
<path d="M288.223 156.676V147.316C288.223 146.209 287.329 145.316 286.223 145.316C285.116 145.316 284.223 146.209 284.223 147.316V156.676C284.223 157.784 285.116 158.676 286.223 158.676C287.329 158.676 288.223 157.784 288.223 156.676ZM288.223 176.784V167.409C288.223 166.303 287.329 165.409 286.223 165.409C285.116 165.409 284.223 166.303 284.223 167.409V176.784C284.223 177.889 285.116 178.784 286.223 178.784C287.329 178.784 288.223 177.889 288.223 176.784ZM288.223 196.889V187.516C288.223 186.409 287.329 185.516 286.223 185.516C285.116 185.516 284.223 186.409 284.223 187.516V196.889C284.223 197.996 285.116 198.889 286.223 198.889C287.329 198.889 288.223 197.996 288.223 196.889ZM288.223 216.996V207.623C288.223 206.516 287.329 205.623 286.223 205.623C285.116 205.623 284.223 206.516 284.223 207.623V216.996C284.223 218.091 285.116 218.996 286.223 218.996C287.329 218.996 288.223 218.091 288.223 216.996ZM295.583 139.196V230.823H267.236V139.196H295.583Z" fill="#57B9D4"/>
<path d="M263.236 242.183V260.477H235.916V228.409H263.236V232.823V242.183Z" fill="#80A0AC"/>
<path d="M263.236 137.196V156.451H244.503L249.463 128.169H263.236V137.196Z" fill="#80A0AC"/>
<path d="M263.236 87.8107V96.1027H255.089L256.543 87.8107H263.236Z" fill="#80A0AC"/>
<path d="M231.916 256.076V260.477H195.129V119.623H231.916V124.569H211.329C210.223 124.569 209.329 125.463 209.329 126.569C209.329 127.676 210.223 128.569 211.329 128.569H231.916V135.196H211.329C210.223 135.196 209.329 136.091 209.329 137.196C209.329 138.303 210.223 139.196 211.329 139.196H231.916V145.823H211.329C210.223 145.823 209.329 146.716 209.329 147.823C209.329 148.929 210.223 149.823 211.329 149.823H231.916V156.451H211.329C210.223 156.451 209.329 157.343 209.329 158.451C209.329 159.556 210.223 160.451 211.329 160.451H231.916V167.076H211.329C210.223 167.076 209.329 167.969 209.329 169.076C209.329 170.183 210.223 171.076 211.329 171.076H231.916V177.704H211.329C210.223 177.704 209.329 178.596 209.329 179.704C209.329 180.811 210.223 181.704 211.329 181.704H231.916V188.329H211.329C210.223 188.329 209.329 189.223 209.329 190.329C209.329 191.424 210.223 192.329 211.329 192.329H231.916V198.956H211.329C210.223 198.956 209.329 199.849 209.329 200.956C209.329 202.049 210.223 202.956 211.329 202.956H231.916V209.569H211.329C210.223 209.569 209.329 210.477 209.329 211.569C209.329 212.676 210.223 213.569 211.329 213.569H231.916V220.196H211.329C210.223 220.196 209.329 221.103 209.329 222.196C209.329 223.303 210.223 224.196 211.329 224.196H231.916V230.823H211.329C210.223 230.823 209.329 231.716 209.329 232.823C209.329 233.929 210.223 234.823 211.329 234.823H231.916V241.451H211.329C210.223 241.451 209.329 242.343 209.329 243.451C209.329 244.556 210.223 245.451 211.329 245.451H231.916V252.076H211.329C210.223 252.076 209.329 252.969 209.329 254.076C209.329 255.183 210.223 256.076 211.329 256.076H231.916Z" fill="#C5EDEA"/>
<path d="M226.183 112.064V115.623H200.596V112.064H226.183Z" fill="#4D7591"/>
<path d="M116.489 53.1561C120.823 57.8227 122.796 63.2761 122.356 69.3561C121.716 78.0107 116.183 83.6627 110.676 89.0494C116.129 79.5427 117.903 70.5827 115.956 62.2894C114.223 54.9561 109.876 49.5027 105.743 45.784C109.569 47.436 113.463 49.8894 116.489 53.1561Z" fill="#E36C48"/>
<path d="M112.063 63.2494C114.303 72.7841 110.756 83.5694 101.569 95.3294C101.169 95.2761 100.783 95.2227 100.383 95.1694C107.409 71.3694 104.063 55.276 100.836 46.9294C105.049 50.196 110.276 55.5961 112.063 63.2494Z" fill="#C5EDEA"/>
<path d="M101.663 99.4227C100.369 101.596 99.4626 103.943 99.1426 106.583H95.8093H92.4626C92.1559 103.929 91.236 101.569 89.9426 99.3827C92.5026 98.9294 96.7426 98.516 101.663 99.4227Z" fill="#E8C080"/>
<path d="M97.436 117.956L97.196 119.543H94.4226L94.1693 117.956H95.8093H97.436Z" fill="#E8C080"/>
<path d="M95.7693 45.356C98.796 51.596 104.396 68.1827 96.3027 94.876C95.956 94.876 95.6226 94.876 95.2893 94.876C86.7693 68.2627 92.636 51.5827 95.7693 45.356Z" fill="#E36C48"/>
<path d="M91.1827 95.1561C90.7827 95.2094 90.396 95.2627 90.036 95.3174C80.8626 83.5561 77.316 72.7694 79.556 63.2494C81.316 55.7294 86.396 50.3694 90.5693 47.0894C87.2226 55.5028 83.836 71.5427 91.1827 95.1561Z" fill="#C5EDEA"/>
<path d="M85.076 46.1174C85.3427 45.996 85.596 45.8894 85.876 45.784C81.7427 49.5027 77.396 54.9561 75.6627 62.2894C73.716 70.5827 75.4893 79.5427 80.9427 89.0494C75.436 83.6627 69.9027 78.0107 69.2627 69.3561C68.8093 63.2761 70.7827 57.8227 75.116 53.1561C75.7827 52.4507 76.4893 51.7841 77.2227 51.1441C77.276 51.1027 77.3294 51.0494 77.3827 50.996C78.0894 50.396 78.8227 49.8361 79.5693 49.3027C79.6627 49.2361 79.7427 49.1694 79.836 49.1027C80.5693 48.5961 81.3293 48.1174 82.0893 47.6627C82.2093 47.6094 82.316 47.5427 82.4227 47.4774C83.1827 47.0361 83.9427 46.6507 84.716 46.276C84.836 46.2227 84.956 46.1694 85.076 46.1174Z" fill="#E36C48"/>
<path d="M295.583 260.476H267.236V244.183H295.583V260.476ZM267.236 139.196H295.583V230.823H267.236V139.196ZM263.236 96.1028H255.089L256.543 87.8094H263.236V96.1028ZM263.236 124.169H250.169L254.396 100.103H263.236V124.169ZM263.236 137.196V156.449H244.503L249.463 128.169H263.236V137.196ZM263.236 164.089H243.156L243.796 160.449H263.236V164.089ZM263.236 224.409H235.916V204.729C236.009 204.543 236.089 204.343 236.129 204.116L242.463 168.089H263.236V224.409ZM263.236 232.823V260.476H235.916V228.409H263.236V232.823ZM231.916 124.569H211.329C210.223 124.569 209.329 125.463 209.329 126.569C209.329 127.676 210.223 128.569 211.329 128.569H231.916V135.196H211.329C210.223 135.196 209.329 136.089 209.329 137.196C209.329 138.303 210.223 139.196 211.329 139.196H231.916V145.823H211.329C210.223 145.823 209.329 146.716 209.329 147.823C209.329 148.929 210.223 149.823 211.329 149.823H231.916V156.449H211.329C210.223 156.449 209.329 157.343 209.329 158.449C209.329 159.556 210.223 160.449 211.329 160.449H231.916V167.076H211.329C210.223 167.076 209.329 167.969 209.329 169.076C209.329 170.183 210.223 171.076 211.329 171.076H231.916V177.703H211.329C210.223 177.703 209.329 178.596 209.329 179.703C209.329 180.809 210.223 181.703 211.329 181.703H231.916V188.329H211.329C210.223 188.329 209.329 189.223 209.329 190.329C209.329 191.423 210.223 192.329 211.329 192.329H231.916V198.956H211.329C210.223 198.956 209.329 199.849 209.329 200.956C209.329 202.049 210.223 202.956 211.329 202.956H231.916V209.569H211.329C210.223 209.569 209.329 210.476 209.329 211.569C209.329 212.676 210.223 213.569 211.329 213.569H231.916V220.196H211.329C210.223 220.196 209.329 221.103 209.329 222.196C209.329 223.303 210.223 224.196 211.329 224.196H231.916V230.823H211.329C210.223 230.823 209.329 231.716 209.329 232.823C209.329 233.929 210.223 234.823 211.329 234.823H231.916V241.449H211.329C210.223 241.449 209.329 242.343 209.329 243.449C209.329 244.556 210.223 245.449 211.329 245.449H231.916V252.076H211.329C210.223 252.076 209.329 252.969 209.329 254.076C209.329 255.183 210.223 256.076 211.329 256.076H231.916V260.476H195.129V119.623H231.916V124.569ZM200.596 112.063H226.183V115.623H200.596V112.063ZM191.129 203.276H183.023V196.983C184.436 197.103 185.849 197.169 187.289 197.169H191.129V203.276ZM179.023 203.276H172.623V194.969C174.703 195.609 176.836 196.116 179.023 196.476V203.276ZM168.623 203.276H162.223V190.396C164.276 191.583 166.409 192.636 168.623 193.543V203.276ZM158.223 203.276H151.823V182.316C153.796 184.316 155.943 186.143 158.223 187.796V203.276ZM147.823 203.276H141.423V166.863C143.089 170.769 145.263 174.423 147.823 177.743V203.276ZM139.423 143.996C138.676 143.996 138.063 143.383 138.063 142.636C138.063 141.889 138.676 141.276 139.423 141.276C140.183 141.276 140.796 141.889 140.796 142.636C140.796 143.383 140.183 143.996 139.423 143.996ZM137.423 203.276H131.023V177.743C132.636 175.663 134.076 173.463 135.343 171.143C136.103 169.756 136.796 168.329 137.423 166.863V203.276ZM127.023 203.276H120.623V187.796C122.903 186.143 125.049 184.316 127.023 182.316V203.276ZM116.623 203.276H110.223V193.543C112.436 192.636 114.583 191.583 116.623 190.396V203.276ZM106.223 203.276H98.7027V196.649C101.276 196.289 103.796 195.716 106.223 194.969V203.276ZM94.7027 203.276H88.4227V197.063C89.4627 197.129 90.5027 197.169 91.556 197.169C92.6227 197.169 93.6627 197.129 94.7027 197.063V203.276ZM84.4227 203.276H76.9027V194.969C79.3293 195.716 81.8493 196.289 84.4227 196.649V203.276ZM72.9027 203.276H66.5027V190.396C68.5427 191.583 70.676 192.636 72.9027 193.529V203.276ZM62.5027 203.276H56.1027V182.316C58.0627 184.316 60.2094 186.143 62.5027 187.796V203.276ZM52.1027 203.276H45.7027V166.863C47.3694 170.769 49.5294 174.423 52.1027 177.743V203.276ZM43.7027 143.996C42.9427 143.996 42.3293 143.383 42.3293 142.636C42.3293 141.889 42.9427 141.276 43.7027 141.276C44.4493 141.276 45.0627 141.889 45.0627 142.636C45.0627 143.383 44.4493 143.996 43.7027 143.996ZM41.7027 203.276H35.3027V177.743C36.9027 175.663 38.3427 173.463 39.6094 171.143C40.3694 169.756 41.076 168.329 41.7027 166.863V203.276ZM31.3027 203.276H24.9027V187.796C27.1827 186.143 29.3293 184.316 31.3027 182.316V203.276ZM20.9027 203.276H14.5027V193.543C16.716 192.636 18.8493 191.583 20.9027 190.396V203.276ZM10.5027 203.276H4.08934V196.476C6.276 196.116 8.42268 195.609 10.5027 194.969V203.276ZM302.396 230.823H299.583V130.076C299.583 128.969 298.676 128.076 297.583 128.076C296.476 128.076 295.583 128.969 295.583 130.076V135.196H287.129V130.076C287.129 128.969 286.236 128.076 285.129 128.076C284.036 128.076 283.129 128.969 283.129 130.076V135.196H274.689V130.076C274.689 128.969 273.796 128.076 272.689 128.076C271.583 128.076 270.689 128.969 270.689 130.076V135.196H267.236V85.8094C267.236 84.7028 266.343 83.8094 265.236 83.8094H254.863C253.903 83.8094 253.063 84.5028 252.903 85.4628L235.916 182.236V117.623C235.916 116.516 235.023 115.623 233.916 115.623H230.183V110.063C230.183 108.956 229.289 108.063 228.183 108.063H215.396V90.1028C215.396 88.9961 214.503 88.1028 213.396 88.1028C212.289 88.1028 211.396 88.9961 211.396 90.1028V108.063H198.596C197.489 108.063 196.596 108.956 196.596 110.063V115.623H193.129C192.023 115.623 191.129 116.516 191.129 117.623V193.169H187.289C162.103 193.169 141.596 172.756 141.436 147.609C143.396 146.809 144.796 144.889 144.796 142.636C144.796 139.676 142.383 137.276 139.423 137.276C136.463 137.276 134.063 139.676 134.063 142.636C134.063 144.889 135.449 146.809 137.423 147.609C137.369 155.463 135.343 162.863 131.796 169.316C123.983 183.516 108.876 193.169 91.556 193.169C66.3693 193.169 45.8627 172.756 45.7027 147.609C47.6627 146.809 49.0627 144.889 49.0627 142.636C49.0627 139.676 46.6493 137.276 43.7027 137.276C40.7427 137.276 38.3293 139.676 38.3293 142.636C38.3293 144.889 39.7293 146.809 41.6893 147.609C41.636 155.463 39.6093 162.863 36.0627 169.316C28.2493 183.516 13.156 193.169 -4.16398 193.169H-8.84399C-9.95066 193.169 -10.844 194.076 -10.844 195.169C-10.844 196.276 -9.95066 197.169 -8.84399 197.169H-4.16398C-2.72398 197.169 -1.31066 197.103 0.0893383 196.983V203.276H-8.84399C-9.95066 203.276 -10.844 204.169 -10.844 205.276C-10.844 206.369 -9.95066 207.276 -8.84399 207.276H35.3027H131.023H191.129V211.129H-8.84399C-9.95066 211.129 -10.844 212.023 -10.844 213.129C-10.844 214.223 -9.95066 215.129 -8.84399 215.129H38.3293V262.476C38.3293 263.583 39.2227 264.476 40.3293 264.476C41.436 264.476 42.3293 263.583 42.3293 262.476V215.129H45.0627V262.476C45.0627 263.583 45.956 264.476 47.0627 264.476C48.1693 264.476 49.0627 263.583 49.0627 262.476V215.129H134.063V262.476C134.063 263.583 134.956 264.476 136.063 264.476C137.169 264.476 138.063 263.583 138.063 262.476V215.129H140.796V262.476C140.796 263.583 141.689 264.476 142.796 264.476C143.889 264.476 144.796 263.583 144.796 262.476V215.129H191.129V262.476C191.129 263.583 192.023 264.476 193.129 264.476H233.916H265.236H297.583C298.676 264.476 299.583 263.583 299.583 262.476V244.183H302.396C303.503 244.183 304.396 243.289 304.396 242.183V232.823C304.396 231.716 303.503 230.823 302.396 230.823Z" fill="#373D4C"/>
<path d="M286.223 205.623C285.116 205.623 284.223 206.516 284.223 207.623V216.996C284.223 218.089 285.116 218.996 286.223 218.996C287.329 218.996 288.223 218.089 288.223 216.996V207.623C288.223 206.516 287.329 205.623 286.223 205.623Z" fill="#373D4C"/>
<path d="M286.223 185.516C285.116 185.516 284.223 186.409 284.223 187.516V196.889C284.223 197.996 285.116 198.889 286.223 198.889C287.329 198.889 288.223 197.996 288.223 196.889V187.516C288.223 186.409 287.329 185.516 286.223 185.516Z" fill="#373D4C"/>
<path d="M286.223 165.409C285.116 165.409 284.223 166.303 284.223 167.409V176.783C284.223 177.889 285.116 178.783 286.223 178.783C287.329 178.783 288.223 177.889 288.223 176.783V167.409C288.223 166.303 287.329 165.409 286.223 165.409Z" fill="#373D4C"/>
<path d="M286.223 145.316C285.116 145.316 284.223 146.209 284.223 147.316V156.676C284.223 157.783 285.116 158.676 286.223 158.676C287.329 158.676 288.223 157.783 288.223 156.676V147.316C288.223 146.209 287.329 145.316 286.223 145.316Z" fill="#373D4C"/>
<path d="M281.409 94.3827H285.129C286.236 94.3827 287.129 93.4894 287.129 92.3827C287.129 91.2761 286.236 90.3827 285.129 90.3827H281.409C280.303 90.3827 279.409 91.2761 279.409 92.3827C279.409 93.4894 280.303 94.3827 281.409 94.3827Z" fill="#373D4C"/>
<path d="M236.489 67.0494C236.489 68.156 237.383 69.0494 238.489 69.0494H267.156C268.263 69.0494 269.156 68.156 269.156 67.0494C269.156 65.9427 268.263 65.0494 267.156 65.0494H238.489C237.383 65.0494 236.489 65.9427 236.489 67.0494Z" fill="#57B9D4"/>
<path d="M226.489 49.7161H238.489C239.596 49.7161 240.489 48.8228 240.489 47.7161C240.489 46.6095 239.596 45.7161 238.489 45.7161H226.489C225.383 45.7161 224.489 46.6095 224.489 47.7161C224.489 48.8228 225.383 49.7161 226.489 49.7161Z" fill="#373D4C"/>
<path d="M232.289 80.0494C231.183 80.0494 230.289 80.9427 230.289 82.0494C230.289 83.156 231.183 84.0494 232.289 84.0494H238.489C239.596 84.0494 240.489 83.156 240.489 82.0494C240.489 80.9427 239.596 80.0494 238.489 80.0494H232.289Z" fill="#C5EDEA"/>
<path d="M149.823 77.0494H176.929C178.036 77.0494 178.929 76.156 178.929 75.0494C178.929 73.9427 178.036 73.0494 176.929 73.0494H158.356C158.423 72.836 158.476 72.6227 158.476 72.3827C158.476 68.7827 161.409 65.8494 165.009 65.8494C167.103 65.8494 169.063 66.8627 170.289 68.5694C170.623 69.2227 171.289 69.6894 172.076 69.6894C173.183 69.6894 174.076 68.7961 174.076 67.6894C174.076 60.7961 179.689 55.1827 186.596 55.1827C193.489 55.1827 199.103 60.7961 199.103 67.6894C199.103 67.7827 199.116 67.8627 199.129 67.9561C199.089 68.5161 199.263 69.0894 199.689 69.516C200.476 70.2894 201.743 70.2894 202.516 69.516C203.516 68.516 204.836 67.9694 206.236 67.9694C209.129 67.9694 211.489 70.3294 211.489 73.2227C211.489 74.3294 212.383 75.2227 213.489 75.2227C214.596 75.2227 215.489 74.3294 215.489 73.2227C215.489 68.1294 211.343 63.9694 206.236 63.9694C205.036 63.9694 203.889 64.1961 202.809 64.6361C201.369 56.9841 194.649 51.1827 186.596 51.1827C178.929 51.1827 172.503 56.4227 170.636 63.5027C168.983 62.4494 167.036 61.8494 165.009 61.8494C159.196 61.8494 154.476 66.5827 154.476 72.3827C154.476 72.6227 154.529 72.836 154.596 73.0494H149.823C148.716 73.0494 147.823 73.9427 147.823 75.0494C147.823 76.156 148.716 77.0494 149.823 77.0494Z" fill="#57B9D4"/>
<path d="M185.223 86.0494C185.223 84.9427 184.329 84.0494 183.223 84.0494H160.223C159.116 84.0494 158.223 84.9427 158.223 86.0494C158.223 87.156 159.116 88.0494 160.223 88.0494H183.223C184.329 88.0494 185.223 87.156 185.223 86.0494Z" fill="#373D4C"/>
<path d="M178.036 240.183H170.183C169.076 240.183 168.183 241.076 168.183 242.183C168.183 243.289 169.076 244.183 170.183 244.183H178.036C179.143 244.183 180.036 243.289 180.036 242.183C180.036 241.076 179.143 240.183 178.036 240.183Z" fill="#373D4C"/>
<path d="M178.036 260.476H175.316C174.209 260.476 173.316 261.383 173.316 262.476C173.316 263.583 174.209 264.476 175.316 264.476H178.036C179.143 264.476 180.036 263.583 180.036 262.476C180.036 261.383 179.143 260.476 178.036 260.476Z" fill="#373D4C"/>
<path d="M161.783 142.303H172.076C173.183 142.303 174.076 141.409 174.076 140.303C174.076 139.196 173.183 138.303 172.076 138.303H161.783C160.676 138.303 159.783 139.196 159.783 140.303C159.783 141.409 160.676 142.303 161.783 142.303Z" fill="#57B9D4"/>
<path d="M169.236 251.183H160.223C159.116 251.183 158.223 252.089 158.223 253.183C158.223 254.289 159.116 255.183 160.223 255.183H169.236C170.343 255.183 171.236 254.289 171.236 253.183C171.236 252.089 170.343 251.183 169.236 251.183Z" fill="#373D4C"/>
<path d="M166.729 122.623C166.729 121.516 165.836 120.623 164.729 120.623H158.823C157.716 120.623 156.823 121.516 156.823 122.623C156.823 123.716 157.716 124.623 158.823 124.623H164.729C165.836 124.623 166.729 123.716 166.729 122.623Z" fill="#57B9D4"/>
<path d="M154.196 240.183H149.823C148.716 240.183 147.823 241.076 147.823 242.183C147.823 243.289 148.716 244.183 149.823 244.183H154.196C155.289 244.183 156.196 243.289 156.196 242.183C156.196 241.076 155.289 240.183 154.196 240.183Z" fill="#373D4C"/>
<path d="M133.023 47.3828H140.063C141.169 47.3828 142.063 46.4894 142.063 45.3828C142.063 44.2761 141.169 43.3828 140.063 43.3828H133.023C131.916 43.3828 131.023 44.2761 131.023 45.3828C131.023 46.4894 131.916 47.3828 133.023 47.3828Z" fill="#57B9D4"/>
<path d="M75.1159 53.1561C75.7826 52.4494 76.4893 51.7827 77.2226 51.1427C77.2759 51.1027 77.3293 51.0494 77.3826 50.996C78.0893 50.396 78.8226 49.8361 79.5693 49.3027C79.6626 49.2361 79.7426 49.1694 79.8359 49.1027C80.5693 48.5961 81.3293 48.116 82.0893 47.6627C82.2093 47.6094 82.3159 47.5427 82.4226 47.4761C83.1826 47.0361 83.9426 46.6507 84.7159 46.2761C84.8359 46.2227 84.9559 46.1694 85.0759 46.1161C85.3426 45.9961 85.5959 45.8894 85.8759 45.7828C81.7426 49.5028 77.3959 54.9561 75.6626 62.2894C73.7159 70.5827 75.4893 79.5427 80.9426 89.0494C75.4359 83.6627 69.9026 78.0107 69.2626 69.3561C68.8093 63.2761 70.7826 57.8227 75.1159 53.1561ZM90.5693 47.0894C87.2226 55.5027 83.8359 71.5427 91.1826 95.1561C90.7826 95.2094 90.3959 95.2627 90.0359 95.3174C80.8626 83.5561 77.3159 72.7694 79.5559 63.2494C81.3159 55.7294 86.3959 50.3694 90.5693 47.0894ZM95.7693 45.3561C98.7959 51.5961 104.396 68.1827 96.3026 94.8761C95.9559 94.8761 95.6226 94.8761 95.2893 94.8761C86.7693 68.2627 92.6359 51.5827 95.7693 45.3561ZM112.063 63.2494C114.303 72.7827 110.756 83.5694 101.569 95.3294C101.169 95.2761 100.783 95.2227 100.383 95.1694C107.409 71.3694 104.063 55.276 100.836 46.9294C105.049 50.196 110.276 55.5961 112.063 63.2494ZM116.489 53.1561C120.823 57.8227 122.796 63.2761 122.356 69.3561C121.716 78.0107 116.183 83.6627 110.676 89.0494C116.129 79.5427 117.903 70.5827 115.956 62.2894C114.223 54.9561 109.876 49.5028 105.743 45.7828C109.569 47.4361 113.463 49.8894 116.489 53.1561ZM99.1426 106.583H92.4626C92.1559 103.929 91.2359 101.569 89.9426 99.3827C92.5026 98.9294 96.7426 98.5161 101.663 99.4227C100.369 101.596 99.4626 103.943 99.1426 106.583ZM94.3693 110.583H97.2359L96.4359 113.956H95.1693L94.3693 110.583ZM97.1959 119.543H94.4226L94.1693 117.956H97.4359L97.1959 119.543ZM78.6226 92.3827C81.0493 94.7427 83.3026 96.9694 85.0626 99.2894C85.0759 99.3027 85.0893 99.3174 85.1026 99.3441C87.2093 102.129 88.5826 105.063 88.5826 108.583C88.5826 109.569 89.3026 110.383 90.2493 110.543L91.1026 114.103C90.8093 114.223 90.5426 114.409 90.3293 114.649C89.9426 115.089 89.7826 115.676 89.8626 116.249L90.7293 121.849C90.8759 122.823 91.7159 123.543 92.7026 123.543H95.8093H98.9159C99.9026 123.543 100.743 122.823 100.889 121.849L101.743 116.249C101.836 115.676 101.663 115.089 101.289 114.649C101.076 114.409 100.809 114.223 100.516 114.103L101.356 110.543C102.303 110.383 103.036 109.569 103.036 108.583C103.036 105.076 104.396 102.156 106.489 99.3827C106.503 99.3561 106.516 99.3294 106.543 99.3027C108.303 96.9841 110.569 94.7561 112.983 92.3827C118.889 86.6094 125.583 80.0627 126.343 69.6361C126.863 62.5161 124.476 55.8761 119.423 50.4361C112.703 43.1961 102.516 39.3961 95.8893 39.3694C89.0893 39.4094 78.9159 43.1961 72.1959 50.4361C67.1426 55.8761 64.7426 62.5161 65.2759 69.6361C66.0359 80.0627 72.7293 86.6094 78.6226 92.3827Z" fill="#373D4C"/>
<path d="M116.716 250.276H113.276C112.169 250.276 111.276 251.169 111.276 252.276C111.276 253.369 112.169 254.276 113.276 254.276H116.716C117.809 254.276 118.716 253.369 118.716 252.276C118.716 251.169 117.809 250.276 116.716 250.276Z" fill="#373D4C"/>
<path d="M103.409 240.183H89.4093C88.316 240.183 87.4093 241.076 87.4093 242.183C87.4093 243.289 88.316 244.183 89.4093 244.183H103.409C104.516 244.183 105.409 243.289 105.409 242.183C105.409 241.076 104.516 240.183 103.409 240.183Z" fill="#373D4C"/>
<path d="M102.036 260.476H96.756C95.6493 260.476 94.756 261.383 94.756 262.476C94.756 263.583 95.6493 264.476 96.756 264.476H102.036C103.129 264.476 104.036 263.583 104.036 262.476C104.036 261.383 103.129 260.476 102.036 260.476Z" fill="#373D4C"/>
<path d="M93.8226 155.156H86.4226C85.3159 155.156 84.4226 156.049 84.4226 157.156C84.4226 158.263 85.3159 159.156 86.4226 159.156H93.8226C94.9293 159.156 95.8226 158.263 95.8226 157.156C95.8226 156.049 94.9293 155.156 93.8226 155.156Z" fill="#C5EDEA"/>
<path d="M89.4093 250.276H66.0226C64.916 250.276 64.0226 251.169 64.0226 252.276C64.0226 253.369 64.916 254.276 66.0226 254.276H89.4093C90.516 254.276 91.4093 253.369 91.4093 252.276C91.4093 251.169 90.516 250.276 89.4093 250.276Z" fill="#373D4C"/>
<path d="M38.3026 122.316C37.1959 122.316 36.3026 123.223 36.3026 124.316C36.3026 125.423 37.1959 126.316 38.3026 126.316H73.3026C74.4093 126.316 75.3026 125.423 75.3026 124.316C75.3026 123.223 74.4093 122.316 73.3026 122.316H38.3026Z" fill="#57B9D4"/>
<path d="M-1.51068 113.156C-0.404015 113.156 0.489319 112.263 0.489319 111.156C0.489319 107.556 3.40932 104.623 7.02265 104.623C9.11598 104.623 11.076 105.636 12.3027 107.329C12.6227 107.996 13.3027 108.449 14.0893 108.449C15.196 108.449 16.0893 107.556 16.0893 106.449C16.0893 99.5561 21.7027 93.9427 28.596 93.9427C35.5027 93.9427 41.116 99.5561 41.116 106.449C41.116 106.543 41.1293 106.636 41.1427 106.729C41.1027 107.289 41.276 107.849 41.7027 108.276C42.476 109.063 43.7427 109.063 44.5293 108.276C45.516 107.289 46.836 106.743 48.2493 106.743C51.1427 106.743 53.5027 109.103 53.5027 111.996C53.5027 112.209 53.5427 112.423 53.6093 112.609H49.3027C48.196 112.609 47.3027 113.516 47.3027 114.609C47.3027 115.716 48.196 116.609 49.3027 116.609H67.9293C69.036 116.609 69.9293 115.716 69.9293 114.609C69.9293 113.516 69.036 112.609 67.9293 112.609H57.396C57.4627 112.423 57.5027 112.209 57.5027 111.996C57.5027 106.889 53.3427 102.743 48.2493 102.743C47.0493 102.743 45.8893 102.969 44.8227 103.396C43.3826 95.7561 36.6627 89.9427 28.596 89.9427C20.9427 89.9427 14.5027 95.1961 12.6493 102.276C10.9827 101.223 9.04932 100.623 7.02265 100.623C1.20932 100.623 -3.51068 105.344 -3.51068 111.156C-3.51068 112.263 -2.61735 113.156 -1.51068 113.156Z" fill="#57B9D4"/>
<path d="M68.0226 242.183C68.0226 241.076 67.1293 240.183 66.0226 240.183H57.5293C56.4226 240.183 55.5293 241.076 55.5293 242.183C55.5293 243.289 56.4226 244.183 57.5293 244.183H66.0226C67.1293 244.183 68.0226 243.289 68.0226 242.183Z" fill="#373D4C"/>
<path d="M64.5026 260.476H63.1426C62.036 260.476 61.1426 261.383 61.1426 262.476C61.1426 263.583 62.036 264.476 63.1426 264.476H64.5026C65.596 264.476 66.5026 263.583 66.5026 262.476C66.5026 261.383 65.596 260.476 64.5026 260.476Z" fill="#373D4C"/>
<path d="M35.3026 65.9694C35.3026 67.0761 36.1959 67.9694 37.3026 67.9694H43.7026C44.7959 67.9694 45.7026 67.0761 45.7026 65.9694C45.7026 64.8628 44.7959 63.9694 43.7026 63.9694H37.3026C36.1959 63.9694 35.3026 64.8628 35.3026 65.9694Z" fill="#373D4C"/>
<path d="M21.716 55.1827H35.8226C36.9293 55.1827 37.8226 54.2761 37.8226 53.1827C37.8226 52.0761 36.9293 51.1828 35.8226 51.1828H21.716C20.6093 51.1828 19.716 52.0761 19.716 53.1827C19.716 54.2761 20.6093 55.1827 21.716 55.1827Z" fill="#C5EDEA"/>
<path d="M30.9293 240.183H12.5027C11.396 240.183 10.5027 241.076 10.5027 242.183C10.5027 243.289 11.396 244.183 12.5027 244.183H30.9293C32.0227 244.183 32.9293 243.289 32.9293 242.183C32.9293 241.076 32.0227 240.183 30.9293 240.183Z" fill="#373D4C"/>
<path d="M27.4893 260.476H22.9026C21.796 260.476 20.9026 261.383 20.9026 262.476C20.9026 263.583 21.796 264.476 22.9026 264.476H27.4893C28.5826 264.476 29.4893 263.583 29.4893 262.476C29.4893 261.383 28.5826 260.476 27.4893 260.476Z" fill="#373D4C"/>
<path d="M6.28931 157.996C5.18264 157.996 4.28931 158.889 4.28931 159.996C4.28931 161.103 5.18264 161.996 6.28931 161.996H17.4226C18.5293 161.996 19.4226 161.103 19.4226 159.996C19.4226 158.889 18.5293 157.996 17.4226 157.996H6.28931Z" fill="#57B9D4"/>
<path d="M12.5026 251.183H-2.11072C-3.21738 251.183 -4.11072 252.089 -4.11072 253.183C-4.11072 254.289 -3.21738 255.183 -2.11072 255.183H12.5026C13.596 255.183 14.5026 254.289 14.5026 253.183C14.5026 252.089 13.596 251.183 12.5026 251.183Z" fill="#373D4C"/>
<path d="M-6.84399 146.676H9.82267C10.9293 146.676 11.8227 145.783 11.8227 144.676C11.8227 143.583 10.9293 142.676 9.82267 142.676H-6.84399C-7.95066 142.676 -8.84399 143.583 -8.84399 144.676C-8.84399 145.783 -7.95066 146.676 -6.84399 146.676Z" fill="#373D4C"/>
</g>
</svg>
