<svg width="288" height="288" viewBox="0 0 288 288" fill="none" xmlns="http://www.w3.org/2000/svg">
<mask id="mask0_221:13943" style="mask-type:alpha" maskUnits="userSpaceOnUse" x="0" y="0" width="288" height="288">
<circle cx="144" cy="144" r="144" fill="#C4C4C4"/>
</mask>
<g mask="url(#mask0_221:13943)">
<path d="M1682.87 329.449H-1053V-290H1682.87V329.449Z" fill="#FFFEFA"/>
<path d="M16.1693 163.388V262.044H156.111L271.836 199.689V108.799H111.363L16.1693 163.388Z" fill="#C5EDEA"/>
<path d="M75.5026 217.792L81.1692 227.388H144.325L148.28 218.5L75.5026 217.792Z" fill="#FFFEFA"/>
<path d="M271.836 262.149H155.884C155.884 262.149 174.04 236.088 211.272 217.793C248.503 199.5 271.836 204.256 271.836 204.256V262.149Z" fill="#CCE294"/>
<path d="M15.8359 71.3934V163.5H181.36C181.36 163.5 115.503 84.452 15.8359 71.3934Z" fill="#CCE294"/>
<path d="M206.549 69.424L233.503 49.6187L272.729 96.5V108.799H259.169L206.549 69.424Z" fill="#80A0AC"/>
<path d="M272.729 96.5V77L244.169 57.6187V61.1667L272.729 96.5Z" fill="#4D7591"/>
<path d="M105.796 62.7134C106.303 62.7134 106.809 62.6853 107.316 62.6453C105.369 63.512 103.223 63.9933 100.983 63.9933C92.4493 63.9933 85.5026 56.9933 85.5026 48.4053C85.5026 42.232 89.0893 36.912 94.2493 34.38C91.276 37.4187 89.4359 41.6187 89.4359 46.2587C89.4359 55.3267 96.7693 62.7134 105.796 62.7134Z" fill="#E8DECF"/>
<path d="M206.543 45.5387C207.129 46.312 207.809 46.9934 208.583 47.5787C207.809 48.1534 207.129 48.8454 206.543 49.6187C205.969 48.8454 205.289 48.1534 204.516 47.5787C205.289 46.9934 205.969 46.312 206.543 45.5387Z" fill="#E8C080"/>
<path d="M152.916 36.5534C153.716 37.7134 154.716 38.7267 155.889 39.5254C154.716 40.3267 153.716 41.3387 152.916 42.512C152.116 41.3387 151.116 40.3267 149.943 39.5254C151.116 38.7267 152.116 37.7134 152.916 36.5534Z" fill="#E8C080"/>
<path d="M46.6226 54.472C47.1959 55.2454 47.876 55.94 48.6493 56.512C47.876 57.1 47.1959 57.78 46.6226 58.5534C46.0359 57.78 45.356 57.1 44.5826 56.512C45.356 55.94 46.0359 55.2454 46.6226 54.472Z" fill="#E8C080"/>
<path d="M255.209 175.912V171.472C255.209 170.365 254.316 169.472 253.209 169.472C252.103 169.472 251.209 170.365 251.209 171.472V175.912C251.209 177.019 252.103 177.912 253.209 177.912C254.316 177.912 255.209 177.019 255.209 175.912ZM268.129 180.925C270.076 193.273 268.836 202.459 264.529 207.5C262.289 210.113 259.196 211.607 255.343 211.993V182.592C255.343 181.487 254.436 180.592 253.343 180.592C252.236 180.592 251.343 181.487 251.343 182.592V212.005C247.409 211.645 244.289 210.138 242.023 207.5C237.716 202.459 236.476 193.273 238.423 180.925C241.423 161.952 249.129 156.887 253.209 156.887C253.289 156.887 253.316 156.887 253.343 156.887C257.423 156.887 265.129 161.952 268.129 180.925Z" fill="#A0D7A0"/>
<path d="M254.463 106.179H235.436C235.409 106.153 233.076 103.525 233.076 103.525L202.023 68.5787L204.329 70.232L254.463 106.179Z" fill="#4D7591"/>
<path d="M188.343 59.192L230.089 106.179H163.329C162.636 103.952 161.849 101.993 160.983 100.273C157.263 92.7921 152.276 89.8587 148.209 89.8587C143.089 89.8587 136.703 94.312 132.983 106.179H113.289C109.116 103.833 104.969 101.632 100.876 99.5534C97.2227 97.6854 93.6226 95.9254 90.0626 94.2587L146.129 71.8334L160.156 78.38C160.823 78.6854 161.596 78.6067 162.183 78.1787L188.343 59.192Z" fill="#80A0AC"/>
<path d="M223.516 220.393C227.956 228.433 229.249 231.525 229.623 232.685C227.943 233.952 222.783 236.899 211.276 236.899C199.769 236.899 194.609 233.952 192.929 232.685C193.289 231.554 194.569 228.459 199.023 220.393C202.089 221.205 206.089 221.792 211.276 221.792C216.463 221.792 220.463 221.205 223.516 220.393Z" fill="#B4D452"/>
<path d="M221.756 200.5C226.689 209.326 228.116 212.645 228.516 213.872C226.889 215.085 222.023 217.792 211.276 217.792C200.516 217.792 195.663 215.085 194.023 213.872C194.423 212.645 195.849 209.312 200.796 200.5C203.463 201.113 206.889 201.566 211.276 201.566C215.649 201.566 219.076 201.113 221.756 200.5Z" fill="#B4D452"/>
<path d="M226.303 194.512C224.676 195.553 220.369 197.565 211.276 197.565C206.703 197.565 203.343 197.06 200.929 196.419C200.889 196.405 200.863 196.38 200.836 196.352C200.516 196.179 200.169 196.1 199.836 196.1C198.063 195.553 196.916 194.952 196.236 194.512C197.569 191.125 204.383 179.899 211.276 169.273C218.169 179.899 224.969 191.125 226.303 194.512Z" fill="#B4D452"/>
<path d="M150.103 110.805V106.792C150.103 105.699 149.209 104.792 148.103 104.792C146.996 104.792 146.103 105.699 146.103 106.792V110.805C146.103 111.912 146.996 112.805 148.103 112.805C149.209 112.805 150.103 111.912 150.103 110.805ZM161.343 115.352C163.089 126.419 161.983 134.632 158.143 139.139C156.209 141.405 153.543 142.713 150.209 143.085V116.82C150.209 115.713 149.316 114.82 148.209 114.82C147.103 114.82 146.209 115.713 146.209 116.82V143.1C142.836 142.752 140.129 141.419 138.169 139.139C134.329 134.632 133.223 126.419 134.969 115.352C137.649 98.3934 144.489 93.8587 148.103 93.8587C150.583 93.8587 154.343 95.8054 157.409 101.952C158.716 104.579 159.903 107.979 160.796 112.312C160.996 113.285 161.183 114.285 161.343 115.352Z" fill="#A0D7A0"/>
<path d="M151.169 209.245L147.423 216.179H76.0625L71.5559 209.245H151.169Z" fill="#E36C48"/>
<path d="M124.969 152.979L135.449 194.139H124.969V152.979Z" fill="#E8DECF"/>
<path d="M92.9692 140.979L108.529 194.139H92.9692V140.979Z" fill="#E8DECF"/>
<path d="M88.9693 136.767V194.139H64.396L88.9693 136.767Z" fill="#FFFEFA"/>
<path d="M48.5692 139.66C52.3959 146.592 53.5959 149.393 53.9692 150.487C52.3559 151.645 47.7293 154.167 37.6093 154.167C27.4759 154.167 22.8493 151.645 21.236 150.487C21.6093 149.393 22.8093 146.592 26.636 139.66C29.396 140.38 32.9826 140.899 37.6093 140.899C42.2226 140.899 45.8092 140.38 48.5692 139.66Z" fill="#B4D452"/>
<path d="M46.9826 121.672C51.236 129.273 52.5692 132.299 52.9692 133.472C51.4226 134.579 47.0493 136.899 37.6093 136.899C28.1559 136.899 23.7826 134.579 22.236 133.472C22.636 132.299 23.9693 129.285 28.2226 121.672C30.6359 122.22 33.7026 122.607 37.6093 122.607C41.5026 122.607 44.5693 122.22 46.9826 121.672Z" fill="#B4D452"/>
<path d="M50.9559 115.965C49.4226 116.912 45.5559 118.607 37.6092 118.607C33.5026 118.607 30.5026 118.153 28.3293 117.592C28.3026 117.579 28.2893 117.553 28.2626 117.539C27.9559 117.365 27.6092 117.285 27.2892 117.285C25.8359 116.833 24.8626 116.339 24.2493 115.965C25.5559 112.792 31.5292 102.94 37.6092 93.5787C43.6759 102.94 49.6492 112.792 50.9559 115.965Z" fill="#B4D452"/>
<path d="M235.436 106.179C235.409 106.152 233.076 103.525 233.076 103.525L202.023 68.5787L204.329 70.2321L254.463 106.179H235.436ZM163.329 106.179C162.636 103.952 161.849 101.993 160.983 100.273C157.263 92.7921 152.276 89.8587 148.209 89.8587C143.089 89.8587 136.703 94.3121 132.983 106.179H113.289C109.116 103.833 104.969 101.632 100.876 99.5534C97.2227 97.6854 93.6226 95.9254 90.0626 94.2587L146.129 71.8334L160.156 78.3787C160.823 78.6854 161.596 78.6067 162.183 78.1787L188.343 59.192L230.089 106.179H163.329ZM161.343 115.352C163.089 126.419 161.983 134.632 158.143 139.139C156.209 141.405 153.543 142.712 150.209 143.085V116.819C150.209 115.712 149.316 114.819 148.209 114.819C147.103 114.819 146.209 115.712 146.209 116.819V143.099C142.836 142.752 140.129 141.419 138.169 139.139C134.329 134.632 133.223 126.419 134.969 115.352C137.649 98.3934 144.489 93.8587 148.103 93.8587C150.583 93.8587 154.343 95.8054 157.409 101.952C158.716 104.579 159.903 107.979 160.796 112.312C160.996 113.285 161.183 114.285 161.343 115.352ZM178.476 161.205H150.103V147.125C153.916 146.819 157.116 145.512 159.663 143.259C166.316 148.993 172.636 155.005 178.476 161.205ZM131.023 114.727C130.916 115.393 130.823 116.045 130.729 116.685C127.236 114.419 123.729 112.259 120.223 110.179H131.916C131.583 111.619 131.276 113.113 131.023 114.727ZM135.449 194.139H124.969V152.979L135.449 194.139ZM120.969 205.245H92.9692V198.138H111.196C111.823 198.138 112.423 197.845 112.796 197.338C113.169 196.833 113.289 196.179 113.116 195.579L104.223 165.205H120.969V198.138V205.245ZM151.169 209.245L147.423 216.179H76.0626L71.556 209.245H151.169ZM64.3959 194.139L88.9692 136.765V194.139H64.3959ZM92.9692 140.979L108.529 194.139H92.9692V140.979ZM21.236 150.485C21.6093 149.393 22.8093 146.592 26.636 139.66C29.396 140.379 32.9826 140.899 37.6093 140.899C42.2226 140.899 45.8092 140.379 48.5692 139.66C52.3959 146.592 53.5959 149.393 53.9692 150.485C52.3559 151.645 47.7293 154.167 37.6093 154.167C27.476 154.167 22.8493 151.645 21.236 150.485ZM22.236 133.472C22.636 132.299 23.9693 129.285 28.2226 121.672C30.636 122.22 33.7026 122.607 37.6093 122.607C41.5026 122.607 44.5693 122.22 46.9827 121.672C51.236 129.273 52.5692 132.299 52.9692 133.472C51.4226 134.579 47.0493 136.899 37.6093 136.899C28.156 136.899 23.7826 134.579 22.236 133.472ZM24.2493 115.965C25.556 112.792 31.5293 102.94 37.6093 93.5787C43.676 102.94 49.6493 112.792 50.956 115.965C49.4226 116.912 45.556 118.607 37.6093 118.607C33.5026 118.607 30.5027 118.152 28.3293 117.592C28.3027 117.579 28.2893 117.553 28.2627 117.539C27.956 117.365 27.6093 117.285 27.2893 117.285C25.836 116.833 24.8627 116.339 24.2493 115.965ZM272.129 106.179H261.223C261.116 106.06 261.009 105.952 260.876 105.845L210.103 69.4467L233.863 52.4054L270.583 97.5121C270.983 97.9934 271.556 98.2454 272.129 98.2454C272.583 98.2454 273.023 98.0987 273.396 97.7921C274.249 97.0987 274.383 95.8454 273.689 94.9787L245.423 60.2587L270.969 78.5787C271.863 79.22 273.116 79.0187 273.756 78.1254C274.396 77.22 274.196 75.9654 273.303 75.3267L235.583 48.2854C235.156 47.9934 234.663 47.8721 234.169 47.94C233.689 47.8721 233.183 47.9787 232.743 48.2854L206.663 66.9934L189.823 54.912C189.609 54.7654 189.449 54.6854 189.276 54.6321C189.249 54.6187 189.223 54.6067 189.196 54.6067C189.023 54.5534 188.836 54.5254 188.663 54.5254C188.623 54.5254 188.596 54.5254 188.556 54.5254C188.383 54.5254 188.209 54.5534 188.036 54.6067C187.836 54.672 187.663 54.7654 187.516 54.8721C187.489 54.8867 187.476 54.8867 187.449 54.8987L160.783 74.2454L147.036 67.8454C146.543 67.6067 145.969 67.5921 145.449 67.8054L85.2893 91.8587C85.2093 91.8867 85.156 91.94 85.076 91.9654C47.356 74.9934 17.316 68.9787 16.9026 68.8867C15.836 68.6854 14.7693 69.3934 14.556 70.4721C14.3426 71.5534 15.0493 72.6067 16.1426 72.8187C16.6093 72.8987 54.836 80.5654 99.076 103.099C109.289 108.299 119.823 114.299 130.276 121.167C129.663 130.339 131.289 137.232 135.129 141.739C137.849 144.912 141.529 146.727 146.103 147.125V161.205H131.609C131.463 161.205 131.329 161.22 131.209 161.245L124.916 136.525C124.663 135.553 123.716 134.912 122.729 135.045C121.729 135.167 120.969 136.019 120.969 137.019V161.205H103.143C103.116 161.205 103.089 161.205 103.063 161.22L92.8893 126.459C92.756 126.045 92.5426 125.739 92.2626 125.5C92.2359 125.472 92.2092 125.459 92.1692 125.432C92.0359 125.327 91.876 125.232 91.716 125.167C91.6893 125.152 91.676 125.152 91.6493 125.139C91.4893 125.085 91.3293 125.06 91.156 125.045C91.1426 125.032 91.116 125.019 91.0893 125.019C91.0226 125.032 90.9959 125.019 90.9692 125.019C90.8092 125.019 90.6493 125.045 90.4893 125.085C90.276 125.139 90.1027 125.22 89.9427 125.312C89.756 125.419 89.6226 125.553 89.4893 125.685C89.476 125.712 89.4492 125.727 89.4359 125.752C89.3159 125.899 89.2093 126.045 89.1427 126.22C89.1293 126.245 74.1427 161.22 74.1427 161.22C74.1027 161.22 74.0626 161.205 74.0226 161.205H39.6093V158.125C51.5294 157.739 56.2493 153.965 57.4493 152.765C58.7027 151.525 58.996 150.312 52.4093 138.339C54.7027 137.327 55.9426 136.285 56.4626 135.752C57.6359 134.592 58.356 133.859 50.8893 120.459C52.9026 119.619 54.0093 118.752 54.476 118.312C55.8627 117.019 57.0627 115.912 39.276 88.8187C39.2227 88.7267 39.156 88.66 39.0893 88.5921C39.0626 88.5654 39.0493 88.5254 39.0226 88.5001C38.9026 88.3934 38.8093 88.3121 38.7026 88.2454C38.676 88.2321 38.6493 88.2201 38.636 88.2054C38.5426 88.1521 38.4493 88.0987 38.356 88.06C38.3026 88.0454 38.236 88.0321 38.1827 88.0054C38.116 87.9934 38.0493 87.9654 37.9827 87.9521C37.916 87.9401 37.8493 87.94 37.7827 87.9254C37.7293 87.9254 37.6626 87.912 37.6093 87.912C37.5426 87.912 37.476 87.9254 37.4226 87.9254C37.356 87.94 37.2893 87.9401 37.2226 87.9521C37.156 87.9654 37.0893 87.9934 37.036 88.0054C36.9693 88.0321 36.9027 88.0454 36.8493 88.06C36.756 88.0987 36.6626 88.1521 36.5693 88.2054C36.556 88.2201 36.5293 88.2321 36.5026 88.2454C36.396 88.3121 36.3026 88.3934 36.2226 88.4721C36.1693 88.5254 36.1427 88.5654 36.116 88.5921C36.0493 88.66 35.9827 88.7267 35.9293 88.8054C18.1427 115.912 19.3427 117.019 20.7293 118.312C21.196 118.752 22.3027 119.619 24.316 120.459C16.8493 133.859 17.5693 134.592 18.7426 135.752C19.2626 136.285 20.5027 137.327 22.796 138.339C16.2093 150.312 16.5026 151.512 17.756 152.765C18.956 153.965 23.676 157.739 35.6093 158.125V161.205H16.516C15.4093 161.205 14.516 162.099 14.516 163.205C14.516 164.312 15.4093 165.205 16.516 165.205H72.4359L59.516 195.352C59.2627 195.965 59.316 196.672 59.6893 197.232C60.0626 197.792 60.6893 198.138 61.356 198.138H88.9692V205.245H67.8626C67.1293 205.245 66.4492 205.645 66.1026 206.299C65.7559 206.94 65.7827 207.726 66.1827 208.338L77.276 225.352H63.2493C62.1427 225.352 61.2493 226.259 61.2493 227.352C61.2493 228.459 62.1427 229.352 63.2493 229.352H102.089C103.183 229.352 104.089 228.459 104.089 227.352C104.089 226.259 103.183 225.352 102.089 225.352H82.0493L78.676 220.179H145.249L142.743 224.805H124.476C123.369 224.805 122.476 225.699 122.476 226.805C122.476 227.912 123.369 228.805 124.476 228.805H153.583C154.689 228.805 155.583 227.912 155.583 226.805C155.583 225.699 154.689 224.805 153.583 224.805H147.303L156.289 208.205C156.623 207.579 156.609 206.833 156.249 206.22C155.889 205.619 155.236 205.245 154.529 205.245H124.969V198.138H138.023C138.649 198.138 139.223 197.845 139.609 197.366C139.983 196.872 140.116 196.245 139.969 195.645L132.209 165.205H183.049C183.836 165.205 184.556 164.739 184.876 164.019C185.196 163.299 185.063 162.447 184.529 161.859C177.743 154.379 170.263 147.113 162.289 140.259C166.076 134.672 167.089 126.113 165.289 114.727C165.116 113.592 164.903 112.512 164.676 111.485C164.596 111.045 164.489 110.607 164.396 110.179H272.129C273.236 110.179 274.129 109.285 274.129 108.179C274.129 107.072 273.236 106.179 272.129 106.179Z" fill="#373D4C"/>
<path d="M272.129 141.619H262.356C261.249 141.619 260.356 142.525 260.356 143.619C260.356 144.727 261.249 145.619 262.356 145.619H272.129C273.236 145.619 274.129 144.727 274.129 143.619C274.129 142.525 273.236 141.619 272.129 141.619Z" fill="#57B9D4"/>
<path d="M199.023 220.393C202.089 221.205 206.089 221.792 211.276 221.792C216.463 221.792 220.463 221.205 223.516 220.393C227.956 228.432 229.249 231.525 229.623 232.685C227.943 233.952 222.783 236.899 211.276 236.899C199.769 236.899 194.609 233.952 192.929 232.685C193.289 231.554 194.569 228.459 199.023 220.393ZM194.023 213.872C194.423 212.645 195.849 209.312 200.796 200.5C203.463 201.113 206.889 201.566 211.276 201.566C215.649 201.566 219.076 201.113 221.756 200.5C226.689 209.326 228.116 212.645 228.516 213.872C226.889 215.085 222.023 217.792 211.276 217.792C200.516 217.792 195.663 215.085 194.023 213.872ZM196.236 194.512C197.569 191.125 204.383 179.899 211.276 169.273C218.169 179.899 224.969 191.125 226.303 194.512C224.676 195.553 220.369 197.566 211.276 197.566C206.703 197.566 203.343 197.06 200.929 196.419C200.889 196.405 200.863 196.379 200.836 196.352C200.516 196.179 200.169 196.099 199.836 196.099C198.063 195.553 196.916 194.952 196.236 194.512ZM238.423 180.925C241.423 161.952 249.129 156.887 253.209 156.887C257.423 156.887 265.129 161.952 268.129 180.925C270.076 193.273 268.836 202.459 264.529 207.5C262.289 210.113 259.196 211.607 255.343 211.993V182.592C255.343 181.485 254.436 180.592 253.343 180.592C252.236 180.592 251.343 181.485 251.343 182.592V212.005C247.409 211.645 244.289 210.138 242.023 207.5C237.716 202.459 236.476 193.273 238.423 180.925ZM272.129 260.152H159.303C163.849 254.819 174.143 243.672 188.743 233.125C188.649 234.167 189.036 234.554 189.476 234.993C190.783 236.312 196.023 240.472 209.276 240.859V246.352C209.276 246.592 209.316 246.819 209.396 247.019H201.023C199.929 247.019 199.023 247.925 199.023 249.019C199.023 250.125 199.929 251.019 201.023 251.019H217.809C218.903 251.019 219.809 250.125 219.809 249.019C219.809 247.925 218.903 247.019 217.809 247.019H213.143C213.223 246.819 213.276 246.592 213.276 246.352V240.859C226.543 240.472 231.756 236.312 233.076 234.993C234.249 233.819 235.036 233.019 227.356 219.085C229.983 217.952 231.396 216.766 231.983 216.179C232.649 215.512 233.196 214.966 232.076 211.979C234.383 211.312 236.703 210.685 239.023 210.138C242.036 213.645 246.129 215.619 251.209 216.019V232.019H249.356C248.249 232.019 247.356 232.912 247.356 234.019C247.356 235.125 248.249 236.019 249.356 236.019H262.916C264.023 236.019 264.916 235.125 264.916 234.019C264.916 232.912 264.023 232.019 262.916 232.019H255.209V216.019C260.369 215.632 264.529 213.645 267.569 210.099C272.729 204.045 274.249 194.032 272.076 180.312C268.876 160.072 259.983 152.887 253.343 152.887C253.316 152.887 253.289 152.899 253.276 152.899C253.249 152.899 253.236 152.887 253.209 152.887C246.569 152.887 237.676 160.072 234.476 180.312C232.676 191.66 233.409 200.472 236.649 206.607C234.569 207.125 232.489 207.685 230.436 208.285C229.356 206.072 227.809 203.152 225.663 199.299C227.996 198.352 229.263 197.366 229.796 196.872C231.129 195.632 232.529 194.339 212.943 164.525C212.889 164.432 212.823 164.365 212.756 164.285C212.729 164.259 212.716 164.232 212.689 164.205C212.569 164.099 212.476 164.019 212.369 163.952C212.343 163.925 212.316 163.925 212.303 163.912C212.209 163.859 212.116 163.805 212.023 163.765C211.969 163.739 211.903 163.727 211.849 163.712C211.783 163.685 211.716 163.672 211.663 163.66C211.596 163.645 211.529 163.645 211.449 163.632C211.396 163.632 211.329 163.619 211.276 163.619C211.209 163.619 211.143 163.632 211.089 163.632C211.023 163.645 210.956 163.645 210.889 163.66C210.823 163.672 210.756 163.685 210.703 163.712C210.636 163.727 210.569 163.739 210.516 163.765C210.423 163.805 210.329 163.859 210.249 163.912C210.223 163.925 210.196 163.925 210.169 163.952C210.076 164.019 209.983 164.099 209.889 164.179C209.836 164.232 209.809 164.259 209.783 164.285C209.716 164.365 209.663 164.432 209.609 164.512C190.023 194.339 191.409 195.632 192.756 196.872C193.276 197.366 194.543 198.352 196.876 199.299C188.569 214.179 189.369 214.993 190.556 216.167C191.143 216.766 192.556 217.952 195.183 219.085C193.503 222.125 192.236 224.538 191.289 226.472C167.836 242.138 154.063 260.179 153.489 260.94C153.023 261.554 152.956 262.366 153.289 263.045C153.623 263.726 154.316 264.152 155.076 264.152H272.129C273.236 264.152 274.129 263.259 274.129 262.152C274.129 261.045 273.236 260.152 272.129 260.152Z" fill="#373D4C"/>
<path d="M256.143 249.447C255.036 249.447 254.143 250.338 254.143 251.447C254.143 252.538 255.036 253.447 256.143 253.447H260.916C262.023 253.447 262.916 252.538 262.916 251.447C262.916 250.338 262.023 249.447 260.916 249.447H256.143Z" fill="#373D4C"/>
<path d="M256.543 129.512C257.649 129.512 258.543 128.619 258.543 127.512C258.543 126.405 257.649 125.512 256.543 125.512H247.543C246.436 125.512 245.543 126.405 245.543 127.512C245.543 128.619 246.436 129.512 247.543 129.512H256.543Z" fill="#FFFEFA"/>
<path d="M253.209 177.912C254.316 177.912 255.209 177.019 255.209 175.912V171.472C255.209 170.365 254.316 169.472 253.209 169.472C252.103 169.472 251.209 170.365 251.209 171.472V175.912C251.209 177.019 252.103 177.912 253.209 177.912Z" fill="#373D4C"/>
<path d="M251.356 241.019C251.356 239.925 250.463 239.019 249.356 239.019H238.249C237.143 239.019 236.249 239.925 236.249 241.019C236.249 242.125 237.143 243.019 238.249 243.019H249.356C250.463 243.019 251.356 242.125 251.356 241.019Z" fill="#373D4C"/>
<path d="M230.503 251.019C229.396 251.019 228.503 251.925 228.503 253.019C228.503 254.125 229.396 255.019 230.503 255.019H238.329C239.436 255.019 240.329 254.125 240.329 253.019C240.329 251.925 239.436 251.019 238.329 251.019H230.503Z" fill="#373D4C"/>
<path d="M211.276 142.965H217.356C218.463 142.965 219.356 142.072 219.356 140.965C219.356 139.859 218.463 138.965 217.356 138.965H211.276C210.169 138.965 209.276 139.859 209.276 140.965C209.276 142.072 210.169 142.965 211.276 142.965Z" fill="#57B9D4"/>
<path d="M206.543 45.5387C207.129 46.312 207.809 46.9934 208.583 47.5787C207.809 48.152 207.129 48.8454 206.543 49.6187C205.969 48.8454 205.289 48.152 204.516 47.5787C205.289 46.9934 205.969 46.312 206.543 45.5387ZM198.556 49.5787C201.863 49.5787 204.543 52.2854 204.543 55.6187C204.543 56.7267 205.449 57.6187 206.543 57.6187C207.649 57.6187 208.543 56.7267 208.543 55.6187C208.543 52.2854 211.236 49.5787 214.543 49.5787C215.649 49.5787 216.543 48.6854 216.543 47.5787C216.543 46.472 215.649 45.5787 214.543 45.5787C211.236 45.5787 208.543 42.8587 208.543 39.5254C208.543 38.4187 207.649 37.5254 206.543 37.5254C205.449 37.5254 204.543 38.4187 204.543 39.5254C204.543 42.8587 201.863 45.5787 198.556 45.5787C197.449 45.5787 196.556 46.472 196.556 47.5787C196.556 48.6854 197.449 49.5787 198.556 49.5787Z" fill="#373D4C"/>
<path d="M207.583 124.339H198.556C197.449 124.339 196.556 125.232 196.556 126.339C196.556 127.447 197.449 128.339 198.556 128.339H207.583C208.689 128.339 209.583 127.447 209.583 126.339C209.583 125.232 208.689 124.339 207.583 124.339Z" fill="#57B9D4"/>
<path d="M191.876 154.167C190.769 154.167 189.876 155.06 189.876 156.167C189.876 157.273 190.769 158.167 191.876 158.167H195.756C196.863 158.167 197.756 157.273 197.756 156.167C197.756 155.06 196.863 154.167 195.756 154.167H191.876Z" fill="#FFFEFA"/>
<path d="M184.476 244.352C183.369 244.352 182.476 245.259 182.476 246.352C182.476 247.459 183.369 248.352 184.476 248.352H190.783C191.889 248.352 192.783 247.459 192.783 246.352C192.783 245.259 191.889 244.352 190.783 244.352H184.476Z" fill="#373D4C"/>
<path d="M179.356 209.245C180.463 209.245 181.356 208.352 181.356 207.245C181.356 206.138 180.463 205.245 179.356 205.245H172.876C171.769 205.245 170.876 206.138 170.876 207.245C170.876 208.352 171.769 209.245 172.876 209.245H179.356Z" fill="#FFFEFA"/>
<path d="M168.476 183.245C168.476 182.139 167.569 181.245 166.476 181.245H157.609C156.503 181.245 155.609 182.139 155.609 183.245C155.609 184.352 156.503 185.245 157.609 185.245H166.476C167.569 185.245 168.476 184.352 168.476 183.245Z" fill="#57B9D4"/>
<path d="M166.023 236.312C166.023 235.205 165.129 234.312 164.023 234.312H145.809C144.703 234.312 143.809 235.205 143.809 236.312C143.809 237.419 144.703 238.312 145.809 238.312H164.023C165.129 238.312 166.023 237.419 166.023 236.312Z" fill="#57B9D4"/>
<path d="M152.916 36.5534C153.716 37.712 154.716 38.7267 155.889 39.5254C154.716 40.3267 153.716 41.3387 152.916 42.512C152.116 41.3387 151.116 40.3267 149.943 39.5254C151.116 38.7267 152.116 37.712 152.916 36.5534ZM143.529 41.5254C147.596 41.5254 150.916 44.872 150.916 48.9787C150.916 50.0854 151.809 50.9787 152.916 50.9787C154.023 50.9787 154.916 50.0854 154.916 48.9787C154.916 44.872 158.223 41.5254 162.303 41.5254C163.409 41.5254 164.303 40.632 164.303 39.5254C164.303 38.4187 163.409 37.5254 162.303 37.5254C158.223 37.5254 154.916 34.192 154.916 30.0854C154.916 28.9787 154.023 28.0854 152.916 28.0854C151.809 28.0854 150.916 28.9787 150.916 30.0854C150.916 34.192 147.596 37.5254 143.529 37.5254C142.423 37.5254 141.529 38.4187 141.529 39.5254C141.529 40.632 142.423 41.5254 143.529 41.5254Z" fill="#373D4C"/>
<path d="M148.103 104.792C146.996 104.792 146.103 105.699 146.103 106.792V110.805C146.103 111.912 146.996 112.805 148.103 112.805C149.209 112.805 150.103 111.912 150.103 110.805V106.792C150.103 105.699 149.209 104.792 148.103 104.792Z" fill="#373D4C"/>
<path d="M138.023 260.152H129.356C128.249 260.152 127.356 261.045 127.356 262.152C127.356 263.259 128.249 264.152 129.356 264.152H138.023C139.129 264.152 140.023 263.259 140.023 262.152C140.023 261.045 139.129 260.152 138.023 260.152Z" fill="#57B9D4"/>
<path d="M128.689 236.312C128.689 235.205 127.796 234.312 126.689 234.312H94.6892C93.5825 234.312 92.6892 235.205 92.6892 236.312C92.6892 237.419 93.5825 238.312 94.6892 238.312H126.689C127.796 238.312 128.689 237.419 128.689 236.312Z" fill="#57B9D4"/>
<path d="M94.2493 34.3787C91.276 37.4187 89.4359 41.6187 89.4359 46.2587C89.4359 55.3267 96.7693 62.712 105.796 62.712C106.303 62.712 106.809 62.6853 107.316 62.6453C105.369 63.512 103.223 63.9933 100.983 63.9933C92.4493 63.9933 85.5026 56.9933 85.5026 48.4053C85.5026 42.232 89.0893 36.912 94.2493 34.3787ZM100.983 67.9933C108.409 67.9933 115.089 63.8454 118.409 57.152C118.436 57.1134 118.449 57.06 118.463 57.0187C118.476 56.9787 118.489 56.952 118.503 56.912C118.583 56.6987 118.609 56.472 118.609 56.2587C118.609 56.232 118.609 56.192 118.609 56.1667C118.596 55.94 118.543 55.7267 118.463 55.512C118.449 55.4853 118.436 55.4587 118.423 55.4187C118.329 55.22 118.196 55.0187 118.023 54.8587C117.823 54.672 117.676 54.5653 117.516 54.472C117.463 54.4587 117.409 54.4467 117.369 54.4187C117.329 54.4054 117.303 54.3934 117.276 54.3934C117.049 54.312 116.836 54.2733 116.609 54.2733C116.583 54.2733 116.556 54.2733 116.529 54.2733C116.303 54.2853 116.076 54.3387 115.863 54.4187C115.836 54.432 115.809 54.4467 115.783 54.4587C115.569 54.5654 115.383 54.6987 115.209 54.8587C112.929 57.2454 109.343 58.712 105.796 58.712C98.9826 58.712 93.4359 53.1254 93.4359 46.2587C93.4359 39.3387 99.1026 33.4854 105.796 33.4854C105.836 33.4854 105.876 33.472 105.916 33.472C105.983 33.472 106.049 33.4587 106.116 33.4587C106.183 33.4467 106.249 33.432 106.316 33.4053C106.369 33.3933 106.436 33.3787 106.489 33.352C106.556 33.3387 106.623 33.2987 106.676 33.2733C106.729 33.2453 106.783 33.22 106.836 33.192C106.889 33.152 106.943 33.1133 106.996 33.072C107.049 33.032 107.103 33.0054 107.143 32.952C107.196 32.912 107.236 32.872 107.276 32.8187C107.329 32.78 107.369 32.7267 107.409 32.672C107.436 32.6187 107.476 32.5653 107.503 32.512C107.543 32.4587 107.569 32.4053 107.596 32.3387C107.636 32.2733 107.649 32.22 107.676 32.152C107.689 32.1134 107.716 32.072 107.716 32.0454C107.729 32.0187 107.729 31.9934 107.729 31.9654C107.756 31.8987 107.756 31.8334 107.769 31.7654C107.783 31.6987 107.796 31.632 107.796 31.5534C107.796 31.5387 107.796 31.512 107.796 31.4854C107.796 31.4467 107.796 31.4187 107.783 31.3787C107.783 31.312 107.783 31.232 107.769 31.1667C107.756 31.0987 107.743 31.0454 107.729 30.9787C107.716 30.912 107.689 30.8587 107.663 30.792C107.649 30.7267 107.623 30.672 107.596 30.6187C107.569 30.5534 107.529 30.5 107.503 30.4467C107.463 30.3934 107.436 30.3387 107.396 30.2854C107.356 30.232 107.316 30.192 107.263 30.1387C107.223 30.0853 107.183 30.0453 107.143 30.0053C107.089 29.9653 107.036 29.9254 106.983 29.8867C106.929 29.8454 106.876 29.8054 106.823 29.78C106.769 29.7387 106.716 29.712 106.649 29.6854C106.596 29.66 106.529 29.632 106.463 29.6067C106.423 29.592 106.396 29.5787 106.356 29.5654C104.623 29.06 102.809 28.8053 100.983 28.8053C90.2493 28.8053 81.5026 37.592 81.5026 48.4053C81.5026 59.2053 90.2493 67.9933 100.983 67.9933Z" fill="#373D4C"/>
<path d="M114.689 247.245H108.476C107.369 247.245 106.476 248.138 106.476 249.245C106.476 250.352 107.369 251.245 108.476 251.245H114.689C115.796 251.245 116.689 250.352 116.689 249.245C116.689 248.138 115.796 247.245 114.689 247.245Z" fill="#FFFEFA"/>
<path d="M110.689 129.019C111.796 129.019 112.689 128.125 112.689 127.019C112.689 125.912 111.796 125.019 110.689 125.019H108.476C107.369 125.019 106.476 125.912 106.476 127.019C106.476 128.125 107.369 129.019 108.476 129.019H110.689Z" fill="#373D4C"/>
<path d="M90.476 247.019H72.8359C71.7293 247.019 70.8359 247.925 70.8359 249.019C70.8359 250.125 71.7293 251.019 72.8359 251.019H90.476C91.5694 251.019 92.476 250.125 92.476 249.019C92.476 247.925 91.5694 247.019 90.476 247.019Z" fill="#57B9D4"/>
<path d="M62.2493 109.965C62.2493 111.072 63.1426 111.965 64.2493 111.965H86.0359C87.1292 111.965 88.0359 111.072 88.0359 109.965C88.0359 108.872 87.1292 107.965 86.0359 107.965H64.2493C63.1426 107.965 62.2493 108.872 62.2493 109.965Z" fill="#373D4C"/>
<path d="M80.4761 237.645C80.4761 236.538 79.5694 235.645 78.4761 235.645H52.4761C51.3694 235.645 50.4761 236.538 50.4761 237.645C50.4761 238.752 51.3694 239.645 52.4761 239.645H78.4761C79.5694 239.645 80.4761 238.752 80.4761 237.645Z" fill="#FFFEFA"/>
<path d="M63.2493 99.4587H59.356C58.2493 99.4587 57.356 100.365 57.356 101.459C57.356 102.565 58.2493 103.459 59.356 103.459H63.2493C64.356 103.459 65.2493 102.565 65.2493 101.459C65.2493 100.365 64.356 99.4587 63.2493 99.4587Z" fill="#373D4C"/>
<path d="M46.6226 54.472C47.1959 55.2454 47.8759 55.94 48.6493 56.512C47.8759 57.0987 47.1959 57.78 46.6226 58.5534C46.0359 57.78 45.3559 57.0987 44.5826 56.512C45.3559 55.94 46.0359 55.2454 46.6226 54.472ZM38.6226 58.512C41.9292 58.512 44.6226 61.232 44.6226 64.5654C44.6226 65.66 45.5159 66.5654 46.6226 66.5654C47.7159 66.5654 48.6226 65.66 48.6226 64.5654C48.6226 61.232 51.3026 58.512 54.6093 58.512C55.7159 58.512 56.6093 57.6187 56.6093 56.512C56.6093 55.4054 55.7159 54.512 54.6093 54.512C51.3026 54.512 48.6226 51.8054 48.6226 48.472C48.6226 47.3654 47.7159 46.472 46.6226 46.472C45.5159 46.472 44.6226 47.3654 44.6226 48.472C44.6226 51.8054 41.9292 54.512 38.6226 54.512C37.5159 54.512 36.6226 55.4054 36.6226 56.512C36.6226 57.6187 37.5159 58.512 38.6226 58.512Z" fill="#373D4C"/>
<path d="M51.5826 183.245C51.5826 182.139 50.6893 181.245 49.5826 181.245H38.6226C37.5159 181.245 36.6226 182.139 36.6226 183.245C36.6226 184.352 37.5159 185.245 38.6226 185.245H49.5826C50.6893 185.245 51.5826 184.352 51.5826 183.245Z" fill="#57B9D4"/>
<path d="M46.6225 260.152H40.6892C39.5825 260.152 38.6892 261.045 38.6892 262.152C38.6892 263.259 39.5825 264.152 40.6892 264.152H46.6225C47.7159 264.152 48.6225 263.259 48.6225 262.152C48.6225 261.045 47.7159 260.152 46.6225 260.152Z" fill="#57B9D4"/>
<path d="M34.916 200.259H29.1426C28.0359 200.259 27.1426 201.152 27.1426 202.259C27.1426 203.365 28.0359 204.259 29.1426 204.259H34.916C36.0226 204.259 36.916 203.365 36.916 202.259C36.916 201.152 36.0226 200.259 34.916 200.259Z" fill="#FFFEFA"/>
<path d="M29.1426 247.245H16.516C15.4093 247.245 14.516 248.138 14.516 249.245C14.516 250.352 15.4093 251.245 16.516 251.245H29.1426C30.236 251.245 31.1426 250.352 31.1426 249.245C31.1426 248.138 30.236 247.245 29.1426 247.245Z" fill="#FFFEFA"/>
</g>
</svg>
