<svg width="288" height="288" viewBox="0 0 288 288" fill="none" xmlns="http://www.w3.org/2000/svg">
<mask id="mask0_221:13945" style="mask-type:alpha" maskUnits="userSpaceOnUse" x="0" y="0" width="288" height="288">
<circle cx="144" cy="144" r="144" fill="#C4C4C4"/>
</mask>
<g mask="url(#mask0_221:13945)">
<path d="M1021.87 329.449H-1714V-290H1021.87V329.449Z" fill="#FFFEFA"/>
<path d="M176.613 99.8334H223.053C223.053 99.8334 225.947 89.5 213.613 93.0547C213.613 93.0547 202.627 71.1147 191.173 89.944C191.173 89.944 178.28 85.2774 176.613 99.8334Z" fill="#57B9D4"/>
<path d="M37.2397 61.6107H95.0664C95.0664 61.6107 93.9464 54.1667 88.5064 53.9441C83.0531 53.7214 82.1731 55.0547 82.1731 55.0547C82.1731 55.0547 82.2797 40.7214 67.2797 40.9441C52.2797 41.1667 53.5731 55.1667 53.5731 55.1667C53.5731 55.1667 49.2264 52.0574 45.0797 52.4454C40.9464 52.8334 37.2397 61.6107 37.2397 61.6107Z" fill="#57B9D4"/>
<path d="M15.8398 171.964V249.167H271.12V171.964H15.8398Z" fill="#C5EDEA"/>
<path d="M107.56 118.327V113.419C107.56 112.312 106.666 111.419 105.56 111.419C104.466 111.419 103.56 112.312 103.56 113.419V118.327C103.56 119.433 104.466 120.327 105.56 120.327C106.666 120.327 107.56 119.433 107.56 118.327ZM115.68 101.727C115.44 102.899 115.226 104.1 115.026 105.352C113.04 117.912 113.586 127.912 116.626 135.205C114.746 139.553 112.12 141.553 107.56 141.965V128.085C107.56 126.993 106.666 126.085 105.56 126.085C104.466 126.085 103.56 126.993 103.56 128.085V141.925C100.333 141.553 97.7331 140.273 95.8398 138.06C92.0798 133.645 90.9998 125.592 92.7064 114.739C95.3464 98.1134 102.026 93.672 105.56 93.672C107.84 93.672 112.306 95.4054 115.68 101.727Z" fill="#CCE294"/>
<path d="M252.187 81.9254V72.032C252.187 70.9254 251.293 70.032 250.187 70.032C249.093 70.032 248.187 70.9254 248.187 72.032V81.9254C248.187 83.032 249.093 83.9254 250.187 83.9254C251.293 83.9254 252.187 83.032 252.187 81.9254ZM273.573 90.792C276.573 109.82 274.613 124.047 267.867 131.94C264.093 136.352 258.813 138.78 252.187 139.192V92.2587C252.187 91.1534 251.293 90.2587 250.187 90.2587C249.093 90.2587 248.187 91.1534 248.187 92.2587V139.22C241.387 138.859 235.987 136.433 232.147 131.94C225.4 124.047 223.427 109.82 226.44 90.792C231.107 61.2987 243.387 53.4187 249.907 53.4187C249.947 53.4187 249.973 53.4187 250 53.4187C250.04 53.4187 250.067 53.4187 250.093 53.4187C256.627 53.4187 268.907 61.2987 273.573 90.792Z" fill="#B4D452"/>
<path d="M139.813 125.419V96.352C139.813 95.2454 138.907 94.352 137.813 94.352C136.707 94.352 135.813 95.2454 135.813 96.352V125.419C135.813 126.525 136.707 127.419 137.813 127.419C138.907 127.419 139.813 126.525 139.813 125.419ZM137.733 76.0854C142.893 76.0854 152.6 82.3934 156.333 105.979C158.747 121.259 157.187 132.66 151.813 138.952C148.907 142.352 144.867 144.273 139.813 144.672V134.752C139.813 133.66 138.907 132.752 137.813 132.752C136.707 132.752 135.813 133.66 135.813 134.752V144.685C130.6 144.327 126.467 142.419 123.507 138.952C118.133 132.66 116.56 121.259 118.973 105.979C122.707 82.3934 132.427 76.0854 137.587 76.0854C137.68 76.0854 137.707 76.0854 137.733 76.0854Z" fill="#A0D7A0"/>
<path d="M107 175.419C107.707 174.565 107.6 173.312 106.76 172.592C102.04 168.632 96.7466 167.845 96.52 167.82C95.4266 167.672 94.4133 168.419 94.2533 169.512C94.1066 170.607 94.8666 171.619 95.9599 171.78C95.9999 171.78 100.333 172.419 104.187 175.66C104.56 175.979 105.013 176.125 105.467 176.125C106.04 176.125 106.6 175.887 107 175.419ZM127.253 183.139H45.0933C54.5333 169.78 69.6265 161.899 86.1732 161.899C102.693 161.899 117.813 169.78 127.253 183.139Z" fill="#B4D452"/>
<path d="M55.8267 233.047C56.92 233.005 57.7866 232.085 57.7466 230.979C57.7066 229.872 56.7333 229.005 55.6799 229.047C49.1733 229.285 42.1867 234.566 41.8933 234.792C41.0133 235.459 40.84 236.713 41.5066 237.592C41.9066 238.113 42.4933 238.38 43.1066 238.38C43.52 238.38 43.9466 238.245 44.3066 237.979C44.3733 237.925 50.6 233.232 55.8267 233.047ZM222.173 222.326C222.6 221.299 222.12 220.125 221.093 219.713C217.373 218.167 213.467 216.912 209.467 215.993C208.387 215.738 207.307 216.419 207.067 217.487C206.813 218.566 207.48 219.632 208.56 219.887C212.347 220.767 216.053 221.952 219.56 223.405C219.813 223.512 220.067 223.554 220.333 223.554C221.12 223.554 221.853 223.085 222.173 222.326ZM246.267 240.06C247.067 239.312 247.107 238.047 246.347 237.232C241.213 231.78 235.387 227.179 229.013 223.566C228.053 223.032 226.84 223.366 226.293 224.326C225.747 225.285 226.08 226.512 227.04 227.06C233.067 230.459 238.573 234.805 243.44 239.979C243.827 240.393 244.36 240.607 244.893 240.607C245.387 240.607 245.88 240.433 246.267 240.06ZM265.773 249.245H17.76C29.64 231.872 48.9999 221.607 70.2133 221.607C80.5066 221.607 88.8134 223.338 95.5867 226.925C98.3734 228.419 101.347 229.566 104.413 230.338C107.48 231.1 110.64 231.5 113.827 231.5C123.04 231.5 131.96 228.192 138.947 222.205C155.547 208.22 168.24 206.338 181.693 206.338C184.12 206.338 186.573 206.393 189.08 206.459C220.96 207.273 248.053 222.433 265.773 249.245Z" fill="#80A0AC"/>
<path d="M269.987 200.072C271.093 200.072 271.987 200.966 271.987 202.072C271.987 203.179 271.093 204.072 269.987 204.072H263.427C262.32 204.072 261.427 203.179 261.427 202.072C261.427 200.966 262.32 200.072 263.427 200.072H269.987Z" fill="#57B9D4"/>
<path d="M269.987 217.607C271.093 217.607 271.987 218.5 271.987 219.607C271.987 220.713 271.093 221.607 269.987 221.607H257.64C256.547 221.607 255.64 220.713 255.64 219.607C255.64 218.5 256.547 217.607 257.64 217.607H269.987Z" fill="#FFFEFA"/>
<path d="M269.427 183.139C270.533 183.139 271.427 184.032 271.427 185.139C271.427 186.245 270.533 187.139 269.427 187.139H224.76C223.653 187.139 222.76 186.245 222.76 185.139C222.76 184.032 223.653 183.139 224.76 183.139H269.427Z" fill="#FFFEFA"/>
<path d="M252.187 72.032V81.9254C252.187 83.032 251.293 83.9254 250.187 83.9254C249.093 83.9254 248.187 83.032 248.187 81.9254V72.032C248.187 70.9254 249.093 70.032 250.187 70.032C251.293 70.032 252.187 70.9254 252.187 72.032Z" fill="#373D4C"/>
<path d="M245.867 200.072C246.973 200.072 247.867 200.966 247.867 202.072C247.867 203.179 246.973 204.072 245.867 204.072H234.093C232.987 204.072 232.093 203.179 232.093 202.072C232.093 200.966 232.987 200.072 234.093 200.072H245.867Z" fill="#57B9D4"/>
<path d="M229.013 223.565C235.387 227.179 241.213 231.78 246.347 237.232C247.107 238.047 247.067 239.312 246.267 240.06C245.88 240.433 245.387 240.607 244.893 240.607C244.36 240.607 243.827 240.393 243.44 239.979C238.573 234.805 233.067 230.459 227.04 227.06C226.08 226.512 225.747 225.285 226.293 224.326C226.84 223.365 228.053 223.032 229.013 223.565Z" fill="#E8DECF"/>
<path d="M221.093 219.713C222.12 220.125 222.6 221.299 222.173 222.326C221.853 223.085 221.12 223.553 220.333 223.553C220.067 223.553 219.813 223.512 219.56 223.405C216.053 221.952 212.347 220.767 208.56 219.887C207.48 219.632 206.813 218.565 207.067 217.487C207.307 216.419 208.387 215.738 209.467 215.993C213.467 216.912 217.373 218.167 221.093 219.713Z" fill="#E8DECF"/>
<path d="M219.027 148.993C220.12 148.993 221.027 149.887 221.027 150.993C221.027 152.1 220.12 152.993 219.027 152.993H211.88C210.787 152.993 209.88 152.1 209.88 150.993C209.88 149.887 210.787 148.993 211.88 148.993H219.027Z" fill="#57B9D4"/>
<path d="M212.973 191.405C214.08 191.405 214.973 192.299 214.973 193.405C214.973 194.512 214.08 195.405 212.973 195.405H200.533C199.427 195.405 198.533 194.512 198.533 193.405C198.533 192.299 199.427 191.405 200.533 191.405H212.973Z" fill="#FFFEFA"/>
<path d="M210.307 106.78C211.413 106.78 212.307 107.672 212.307 108.78C212.307 109.872 211.413 110.78 210.307 110.78H181.72C180.613 110.78 179.72 109.872 179.72 108.78C179.72 107.672 180.613 106.78 181.72 106.78H210.307Z" fill="#C5EDEA"/>
<path d="M206.76 180.299C207.867 180.299 208.76 181.192 208.76 182.299C208.76 183.405 207.867 184.299 206.76 184.299H152.973C151.88 184.299 150.973 183.405 150.973 182.299C150.973 181.192 151.88 180.299 152.973 180.299H206.76Z" fill="#57B9D4"/>
<path d="M194.147 44.1534C195.24 44.3121 196 45.3267 195.853 46.4187C195.693 47.5121 194.68 48.2734 193.587 48.1134C193.52 48.1134 187.68 47.3521 186.507 51.0601C186.227 51.8987 185.44 52.4467 184.6 52.4467C184.533 52.4467 184.453 52.4187 184.387 52.4054C184.307 52.4187 184.24 52.4467 184.173 52.4467C183.32 52.4467 182.533 51.8987 182.267 51.0601C181.08 47.3521 175.24 48.1134 175.173 48.1134C174.067 48.2734 173.067 47.5 172.92 46.4054C172.773 45.3267 173.52 44.3121 174.613 44.1534C174.933 44.1134 181.027 43.3121 184.387 46.9254C187.747 43.3121 193.84 44.1134 194.147 44.1534Z" fill="#373D4C"/>
<path d="M180.506 120.327C181.613 120.327 182.506 121.22 182.506 122.327C182.506 123.433 181.613 124.327 180.506 124.327H173.906C172.8 124.327 171.906 123.433 171.906 122.327C171.906 121.22 172.8 120.327 173.906 120.327H180.506Z" fill="#C5EDEA"/>
<path d="M176.147 65.2854C177.24 65.4467 178.013 66.4587 177.853 67.5534C177.693 68.632 176.68 69.3934 175.587 69.2454C175.533 69.232 169.693 68.4867 168.507 72.1787C168.227 73.032 167.453 73.5787 166.6 73.5787C166.533 73.5787 166.453 73.5534 166.387 73.5387C166.307 73.5534 166.24 73.5787 166.173 73.5787C165.32 73.5787 164.533 73.032 164.267 72.1787C163.08 68.4867 157.24 69.232 157.173 69.2454C156.08 69.4054 155.08 68.632 154.92 67.5387C154.773 66.4467 155.533 65.4467 156.613 65.2854C156.933 65.2454 163.027 64.4467 166.387 68.06C169.747 64.4334 175.84 65.2454 176.147 65.2854Z" fill="#373D4C"/>
<path d="M150.76 191.405C151.867 191.405 152.76 192.299 152.76 193.405C152.76 194.512 151.867 195.405 150.76 195.405H139.867C138.76 195.405 137.867 194.512 137.867 193.405C137.867 192.299 138.76 191.405 139.867 191.405H150.76Z" fill="#57B9D4"/>
<path d="M147.027 44.2321C148.12 44.3934 148.88 45.4054 148.72 46.5C148.573 47.5787 147.56 48.3387 146.467 48.1921C146.413 48.1787 140.56 47.4334 139.387 51.1254C139.107 51.9787 138.32 52.5254 137.48 52.5254C137.4 52.5254 137.333 52.5001 137.253 52.4867C137.187 52.5001 137.12 52.5254 137.04 52.5254C136.2 52.5254 135.413 51.9787 135.133 51.1254C133.96 47.4334 128.107 48.1787 128.053 48.1921C126.947 48.3521 125.947 47.5787 125.8 46.4867C125.64 45.3934 126.4 44.3934 127.493 44.2321C127.8 44.1787 133.893 43.38 137.267 47.0054C140.627 43.38 146.72 44.1787 147.027 44.2321Z" fill="#373D4C"/>
<path d="M139.813 96.352V125.419C139.813 126.525 138.907 127.419 137.813 127.419C136.707 127.419 135.813 126.525 135.813 125.419V96.352C135.813 95.2454 136.707 94.352 137.813 94.352C138.907 94.352 139.813 95.2454 139.813 96.352Z" fill="#373D4C"/>
<path d="M128.307 207.845C129.413 207.845 130.307 208.752 130.307 209.845C130.307 210.952 129.413 211.845 128.307 211.845H121.867C120.76 211.845 119.867 210.952 119.867 209.845C119.867 208.752 120.76 207.845 121.867 207.845H128.307Z" fill="#57B9D4"/>
<path d="M112.573 71.3654C113.68 71.3654 114.573 72.2587 114.573 73.3654C114.573 74.472 113.68 75.3654 112.573 75.3654H77.5732C76.4666 75.3654 75.5732 74.472 75.5732 73.3654C75.5732 72.2587 76.4666 71.3654 77.5732 71.3654H112.573Z" fill="#57B9D4"/>
<path d="M107.2 197.632C108.307 197.632 109.2 198.525 109.2 199.632C109.2 200.738 108.307 201.632 107.2 201.632H51.2C50.0933 201.632 49.2 200.738 49.2 199.632C49.2 198.525 50.0933 197.632 51.2 197.632H107.2Z" fill="#FFFEFA"/>
<path d="M107.56 113.419V118.327C107.56 119.433 106.667 120.327 105.56 120.327C104.467 120.327 103.56 119.433 103.56 118.327V113.419C103.56 112.312 104.467 111.419 105.56 111.419C106.667 111.419 107.56 112.312 107.56 113.419Z" fill="#373D4C"/>
<path d="M106.76 172.592C107.6 173.312 107.707 174.565 107 175.419C106.6 175.887 106.04 176.125 105.467 176.125C105.013 176.125 104.56 175.979 104.187 175.66C100.333 172.419 96.0001 171.78 95.9601 171.78C94.8668 171.619 94.1068 170.607 94.2535 169.512C94.4135 168.419 95.4268 167.672 96.5201 167.82C96.7468 167.845 102.04 168.632 106.76 172.592Z" fill="#FFFEFA"/>
<path d="M101.867 209.179C102.973 209.179 103.867 210.085 103.867 211.179C103.867 212.285 102.973 213.179 101.867 213.179H89.2C88.0933 213.179 87.2 212.285 87.2 211.179C87.2 210.085 88.0933 209.179 89.2 209.179H101.867Z" fill="#57B9D4"/>
<path d="M265.773 249.245C248.053 222.433 220.96 207.273 189.08 206.459C186.573 206.393 184.12 206.338 181.693 206.338C168.24 206.338 155.546 208.22 138.946 222.205C131.96 228.192 123.04 231.5 113.827 231.5C110.64 231.5 107.48 231.1 104.413 230.338C101.346 229.566 98.3733 228.419 95.5866 226.925C88.8133 223.338 80.5065 221.607 70.2132 221.607C48.9998 221.607 29.6399 231.872 17.7599 249.245H126.133H265.773ZM113.827 227.5C122.093 227.5 130.093 224.538 136.346 219.154C157.133 201.66 172.693 202.06 189.173 202.459C223.653 203.338 252.76 220.285 271.133 250.192C271.707 251.138 271.413 252.366 270.467 252.952C270.147 253.154 269.787 253.245 269.427 253.245C269.307 253.245 269.187 253.22 269.067 253.192C268.933 253.22 268.8 253.245 268.653 253.245H126.133H16.5332H14.0932C13.3732 253.245 12.7065 252.845 12.3465 252.22C11.9865 251.592 11.9999 250.82 12.3866 250.205C24.7599 229.792 46.3732 217.607 70.2132 217.607C81.1731 217.607 90.0799 219.5 97.4533 223.38C102.453 226.072 108.12 227.5 113.827 227.5Z" fill="#373D4C"/>
<path d="M67.8798 126.085C68.9731 126.085 69.8798 126.993 69.8798 128.085C69.8798 129.192 68.9731 130.085 67.8798 130.085H62.2932C61.1865 130.085 60.2932 129.192 60.2932 128.085C60.2932 126.993 61.1865 126.085 62.2932 126.085H67.8798Z" fill="#57B9D4"/>
<path d="M60.3598 79.22C61.4532 79.22 62.3598 80.1134 62.3598 81.22C62.3598 82.3267 61.4532 83.22 60.3598 83.22H46.7998C45.6931 83.22 44.7998 82.3267 44.7998 81.22C44.7998 80.1134 45.6931 79.22 46.7998 79.22H60.3598Z" fill="#C5EDEA"/>
<path d="M247.906 169.965V143.232C240 142.82 233.68 139.899 229.106 134.539C222.52 126.833 219.973 114.66 221.467 98.2987C221.387 98.0854 221.333 97.8454 221.333 97.592C221.333 95.4334 219.573 93.672 217.413 93.672C216.36 93.672 215.373 94.0854 214.627 94.82C213.853 95.6067 212.587 95.6067 211.8 94.82C211.387 94.4054 211.213 93.8454 211.24 93.2987C211.227 93.22 211.213 93.1534 211.213 93.072C211.213 87.6454 206.8 83.22 201.373 83.22C195.933 83.22 191.52 87.6454 191.52 93.072C191.52 94.1787 190.627 95.072 189.52 95.072C188.747 95.072 188.08 94.632 187.746 93.9934C186.813 92.7134 185.333 91.94 183.733 91.94C181 91.94 178.773 94.1667 178.773 96.912C178.773 97.2054 178.707 97.4867 178.587 97.7387H183.146C184.253 97.7387 185.146 98.632 185.146 99.7387C185.146 100.845 184.253 101.739 183.146 101.739H166.173C165.066 101.739 164.173 100.845 164.173 99.7387C164.173 98.632 165.066 97.7387 166.173 97.7387H174.96C174.84 97.4867 174.773 97.2054 174.773 96.912C174.773 91.9654 178.787 87.94 183.733 87.94C185.293 87.94 186.786 88.352 188.107 89.0854C189.826 83.3934 195.12 79.22 201.373 79.22C207.973 79.22 213.52 83.8867 214.88 90.0854C215.693 89.82 216.533 89.672 217.413 89.672C219.266 89.672 220.96 90.312 222.307 91.38C222.373 90.9787 222.427 90.5787 222.493 90.1667C227.24 60.1 240.227 49.4187 249.906 49.4187C249.947 49.4187 249.973 49.4333 250 49.4333C250.04 49.4333 250.067 49.4187 250.093 49.4187C259.773 49.4187 272.76 60.1 277.52 90.1667C280.76 110.672 278.533 125.607 270.906 134.539C266.346 139.872 260.053 142.752 252.187 143.192C252.187 143.579 252.08 143.925 251.906 144.22V169.965H269.987C271.093 169.965 271.987 170.859 271.987 171.965C271.987 173.072 271.093 173.965 269.987 173.965H124.733C127.64 176.912 130.267 180.192 132.493 183.833C132.72 184.192 132.813 184.607 132.787 185.005C132.787 185.06 132.787 185.1 132.787 185.139C132.787 186.245 131.893 187.139 130.787 187.139H41.3866C40.6666 187.139 39.9998 186.752 39.6398 186.125C39.2932 185.5 39.3065 184.727 39.6798 184.1C41.9465 180.365 44.6265 176.979 47.5999 173.965H16.5332C15.4399 173.965 14.5332 173.072 14.5332 171.965C14.5332 170.859 15.4399 169.965 16.5332 169.965H51.9999C61.5065 162.245 73.4398 157.899 86.1732 157.899C92.1998 157.899 98.0532 158.887 103.56 160.727V146.619V145.965C99.0932 145.565 95.4665 143.78 92.7999 140.66C88.1865 135.259 86.8266 126.327 88.7599 114.125C91.6132 96.072 99.5999 89.672 105.56 89.672C108.8 89.672 113.24 91.5 116.946 96.2987C121.733 78.632 130.68 72.0854 137.587 72.0854C137.613 72.0854 137.627 72.1 137.653 72.1C137.68 72.1 137.707 72.0854 137.733 72.0854C145.707 72.0854 156.4 80.8054 160.293 105.352C162.933 122.06 161.093 134.232 154.853 141.553C151.16 145.872 146.08 148.245 139.773 148.672C139.733 148.872 139.667 149.047 139.587 149.22V169.965H247.906ZM249.906 53.4187C243.386 53.4187 231.106 61.2987 226.44 90.792C223.426 109.82 225.4 124.047 232.146 131.94C235.986 136.433 241.387 138.859 248.187 139.22V92.2587C248.187 91.1534 249.093 90.2587 250.187 90.2587C251.293 90.2587 252.187 91.1534 252.187 92.2587V139.192C258.813 138.78 264.093 136.352 267.867 131.94C274.613 124.047 276.573 109.82 273.573 90.792C268.906 61.2987 256.627 53.4187 250.093 53.4187C250.067 53.4187 250.04 53.4187 250 53.4187C249.973 53.4187 249.947 53.4187 249.906 53.4187ZM120.333 169.965H135.587V148.699C129.24 148.285 124.16 145.887 120.467 141.553C119.907 140.899 119.4 140.192 118.907 139.459C116.387 143.512 112.76 145.579 107.56 145.965V146.619V161.672C107.56 161.872 107.533 162.047 107.48 162.232C112.106 164.192 116.427 166.792 120.333 169.965ZM118.973 105.979C116.56 121.259 118.133 132.66 123.507 138.952C126.467 142.419 130.6 144.327 135.813 144.685V134.752C135.813 133.66 136.706 132.752 137.813 132.752C138.906 132.752 139.813 133.66 139.813 134.752V144.672C144.866 144.273 148.906 142.352 151.813 138.952C157.186 132.66 158.747 121.259 156.333 105.979C152.6 82.3934 142.893 76.0854 137.733 76.0854C137.707 76.0854 137.68 76.0854 137.653 76.0854C132.427 76.0854 122.707 82.3934 118.973 105.979ZM116.627 135.205C113.587 127.912 113.04 117.912 115.027 105.352C115.227 104.1 115.44 102.899 115.68 101.727C112.306 95.4054 107.84 93.672 105.68 93.672C102.026 93.672 95.3465 98.1134 92.7065 114.739C90.9998 125.592 92.0798 133.645 95.8398 138.06C97.7332 140.273 100.333 141.553 103.56 141.925V128.085C103.56 126.993 104.467 126.085 105.56 126.085C106.667 126.085 107.56 126.993 107.56 128.085V141.965C112.12 141.553 114.747 139.553 116.627 135.205ZM86.1732 161.899C69.6265 161.899 54.5332 169.78 45.0932 183.139H127.253C117.813 169.78 102.693 161.899 86.1732 161.899Z" fill="#373D4C"/>
<path d="M57.7466 230.979C57.7866 232.085 56.92 233.005 55.8267 233.047C50.6 233.232 44.3733 237.925 44.3066 237.979C43.9466 238.245 43.52 238.38 43.1066 238.38C42.4933 238.38 41.9066 238.113 41.5066 237.592C40.84 236.713 41.0134 235.459 41.8934 234.792C42.1867 234.566 49.1733 229.285 55.6799 229.047C56.7333 229.005 57.7066 229.872 57.7466 230.979Z" fill="#373D4C"/>
<path d="M49.4267 209.179C50.5333 209.179 51.4267 210.085 51.4267 211.179C51.4267 212.285 50.5333 213.179 49.4267 213.179H37.76C36.6533 213.179 35.76 212.285 35.76 211.179C35.76 210.085 36.6533 209.179 37.76 209.179H49.4267Z" fill="#57B9D4"/>
<path d="M67.8799 42.9934C60.9733 42.9934 55.36 48.6067 55.36 55.5C55.36 56.6067 54.4667 57.5 53.36 57.5C52.5733 57.5 51.9066 57.0467 51.5733 56.38C50.3466 54.6854 48.3867 53.672 46.2933 53.672C42.68 53.672 39.76 56.6067 39.76 60.2054C39.76 61.2987 38.8667 62.2054 37.76 62.2054C36.6533 62.2054 35.76 61.2987 35.76 60.2054C35.76 54.3934 40.48 49.672 46.2933 49.672C48.32 49.672 50.2534 50.2734 51.92 51.3267C53.7734 44.232 60.2133 38.9934 67.8799 38.9934C75.9333 38.9934 82.6533 44.792 84.0933 52.4467C85.16 52.0187 86.32 51.792 87.52 51.792C92.6134 51.792 96.7733 55.94 96.7733 61.0467C96.7733 61.2587 96.7333 61.4587 96.6666 61.66H107.2C108.307 61.66 109.2 62.5534 109.2 63.66C109.2 64.7667 108.307 65.66 107.2 65.66H88.5733C87.48 65.66 86.5733 64.7667 86.5733 63.66C86.5733 62.5534 87.48 61.66 88.5733 61.66H92.8799C92.8133 61.4587 92.7733 61.2587 92.7733 61.0467C92.7733 58.1387 90.4134 55.792 87.52 55.792C86.1067 55.792 84.7866 56.3387 83.8 57.3267C83.0133 58.1134 81.7466 58.1134 80.9733 57.3267C80.5466 56.8987 80.3733 56.3267 80.4133 55.7667C80.3999 55.6854 80.3867 55.592 80.3867 55.5C80.3867 48.6067 74.7733 42.9934 67.8799 42.9934Z" fill="#373D4C"/>
<path d="M39.8665 197.632C40.9732 197.632 41.8665 198.525 41.8665 199.632C41.8665 200.738 40.9732 201.632 39.8665 201.632H16.5332C15.4399 201.632 14.5332 200.738 14.5332 199.632C14.5332 198.525 15.4399 197.632 16.5332 197.632H39.8665Z" fill="#57B9D4"/>
<path d="M35.2398 104.113C36.3464 104.113 37.2398 105.005 37.2398 106.113C37.2398 107.205 36.3464 108.113 35.2398 108.113H22.7998C21.6931 108.113 20.7998 107.205 20.7998 106.113C20.7998 105.005 21.6931 104.113 22.7998 104.113H35.2398Z" fill="#C5EDEA"/>
<path d="M30.3066 183.139C31.4132 183.139 32.3066 184.032 32.3066 185.139C32.3066 186.245 31.4132 187.139 30.3066 187.139H21.6399C20.5466 187.139 19.6399 186.245 19.6399 185.139C19.6399 184.032 20.5466 183.139 21.6399 183.139H30.3066Z" fill="#FFFEFA"/>
<path d="M24.3065 215.845C25.4132 215.845 26.3065 216.752 26.3065 217.845C26.3065 218.952 25.4132 219.845 24.3065 219.845H16.5332C15.4399 219.845 14.5332 218.952 14.5332 217.845C14.5332 216.752 15.4399 215.845 16.5332 215.845H24.3065Z" fill="#FFFEFA"/>
</g>
</svg>
