<svg width="288" height="288" viewBox="0 0 288 288" fill="none" xmlns="http://www.w3.org/2000/svg">
<mask id="mask0_221:13942" style="mask-type:alpha" maskUnits="userSpaceOnUse" x="0" y="0" width="288" height="288">
<circle cx="144" cy="144" r="144" fill="#C4C4C4"/>
</mask>
<g mask="url(#mask0_221:13942)">
<path d="M2017.87 329.449H-718V-290H2017.87V329.449Z" fill="#FFFEFA"/>
<path d="M5.66931 259.699H273.663V205.232H5.66931V259.699Z" fill="#80A0AC"/>
<path d="M158.823 205.433H169.489V49.1667C169.489 49.1667 170.309 40.5 164.156 40.5C158.003 40.5 158.823 50.6667 158.823 50.6667V205.433Z" fill="#C5EDEA"/>
<path d="M274.503 208.944V256.899L246.725 244.952L253.169 208.944H274.503Z" fill="#E8C080"/>
<path d="M192.329 188.944L198.329 203.232L218.725 208.944H274.503V183.248H217.329L192.329 188.944Z" fill="#E8DECF"/>
<path d="M5.66931 191.645V161.833H60.4226L98.9467 165.139L117.169 181.248L109.836 188.944L85.5293 192.032L5.66931 191.645Z" fill="#E8DECF"/>
<path d="M5.66931 191.645V229.632H50.3693L47.7827 192.032L5.66931 191.645Z" fill="#CA8B2F"/>
<path d="M250.396 210.512L243.836 244.019L215.223 248.752L221.289 210.512H250.396Z" fill="#CA8B2F"/>
<path d="M204.383 206.607L189.169 246.22L183.556 234.979L199.929 205.433L204.383 206.607Z" fill="#CA8B2F"/>
<path d="M107.063 191.1L111.996 226.192L95.996 237.299L89.1826 193.259L107.063 191.1Z" fill="#CA8B2F"/>
<path d="M122.583 217.472L131.329 227.22L115.903 225.338L110.903 189.699L116.676 184.833L122.103 216.472C122.169 216.845 122.329 217.192 122.583 217.472Z" fill="#E8C080"/>
<path d="M85.1826 193.512L92.0759 238.085L52.5826 228.22L50.3693 193.512H85.1826Z" fill="#E8C080"/>
<path d="M217.329 209.993L211.103 249.179H192.329L208.276 207.619L217.329 209.993Z" fill="#E8C080"/>
<path d="M191.743 193.167L196.676 203.06L180.036 233.06L156.569 235.726L173.703 225.113C173.996 224.94 174.236 224.685 174.396 224.393L191.743 193.167Z" fill="#E8C080"/>
<path d="M259.983 102.979V132.78C259.983 137.273 259.556 140.699 258.756 143.299C256.343 151.125 250.556 151.607 242.703 151.632V145.285C247.129 145.22 251.636 144.5 253.116 137.965C253.396 136.767 253.569 135.352 253.609 133.713C253.623 133.607 253.636 133.5 253.636 133.393V102.979C253.636 100.512 255.089 98.4187 256.809 98.4187C258.529 98.4187 259.983 100.512 259.983 102.979Z" fill="#C5EDEA"/>
<path d="M229.089 130.365V134.619C220.889 134.565 215.996 133.792 215.996 120.005V96.2734C215.996 94.5534 216.983 93.0467 218.103 93.0467C219.236 93.0467 220.223 94.5534 220.223 96.2734V120.5C220.223 120.579 220.236 120.672 220.249 120.767C220.503 129.299 224.943 130.273 229.089 130.365Z" fill="#C5EDEA"/>
<path d="M69.0627 84.38V114.179C69.0627 132.153 62.2494 132.993 51.7827 133.032V126.699C57.036 126.607 62.3827 125.619 62.6894 115.113C62.7027 115.005 62.716 114.899 62.716 114.792V84.38C62.716 81.912 64.1694 79.82 65.8894 79.82C67.6094 79.82 69.0627 81.912 69.0627 84.38Z" fill="#C5EDEA"/>
<path d="M38.1693 111.78V116.019C32.276 115.993 28.0893 115.579 26.196 110.22C25.4626 108.139 25.0759 105.285 25.0759 101.405V77.672C25.0759 75.952 26.0626 74.4467 27.1826 74.4467C28.316 74.4467 29.3026 75.952 29.3026 77.672V101.899C29.3026 101.993 29.316 102.072 29.3293 102.167C29.356 103.22 29.4626 104.167 29.6093 105.005C30.6759 110.94 34.5293 111.685 38.1693 111.78Z" fill="#C5EDEA"/>
<path d="M238.703 109.232V191.645H233.089V183.472C233.089 183.459 233.089 109.232 233.089 109.232C233.089 107.005 234.369 105.125 235.889 105.125C237.409 105.125 238.703 107.005 238.703 109.232Z" fill="#57B9D4"/>
<path d="M191.276 66.2854V98.472C191.276 102.179 191.009 105.22 190.503 107.713C188.289 118.5 181.503 118.979 172.063 119.005V111.833C177.116 111.78 182.356 111.139 183.743 103.139C183.943 102.005 184.063 100.727 184.089 99.2734C184.103 99.232 184.103 99.1787 184.103 99.1387V66.2854C184.103 63.5254 185.743 61.2054 187.689 61.2054C189.636 61.2054 191.276 63.5254 191.276 66.2854Z" fill="#57B9D4"/>
<path d="M156.903 134.352V141.525C145.663 141.472 138.369 140.405 138.369 121.005V88.82C138.369 86.06 140.009 83.7267 141.956 83.7267C143.903 83.7267 145.543 86.06 145.543 88.82V121.66C145.543 121.713 145.556 121.752 145.556 121.792C145.809 133.005 151.356 134.22 156.903 134.352Z" fill="#57B9D4"/>
<path d="M47.7827 90.632V174.365H42.1693V90.632C42.1693 88.4053 43.4493 86.5387 44.9693 86.5387C46.4893 86.5387 47.7827 88.4053 47.7827 90.632Z" fill="#57B9D4"/>
<path d="M256.809 192.032C255.703 192.032 254.809 192.925 254.809 194.032C254.809 195.139 255.703 196.032 256.809 196.032H264.129C265.236 196.032 266.129 195.139 266.129 194.032C266.129 192.925 265.236 192.032 264.129 192.032H256.809Z" fill="#373D4C"/>
<path d="M241.183 75.3934H249.169C250.276 75.3934 251.169 74.4854 251.169 73.3934C251.169 72.2854 250.276 71.3934 249.169 71.3934H241.183C240.076 71.3934 239.183 72.2854 239.183 73.3934C239.183 74.4854 240.076 75.3934 241.183 75.3934Z" fill="#E8C080"/>
<path d="M227.889 51.2454C229.276 51.2454 230.396 52.3654 230.396 53.752C230.396 55.1254 229.276 56.2454 227.889 56.2454C226.516 56.2454 225.396 55.1254 225.396 53.752C225.396 52.3654 226.516 51.2454 227.889 51.2454ZM227.889 60.2454C231.476 60.2454 234.396 57.3267 234.396 53.752C234.396 50.1667 231.476 47.2454 227.889 47.2454C224.316 47.2454 221.396 50.1667 221.396 53.752C221.396 57.3267 224.316 60.2454 227.889 60.2454Z" fill="#C5EDEA"/>
<path d="M204.943 169.139H210.196C211.303 169.139 212.196 168.245 212.196 167.139C212.196 166.032 211.303 165.139 210.196 165.139H204.943C203.836 165.139 202.943 166.032 202.943 167.139C202.943 168.245 203.836 169.139 204.943 169.139Z" fill="#E8C080"/>
<path d="M194.329 153.632C194.329 155.019 193.209 156.139 191.836 156.139C190.449 156.139 189.329 155.019 189.329 153.632C189.329 152.259 190.449 151.139 191.836 151.139C193.209 151.139 194.329 152.259 194.329 153.632ZM185.329 153.632C185.329 157.22 188.249 160.139 191.836 160.139C195.409 160.139 198.329 157.22 198.329 153.632C198.329 150.06 195.409 147.139 191.836 147.139C188.249 147.139 185.329 150.06 185.329 153.632Z" fill="#57B9D4"/>
<path d="M165.903 252.899H151.743C150.636 252.899 149.743 253.792 149.743 254.899C149.743 256.005 150.636 256.899 151.743 256.899H165.903C167.009 256.899 167.903 256.005 167.903 254.899C167.903 253.792 167.009 252.899 165.903 252.899Z" fill="#373D4C"/>
<path d="M149.743 215.632C149.743 216.738 150.636 217.632 151.743 217.632H161.689C162.796 217.632 163.689 216.738 163.689 215.632C163.689 214.538 162.796 213.632 161.689 213.632H151.743C150.636 213.632 149.743 214.538 149.743 215.632Z" fill="#373D4C"/>
<path d="M152.316 205.232C152.316 204.125 151.423 203.232 150.316 203.232H139.089C137.983 203.232 137.089 204.125 137.089 205.232C137.089 206.338 137.983 207.232 139.089 207.232H150.316C151.423 207.232 152.316 206.338 152.316 205.232Z" fill="#373D4C"/>
<path d="M243.836 244.019L215.223 248.752L221.289 210.512H250.396L243.836 244.019ZM211.103 249.179H192.329L208.276 207.619L217.329 209.993L211.103 249.179ZM189.169 246.22L183.556 234.979L199.929 205.432L204.383 206.607L189.169 246.22ZM180.036 233.06L156.569 235.726L173.703 225.113C173.996 224.94 174.236 224.685 174.396 224.393L191.743 193.167L196.676 203.06L180.036 233.06ZM156.903 141.525C145.663 141.472 138.369 140.405 138.369 121.005V88.8187C138.369 86.06 140.009 83.7267 141.956 83.7267C143.903 83.7267 145.543 86.06 145.543 88.8187V121.66C145.543 121.712 145.556 121.752 145.556 121.792C145.809 133.005 151.356 134.22 156.903 134.352V141.525ZM172.063 111.833C177.116 111.78 182.356 111.139 183.743 103.139C183.943 102.005 184.063 100.727 184.089 99.2734C184.103 99.232 184.103 99.1787 184.103 99.1387V66.2854C184.103 63.5254 185.743 61.2054 187.689 61.2054C189.636 61.2054 191.276 63.5254 191.276 66.2854V98.472C191.276 102.179 191.009 105.22 190.503 107.712C188.289 118.5 181.503 118.979 172.063 119.005V111.833ZM215.996 120.005V96.2734C215.996 94.5534 216.983 93.0454 218.103 93.0454C219.236 93.0454 220.223 94.5534 220.223 96.2734V120.5C220.223 120.579 220.236 120.672 220.249 120.765C220.503 129.299 224.943 130.273 229.089 130.365V134.619C220.889 134.565 215.996 133.792 215.996 120.005ZM233.089 183.472C233.089 183.459 233.089 109.232 233.089 109.232C233.089 107.005 234.369 105.125 235.889 105.125C237.409 105.125 238.703 107.005 238.703 109.232V191.645H233.089V183.472ZM242.703 145.285C247.129 145.22 251.636 144.5 253.116 137.965C253.396 136.765 253.569 135.352 253.609 133.712C253.623 133.607 253.636 133.5 253.636 133.393V102.979C253.636 100.512 255.089 98.4187 256.809 98.4187C258.529 98.4187 259.983 100.512 259.983 102.979V132.78C259.983 137.273 259.556 140.699 258.756 143.299C256.343 151.125 250.556 151.607 242.703 151.632V145.285ZM275.116 255.167L247.809 244.512L254.463 210.512H273.956C275.063 210.512 275.956 209.619 275.956 208.512C275.956 207.419 275.063 206.512 273.956 206.512H252.823C252.796 206.512 219.849 206.512 219.849 206.512L200.316 201.393L194.743 190.232L214.409 185.459H229.089V191.645H223.396C222.289 191.645 221.396 192.539 221.396 193.645C221.396 194.752 222.289 195.645 223.396 195.645H245.529C246.636 195.645 247.529 194.752 247.529 193.645C247.529 192.539 246.636 191.645 245.529 191.645H242.703V185.459H273.956C275.063 185.459 275.956 184.565 275.956 183.459C275.956 182.365 275.063 181.459 273.956 181.459H242.703V155.632C251.076 155.607 259.356 154.965 262.569 144.299C263.476 141.312 263.983 137.539 263.983 132.78V132.685C264.036 132.685 264.076 132.699 264.129 132.699H269.823C270.929 132.699 271.823 131.805 271.823 130.699C271.823 129.592 270.929 128.699 269.823 128.699H264.129C264.076 128.699 264.036 128.712 263.983 128.712V122.993C264.036 122.993 264.076 123.005 264.129 123.005H269.823C270.929 123.005 271.823 122.113 271.823 121.005C271.823 119.899 270.929 119.005 269.823 119.005H264.129C264.076 119.005 264.036 119.019 263.983 119.019V113.285C264.036 113.299 264.076 113.312 264.129 113.312H269.823C270.929 113.312 271.823 112.405 271.823 111.312C271.823 110.205 270.929 109.312 269.823 109.312H264.129C264.076 109.312 264.036 109.327 263.983 109.327V102.979C263.983 99.952 262.663 97.2987 260.676 95.78L263.383 93.5254C264.223 92.8187 264.343 91.5534 263.636 90.6987C262.929 89.8587 261.676 89.7387 260.823 90.4467L258.809 92.1254V90.232C258.809 89.1254 257.916 88.232 256.809 88.232C255.703 88.232 254.809 89.1254 254.809 90.232V92.1254L252.796 90.4467C251.956 89.7387 250.689 89.8587 249.983 90.6987C249.276 91.5534 249.396 92.8187 250.236 93.5254L252.956 95.78C250.969 97.2987 249.636 99.952 249.636 102.979V132.78C249.636 134.712 249.503 136.192 249.223 137.352C248.383 140.805 246.263 141.232 242.703 141.285V109.232C242.703 106.459 241.516 104.005 239.729 102.539L242.463 100.259C243.316 99.5534 243.423 98.2987 242.716 97.4467C242.023 96.592 240.756 96.4854 239.903 97.192L237.889 98.8587V96.9787C237.889 95.872 236.996 94.9787 235.889 94.9787C234.783 94.9787 233.889 95.872 233.889 96.9787V98.8587L231.889 97.192C231.036 96.4854 229.769 96.592 229.063 97.4467C228.356 98.2987 228.476 99.5534 229.329 100.259L232.063 102.539C230.263 104.005 229.089 106.459 229.089 109.232V126.379C225.583 126.299 224.223 125.632 224.223 120.005V96.2734C224.223 93.6854 223.063 91.4187 221.329 90.1387L224.676 87.3654C225.529 86.66 225.636 85.3934 224.929 84.5387C224.223 83.6987 222.969 83.5787 222.116 84.2854L220.103 85.9654V84.072C220.103 82.9654 219.209 82.072 218.103 82.072C216.996 82.072 216.103 82.9654 216.103 84.072V85.9654L214.089 84.2854C213.249 83.5787 211.983 83.6987 211.276 84.5387C210.569 85.3934 210.689 86.66 211.529 87.3654L214.876 90.1387C213.143 91.4187 211.996 93.6854 211.996 96.2734V120.005C211.996 137.592 220.436 138.565 229.089 138.619V181.459H214.169C214.009 181.459 213.849 181.485 213.703 181.525L213.476 181.579L191.356 186.94C191.209 186.979 191.103 187.019 191.009 187.072C190.983 187.085 190.956 187.085 190.929 187.099C190.809 187.167 190.689 187.232 190.583 187.327C190.556 187.352 190.529 187.379 190.489 187.405C190.423 187.472 190.343 187.539 190.276 187.619C190.249 187.66 190.223 187.712 190.196 187.752C190.156 187.805 190.116 187.859 190.089 187.912L181.289 203.752C181.023 203.632 180.743 203.565 180.449 203.565H172.063V123.005C182.169 122.979 191.556 122.379 194.383 108.447C194.676 107.072 194.889 105.553 195.036 103.899C195.156 103.912 195.276 103.925 195.396 103.925H201.076C202.183 103.925 203.076 103.032 203.076 101.925C203.076 100.833 202.183 99.9254 201.076 99.9254H195.396C195.343 99.9254 195.303 99.94 195.249 99.952C195.263 99.4587 195.276 98.9787 195.276 98.472V94.22C195.316 94.22 195.356 94.232 195.396 94.232H201.076C202.183 94.232 203.076 93.3387 203.076 92.232C203.076 91.1254 202.183 90.232 201.076 90.232H195.396C195.356 90.232 195.316 90.2454 195.276 90.2454V84.5254C195.316 84.5254 195.356 84.5387 195.396 84.5387H201.076C202.183 84.5387 203.076 83.6454 203.076 82.5387C203.076 81.432 202.183 80.5387 201.076 80.5387H195.396C195.356 80.5387 195.316 80.5534 195.276 80.5534V74.8334C195.316 74.8334 195.356 74.8454 195.396 74.8454H201.076C202.183 74.8454 203.076 73.952 203.076 72.8454C203.076 71.7387 202.183 70.8454 201.076 70.8454H195.396C195.356 70.8454 195.316 70.8454 195.276 70.8587V66.2854C195.276 62.7387 193.556 59.672 191.076 58.1787L194.556 55.2854C195.396 54.5787 195.516 53.312 194.809 52.472C194.103 51.6187 192.836 51.5 191.996 52.2054L189.689 54.1254V51.8987C189.689 50.792 188.796 49.8987 187.689 49.8987C186.583 49.8987 185.689 50.792 185.689 51.8987V54.1254L183.383 52.2054C182.543 51.5 181.276 51.6187 180.569 52.472C179.863 53.312 179.983 54.5787 180.823 55.2854L184.303 58.1787C181.823 59.672 180.103 62.7387 180.103 66.2854V98.472C180.103 100.099 180.009 101.447 179.823 102.553C179.009 107.365 176.423 107.805 172.063 107.833V48.792C172.063 45.5 170.596 42.632 168.409 41.032L171.343 38.592C172.196 37.8867 172.316 36.6187 171.609 35.78C170.903 34.9254 169.636 34.8054 168.783 35.512L166.489 37.432V35.2054C166.489 34.0987 165.583 33.2054 164.489 33.2054C163.383 33.2054 162.489 34.0987 162.489 35.2054V37.432L160.183 35.512C159.329 34.8054 158.076 34.9254 157.369 35.78C156.663 36.6187 156.769 37.8867 157.623 38.592L160.556 41.032C158.369 42.632 156.903 45.5 156.903 48.792V130.352C151.996 130.245 149.543 129.299 149.543 121.005V88.8187C149.543 85.5254 148.076 82.66 145.889 81.06L148.823 78.6187C149.663 77.912 149.783 76.66 149.076 75.8054C148.369 74.952 147.116 74.8454 146.263 75.5534L143.956 77.4587V75.232C143.956 74.1254 143.063 73.232 141.956 73.232C140.849 73.232 139.956 74.1254 139.956 75.232V77.4587L137.649 75.5534C136.809 74.8454 135.543 74.952 134.836 75.8054C134.129 76.66 134.249 77.912 135.089 78.6187L138.023 81.06C135.836 82.66 134.369 85.5254 134.369 88.8187V121.005C134.369 144.232 145.063 145.459 156.903 145.525V204.899C156.903 206.005 157.796 206.899 158.903 206.899C160.009 206.899 160.903 206.005 160.903 204.899V48.792C160.903 46.032 162.543 43.6987 164.489 43.6987C166.423 43.6987 168.063 46.032 168.063 48.792V203.565H167.289C166.183 203.565 165.289 204.459 165.289 205.565C165.289 206.672 166.183 207.565 167.289 207.565H179.169L171.156 221.993L146.889 237.019C146.089 237.512 145.743 238.5 146.049 239.379C146.329 240.192 147.089 240.726 147.943 240.726C148.009 240.726 148.089 240.726 148.169 240.712L180.129 237.072L187.623 252.072C187.636 252.099 187.663 252.113 187.676 252.138C187.743 252.259 187.809 252.366 187.903 252.472C187.929 252.5 187.956 252.525 187.983 252.566C188.089 252.672 188.209 252.78 188.356 252.872C188.369 252.887 188.396 252.887 188.423 252.899C188.503 252.952 188.596 253.005 188.703 253.045C188.729 253.06 188.743 253.045 188.769 253.06C188.969 253.125 189.196 253.179 189.423 253.179H212.809C212.836 253.179 212.849 253.167 212.876 253.167C212.969 253.167 213.049 253.167 213.143 253.152L245.316 247.819L273.663 258.887C273.903 258.979 274.143 259.019 274.383 259.019C275.183 259.019 275.943 258.538 276.249 257.752C276.649 256.726 276.143 255.566 275.116 255.167Z" fill="#373D4C"/>
<path d="M125.356 60.3934H134.823C135.929 60.3934 136.823 59.5 136.823 58.3934C136.823 57.2854 135.929 56.3934 134.823 56.3934H125.356C124.249 56.3934 123.356 57.2854 123.356 58.3934C123.356 59.5 124.249 60.3934 125.356 60.3934Z" fill="#CA8B2F"/>
<path d="M123.969 239.553H115.543C114.436 239.553 113.543 240.447 113.543 241.553C113.543 242.66 114.436 243.553 115.543 243.553H123.969C125.076 243.553 125.969 242.66 125.969 241.553C125.969 240.447 125.076 239.553 123.969 239.553Z" fill="#373D4C"/>
<path d="M108.769 85.5254C110.143 85.5254 111.263 86.6454 111.263 88.032C111.263 89.4054 110.143 90.5254 108.769 90.5254C107.383 90.5254 106.263 89.4054 106.263 88.032C106.263 86.6454 107.383 85.5254 108.769 85.5254ZM108.769 94.5254C112.343 94.5254 115.263 91.6067 115.263 88.032C115.263 84.4467 112.343 81.5254 108.769 81.5254C105.183 81.5254 102.263 84.4467 102.263 88.032C102.263 91.6067 105.183 94.5254 108.769 94.5254Z" fill="#C5EDEA"/>
<path d="M104.729 251.965H54.8893C53.7826 251.965 52.8893 252.859 52.8893 253.965C52.8893 255.072 53.7826 255.965 54.8893 255.965H104.729C105.823 255.965 106.729 255.072 106.729 253.965C106.729 252.859 105.823 251.965 104.729 251.965Z" fill="#373D4C"/>
<path d="M96.0493 131.393C94.956 131.393 94.0493 132.285 94.0493 133.393C94.0493 134.5 94.956 135.393 96.0493 135.393H104.263C105.369 135.393 106.263 134.5 106.263 133.393C106.263 132.285 105.369 131.393 104.263 131.393H96.0493Z" fill="#CA8B2F"/>
<path d="M90.0627 45.1787C92.2627 45.1787 94.0494 46.9654 94.0494 49.1667C94.0494 51.352 92.2627 53.152 90.0627 53.152C87.8761 53.152 86.0894 51.352 86.0894 49.1667C86.0894 46.9654 87.8761 45.1787 90.0627 45.1787ZM90.0627 57.152C94.4761 57.152 98.0494 53.5654 98.0494 49.1667C98.0494 44.752 94.4761 41.1787 90.0627 41.1787C85.6627 41.1787 82.0894 44.752 82.0894 49.1667C82.0894 53.5654 85.6627 57.152 90.0627 57.152Z" fill="#57B9D4"/>
<path d="M83.5294 178.365C84.6227 178.365 85.5294 177.472 85.5294 176.365C85.5294 175.259 84.6227 174.365 83.5294 174.365H66.8093C65.7027 174.365 64.8093 175.259 64.8093 176.365C64.8093 177.472 65.7027 178.365 66.8093 178.365H83.5294Z" fill="#373D4C"/>
<path d="M115.903 225.338L110.903 189.699L116.676 184.833L122.103 216.472C122.169 216.845 122.329 217.192 122.583 217.472L131.329 227.22L115.903 225.338ZM95.996 237.299L89.1827 193.259L107.063 191.099L111.996 226.192L95.996 237.299ZM52.5827 228.22L50.3693 193.512H85.1827L92.076 238.085L52.5827 228.22ZM47.7827 174.365H42.1693V90.632C42.1693 88.4054 43.4493 86.5387 44.9693 86.5387C46.4893 86.5387 47.7827 88.4054 47.7827 90.632V174.365ZM38.1693 116.019C32.276 115.993 28.0893 115.579 26.196 110.22C25.4627 108.139 25.076 105.285 25.076 101.405V77.672C25.076 75.952 26.0627 74.4467 27.1827 74.4467C28.316 74.4467 29.3027 75.952 29.3027 77.672V101.899C29.3027 101.993 29.316 102.072 29.3293 102.167C29.356 103.22 29.4626 104.167 29.6093 105.005C30.676 110.94 34.5293 111.685 38.1693 111.78V116.019ZM51.7827 126.699C57.036 126.607 62.3826 125.619 62.6893 115.113C62.7026 115.005 62.716 114.899 62.716 114.792V84.3787C62.716 81.912 64.1693 79.8187 65.8893 79.8187C67.6093 79.8187 69.0627 81.912 69.0627 84.3787V114.179C69.0627 132.152 62.2493 132.993 51.7827 133.032V126.699ZM125.943 215.232L120.036 180.712C120.009 180.607 119.983 180.539 119.969 180.485C119.943 180.405 119.916 180.327 119.889 180.259C119.863 180.205 119.836 180.152 119.809 180.113C119.783 180.032 119.729 179.965 119.689 179.899C119.649 179.845 119.623 179.805 119.583 179.765C119.529 179.699 119.476 179.645 119.409 179.592C119.396 179.565 119.369 179.539 119.356 179.525L101.556 164.472L101.089 164.072C100.796 163.805 100.423 163.645 100.023 163.607L60.2093 159.245C60.1426 159.245 60.0627 159.232 59.996 159.232H51.7827V137.032C62.5027 136.993 73.0627 135.979 73.0627 114.179V84.3787C73.0627 81.352 71.7426 78.6987 69.756 77.1787L72.4627 74.9254C73.316 74.22 73.4227 72.952 72.716 72.1134C72.0093 71.2587 70.756 71.1387 69.9026 71.8454L67.8893 73.5254V71.632C67.8893 70.5254 66.996 69.632 65.8893 69.632C64.7826 69.632 63.8893 70.5254 63.8893 71.632V73.5254L61.876 71.8454C61.036 71.1387 59.7693 71.2587 59.0627 72.1134C58.356 72.952 58.476 74.22 59.316 74.9254L62.036 77.1787C60.0493 78.6987 58.716 81.352 58.716 84.3787V114.179C58.716 121.899 56.5293 122.619 51.7827 122.699V90.632C51.7827 87.8587 50.596 85.4054 48.8093 83.952L51.5426 81.672C52.396 80.9654 52.5027 79.6987 51.796 78.8454C51.0893 78.0054 49.836 77.8867 48.9827 78.592L46.9693 80.2734V78.3787C46.9693 77.2734 46.076 76.3787 44.9693 76.3787C43.8627 76.3787 42.9693 77.2734 42.9693 78.3787V80.2734L40.956 78.592C40.116 77.8867 38.8493 78.0054 38.1426 78.8454C37.436 79.6987 37.556 80.9654 38.396 81.672L41.1426 83.952C39.3426 85.4054 38.1693 87.8587 38.1693 90.632V107.78C35.436 107.712 33.996 107.299 33.5027 104.447C33.3693 103.632 33.3027 102.645 33.3027 101.405V77.672C33.3027 75.0854 32.1426 72.8187 30.4093 71.5534L33.756 68.7654C34.6093 68.06 34.716 66.792 34.0093 65.952C33.3026 65.0987 32.0493 64.9787 31.196 65.6854L29.1827 67.3654V65.472C29.1827 64.3654 28.2893 63.472 27.1827 63.472C26.076 63.472 25.1827 64.3654 25.1827 65.472V67.3654L23.1693 65.6854C22.3293 64.9787 21.0626 65.0987 20.356 65.952C19.6493 66.792 19.7693 68.06 20.6093 68.7654L23.956 71.5534C22.2226 72.8187 21.076 75.0854 21.076 77.672V82.5387H17.3827C16.276 82.5387 15.3827 83.432 15.3827 84.5387C15.3827 85.6454 16.276 86.5387 17.3827 86.5387H21.076V92.232H17.3827C16.276 92.232 15.3827 93.1254 15.3827 94.232C15.3827 95.3387 16.276 96.232 17.3827 96.232H21.076V101.405C21.076 101.592 21.076 101.752 21.076 101.925H17.3827C16.276 101.925 15.3827 102.819 15.3827 103.925C15.3827 105.032 16.276 105.925 17.3827 105.925H21.2893C21.5026 107.993 21.8627 109.765 22.3693 111.273C25.0627 119.393 31.556 119.979 38.1693 120.019V159.232H6.28931C5.18264 159.232 4.28931 160.139 4.28931 161.232C4.28931 162.339 5.18264 163.232 6.28931 163.232H38.1693V174.365H26.9693C25.8627 174.365 24.9693 175.259 24.9693 176.365C24.9693 177.472 25.8627 178.365 26.9693 178.365H53.956C55.0626 178.365 55.956 177.472 55.956 176.365C55.956 175.259 55.0626 174.365 53.956 174.365H51.7827V163.232H59.8893L98.9827 167.512L114.956 181.045L107.929 186.965L86.7693 189.512H6.28931C5.18264 189.512 4.28931 190.419 4.28931 191.512C4.28931 192.619 5.18264 193.512 6.28931 193.512H46.356L48.556 227.805L6.27596 227.845C5.18263 227.845 4.28931 228.752 4.28931 229.845C4.28931 230.952 5.18264 231.845 6.28931 231.845L50.436 231.805L94.0226 242.699C94.2093 242.738 94.356 242.766 94.5026 242.766C94.7293 242.752 94.9293 242.726 95.1293 242.66C95.2093 242.632 95.2626 242.592 95.3426 242.554C95.436 242.512 95.556 242.472 95.6493 242.405L114.649 229.22L136.129 231.833C136.209 231.845 136.289 231.845 136.369 231.845C137.116 231.845 137.796 231.447 138.143 230.78C138.529 230.032 138.423 229.138 137.863 228.512L125.943 215.232Z" fill="#373D4C"/>
<path d="M38.4226 49.8187H43.6759C44.7826 49.8187 45.6759 48.9254 45.6759 47.8187C45.6759 46.7267 44.7826 45.8187 43.6759 45.8187H38.4226C37.3159 45.8187 36.4226 46.7267 36.4226 47.8187C36.4226 48.9254 37.3159 49.8187 38.4226 49.8187Z" fill="#E8C080"/>
<path d="M43.676 240.952H32.5693C31.4627 240.952 30.5693 241.859 30.5693 242.952C30.5693 244.06 31.4627 244.952 32.5693 244.952H43.676C44.7826 244.952 45.676 244.06 45.676 242.952C45.676 241.859 44.7826 240.952 43.676 240.952Z" fill="#373D4C"/>
</g>
</svg>
