<svg width="288" height="288" viewBox="0 0 288 288" fill="none" xmlns="http://www.w3.org/2000/svg">
<mask id="mask0_221:13936" style="mask-type:alpha" maskUnits="userSpaceOnUse" x="0" y="0" width="288" height="288">
<circle cx="144" cy="144" r="144" fill="#C4C4C4"/>
</mask>
<g mask="url(#mask0_221:13936)">
<path d="M2667.87 597.453H-68V-21.996H2667.87V597.453Z" fill="#FFFEFA"/>
<path d="M164.503 216.877C164.503 216.877 214.725 200.141 269.503 205.1V252.591C269.503 252.591 206.005 227.917 164.503 216.877Z" fill="#E8C080"/>
<path d="M14.6694 205.141V252.591H269.503C269.503 252.591 190.395 219.523 130.297 211.836C70.1988 204.149 14.6694 205.141 14.6694 205.141Z" fill="#E8DECF"/>
<path d="M253.663 156.596V137.929C253.663 136.823 252.769 135.929 251.663 135.929C250.556 135.929 249.663 136.823 249.663 137.929V156.596C249.663 157.689 250.556 158.596 251.663 158.596C252.769 158.596 253.663 157.689 253.663 156.596ZM258.303 138.996C260.223 161.849 258.676 178.409 254.169 183.316C253.996 183.489 253.836 183.649 253.663 183.784V164.596C253.663 163.489 252.769 162.596 251.663 162.596C250.556 162.596 249.663 163.489 249.663 164.596V183.811C249.516 183.689 249.369 183.556 249.223 183.397C244.956 178.757 243.649 162.569 245.636 138.996C247.663 114.889 250.876 110.769 251.969 110.076C253.049 110.769 256.263 114.889 258.303 138.996Z" fill="#CCE294"/>
<path d="M225.663 115.263V92.5961C225.663 91.4894 224.769 90.5961 223.663 90.5961C222.556 90.5961 221.663 91.4894 221.663 92.5961V115.263C221.663 116.356 222.556 117.263 223.663 117.263C224.769 117.263 225.663 116.356 225.663 115.263ZM232.809 109.344C235.049 144.371 232.436 171.316 226.183 177.983C225.943 178.236 225.716 178.436 225.489 178.609C225.196 170.704 225.423 143.451 225.663 125.956C225.676 124.849 224.796 123.943 223.689 123.929C222.569 123.929 221.676 124.796 221.663 125.903C221.196 159.757 221.263 173.144 221.556 178.609C221.383 178.463 221.196 178.316 221.009 178.103C215.223 171.943 213.169 146.236 215.516 109.344C217.836 72.9694 222.703 66.1028 224.169 64.8628C225.623 66.1028 230.503 72.9694 232.809 109.344Z" fill="#A0D7A0"/>
<path d="M182.996 139.263V131.263C182.996 130.156 182.103 129.263 180.996 129.263C179.889 129.263 178.996 130.156 178.996 131.263V139.263C178.996 140.356 179.889 141.263 180.996 141.263C182.103 141.263 182.996 140.356 182.996 139.263ZM182.996 168.596V148.596C182.996 147.489 182.103 146.596 180.996 146.596C179.889 146.596 178.996 147.489 178.996 148.596V168.596C178.996 169.689 179.889 170.596 180.996 170.596C182.103 170.596 182.996 169.689 182.996 168.596ZM199.529 146.477C201.943 161.757 200.383 173.156 194.996 179.451C192.103 182.849 188.063 184.769 182.996 185.169V175.263C182.996 174.156 182.103 173.263 180.996 173.263C179.889 173.263 178.996 174.156 178.996 175.263V185.183C173.796 184.836 169.649 182.916 166.689 179.451C161.316 173.156 159.756 161.757 162.169 146.477C165.903 122.889 175.623 116.596 180.769 116.596C180.796 116.596 180.823 116.583 180.849 116.583C180.876 116.583 180.903 116.596 180.929 116.596C186.076 116.596 195.796 122.889 199.529 146.477Z" fill="#CCE294"/>
<path d="M182.996 53.2627C188.876 53.2627 193.663 58.0361 193.663 63.9294C193.663 69.8107 188.876 74.5961 182.996 74.5961C177.116 74.5961 172.329 69.8107 172.329 63.9294C172.329 58.0361 177.116 53.2627 182.996 53.2627Z" fill="#E8C080"/>
<path d="M137.663 99.2627V95.2627C137.663 94.1561 136.769 93.2627 135.663 93.2627C134.556 93.2627 133.663 94.1561 133.663 95.2627V99.2627C133.663 100.356 134.556 101.263 135.663 101.263C136.769 101.263 137.663 100.356 137.663 99.2627ZM145.609 110.596C148.636 135.424 150.689 161.983 142.903 170.784C141.476 172.397 139.756 173.371 137.663 173.743V108.596C137.663 107.489 136.769 106.596 135.663 106.596C134.556 106.596 133.663 107.489 133.663 108.596V173.743C131.089 173.289 129.036 171.929 127.436 169.596C127.316 169.424 127.169 169.276 126.996 169.144V151.263C126.996 150.876 126.889 150.503 126.689 150.183L122.889 144.209C122.916 144.076 122.943 143.929 122.943 143.784C123.063 135.303 123.916 124.769 125.649 110.596C129.329 80.4507 130.849 69.9841 135.636 69.9294C140.409 69.9841 141.929 80.4507 145.609 110.596Z" fill="#A0D7A0"/>
<path d="M114.996 163.263V151.263C114.996 150.156 114.103 149.263 112.996 149.263H100.996C99.8893 149.263 98.9959 150.156 98.9959 151.263V163.263C98.9959 164.356 99.8893 165.263 100.996 165.263H112.996C114.103 165.263 114.996 164.356 114.996 163.263ZM122.996 151.836V208.769C120.343 208.436 117.663 208.117 114.996 207.823V180.596C114.996 179.489 114.103 178.596 112.996 178.596H100.996C99.8893 178.596 98.9959 179.489 98.9959 180.596V205.929C98.9959 206.023 99.0093 206.129 99.0359 206.223C95.8759 205.943 92.7559 205.676 89.6626 205.436V151.836L106.329 125.649L122.996 151.836Z" fill="#4D7591"/>
<path d="M110.996 153.263V161.263H102.996V153.263H110.996Z" fill="#E8C080"/>
<path d="M40.3297 129.929V107.263C40.3297 106.156 39.4359 105.263 38.3297 105.263C37.2229 105.263 36.3297 106.156 36.3297 107.263V129.929C36.3297 131.023 37.2229 131.929 38.3297 131.929C39.4359 131.929 40.3297 131.023 40.3297 129.929ZM48.2759 118.596C51.3026 143.424 53.3562 169.983 45.5697 178.784C44.1426 180.397 42.4234 181.371 40.3297 181.743V140.596C40.3297 139.489 39.4359 138.596 38.3297 138.596C37.2229 138.596 36.3297 139.489 36.3297 140.596V181.757C34.2229 181.383 32.463 180.409 31.0229 178.784C23.2363 169.983 25.2895 143.424 28.3161 118.596C31.9963 88.4507 33.5161 77.9841 38.3026 77.9294C43.0759 77.9841 44.5963 88.4507 48.2759 118.596Z" fill="#CCE294"/>
<path d="M135.663 106.596C134.556 106.596 133.663 107.489 133.663 108.596V173.743C131.089 173.289 129.036 171.929 127.436 169.596C127.316 169.423 127.169 169.276 126.996 169.143V151.263C126.996 150.876 126.889 150.503 126.689 150.183L122.889 144.209C122.916 144.076 122.943 143.929 122.943 143.783C123.063 135.303 123.916 124.769 125.649 110.596C129.329 80.4494 130.849 69.9841 135.636 69.9294C140.409 69.9841 141.929 80.4494 145.609 110.596C148.636 135.423 150.689 161.983 142.903 170.783C141.476 172.396 139.756 173.369 137.663 173.743V108.596C137.663 107.489 136.769 106.596 135.663 106.596ZM133.596 210.209C131.409 209.889 129.209 209.583 126.996 209.289V174.969C128.876 176.516 131.076 177.449 133.596 177.783V210.209ZM122.996 208.769C120.343 208.436 117.663 208.116 114.996 207.823V180.596C114.996 179.489 114.103 178.596 112.996 178.596H100.996C99.8894 178.596 98.996 179.489 98.996 180.596V205.929C98.996 206.023 99.0094 206.129 99.036 206.223C95.876 205.943 92.756 205.676 89.6627 205.436V151.836L106.329 125.649L122.996 151.836V208.769ZM38.3298 138.596C37.223 138.596 36.3298 139.489 36.3298 140.596V181.756C34.223 181.383 32.4631 180.409 31.0229 178.783C23.2364 169.983 25.2896 143.423 28.3161 118.596C31.9964 88.4494 33.5162 77.9841 38.3027 77.9294C43.076 77.9841 44.5964 88.4494 48.276 118.596C51.3027 143.423 53.3563 169.983 45.5698 178.783C44.1427 180.396 42.4235 181.369 40.3298 181.743V140.596C40.3298 139.489 39.436 138.596 38.3298 138.596ZM166.689 179.449C161.316 173.156 159.756 161.756 162.169 146.476C165.903 122.889 175.623 116.596 180.769 116.596C180.796 116.596 180.823 116.583 180.849 116.583C180.876 116.583 180.903 116.596 180.929 116.596C186.076 116.596 195.796 122.889 199.529 146.476C201.943 161.756 200.383 173.156 194.996 179.449C192.103 182.849 188.063 184.769 182.996 185.169V175.263C182.996 174.156 182.103 173.263 180.996 173.263C179.889 173.263 178.996 174.156 178.996 175.263V185.183C173.796 184.836 169.649 182.916 166.689 179.449ZM221.663 125.903C221.196 159.756 221.263 173.143 221.556 178.609C221.383 178.463 221.196 178.316 221.009 178.103C215.223 171.943 213.169 146.236 215.516 109.344C217.836 72.9694 222.703 66.1027 224.169 64.8627C225.623 66.1027 230.503 72.9694 232.809 109.344C235.049 144.369 232.436 171.316 226.183 177.983C225.943 178.236 225.716 178.436 225.489 178.609C225.196 170.703 225.423 143.449 225.663 125.956C225.676 124.849 224.796 123.943 223.689 123.929C222.569 123.929 221.676 124.796 221.663 125.903ZM249.223 183.396C244.956 178.756 243.649 162.569 245.636 138.996C247.663 114.889 250.876 110.769 251.969 110.076C253.049 110.769 256.263 114.889 258.303 138.996C260.223 161.849 258.676 178.409 254.169 183.316C253.996 183.489 253.836 183.649 253.663 183.783V164.596C253.663 163.489 252.769 162.596 251.663 162.596C250.556 162.596 249.663 163.489 249.663 164.596V183.809C249.516 183.689 249.369 183.556 249.223 183.396ZM271.156 250.769C270.889 250.649 258.089 244.903 238.089 237.623C248.783 236.463 260.196 236.009 270.396 235.689C271.503 235.649 272.369 234.729 272.329 233.623C272.303 232.516 271.383 231.636 270.276 231.689C257.543 232.089 242.889 232.676 230.036 234.609C229.956 234.623 229.889 234.649 229.809 234.676C221.729 231.849 212.769 228.903 203.183 226.009C211.276 224.649 220.116 223.476 228.783 222.623C229.876 222.516 230.676 221.529 230.569 220.436C230.463 219.329 229.476 218.516 228.383 218.636C216.703 219.796 204.729 221.516 194.596 223.503C186.183 221.116 177.396 218.823 168.369 216.743C187.889 212.329 237.049 202.449 270.089 206.569C271.169 206.703 272.183 205.929 272.316 204.836C272.449 203.743 271.676 202.743 270.583 202.609C265.289 201.943 259.583 201.636 253.663 201.596V188.276C254.929 187.889 256.089 187.143 257.116 186.023C264.409 178.076 263.489 152.943 262.289 138.663C260.249 114.476 256.863 107.836 253.516 106.317C253.183 106.076 252.783 105.929 252.329 105.929C252.209 105.929 252.089 105.929 251.969 105.929C251.836 105.929 251.716 105.929 251.596 105.929C251.143 105.929 250.743 106.076 250.409 106.317C247.063 107.836 243.676 114.476 241.649 138.663C241.449 141.009 241.276 143.436 241.129 145.903C240.169 162.089 240.609 179.929 246.289 186.103C247.263 187.183 248.423 187.916 249.663 188.303V201.623C241.863 201.729 233.756 202.276 225.743 203.076V182.943C226.943 182.556 228.063 181.823 229.089 180.716C233.623 175.889 236.436 163.503 237.329 145.729C237.836 135.236 237.689 122.876 236.809 109.076C234.343 70.4227 229.076 62.5961 225.796 60.9961C225.449 60.7427 225.036 60.5961 224.583 60.5961C224.463 60.5961 224.316 60.5961 224.169 60.5961C224.009 60.5961 223.876 60.5961 223.743 60.5961C223.289 60.5961 222.876 60.7427 222.543 60.9961C219.249 62.5961 213.983 70.4227 211.529 109.076C210.089 131.729 209.023 171.183 218.089 180.849C219.196 182.023 220.436 182.769 221.783 183.089L221.743 203.516C207.489 205.103 193.756 207.463 182.769 209.623V189.716C182.863 189.543 182.929 189.369 182.969 189.169C189.276 188.756 194.343 186.369 198.036 182.049C204.289 174.743 206.116 162.556 203.476 145.863C199.596 121.303 188.903 112.596 180.929 112.596C180.903 112.596 180.876 112.596 180.849 112.596C180.823 112.596 180.796 112.596 180.769 112.596C172.796 112.596 162.103 121.303 158.223 145.863C155.583 162.556 157.409 174.743 163.649 182.049C167.356 186.383 172.436 188.783 178.769 189.196V210.423C168.369 212.543 161.116 214.329 159.356 214.756C156.929 214.249 154.489 213.756 152.036 213.289C150.356 212.969 148.663 212.663 146.956 212.369C143.876 211.809 140.743 211.303 137.596 210.809V177.796C140.903 177.396 143.689 175.929 145.889 173.436C154.223 164.036 153.383 141.316 149.583 110.116C145.463 76.3294 144.196 66.0227 135.716 65.9294C127.063 66.0227 125.796 76.3294 121.676 110.116C120.289 121.556 119.449 130.676 119.103 138.276L108.023 120.849C107.916 120.703 107.823 120.583 107.703 120.476C107.689 120.449 107.649 120.436 107.623 120.409C107.556 120.356 107.489 120.289 107.409 120.236C107.383 120.223 107.356 120.209 107.343 120.196C107.303 120.183 107.249 120.156 107.209 120.129C107.103 120.089 107.009 120.049 106.903 120.009C106.863 119.996 106.823 119.996 106.769 119.983C106.649 119.956 106.516 119.929 106.383 119.929C106.276 119.929 82.3293 119.929 82.3293 119.929C82.2094 119.929 82.116 119.943 82.0227 119.956C81.9827 119.956 81.956 119.956 81.916 119.969C81.8227 119.983 81.7427 120.023 81.6494 120.049C81.6094 120.063 81.5827 120.076 81.5427 120.089C81.4627 120.116 81.3827 120.169 81.316 120.209C81.276 120.236 81.236 120.249 81.2093 120.263C81.1427 120.316 81.0894 120.369 81.036 120.409C80.996 120.449 80.956 120.476 80.916 120.516C80.876 120.556 80.836 120.609 80.796 120.649C80.756 120.716 80.7027 120.769 80.6627 120.823C80.6493 120.849 61.9828 150.183 61.9828 150.183C61.7693 150.503 61.6631 150.876 61.6631 151.263V203.716C53.7834 203.343 46.5563 203.089 40.2631 202.916V185.796C43.5698 185.396 46.3563 183.929 48.5563 181.436C56.8896 172.036 56.0495 149.316 52.2495 118.116C48.1297 84.3294 46.8625 74.0227 38.3828 73.9294C29.7297 74.0227 28.4631 84.3294 24.3432 118.116C20.5427 149.316 19.7031 172.036 28.0364 181.436C30.223 183.903 32.9828 185.356 36.2631 185.783V202.823C23.7694 202.543 15.8896 202.596 15.6495 202.596C14.5427 202.596 13.6631 203.503 13.6631 204.609C13.6766 205.703 14.5698 206.596 15.6631 206.596C16.4235 206.596 88.756 206.103 146.249 216.289C147.943 216.596 149.623 216.903 151.289 217.223C212.996 229.036 268.956 254.156 269.503 254.409C269.783 254.529 270.063 254.596 270.329 254.596C271.089 254.596 271.823 254.156 272.156 253.409C272.609 252.409 272.169 251.223 271.156 250.769Z" fill="#373D4C"/>
<path d="M270.409 217.036C259.969 216.649 248.209 216.969 235.436 218.009C234.329 218.089 233.516 219.063 233.596 220.156C233.689 221.209 234.556 221.996 235.596 221.996C235.649 221.996 235.703 221.996 235.756 221.996C248.369 220.969 259.983 220.649 270.263 221.036C271.383 221.103 272.289 220.209 272.329 219.116C272.369 218.009 271.516 217.076 270.409 217.036Z" fill="#373D4C"/>
<path d="M251.663 158.596C252.769 158.596 253.663 157.689 253.663 156.596V137.929C253.663 136.823 252.769 135.929 251.663 135.929C250.556 135.929 249.663 136.823 249.663 137.929V156.596C249.663 157.689 250.556 158.596 251.663 158.596Z" fill="#373D4C"/>
<path d="M227.076 250.729C207.249 242.743 185.089 236.036 161.223 230.783C160.143 230.543 159.076 231.236 158.836 232.303C158.609 233.383 159.289 234.449 160.369 234.689C184.023 239.903 205.969 246.543 225.583 254.449C225.836 254.543 226.089 254.596 226.329 254.596C227.129 254.596 227.876 254.116 228.183 253.343C228.596 252.316 228.103 251.143 227.076 250.729Z" fill="#373D4C"/>
<path d="M225.663 115.263V92.5961C225.663 91.4894 224.769 90.5961 223.663 90.5961C222.556 90.5961 221.663 91.4894 221.663 92.5961V115.263C221.663 116.356 222.556 117.263 223.663 117.263C224.769 117.263 225.663 116.356 225.663 115.263Z" fill="#373D4C"/>
<path d="M182.996 53.2627C188.876 53.2627 193.663 58.0361 193.663 63.9294C193.663 69.8094 188.876 74.5961 182.996 74.5961C177.116 74.5961 172.329 69.8094 172.329 63.9294C172.329 58.0361 177.116 53.2627 182.996 53.2627Z" fill="#E8C080"/>
<path d="M179.329 95.2627C178.223 95.2627 177.329 96.1561 177.329 97.2627C177.329 98.3561 178.223 99.2627 179.329 99.2627H184.329C185.436 99.2627 186.329 98.3561 186.329 97.2627C186.329 96.1561 185.436 95.2627 184.329 95.2627H179.329Z" fill="#373D4C"/>
<path d="M180.996 170.596C182.103 170.596 182.996 169.689 182.996 168.596V148.596C182.996 147.489 182.103 146.596 180.996 146.596C179.889 146.596 178.996 147.489 178.996 148.596V168.596C178.996 169.689 179.889 170.596 180.996 170.596Z" fill="#373D4C"/>
<path d="M180.996 141.263C182.103 141.263 182.996 140.356 182.996 139.263V131.263C182.996 130.156 182.103 129.263 180.996 129.263C179.889 129.263 178.996 130.156 178.996 131.263V139.263C178.996 140.356 179.889 141.263 180.996 141.263Z" fill="#373D4C"/>
<path d="M176.249 250.676C154.089 243.863 127.489 238.916 97.196 235.969C96.1026 235.863 95.116 236.663 95.0093 237.769C94.9026 238.863 95.7026 239.849 96.8093 239.956C126.836 242.863 153.169 247.756 175.076 254.503C175.276 254.556 175.476 254.596 175.663 254.596C176.516 254.596 177.316 254.036 177.583 253.183C177.903 252.129 177.316 251.009 176.249 250.676Z" fill="#373D4C"/>
<path d="M147.783 232.089C147.903 232.116 148.036 232.129 148.156 232.129C149.103 232.129 149.929 231.463 150.116 230.503C150.329 229.423 149.623 228.369 148.543 228.156C112.236 221.116 78.4094 218.516 56.4235 217.583C55.3162 217.516 54.3828 218.396 54.3432 219.489C54.2896 220.596 55.1427 221.529 56.2495 221.583C78.1027 222.516 111.716 225.089 147.783 232.089Z" fill="#373D4C"/>
<path d="M137.663 95.2627C137.663 94.1561 136.769 93.2627 135.663 93.2627C134.556 93.2627 133.663 94.1561 133.663 95.2627V99.2627C133.663 100.356 134.556 101.263 135.663 101.263C136.769 101.263 137.663 100.356 137.663 99.2627V95.2627Z" fill="#373D4C"/>
<path d="M127.663 250.596H118.329C117.223 250.596 116.329 251.489 116.329 252.596C116.329 253.689 117.223 254.596 118.329 254.596H127.663C128.769 254.596 129.663 253.689 129.663 252.596C129.663 251.489 128.769 250.596 127.663 250.596Z" fill="#373D4C"/>
<path d="M102.996 153.263H110.996V161.263H102.996V153.263ZM98.9961 151.263V163.263C98.9961 164.356 99.8894 165.263 100.996 165.263H112.996C114.103 165.263 114.996 164.356 114.996 163.263V151.263C114.996 150.156 114.103 149.263 112.996 149.263H100.996C99.8894 149.263 98.9961 150.156 98.9961 151.263Z" fill="#373D4C"/>
<path d="M106.329 250.596H15.6631C14.5563 250.596 13.6631 251.489 13.6631 252.596C13.6631 253.689 14.5563 254.596 15.6631 254.596H106.329C107.436 254.596 108.329 253.689 108.329 252.596C108.329 251.489 107.436 250.596 106.329 250.596Z" fill="#373D4C"/>
<path d="M89.6626 80.3294H103.663C104.769 80.3294 105.663 79.4361 105.663 78.3294C105.663 77.2227 104.769 76.3294 103.663 76.3294H89.6626C88.5559 76.3294 87.6626 77.2227 87.6626 78.3294C87.6626 79.4361 88.5559 80.3294 89.6626 80.3294Z" fill="#373D4C"/>
<path d="M15.7567 237.249C16.0494 237.236 46.316 235.956 84.6492 238.903C84.7026 238.903 84.7559 238.903 84.8092 238.903C85.8359 238.903 86.7159 238.103 86.7959 237.063C86.8892 235.956 86.0626 234.996 84.9559 234.903C46.3827 231.956 15.8759 233.249 15.5827 233.263C14.4759 233.303 13.6228 234.236 13.663 235.343C13.716 236.449 14.6494 237.303 15.7567 237.249Z" fill="#373D4C"/>
<path d="M67.3294 96.4227H74.3294C75.4361 96.4227 76.3294 95.5294 76.3294 94.4227C76.3294 93.3174 75.4361 92.4227 74.3294 92.4227H67.3294C66.2228 92.4227 65.3298 93.3174 65.3298 94.4227C65.3298 95.5294 66.2228 96.4227 67.3294 96.4227Z" fill="#373D4C"/>
<path d="M15.663 221.263C15.703 221.263 15.7296 221.249 15.7567 221.249C15.8494 221.249 25.0363 220.836 40.0759 221.089C41.1827 221.103 42.09 220.236 42.1026 219.129C42.1296 218.023 41.2494 217.116 40.1426 217.089C24.9562 216.836 15.663 217.249 15.5696 217.263C14.4759 217.316 13.6228 218.249 13.663 219.356C13.716 220.423 14.6092 221.263 15.663 221.263Z" fill="#373D4C"/>
<path d="M40.3298 107.263C40.3298 106.156 39.4361 105.263 38.3298 105.263C37.223 105.263 36.3298 106.156 36.3298 107.263V129.929C36.3298 131.023 37.223 131.929 38.3298 131.929C39.4361 131.929 40.3298 131.023 40.3298 129.929V107.263Z" fill="#373D4C"/>
</g>
</svg>
