<svg width="288" height="288" viewBox="0 0 288 288" fill="none" xmlns="http://www.w3.org/2000/svg">
<mask id="mask0_221:13933" style="mask-type:alpha" maskUnits="userSpaceOnUse" x="0" y="0" width="288" height="288">
<circle cx="144" cy="144" r="144" fill="#C4C4C4"/>
</mask>
<g mask="url(#mask0_221:13933)">
<path d="M1687.87 597.453H-1048V-21.996H1687.87V597.453Z" fill="#FFFEFA"/>
<path d="M21.5027 70.4094H69.7026C69.7026 70.4094 69.0346 62.3361 64.6026 62.5027C60.1693 62.6694 59.1693 63.1694 59.1693 63.1694C59.1693 63.1694 56.8559 51.0321 48.0026 51.5027C39.1493 51.9747 35.6693 59.3361 35.0027 63.3361C35.0027 63.3361 31.5027 58.916 28.0027 59.876C24.5027 60.836 20.6693 65.1494 21.5027 70.4094Z" fill="#C5EDEA"/>
<path d="M254.129 135.076V126.543C254.129 125.436 253.236 124.543 252.129 124.543C251.023 124.543 250.129 125.436 250.129 126.543V135.076C250.129 136.183 251.023 137.076 252.129 137.076C253.236 137.076 254.129 136.183 254.129 135.076ZM267.303 118.743V156.983L244.663 147.916V118.743H267.303Z" fill="#80A0AC"/>
<path d="M201.996 127.516V118.983C201.996 117.876 201.103 116.983 199.996 116.983C198.889 116.983 197.996 117.876 197.996 118.983V127.516C197.996 128.623 198.889 129.516 199.996 129.516C201.103 129.516 201.996 128.623 201.996 127.516ZM221.009 109.503V151.023L206.303 145.144C205.676 144.889 204.983 144.969 204.436 145.343C203.889 145.716 203.556 146.343 203.556 146.996V156.609L191.783 151.903V109.503H221.009Z" fill="#80A0AC"/>
<path d="M255.983 108.169C263.836 108.169 266.236 112.183 266.969 114.743H244.996C245.729 112.209 248.143 108.169 255.983 108.169Z" fill="#E36C48"/>
<path d="M220.743 105.503H192.049C192.769 102.223 195.596 96.3174 206.396 96.3174C217.196 96.3174 220.023 102.223 220.743 105.503Z" fill="#E36C48"/>
<path d="M268.636 174.409V178.383H252.583V174.409H268.636Z" fill="#57B9D4"/>
<path d="M236.943 174.409V178.383H220.889V174.409H236.943Z" fill="#57B9D4"/>
<path d="M204.236 174.409V178.383H188.183V174.409H204.236Z" fill="#57B9D4"/>
<path d="M279.116 166.009V233.489H251.703V182.383H270.636C271.743 182.383 272.636 181.489 272.636 180.383V172.409C272.636 171.303 271.743 170.409 270.636 170.409H251.703V164.663C251.703 163.836 251.209 163.103 250.449 162.796L238.983 158.209V149.956L279.116 166.009Z" fill="#E8DECF"/>
<path d="M247.703 166.009V233.489H220.276V182.383H238.943C240.049 182.383 240.943 181.489 240.943 180.383V172.409C240.943 171.303 240.049 170.409 238.943 170.409H220.276V164.663C220.276 163.836 219.783 163.103 219.023 162.796L207.556 158.209V149.956L221.676 155.596C222.009 155.916 222.463 156.103 222.956 156.117L247.703 166.009Z" fill="#E8DECF"/>
<path d="M208.236 180.383V172.409C208.236 171.303 207.343 170.409 206.236 170.409H186.183C185.076 170.409 184.183 171.303 184.183 172.409V180.383C184.183 181.489 185.076 182.383 186.183 182.383H206.236C207.343 182.383 208.236 181.489 208.236 180.383ZM203.849 235.489V191.477C203.849 190.371 202.956 189.477 201.849 189.477H176.143V149.956L216.276 166.009V233.489H209.516C208.423 233.489 207.516 234.383 207.516 235.489H203.849Z" fill="#E8DECF"/>
<path d="M134.743 184.436V189.249H118.516V184.436H134.743Z" fill="#E8DECF"/>
<path d="M199.849 193.477V233.489H107.596V193.477H199.849ZM155.303 226.276C155.303 227.383 156.196 228.276 157.303 228.276H191.596C192.703 228.276 193.596 227.383 193.596 226.276V218.303C193.596 217.196 192.703 216.303 191.596 216.303H157.303C156.196 216.303 155.303 217.196 155.303 218.303V226.276ZM155.303 208.649C155.303 209.757 156.196 210.649 157.303 210.649H191.596C192.703 210.649 193.596 209.757 193.596 208.649V200.676C193.596 199.583 192.703 198.676 191.596 198.676H157.303C156.196 198.676 155.303 199.583 155.303 200.676V208.649ZM152.143 226.276V218.303C152.143 217.196 151.249 216.303 150.143 216.303H115.849C114.743 216.303 113.849 217.196 113.849 218.303V226.276C113.849 227.383 114.743 228.276 115.849 228.276H150.143C151.249 228.276 152.143 227.383 152.143 226.276ZM152.143 208.649V200.676C152.143 199.583 151.249 198.676 150.143 198.676H115.849C114.743 198.676 113.849 199.583 113.849 200.676V208.649C113.849 209.757 114.743 210.649 115.849 210.649H150.143C151.249 210.649 152.143 209.757 152.143 208.649Z" fill="#E8C080"/>
<path d="M31.9693 146.009C32.156 146.009 32.3293 145.969 32.5026 145.929C32.6626 145.969 32.836 146.009 33.0226 146.009H39.9827L40.8226 153.996H24.1693L25.0093 146.009H31.9693Z" fill="#FFFEFA"/>
<path d="M83.356 134.049L85.3693 152.996H57.6626C57.596 152.996 57.516 153.009 57.4493 153.023L59.4626 134.049H83.356Z" fill="#FFFEFA"/>
<path d="M88.2226 179.956L90.2359 198.903H52.5826L54.5959 179.956H88.2226Z" fill="#FFFEFA"/>
<path d="M93.0894 225.863L93.9026 233.489H53.2761L52.7026 228.091L52.4761 225.863H93.0894Z" fill="#FFFEFA"/>
<path d="M47.1025 213.103L48.3025 224.503H16.6892L18.1292 210.876H46.8625L47.1025 213.091C47.1025 213.091 47.1025 213.091 47.1025 213.103Z" fill="#FFFEFA"/>
<path d="M43.1293 175.623L44.5692 189.249H20.4226L21.8759 175.623C21.9426 175.623 43.1293 175.623 43.1293 175.623Z" fill="#FFFEFA"/>
<path d="M90.6626 202.903L92.6626 221.863H52.0493L51.1025 212.903L52.1559 202.889C52.1959 202.889 52.2226 202.903 52.2626 202.903H90.6626Z" fill="#E36C48"/>
<path d="M85.7826 156.969L87.7959 175.956H55.0226L57.0359 156.889C57.2359 156.956 57.4492 156.996 57.6626 156.996H85.476C85.5826 156.996 85.6759 156.983 85.7826 156.969Z" fill="#E36C48"/>
<path d="M70.7293 118.424C70.9693 118.424 71.196 118.371 71.4093 118.289C71.6227 118.371 71.8493 118.424 72.0893 118.424H81.6893L82.9293 130.049H59.8893L61.116 118.424H70.7293Z" fill="#E36C48"/>
<path d="M41.2493 157.996L42.7026 171.623H22.3026L23.7426 157.996H41.2493Z" fill="#E36C48"/>
<path d="M44.9959 193.249L46.4359 206.876H18.5559L20.0092 193.249H44.9959Z" fill="#E36C48"/>
<path d="M48.7293 228.503L49.2627 233.489H15.7427L16.2627 228.489C16.3161 228.489 16.3693 228.503 16.4093 228.503H48.7293Z" fill="#E36C48"/>
<path d="M254.129 126.543V135.076C254.129 136.183 253.236 137.076 252.129 137.076C251.023 137.076 250.129 136.183 250.129 135.076V126.543C250.129 125.436 251.023 124.543 252.129 124.543C253.236 124.543 254.129 125.436 254.129 126.543Z" fill="#FFFEFA"/>
<path d="M201.996 118.983V127.516C201.996 128.623 201.103 129.516 199.996 129.516C198.889 129.516 197.996 128.623 197.996 127.516V118.983C197.996 117.876 198.889 116.983 199.996 116.983C201.103 116.983 201.996 117.876 201.996 118.983Z" fill="#FFFEFA"/>
<path d="M175.28 65.1694H231.263C231.263 65.1694 230.947 53.3921 219.725 57.3921C219.725 57.3921 216.169 44.1694 205.503 44.1694C194.836 44.1694 189.725 52.3921 190.059 59.3921C190.059 59.3921 187.613 52.8054 179.392 55.8761C171.169 58.9481 175.28 65.1694 175.28 65.1694Z" fill="#57B9D4"/>
<path d="M259.049 89.6147H306.72C306.72 89.6147 306.387 82.7254 298.387 84.0588C298.387 84.0588 294.133 72.6241 286 72.5028C277.855 72.3828 274.169 78.2814 273.169 83.9481C273.169 83.9481 262.485 76.5027 259.049 89.6147Z" fill="#C5EDEA"/>
<path d="M309 100.063C309 98.9561 308.093 98.0627 307 98.0627H285.076C283.983 98.0627 283.076 98.9561 283.076 100.063C283.076 101.169 283.983 102.063 285.076 102.063H307C308.093 102.063 309 101.169 309 100.063Z" fill="#57B9D4"/>
<path d="M302.4 257.916H279.729C278.623 257.916 277.729 258.823 277.729 259.916C277.729 261.023 278.623 261.916 279.729 261.916H302.4C303.507 261.916 304.4 261.023 304.4 259.916C304.4 258.823 303.507 257.916 302.4 257.916Z" fill="#80A0AC"/>
<path d="M299.32 130.809C299.32 129.703 298.427 128.809 297.32 128.809H288C286.893 128.809 286 129.703 286 130.809C286 131.916 286.893 132.809 288 132.809H297.32C298.427 132.809 299.32 131.916 299.32 130.809Z" fill="#C5EDEA"/>
<path d="M314.12 89.1027H309.76C309.64 84.7294 306.053 81.2094 301.653 81.2094C300.733 81.2094 299.84 81.3694 299 81.6507C297.627 75.236 291.907 70.4094 285.076 70.4094C278.623 70.4094 273.156 74.7294 271.423 80.6361C270.063 79.8627 268.503 79.4227 266.876 79.4227C261.796 79.4227 257.676 83.5427 257.676 88.6227C257.676 89.716 258.569 90.6227 259.676 90.6227C260.783 90.6227 261.676 89.716 261.676 88.6227C261.676 85.756 264.009 83.4227 266.876 83.4227C268.543 83.4227 270.089 84.2227 271.076 85.5694C271.409 86.2094 272.063 86.6507 272.836 86.6507C273.943 86.6507 274.836 85.756 274.836 84.6507C274.836 79.0107 279.436 74.4094 285.076 74.4094C290.733 74.4094 295.32 79.0107 295.32 84.6507C295.32 84.7294 295.333 84.8094 295.347 84.876C295.32 85.436 295.493 85.996 295.907 86.4094C296.693 87.196 297.96 87.196 298.733 86.4094C299.52 85.636 300.56 85.2094 301.653 85.2094C303.853 85.2094 305.64 86.9427 305.747 89.1027H299.867C298.76 89.1027 297.867 89.9961 297.867 91.1027C297.867 92.2094 298.76 93.1027 299.867 93.1027H314.12C315.227 93.1027 316.12 92.2094 316.12 91.1027C316.12 89.9961 315.227 89.1027 314.12 89.1027Z" fill="#373D4C"/>
<path d="M254.396 59.876H259.676C260.783 59.876 261.676 58.9694 261.676 57.876C261.676 56.7694 260.783 55.876 259.676 55.876H254.396C253.289 55.876 252.396 56.7694 252.396 57.876C252.396 58.9694 253.289 59.876 254.396 59.876Z" fill="#57B9D4"/>
<path d="M257.063 257.916H234.396C233.289 257.916 232.396 258.823 232.396 259.916C232.396 261.023 233.289 261.916 234.396 261.916H257.063C258.169 261.916 259.063 261.023 259.063 259.916C259.063 258.823 258.169 257.916 257.063 257.916Z" fill="#80A0AC"/>
<path d="M184.956 74.2894C183.849 74.2894 182.956 75.1828 182.956 76.2894C182.956 77.3961 183.849 78.2894 184.956 78.2894H214.703C215.809 78.2894 216.703 77.3961 216.703 76.2894C216.703 75.1828 215.809 74.2894 214.703 74.2894H184.956Z" fill="#57B9D4"/>
<path d="M211.729 257.916H189.063C187.956 257.916 187.063 258.823 187.063 259.916C187.063 261.023 187.956 261.916 189.063 261.916H211.729C212.836 261.916 213.729 261.023 213.729 259.916C213.729 258.823 212.836 257.916 211.729 257.916Z" fill="#80A0AC"/>
<path d="M204.236 178.383H188.183V174.409H204.236V178.383ZM208.236 172.409C208.236 171.303 207.343 170.409 206.236 170.409H186.183C185.076 170.409 184.183 171.303 184.183 172.409V180.383C184.183 181.489 185.076 182.383 186.183 182.383H206.236C207.343 182.383 208.236 181.489 208.236 180.383V172.409Z" fill="#373D4C"/>
<path d="M164.743 93.1027H174.129C175.236 93.1027 176.129 92.2094 176.129 91.1027C176.129 89.9961 175.236 89.1027 174.129 89.1027H164.743C163.636 89.1027 162.743 89.9961 162.743 91.1027C162.743 92.2094 163.636 93.1027 164.743 93.1027Z" fill="#57B9D4"/>
<path d="M167.036 67.1295H198.089C199.196 67.1295 200.089 66.2361 200.089 65.1295C200.089 64.0228 199.196 63.1295 198.089 63.1295H177.263C177.289 63.0108 177.303 62.9028 177.303 62.7828C177.303 59.2628 180.156 56.4094 183.676 56.4094C185.729 56.4094 187.636 57.3961 188.836 59.0494C189.156 59.7161 189.836 60.1695 190.623 60.1695C191.729 60.1695 192.623 59.2761 192.623 58.1695C192.623 51.4228 198.116 45.9294 204.863 45.9294C211.609 45.9294 217.103 51.4228 217.103 58.1695C217.103 58.2628 217.116 58.3441 217.129 58.4361C217.089 58.9961 217.263 59.5561 217.689 59.9841C218.476 60.7694 219.743 60.7694 220.516 59.9841C221.489 59.0228 222.769 58.4894 224.143 58.4894C226.969 58.4894 229.263 60.7828 229.263 63.6094C229.263 64.7161 230.156 65.6094 231.263 65.6094C232.369 65.6094 233.263 64.7161 233.263 63.6094C233.263 58.5828 229.169 54.4894 224.143 54.4894C222.983 54.4894 221.863 54.7028 220.809 55.1161C219.383 47.6228 212.783 41.9294 204.863 41.9294C197.343 41.9294 191.023 47.0628 189.183 54.0108C187.556 52.9841 185.663 52.4094 183.676 52.4094C177.956 52.4094 173.303 57.0628 173.303 62.7828C173.303 62.9028 173.316 63.0108 173.329 63.1295H167.036C165.929 63.1295 165.036 64.0228 165.036 65.1295C165.036 66.2361 165.929 67.1295 167.036 67.1295Z" fill="#373D4C"/>
<path d="M166.396 257.916H143.729C142.623 257.916 141.729 258.823 141.729 259.916C141.729 261.023 142.623 261.916 143.729 261.916H166.396C167.503 261.916 168.396 261.023 168.396 259.916C168.396 258.823 167.503 257.916 166.396 257.916Z" fill="#80A0AC"/>
<path d="M145.889 122.063H164.743C165.849 122.063 166.743 121.156 166.743 120.063C166.743 118.956 165.849 118.063 164.743 118.063H145.889C144.796 118.063 143.889 118.956 143.889 120.063C143.889 121.156 144.796 122.063 145.889 122.063Z" fill="#C5EDEA"/>
<path d="M157.302 228.276H191.596C192.703 228.276 193.596 227.383 193.596 226.276V218.303C193.596 217.196 192.703 216.303 191.596 216.303H157.302C156.196 216.303 155.302 217.196 155.302 218.303V226.276C155.302 227.383 156.196 228.276 157.302 228.276Z" fill="#373D4C"/>
<path d="M157.302 210.649H191.596C192.703 210.649 193.596 209.756 193.596 208.649V200.676C193.596 199.583 192.703 198.676 191.596 198.676H157.302C156.196 198.676 155.302 199.583 155.302 200.676V208.649C155.302 209.756 156.196 210.649 157.302 210.649Z" fill="#373D4C"/>
<path d="M150.516 164.516C149.409 164.516 148.516 165.409 148.516 166.516C148.516 167.623 149.409 168.516 150.516 168.516H155.316C156.423 168.516 157.316 167.623 157.316 166.516C157.316 165.409 156.423 164.516 155.316 164.516H150.516Z" fill="#57B9D4"/>
<path d="M124.183 150.729C124.183 151.836 125.076 152.729 126.183 152.729H135.036C136.143 152.729 137.036 151.836 137.036 150.729C137.036 149.623 136.143 148.729 135.036 148.729H126.183C125.076 148.729 124.183 149.623 124.183 150.729Z" fill="#C5EDEA"/>
<path d="M119.449 58.4894H126.183C127.289 58.4894 128.183 57.5961 128.183 56.4894C128.183 55.3828 127.289 54.4894 126.183 54.4894H119.449C118.343 54.4894 117.449 55.3828 117.449 56.4894C117.449 57.5961 118.343 58.4894 119.449 58.4894Z" fill="#57B9D4"/>
<path d="M126.183 138.076H106.783C105.676 138.076 104.783 138.969 104.783 140.076C104.783 141.183 105.676 142.076 106.783 142.076H126.183C127.289 142.076 128.183 141.183 128.183 140.076C128.183 138.969 127.289 138.076 126.183 138.076Z" fill="#57B9D4"/>
<path d="M121.063 257.916H98.396C97.2893 257.916 96.396 258.823 96.396 259.916C96.396 261.023 97.2893 261.916 98.396 261.916H121.063C122.169 261.916 123.063 261.023 123.063 259.916C123.063 258.823 122.169 257.916 121.063 257.916Z" fill="#80A0AC"/>
<path d="M115.849 228.276H150.143C151.249 228.276 152.143 227.383 152.143 226.276V218.303C152.143 217.196 151.249 216.303 150.143 216.303H115.849C114.743 216.303 113.849 217.196 113.849 218.303V226.276C113.849 227.383 114.743 228.276 115.849 228.276Z" fill="#373D4C"/>
<path d="M115.849 210.649H150.143C151.249 210.649 152.143 209.756 152.143 208.649V200.676C152.143 199.583 151.249 198.676 150.143 198.676H115.849C114.743 198.676 113.849 199.583 113.849 200.676V208.649C113.849 209.756 114.743 210.649 115.849 210.649Z" fill="#373D4C"/>
<path d="M84.8625 49.5961H89.0093C90.116 49.5961 91.0093 48.7027 91.0093 47.5961C91.0093 46.4894 90.116 45.5961 89.0093 45.5961H84.8625C83.7692 45.5961 82.8625 46.4894 82.8625 47.5961C82.8625 48.7027 83.7692 49.5961 84.8625 49.5961Z" fill="#C5EDEA"/>
<path d="M124.583 90.6094C124.609 91.7027 125.503 92.5694 126.583 92.5694C126.649 92.5694 126.703 92.5694 126.769 92.5694C130.489 92.5694 133.343 96.3961 133.436 99.8761C133.583 105.596 129.703 111.476 120.743 111.689C120.516 111.703 120.316 111.703 120.103 111.703C112.169 111.703 108.876 107.903 105.076 103.529C101.223 99.0894 96.876 94.0227 87.2093 94.2894C80.9427 94.4361 75.9692 99.6628 76.1292 105.929C76.1559 107.023 77.036 107.876 78.116 107.876C79.276 107.849 80.1559 106.929 80.1292 105.836C80.0226 101.769 83.2492 98.3827 87.3025 98.2894C95.1025 98.1027 98.3026 101.823 102.063 106.156C105.943 110.636 110.343 115.703 120.116 115.703C120.356 115.703 120.596 115.703 120.836 115.689C132.503 115.409 137.623 107.236 137.436 99.7827C137.276 93.6774 132.236 88.4628 126.543 88.5694C125.436 88.5961 124.556 89.5161 124.583 90.6094Z" fill="#C5EDEA"/>
<path d="M108.369 90.4494C108.223 90.4494 108.156 90.4494 108.009 90.4894C107.983 90.4894 104.676 90.9694 97.7293 86.5827C91.2226 82.476 87.796 81.2894 83.0893 81.3694C72.1027 81.6507 64.3294 89.8227 64.6094 100.796L64.7293 105.969C64.756 107.049 65.6493 107.916 66.7293 107.916C67.8893 107.889 68.756 106.969 68.7293 105.863L68.6094 100.703C68.3827 91.8894 74.3826 85.5961 83.196 85.3694C86.6626 85.2761 89.156 85.9027 95.596 89.9694C103.196 94.7694 107.476 94.5961 108.609 94.4361C111.249 94.3294 113.689 93.236 115.516 91.3174C117.369 89.3694 118.356 86.8094 118.289 84.116C118.223 81.4227 117.116 78.9294 115.156 77.0627C113.209 75.2094 110.636 74.2494 107.969 74.2894C106.863 74.3174 105.983 75.236 106.009 76.344C106.036 77.4494 106.983 78.2894 108.063 78.2894C109.676 78.2494 111.223 78.8494 112.396 79.9694C113.583 81.0894 114.249 82.5961 114.289 84.2227C114.329 85.8361 113.729 87.3827 112.609 88.5561C111.503 89.7294 109.983 90.4094 108.369 90.4494Z" fill="#C5EDEA"/>
<path d="M75.7293 257.916H53.0626C51.956 257.916 51.0626 258.823 51.0626 259.916C51.0626 261.023 51.956 261.916 53.0626 261.916H75.7293C76.836 261.916 77.7293 261.023 77.7293 259.916C77.7293 258.823 76.836 257.916 75.7293 257.916Z" fill="#80A0AC"/>
<path d="M29.5027 84.2627C28.396 84.2627 27.5027 85.1561 27.5027 86.2627C27.5027 87.3694 28.396 88.2627 29.5027 88.2627H38.5427C39.6493 88.2627 40.5427 87.3694 40.5427 86.2627C40.5427 85.1561 39.6493 84.2627 38.5427 84.2627H29.5027Z" fill="#C5EDEA"/>
<path d="M30.3959 257.916H7.72925C6.62258 257.916 5.72925 258.823 5.72925 259.916C5.72925 261.023 6.62258 261.916 7.72925 261.916H30.3959C31.5026 261.916 32.3959 261.023 32.3959 259.916C32.3959 258.823 31.5026 257.916 30.3959 257.916Z" fill="#80A0AC"/>
<path d="M7.72925 72.6628H41.9159C43.0226 72.6628 43.9159 71.7694 43.9159 70.6628C43.9159 69.5694 43.0226 68.6628 41.9159 68.6628H23.3959C23.5292 68.3961 23.6092 68.1028 23.6092 67.7961C23.6092 64.9294 25.9425 62.5961 28.8092 62.5961C30.4759 62.5961 32.0225 63.3961 33.0092 64.7428C33.3425 65.3828 33.9959 65.8361 34.7692 65.8361C35.8759 65.8361 36.7692 64.9295 36.7692 63.8361C36.7692 58.1828 41.3692 53.5828 47.0225 53.5828C52.6625 53.5828 57.2625 58.1828 57.2625 63.8361C57.2625 63.9028 57.2759 63.9841 57.2759 64.0628C57.2493 64.6094 57.4226 65.1694 57.8492 65.5961C58.6226 66.3694 59.8893 66.3694 60.6759 65.5961C61.4493 64.8094 62.4892 64.3828 63.5826 64.3828C65.8626 64.3828 67.7025 66.2361 67.7025 68.5028C67.7025 69.6095 68.6092 70.5028 69.7025 70.5028C70.8092 70.5028 71.7025 69.6095 71.7025 68.5028C71.7025 64.0228 68.0626 60.3828 63.5826 60.3828C62.6626 60.3828 61.7825 60.5428 60.9292 60.8361C59.5558 54.4228 53.8359 49.5828 47.0225 49.5828C40.5559 49.5828 35.1025 53.9161 33.3559 59.8228C31.9959 59.0361 30.4359 58.5961 28.8092 58.5961C23.7292 58.5961 19.6092 62.7294 19.6092 67.7961C19.6092 68.1028 19.6892 68.3961 19.8225 68.6628H7.72925C6.62258 68.6628 5.72925 69.5694 5.72925 70.6628C5.72925 71.7694 6.62258 72.6628 7.72925 72.6628Z" fill="#373D4C"/>
<path d="M199.849 193.476V233.489H107.596V193.476H199.849ZM118.516 184.436H134.743V189.249H118.516V184.436ZM191.783 109.503H221.009V151.023L206.302 145.143C205.676 144.889 204.982 144.969 204.436 145.343C203.889 145.716 203.556 146.343 203.556 146.996V156.609L191.783 151.903V109.503ZM206.396 96.3174C217.196 96.3174 220.023 102.223 220.743 105.503H192.049C192.769 102.223 195.596 96.3174 206.396 96.3174ZM220.889 178.383V174.409H236.943V178.383H220.889ZM222.956 156.116L247.702 166.009V233.489H220.276V182.383H238.943C240.049 182.383 240.943 181.489 240.943 180.383V172.409C240.943 171.303 240.049 170.409 238.943 170.409H220.276V164.663C220.276 163.836 219.783 163.103 219.023 162.796L207.556 158.209V149.956L221.676 155.596C222.009 155.916 222.463 156.103 222.956 156.116ZM252.583 178.383V174.409H268.636V178.383H252.583ZM238.983 149.956L279.116 166.009V233.489H251.702V182.383H270.636C271.742 182.383 272.636 181.489 272.636 180.383V172.409C272.636 171.303 271.742 170.409 270.636 170.409H251.702V164.663C251.702 163.836 251.209 163.103 250.449 162.796L238.983 158.209V149.956ZM244.663 118.743H267.302V156.983L244.663 147.916V118.743ZM255.983 108.169C263.836 108.169 266.236 112.183 266.969 114.743H244.996C245.729 112.209 248.143 108.169 255.983 108.169ZM53.2759 233.489L52.7025 228.089L52.4759 225.863H93.0892L93.9025 233.489H53.2759ZM15.7425 233.489L16.2626 228.489C16.3159 228.489 16.3692 228.503 16.4092 228.503H48.7292L49.2625 233.489H15.7425ZM18.1292 210.876H46.8625L47.1025 213.089C47.1025 213.103 48.3025 224.503 48.3025 224.503H16.6892L18.1292 210.876ZM20.0092 193.249H44.9958L46.4358 206.876H18.5559L20.0092 193.249ZM21.8759 175.623C21.9425 175.623 43.1292 175.623 43.1292 175.623L44.5692 189.249H20.4225L21.8759 175.623ZM23.7425 157.996H41.2492L42.7026 171.623H22.3026L23.7425 157.996ZM25.0092 146.009H31.9692C32.1559 146.009 32.3292 145.969 32.5026 145.929C32.6626 145.969 32.8359 146.009 33.0225 146.009H39.9826L40.8225 153.996H24.1692L25.0092 146.009ZM52.1559 202.889C52.1959 202.889 52.2225 202.903 52.2625 202.903H90.6625L92.6625 221.863H52.0492L51.1025 212.903L52.1559 202.889ZM54.5958 179.956H88.2225L90.2358 198.903H52.5826L54.5958 179.956ZM57.0358 156.889C57.2358 156.956 57.4492 156.996 57.6625 156.996H85.4759C85.5826 156.996 85.6759 156.983 85.7826 156.969L87.7958 175.956H55.0225L57.0358 156.889ZM59.4625 134.049H83.3559L85.3692 152.996H57.6625C57.5958 152.996 57.5159 153.009 57.4492 153.023L59.4625 134.049ZM61.1159 118.423H70.7292C70.9692 118.423 71.1959 118.369 71.4093 118.289C71.6226 118.369 71.8492 118.423 72.0892 118.423H81.6892L82.9292 130.049H59.8892L61.1159 118.423ZM116.516 180.436C115.409 180.436 114.516 181.329 114.516 182.436V189.476H105.596C104.489 189.476 103.596 190.369 103.596 191.476V233.489H97.9159L97.8759 233.063L85.4892 116.209C85.3825 115.196 84.5159 114.423 83.4892 114.423H72.0892C71.8492 114.423 71.6226 114.476 71.4093 114.556C71.1959 114.476 70.9692 114.423 70.7292 114.423H59.3159C58.2892 114.423 57.4358 115.196 57.3292 116.209L49.0892 193.943L43.7692 143.796C43.6626 142.783 42.8092 142.009 41.7826 142.009H33.0225C32.8359 142.009 32.6626 142.036 32.5026 142.089C32.3292 142.036 32.1559 142.009 31.9692 142.009H23.2225C22.1959 142.009 21.3292 142.783 21.2225 143.796L12.2892 228.063L11.7159 233.489H7.72925C6.62258 233.489 5.72925 234.383 5.72925 235.489C5.72925 236.583 6.62258 237.489 7.72925 237.489H105.596H201.849C202.956 237.489 203.849 236.583 203.849 235.489V191.476C203.849 190.369 202.956 189.476 201.849 189.476H176.143V149.956L216.276 166.009V233.489H209.516C208.423 233.489 207.516 234.383 207.516 235.489C207.516 236.583 208.423 237.489 209.516 237.489H291.293C292.4 237.489 293.293 236.583 293.293 235.489C293.293 234.383 292.4 233.489 291.293 233.489H283.116V164.663C283.116 163.836 282.622 163.103 281.862 162.796L271.302 158.583V116.743C271.302 116.609 271.129 104.169 255.983 104.169C240.836 104.169 240.663 116.609 240.663 116.743V146.316L237.716 145.143C237.103 144.889 236.409 144.969 235.863 145.343C235.303 145.716 234.983 146.343 234.983 146.996V156.609L225.009 152.623V107.503C225.009 107.344 224.796 92.3174 206.396 92.3174C187.996 92.3174 187.783 107.344 187.783 107.503V150.303L174.876 145.143C174.263 144.889 173.569 144.969 173.009 145.343C172.463 145.716 172.143 146.343 172.143 146.996V189.476H138.743V182.436C138.743 181.329 137.849 180.436 136.743 180.436H116.516Z" fill="#373D4C"/>
<path d="M5.5293 125.809C6.58263 125.969 9.99592 126.049 16.0226 122.249C20.9693 119.116 22.8759 118.636 25.5159 118.703C28.8759 118.783 31.7026 119.996 33.7026 122.183C35.6093 124.276 36.6093 127.156 36.5293 130.289L36.4359 134.343C36.4093 135.449 37.2759 136.356 38.3826 136.396C39.5159 136.396 40.4093 135.529 40.4359 134.436L40.5293 130.383C40.636 126.223 39.2626 122.356 36.6626 119.489C33.9426 116.516 30.0226 114.809 25.6092 114.703C21.8492 114.609 19.0759 115.583 13.8893 118.863C9.38259 121.703 6.90263 121.876 6.3293 121.876C6.26263 121.876 6.22258 121.876 6.20924 121.876C6.06258 121.836 5.92928 121.823 5.78262 121.823C3.39595 121.756 1.50259 119.769 1.55592 117.383C1.62259 115.023 3.55592 113.143 5.88926 113.143C5.92926 113.143 5.9693 113.143 5.99596 113.156C7.0893 113.156 8.02262 112.303 8.04928 111.196C8.07595 110.089 7.20927 109.183 6.1026 109.156C1.47594 109.023 -2.32408 112.689 -2.44408 117.276C-2.55074 121.823 1.0093 125.609 5.5293 125.809Z" fill="#57B9D4"/>
<path d="M11.0494 134.863C13.916 131.543 16.396 128.663 22.2893 128.836C23.716 128.876 25.036 129.463 26.0227 130.489C27.0093 131.529 27.5294 132.889 27.5027 134.316C27.476 135.409 28.3427 136.329 29.4494 136.356C30.5694 136.369 31.4627 135.516 31.5027 134.409C31.556 131.916 30.6494 129.543 28.916 127.743C27.196 125.929 24.876 124.903 22.3827 124.836C14.6494 124.689 11.116 128.676 8.02267 132.236C5.03601 135.676 2.46266 138.703 -3.92401 138.489C-10.6573 138.329 -13.564 133.943 -13.4573 129.663C-13.3907 126.903 -11.0707 124.343 -8.65734 124.343C-8.61734 124.343 -8.56401 124.343 -8.52401 124.343C-7.44401 124.343 -6.55067 123.489 -6.52401 122.396C-6.49734 121.289 -7.36395 120.369 -8.47062 120.343C-13.084 120.276 -17.3373 124.543 -17.4573 129.569C-17.6173 135.623 -13.4706 142.249 -4.0173 142.489C-3.83063 142.489 -3.63066 142.503 -3.44399 142.503C4.42267 142.503 7.92937 138.449 11.0494 134.863Z" fill="#57B9D4"/>
</g>
</svg>
