<svg width="288" height="288" viewBox="0 0 288 288" fill="none" xmlns="http://www.w3.org/2000/svg">
<mask id="mask0_221:13944" style="mask-type:alpha" maskUnits="userSpaceOnUse" x="0" y="0" width="288" height="288">
<circle cx="144" cy="144" r="144" fill="#C4C4C4"/>
</mask>
<g mask="url(#mask0_221:13944)">
<path d="M1335.87 329.449H-1400V-290H1335.87V329.449Z" fill="#FFFEFA"/>
<path d="M201.333 65.6614H266.507C266.507 65.6614 263.88 53.632 253.36 58.316C253.36 58.316 251 44.22 237.507 43.2774C224 42.3334 219.84 53.2987 219.173 58.316C219.173 58.316 204 47.3227 201.333 65.6614Z" fill="#57B9D4"/>
<path d="M-7.27998 140.721H51.1066C51.1066 140.721 51.0133 130.611 39.7066 133.167C39.7066 133.167 37.3733 118.849 23.4933 118.285C9.61332 117.721 8.43994 133.277 8.43994 133.277C8.43994 133.277 1.60002 127.651 -3.41332 130.167C-8.42665 132.681 -7.27998 140.721 -7.27998 140.721Z" fill="#C5EDEA"/>
<path d="M206.707 238.08C206.853 238.724 206.973 239.388 207.067 240.08C208.173 248.702 201.32 259.897 191.76 259.897C182.147 259.897 173.28 255.057 171.933 244.585C171.667 242.468 171.88 240.197 172.493 237.975L164.08 237.948C163.813 238.376 163.507 238.783 163.2 239.188C160.573 244.395 155.76 248.564 149.92 248.564C147.467 248.564 145.053 248.243 142.813 247.596C140.92 254.4 135.28 260.731 128.093 260.731C118.48 260.731 109.613 255.891 108.267 245.419C107.96 242.972 108.307 240.323 109.147 237.778L-17.28 237.383V264.152H280.947V238.312L206.707 238.08Z" fill="#A0D7A0"/>
<path d="M97.8267 88.66L111.267 105.82L105.613 108.993L97.8267 88.66Z" fill="#E8C080"/>
<path d="M126.347 87.472L123.613 93.3654L105.413 81.4334L126.347 87.472Z" fill="#E8C080"/>
<path d="M129.32 68.66V75.1387L108.013 71.82L129.32 68.66Z" fill="#E8C080"/>
<path d="M123.613 48.7387L126.347 54.6321L105.413 60.6721L123.613 48.7387Z" fill="#E8C080"/>
<path d="M111.267 36.2854L97.8267 53.4467L105.613 33.1134L111.267 36.2854Z" fill="#E8C080"/>
<path d="M90.8534 30.192L87.6933 51.4867L84.3733 30.192H90.8534Z" fill="#E8C080"/>
<path d="M69.6398 34.0187L77.4265 54.3521L63.9866 37.1921L69.6398 34.0187Z" fill="#E8C080"/>
<path d="M69.8398 61.5787L48.9065 55.5387L51.6398 49.6454L69.8398 61.5787Z" fill="#E8C080"/>
<path d="M269.573 208.538V235.38H257.36V208.538L263.467 202.405L269.573 208.538Z" fill="#CCE294"/>
<path d="M260.6 199.607L255.36 204.887L250.667 200.167L249.587 199.072C249.12 198.592 248.453 198.433 247.84 198.538C247.213 198.433 246.56 198.592 246.08 199.072L240.307 204.887L233.867 198.405C233.413 197.94 232.8 197.78 232.213 197.859C231.613 197.78 231 197.94 230.547 198.405L226.107 202.872V183.232C229.72 179.393 234.56 177.339 240.147 177.339C240.493 177.339 240.84 177.352 241.187 177.365C250.173 177.845 257.64 184.553 259.813 193.487C260.227 195.192 260.453 196.993 260.453 198.845C260.453 199.113 260.507 199.366 260.6 199.607Z" fill="#B4D452"/>
<path d="M252.32 159.592C256.493 159.592 259.88 162.993 259.88 167.167C259.88 171.339 256.493 174.739 252.32 174.739C248.133 174.739 244.747 171.339 244.747 167.167C244.747 162.993 248.133 159.592 252.32 159.592Z" fill="#A0D7A0"/>
<path d="M253.36 208.538V235.38H242.307V208.538L243.133 207.699L247.84 202.979L253.36 208.538Z" fill="#CCE294"/>
<path d="M245.893 145.153C248.333 145.153 250.32 147.139 250.32 149.579C250.32 152.019 248.333 154.005 245.893 154.005C245.587 154.005 245.293 153.979 245 153.912C242.987 153.5 241.467 151.713 241.467 149.579C241.467 147.139 243.453 145.153 245.893 145.153Z" fill="#B4D452"/>
<path d="M238.307 208.538V235.38H226.107V208.538L232.213 202.405L238.307 208.538Z" fill="#CCE294"/>
<path d="M198.76 116.66L229.747 159.699H226.107L153.48 159.672L130.387 116.66H149.427C149.68 116.66 149.92 116.607 150.133 116.525L172.4 146.072C172.787 146.592 173.387 146.872 174 146.872C174.213 146.872 174.427 146.833 174.627 146.767H187.053C188.16 146.767 189.053 145.872 189.053 144.767V116.66H198.76Z" fill="#80A0AC"/>
<path d="M212.213 197.685V177.979C212.213 176.872 211.32 175.979 210.213 175.979H198.627C197.533 175.979 196.627 176.872 196.627 177.979V197.685C196.627 198.792 197.533 199.685 198.627 199.685H210.213C211.32 199.685 212.213 198.792 212.213 197.685ZM222.107 207.713V235.38H208.587C205.88 228.338 199.4 223.167 191.627 222.38C190.947 222.312 190.253 222.273 189.547 222.273C186.467 222.273 183.573 222.979 180.96 224.192L177.427 214.579L179.667 213.645L180.267 216.433L180.6 218.019C180.8 218.94 181.613 219.592 182.56 219.592H192.533H194.173C195.12 219.592 195.947 218.925 196.133 217.993L197.973 208.672L198.453 206.285C198.573 205.699 198.427 205.085 198.04 204.632C197.667 204.167 197.093 203.899 196.493 203.899H180.053C179.453 203.899 178.88 204.167 178.493 204.645C178.12 205.113 177.973 205.726 178.093 206.312L178.813 209.672L176.04 210.82L175.413 209.113C175.293 208.792 175.107 208.512 174.853 208.285L169.64 203.752C169.267 203.433 168.8 203.259 168.32 203.259H162.493C161.387 203.259 160.493 204.154 160.493 205.259C160.493 206.366 161.387 207.259 162.493 207.259H167.573L171.84 210.966L173.96 216.752C163.72 217.792 160.28 225.512 157.96 230.805C157.627 231.566 157.307 232.285 156.987 232.952C156.307 234.366 155.333 235.259 154.32 235.833V220.433V163.672L222.107 163.699V207.713Z" fill="#E36C48"/>
<path d="M208.213 179.979V195.685H200.627V179.979H208.213Z" fill="#FFFEFA"/>
<path d="M177.333 91.192L173.147 98.7667H153.507L157.96 91.192H177.333Z" fill="#80A0AC"/>
<path d="M172.32 102.767V139.327L152.013 112.365V102.767H172.32Z" fill="#E36C48"/>
<path d="M150.32 191.912V214.273C147.8 212.925 143.24 213.179 136.16 215.047C135.28 215.273 134.667 216.072 134.667 216.979V219.713C134.667 220.245 134.88 220.738 135.24 221.113C135.413 221.285 135.947 221.78 136.96 222.232L133.827 223.94C131.36 222.859 128.627 222.273 125.773 222.273C125.067 222.273 124.373 222.312 123.693 222.393C115.92 223.167 109.44 228.352 106.733 235.38H102.227V208.538V207.713V191.912H150.32Z" fill="#E8DECF"/>
<path d="M150.32 216.667V235.111H142.453L132.12 223.721L139.013 215.833L150.32 216.667Z" fill="#E8DECF"/>
<path d="M133.48 156.339V143.607C133.48 142.5 132.587 141.607 131.48 141.607H119.907C118.8 141.607 117.907 142.5 117.907 143.607V156.339C117.907 157.447 118.8 158.339 119.907 158.339H131.48C132.587 158.339 133.48 157.447 133.48 156.339ZM150.32 162.259V187.912H102.227V156.447L124.133 122.312L126.72 118.285L126.867 118.553L150.32 162.259Z" fill="#E8DECF"/>
<path d="M142.213 223.072L144.213 228.713L141.867 230.179C139.76 227.487 137 225.312 133.827 223.94L136.96 222.232C137.973 222.685 139.467 223.1 141.52 223.1C141.693 223.1 141.88 223.1 142.053 223.085C142.107 223.085 142.16 223.072 142.213 223.072Z" fill="#E8DECF"/>
<path d="M98.2267 208.538V235.38H86.0133V208.538L86.84 207.699L92.1201 202.405L98.2267 208.538Z" fill="#CCE294"/>
<path d="M82.0132 208.538V235.38H70.96V208.554L76.5333 203.032L81.1867 207.699L82.0132 208.538Z" fill="#CCE294"/>
<path d="M77.4265 88.66L69.6398 108.993L63.9866 105.82L77.4265 88.66Z" fill="#E8C080"/>
<path d="M69.8398 81.4334L51.6398 93.3654L48.9065 87.472L69.8398 81.4334Z" fill="#E8C080"/>
<path d="M67.8799 71.82L46.5732 75.1387V68.66L67.8799 71.82Z" fill="#E8C080"/>
<path d="M66.96 208.538V235.38H54.76V208.538L60.8667 202.405L66.96 208.538Z" fill="#CCE294"/>
<path d="M50.76 208.554V235.38H39.7067V208.538L45.2133 202.993L50.76 208.554Z" fill="#CCE294"/>
<path d="M42.72 193.072C42.72 197.5 40.3066 201.5 36.4133 203.579L31.2667 198.405C30.8133 197.94 30.2 197.78 29.6 197.859C29.0133 197.78 28.3867 197.94 27.9333 198.405L23.7066 202.66C20.6533 200.405 18.84 196.899 18.84 193.072C18.84 191.433 19.1733 189.859 19.7733 188.433C20.9066 185.752 22.9867 183.565 25.6 182.312C27.16 181.553 28.92 181.125 30.7733 181.125C37.36 181.125 42.72 186.487 42.72 193.072Z" fill="#B4D452"/>
<path d="M35.7066 208.538V235.38H23.4933V208.538L29.5999 202.405L35.7066 208.538Z" fill="#CCE294"/>
<path d="M15.2534 168.632C18.4001 168.632 20.9601 171.192 20.9601 174.339C20.9601 177.472 18.4001 180.032 15.2534 180.032C12.1201 180.032 9.56006 177.472 9.56006 174.339C9.56006 171.192 12.1201 168.632 15.2534 168.632Z" fill="#B4D452"/>
<path d="M19.4933 208.538V235.38H8.45337V208.538L13.9733 202.979L19.4933 208.538Z" fill="#CCE294"/>
<path d="M154.32 235.833V238.055H172.507L179.053 226.205L173.387 216.055L157.613 220.944L154.32 235.833Z" fill="#E36C48"/>
<path d="M4.45328 208.538V235.38H-7.76013V208.538L-1.65349 202.405L4.45328 208.538Z" fill="#CCE294"/>
<path d="M259.88 98.5C259.88 99.6067 260.787 100.5 261.88 100.5H280.253C281.36 100.5 282.253 99.6067 282.253 98.5C282.253 97.3934 281.36 96.5 280.253 96.5H261.88C260.787 96.5 259.88 97.3934 259.88 98.5Z" fill="#C5EDEA"/>
<path d="M269.573 235.379H257.36V208.538L263.467 202.405L269.573 208.538V235.379ZM250.667 200.167L249.587 199.072C249.12 198.592 248.453 198.432 247.84 198.538C247.213 198.432 246.56 198.592 246.08 199.072L240.307 204.887L233.867 198.405C233.413 197.94 232.8 197.78 232.213 197.859C231.613 197.78 231 197.94 230.547 198.405L226.107 202.872V183.232C229.72 179.393 234.56 177.339 240.147 177.339C240.493 177.339 240.84 177.352 241.187 177.365C250.173 177.845 257.64 184.553 259.813 193.485C260.227 195.192 260.453 196.993 260.453 198.845C260.453 199.113 260.507 199.365 260.6 199.607L255.36 204.887L250.667 200.167ZM253.36 235.379H242.307V208.538L243.133 207.699L247.84 202.979L253.36 208.538V235.379ZM238.307 235.379H226.107V208.538L232.213 202.405L238.307 208.538V235.379ZM182.52 207.899H194.067L192.533 215.592H184.173L182.52 207.899ZM222.107 207.712V235.379H208.587C205.88 228.338 199.4 223.167 191.627 222.379C190.947 222.312 190.253 222.273 189.547 222.273C186.467 222.273 183.573 222.979 180.96 224.192L177.427 214.579L179.667 213.645L180.267 216.432L180.6 218.019C180.8 218.94 181.613 219.592 182.56 219.592H192.533H194.173C195.12 219.592 195.947 218.925 196.133 217.993L197.973 208.672L198.453 206.285C198.573 205.699 198.427 205.085 198.04 204.632C197.667 204.167 197.093 203.899 196.493 203.899H180.053C179.453 203.899 178.88 204.167 178.493 204.645C178.12 205.113 177.973 205.726 178.093 206.312L178.813 209.672L176.04 210.819L175.413 209.113C175.293 208.792 175.107 208.512 174.853 208.285L169.64 203.752C169.267 203.432 168.8 203.259 168.32 203.259H162.493C161.387 203.259 160.493 204.152 160.493 205.259C160.493 206.365 161.387 207.259 162.493 207.259H167.573L171.84 210.965L173.96 216.752C163.72 217.792 160.28 225.512 157.96 230.805C157.627 231.565 157.307 232.285 156.987 232.952C156.307 234.365 155.333 235.259 154.32 235.833V220.432V163.672L222.107 163.699V207.712ZM205.96 242.699C205.96 251.738 198.6 259.113 189.547 259.113C181.053 259.113 174.053 252.632 173.213 244.379C173.16 243.819 173.133 243.259 173.133 242.699C173.133 239.579 174.013 236.66 175.52 234.167C176.44 232.685 177.587 231.352 178.907 230.22L181.333 236.833C181.44 237.125 181.613 237.393 181.853 237.607L188.187 243.459C188.573 243.805 189.053 243.979 189.547 243.979C190.08 243.979 190.613 243.765 191.013 243.338C191.76 242.525 191.707 241.259 190.893 240.512L184.92 234.993L182.333 227.965C184.52 226.899 186.96 226.273 189.547 226.273C190.107 226.273 190.667 226.299 191.227 226.352C198.947 227.138 205.093 233.299 205.88 241.019C205.933 241.579 205.96 242.138 205.96 242.699ZM164.667 233.205C163.84 235.138 163.067 236.952 162.08 238.565C160.973 240.352 159.4 241.685 157.4 242.592C156.733 241.5 155.747 240.619 154.56 240.113C156.707 239.365 159.08 237.833 160.587 234.685C160.933 233.993 161.267 233.22 161.627 232.405C163.867 227.285 166.4 221.553 174.253 220.726C168.733 223.66 166.587 228.685 164.667 233.205ZM152.16 247.965C151.96 247.965 151.76 247.94 151.573 247.887C151.547 247.887 151.533 247.887 151.507 247.872C151.453 247.872 151.413 247.845 151.373 247.845C151.36 247.845 145.773 246.792 145.773 246.792C145.827 246.512 145.88 246.22 145.92 245.94C146.053 245.072 146.133 244.192 146.16 243.299L149.453 243.485L150.507 246.459C150.8 247.285 151.573 247.792 152.4 247.792C152.613 247.792 152.84 247.765 153.067 247.685C153.32 247.592 153.533 247.459 153.72 247.285C153.333 247.699 152.773 247.965 152.16 247.965ZM141.84 246.045L125.96 243.06C125.92 243.045 125.893 243.06 125.853 243.045C125.653 243.019 125.48 242.845 125.48 242.619C125.48 242.379 125.667 242.179 125.907 242.179L141.533 243.045L142.16 243.085C142.147 243.845 142.093 244.592 141.973 245.326C141.933 245.565 141.893 245.805 141.84 246.045ZM125.773 259.113C119.827 259.113 114.613 255.94 111.72 251.205C110.213 248.712 109.347 245.805 109.347 242.699C109.347 234.205 115.827 227.205 124.093 226.352C124.653 226.299 125.213 226.273 125.773 226.273C130.893 226.273 135.467 228.632 138.48 232.326L128.933 238.338L126.027 238.179C125.827 238.179 125.747 238.192 125.653 238.205C123.293 238.379 121.48 240.273 121.48 242.619C121.48 244.78 123.013 246.607 125.147 246.979C125.173 246.993 125.2 246.993 125.227 246.993L140.507 249.872C137.84 255.326 132.24 259.113 125.773 259.113ZM141.76 239.06L135.827 238.726L140.6 235.712C141.107 236.765 141.493 237.887 141.76 239.06ZM106.733 235.379H102.227V191.912H150.32V214.273C147.8 212.925 143.24 213.179 136.16 215.045C135.28 215.273 134.667 216.072 134.667 216.979V219.712C134.667 220.245 134.88 220.738 135.24 221.113C135.413 221.285 135.947 221.78 136.96 222.232C137.973 222.685 139.467 223.099 141.52 223.099C141.693 223.099 141.88 223.099 142.053 223.085C142.107 223.085 142.16 223.072 142.213 223.072L144.213 228.712L141.867 230.179C139.76 227.485 137 225.312 133.827 223.94C131.36 222.859 128.627 222.273 125.773 222.273C125.067 222.273 124.373 222.312 123.693 222.393C115.92 223.167 109.44 228.352 106.733 235.379ZM98.2266 235.379H86.0132V208.538L86.8399 207.699L92.12 202.405L98.2266 208.538V235.379ZM78.2399 199.072C77.7866 198.607 77.1599 198.447 76.5465 198.525C75.9465 198.447 75.3332 198.592 74.8666 199.06L73.72 200.192L68.9732 204.887L65.0666 200.952C65.0799 200.912 65.0932 200.887 65.1066 200.859L68.1599 184.965H98.2266V202.872L93.7866 198.405C93.3333 197.94 92.72 197.78 92.12 197.859C91.52 197.78 90.9066 197.94 90.4533 198.405L84.0132 204.887L78.2399 199.072ZM82.0132 235.379H70.9599V208.553L76.5332 203.032L81.1866 207.699L82.0132 208.538V235.379ZM66.9599 235.379H54.7599V208.538L60.8666 202.405L66.9599 208.538V235.379ZM73.7066 156.232H97.4399L93.9066 161.727C93.3199 162.66 93.5866 163.899 94.5066 164.5C94.8532 164.712 95.2266 164.805 95.5866 164.805C96.2533 164.805 96.8932 164.485 97.2799 163.899L98.2266 162.419V180.965H68.9333L73.7066 156.232ZM80.8799 118.979H94.9866L101.067 150.592L100.013 152.232H74.4666L80.8799 118.979ZM87.9332 82.3787L94.2132 114.979H81.6533L87.9332 82.3787ZM102.227 156.447L124.133 122.312L126.72 118.285L126.867 118.553L150.32 162.259V187.912H102.227V156.447ZM141.92 219.085C140.32 219.138 139.253 218.859 138.667 218.619V218.525C143.48 217.365 146.013 217.312 147.307 217.485C145.72 218.232 143.653 219.032 141.92 219.085ZM147.973 227.379L146.16 222.259C147.84 221.699 149.347 220.965 150.32 220.432V233.979L147.973 227.379ZM144 233.565L145.573 232.579L148 239.405L145.88 239.285C145.533 237.259 144.893 235.338 144 233.565ZM149.427 116.66C149.68 116.66 149.92 116.607 150.133 116.525L172.4 146.072C172.787 146.592 173.387 146.872 174 146.872C174.213 146.872 174.427 146.833 174.627 146.765H187.053C188.16 146.765 189.053 145.872 189.053 144.765V116.66H198.76L229.747 159.699H226.107L153.48 159.672L130.387 116.66H149.427ZM152.013 102.765H172.32V139.327L152.013 112.365V102.765ZM157.96 91.192H177.333L173.147 98.7654H153.507L157.96 91.192ZM252.32 159.592C256.493 159.592 259.88 162.993 259.88 167.167C259.88 171.339 256.493 174.739 252.32 174.739C248.133 174.739 244.747 171.339 244.747 167.167C244.747 162.993 248.133 159.592 252.32 159.592ZM245 153.912C242.987 153.5 241.467 151.712 241.467 149.579C241.467 147.139 243.453 145.152 245.893 145.152C248.333 145.152 250.32 147.139 250.32 149.579C250.32 152.019 248.333 154.005 245.893 154.005C245.587 154.005 245.293 153.979 245 153.912ZM50.7599 235.379H39.7066V208.538L45.2132 202.993L50.7599 208.553V235.379ZM36.4132 203.579L31.2666 198.405C30.8132 197.94 30.1999 197.78 29.5999 197.859C29.0132 197.78 28.3866 197.94 27.9333 198.405L23.7066 202.66C20.6532 200.405 18.8399 196.899 18.8399 193.072C18.8399 191.432 19.1732 189.859 19.7732 188.432C20.9066 185.752 22.9866 183.565 25.5999 182.312C27.1599 181.553 28.9199 181.125 30.7732 181.125C37.3599 181.125 42.72 186.485 42.72 193.072C42.72 197.5 40.3065 201.5 36.4132 203.579ZM35.7066 235.379H23.4933V208.538L29.5999 202.405L35.7066 208.538V235.379ZM19.4933 235.379H8.4533V208.538L13.9732 202.979L19.4933 208.538V235.379ZM15.2533 180.032C12.12 180.032 9.55994 177.472 9.55994 174.339C9.55994 171.192 12.12 168.632 15.2533 168.632C18.4 168.632 20.9599 171.192 20.9599 174.339C20.9599 177.472 18.4 180.032 15.2533 180.032ZM4.4533 235.379H-7.76011V208.538L-1.65347 202.405L4.4533 208.538V235.379ZM69.6399 108.993L63.9866 105.819L77.4266 88.66L69.6399 108.993ZM111.267 105.819L105.613 108.993L97.8266 88.66L111.267 105.819ZM280.253 235.379H273.573V207.712C273.573 207.192 273.36 206.685 272.987 206.312L265.133 198.405C264.92 198.192 264.667 198.045 264.413 197.952C264.347 196.113 264.107 194.327 263.68 192.607C262.307 186.887 259.093 181.925 254.72 178.485C259.947 177.365 263.88 172.727 263.88 167.167C263.88 160.792 258.693 155.592 252.32 155.592C252.12 155.592 251.933 155.619 251.733 155.619C253.32 154.085 254.32 151.952 254.32 149.579C254.32 149.512 254.32 149.459 254.307 149.393C254.213 144.887 250.573 141.259 246.08 141.167C246.027 141.152 245.96 141.152 245.893 141.152C241.24 141.152 237.467 144.925 237.467 149.579C237.467 149.645 237.467 149.699 237.48 149.765C237.56 153.872 240.6 157.245 244.547 157.872C244.8 157.912 245.053 157.952 245.32 157.965C242.547 160.085 240.747 163.419 240.747 167.167C240.747 169.5 241.44 171.66 242.627 173.472C242.2 173.432 241.76 173.393 241.32 173.379C240.933 173.352 240.533 173.339 240.147 173.339C234.827 173.339 230.04 174.912 226.107 177.872V163.699H233.653C234.4 163.699 235.093 163.285 235.44 162.619C235.773 161.952 235.72 161.139 235.28 160.539L201.413 113.5C201.04 112.979 200.44 112.66 199.787 112.66H189.053V101.447C189.053 101.125 188.973 100.805 188.827 100.525L182.587 88.5534C182.32 87.7654 181.573 87.192 180.693 87.192H156.813C156.093 87.192 155.44 87.5654 155.08 88.1787L148.28 99.752C148.053 100.139 147.987 100.592 148.04 101.019C148.027 101.125 148.013 101.232 148.013 101.352V112.66H127.04C126.907 112.66 126.76 112.685 126.627 112.712C125.973 112.727 125.333 113.045 124.947 113.632L120.773 120.152C120.6 120.285 120.44 120.432 120.32 120.632L104.2 145.712L98.9066 118.22L92.8799 86.912L102.693 112.592C102.907 113.125 103.333 113.553 103.88 113.752C104.107 113.833 104.333 113.872 104.56 113.872C104.907 113.872 105.24 113.792 105.547 113.619L115.253 108.167C115.773 107.887 116.133 107.393 116.24 106.819C116.36 106.245 116.213 105.645 115.853 105.192L96.6533 80.66L96.5599 80.5534C95.9599 79.78 94.8665 79.5654 94.0132 80.0454L92.4266 80.94C92.1866 81.072 91.9866 81.2587 91.8266 81.472L89.9599 71.7654C90.0799 70.7387 89.3999 69.78 88.3599 69.5787C88.2133 69.5534 88.0666 69.5387 87.9332 69.5387C87.7866 69.5387 87.6399 69.5534 87.5066 69.5787C86.4666 69.78 85.7866 70.7387 85.9066 71.7654L83.8266 82.5387C83.7733 81.8867 83.4266 81.2734 82.8266 80.94L81.2399 80.0454C80.3866 79.5654 79.2933 79.78 78.6933 80.5534L78.5999 80.66L59.3999 105.192C59.0399 105.645 58.8932 106.245 59.0132 106.819C59.1199 107.393 59.4799 107.887 59.9999 108.167L69.7066 113.619C70.0132 113.792 70.3466 113.872 70.6933 113.872C70.9199 113.872 71.1466 113.833 71.3732 113.752C71.9199 113.553 72.3466 113.125 72.5599 112.592L83.5999 83.6987L77.2666 116.565C77.2666 116.579 70.5465 151.472 70.5465 151.472L64.5599 182.553C64.5599 182.565 64.2399 184.205 64.2399 184.205L61.5999 197.899C61.3599 197.845 61.1066 197.833 60.8666 197.859C60.2666 197.78 59.6532 197.94 59.1999 198.405L52.7465 204.887L46.9333 199.06C46.6133 198.738 46.1866 198.579 45.7599 198.525C46.3866 196.805 46.72 194.965 46.72 193.072C46.72 184.285 39.5599 177.125 30.7732 177.125C28.3199 177.125 25.9866 177.712 23.9066 178.712C24.5732 177.393 24.9599 175.912 24.9599 174.339C24.9599 168.979 20.6133 164.632 15.2533 164.632C9.90664 164.632 5.55994 168.979 5.55994 174.339C5.55994 179.685 9.90664 184.032 15.2533 184.032C16.1866 184.032 17.0932 183.899 17.9465 183.645C17.2132 184.645 16.5999 185.727 16.1066 186.859C15.2932 188.765 14.8399 190.859 14.8399 193.072C14.8399 195.379 15.3466 197.579 16.2666 199.607L15.72 199.072C15.2533 198.592 14.5866 198.432 13.9732 198.538C13.3466 198.432 12.6933 198.592 12.2266 199.072L6.4533 204.887L0.0131989 198.405C-0.453468 197.94 -1.0668 197.78 -1.65347 197.859C-2.25347 197.78 -2.8668 197.94 -3.32013 198.405L-11.1868 206.312C-11.5468 206.685 -11.7601 207.192 -11.7601 207.712V235.379H-17.28C-18.3867 235.379 -19.28 236.285 -19.28 237.379C-19.28 238.485 -18.3867 239.379 -17.28 239.379H105.64C105.467 240.459 105.347 241.565 105.347 242.699C105.347 246.472 106.387 250.019 108.2 253.06C109.613 255.432 111.48 257.485 113.68 259.113H103.227C102.12 259.113 101.227 260.005 101.227 261.113C101.227 262.22 102.12 263.113 103.227 263.113H125.773C134.213 263.113 141.48 257.952 144.573 250.632L150.627 251.765C151.133 251.899 151.64 251.965 152.16 251.965C155.28 251.965 157.84 249.619 158.24 246.607C161.333 245.393 163.827 243.352 165.493 240.66C166.64 238.792 167.507 236.752 168.347 234.765C170.2 230.405 171.973 226.245 176.627 224.019L177.453 226.285C175.253 227.912 173.387 229.965 171.973 232.338C170.173 235.365 169.133 238.912 169.133 242.699C169.133 243.405 169.173 244.099 169.253 244.78C169.88 251.085 173.413 256.553 178.493 259.833H175.253C174.16 259.833 173.253 260.726 173.253 261.833C173.253 262.94 174.16 263.833 175.253 263.833H214.173C215.267 263.833 216.173 262.94 216.173 261.833C216.173 260.726 215.267 259.833 214.173 259.833H200.6C204.373 257.393 207.293 253.726 208.8 249.419H228.027C229.133 249.419 230.027 248.512 230.027 247.419C230.027 246.312 229.133 245.419 228.027 245.419H209.76C209.88 244.525 209.96 243.619 209.96 242.699C209.96 241.979 209.907 241.273 209.827 240.579C209.787 240.179 209.733 239.78 209.667 239.379H273.573H280.253C281.36 239.379 282.253 238.485 282.253 237.379C282.253 236.285 281.36 235.379 280.253 235.379Z" fill="#373D4C"/>
<path d="M267.64 141.365H271.573C272.68 141.365 273.573 140.472 273.573 139.365C273.573 138.259 272.68 137.365 271.573 137.365H267.64C266.533 137.365 265.64 138.259 265.64 139.365C265.64 140.472 266.533 141.365 267.64 141.365Z" fill="#C5EDEA"/>
<path d="M267.64 247.167H248.173C247.067 247.167 246.173 248.06 246.173 249.167C246.173 250.273 247.067 251.167 248.173 251.167H267.64C268.747 251.167 269.64 250.273 269.64 249.167C269.64 248.06 268.747 247.167 267.64 247.167Z" fill="#373D4C"/>
<path d="M192.987 67.4854H233.653C234.76 67.4854 235.653 66.592 235.653 65.4854C235.653 64.3934 234.76 63.4854 233.653 63.4854H218.787H202.84C203.266 59.5787 206.6 56.512 210.627 56.512C213.147 56.512 215.493 57.7387 216.973 59.78C217.293 60.4587 217.973 60.9401 218.787 60.9401C219.88 60.9401 220.787 60.0454 220.787 58.9401C220.787 50.8187 227.386 44.2054 235.506 44.2054C243.626 44.2054 250.24 50.8187 250.24 58.9401C250.24 59.0454 250.253 59.1387 250.267 59.2454C250.227 59.8054 250.387 60.3934 250.827 60.8187C251.613 61.6067 252.867 61.6067 253.653 60.8187C254.853 59.6187 256.453 58.9654 258.16 58.9654C261.667 58.9654 264.52 61.8187 264.52 65.3267C264.52 66.432 265.413 67.3267 266.52 67.3267C267.627 67.3267 268.52 66.432 268.52 65.3267C268.52 59.6067 263.867 54.9654 258.16 54.9654C256.68 54.9654 255.267 55.2734 253.96 55.8454C252.48 46.9934 244.786 40.2054 235.506 40.2054C226.68 40.2054 219.28 46.3521 217.306 54.5921C215.373 53.2587 213.053 52.512 210.627 52.512C204.387 52.512 199.28 57.3654 198.84 63.4854H192.987C191.88 63.4854 190.987 64.3934 190.987 65.4854C190.987 66.592 191.88 67.4854 192.987 67.4854Z" fill="#373D4C"/>
<path d="M247.507 111.245H263.707C264.813 111.245 265.707 110.352 265.707 109.245C265.707 108.139 264.813 107.245 263.707 107.245H247.507C246.4 107.245 245.507 108.139 245.507 109.245C245.507 110.352 246.4 111.245 247.507 111.245Z" fill="#57B9D4"/>
<path d="M257.36 77.66C257.36 76.5534 256.467 75.66 255.36 75.66H228.027C226.933 75.66 226.027 76.5534 226.027 77.66C226.027 78.7654 226.933 79.66 228.027 79.66H255.36C256.467 79.66 257.36 78.7654 257.36 77.66Z" fill="#C5EDEA"/>
<path d="M245.893 261.167H233.653C232.547 261.167 231.653 262.06 231.653 263.167C231.653 264.273 232.547 265.167 233.653 265.167H245.893C246.987 265.167 247.893 264.273 247.893 263.167C247.893 262.06 246.987 261.167 245.893 261.167Z" fill="#373D4C"/>
<path d="M213.32 99.8454C212.213 99.8454 211.32 100.739 211.32 101.845C211.32 102.94 212.213 103.845 213.32 103.845H218.787C219.88 103.845 220.787 102.94 220.787 101.845C220.787 100.739 219.88 99.8454 218.787 99.8454H213.32Z" fill="#C5EDEA"/>
<path d="M200.627 179.979H208.213V195.685H200.627V179.979ZM198.627 199.685H210.213C211.32 199.685 212.213 198.792 212.213 197.685V177.979C212.213 176.872 211.32 175.979 210.213 175.979H198.627C197.533 175.979 196.627 176.872 196.627 177.979V197.685C196.627 198.792 197.533 199.685 198.627 199.685Z" fill="#373D4C"/>
<path d="M196.493 32.2321H200.787C201.893 32.2321 202.787 31.3387 202.787 30.2321C202.787 29.1254 201.893 28.2321 200.787 28.2321H196.493C195.4 28.2321 194.493 29.1254 194.493 30.2321C194.493 31.3387 195.4 32.2321 196.493 32.2321Z" fill="#57B9D4"/>
<path d="M162 46.3654H171.133C172.227 46.3654 173.133 45.4721 173.133 44.3654C173.133 43.2587 172.227 42.3654 171.133 42.3654H162C160.893 42.3654 160 43.2587 160 44.3654C160 45.4721 160.893 46.3654 162 46.3654Z" fill="#C5EDEA"/>
<path d="M149.893 62.312H162C163.107 62.312 164 61.4187 164 60.312C164 59.2054 163.107 58.312 162 58.312H149.893C148.8 58.312 147.893 59.2054 147.893 60.312C147.893 61.4187 148.8 62.312 149.893 62.312Z" fill="#57B9D4"/>
<path d="M153.68 261.167H143.587C142.48 261.167 141.587 262.06 141.587 263.167C141.587 264.273 142.48 265.167 143.587 265.167H153.68C154.787 265.167 155.68 264.273 155.68 263.167C155.68 262.06 154.787 261.167 153.68 261.167Z" fill="#373D4C"/>
<path d="M129.48 154.339H121.906V145.607H129.48V154.339ZM131.48 141.607H119.906C118.8 141.607 117.906 142.5 117.906 143.607V156.339C117.906 157.447 118.8 158.339 119.906 158.339H131.48C132.586 158.339 133.48 157.447 133.48 156.339V143.607C133.48 142.5 132.586 141.607 131.48 141.607Z" fill="#373D4C"/>
<path d="M129.32 75.1387L108.013 71.8187L129.32 68.66V75.1387ZM100.413 68.8987C99.4266 69.0454 98.7067 69.8987 98.7067 70.8867V72.6987C98.7067 73.5654 99.2533 74.312 100.04 74.592C100.16 74.632 100.28 74.66 100.4 74.6854L131.013 79.4587C131.107 79.472 131.213 79.472 131.32 79.472C131.787 79.472 132.253 79.312 132.613 78.9934C133.067 78.6187 133.32 78.06 133.32 77.472V66.3387C133.32 65.752 133.067 65.2054 132.627 64.8187C132.187 64.4467 131.6 64.2587 131.027 64.352L100.413 68.8987Z" fill="#373D4C"/>
<path d="M123.613 48.7387L126.347 54.6321L105.413 60.672L123.613 48.7387ZM96.8399 61.592C96.3066 62.1667 96.1599 63.032 96.5066 63.78L97.2666 65.4187C97.5999 66.1387 98.3199 66.5787 99.0799 66.5787C99.2666 66.5787 99.4533 66.5534 99.6399 66.5L99.72 66.472L129.693 57.8334C130.253 57.66 130.72 57.2734 130.96 56.7387C131.2 56.2054 131.2 55.5921 130.96 55.0601L126.267 44.952C126.027 44.432 125.56 44.032 125 43.872C124.44 43.712 123.84 43.8054 123.36 44.1254L97.2266 61.2587C97.08 61.352 96.9466 61.472 96.8399 61.592Z" fill="#373D4C"/>
<path d="M123.613 93.3654L105.413 81.432L126.347 87.4721L123.613 93.3654ZM129.693 84.2854L99.7333 75.632L99.6399 75.6067C98.6799 75.3267 97.6799 75.792 97.2666 76.6854L96.5066 78.3387C96.1599 79.0721 96.3066 79.94 96.8399 80.512C96.9466 80.632 97.08 80.752 97.2266 80.8454L123.36 97.9787C123.693 98.192 124.067 98.312 124.453 98.312C124.64 98.312 124.827 98.2854 125 98.232C125.56 98.072 126.027 97.672 126.267 97.152L130.96 87.0454C131.2 86.512 131.2 85.8987 130.96 85.3654C130.72 84.8454 130.253 84.4467 129.693 84.2854Z" fill="#373D4C"/>
<path d="M105.613 33.1134L111.267 36.2854L97.8267 53.4467L105.613 33.1134ZM91.4267 59.06C91.28 59.8867 91.6667 60.752 92.4267 61.1667L94.0133 62.06C94.3199 62.232 94.6534 62.312 94.9867 62.312C95.5867 62.312 96.1733 62.0454 96.56 61.5534L96.6534 61.4467L115.853 36.912C116.213 36.4587 116.36 35.8587 116.24 35.2854C116.133 34.712 115.773 34.22 115.253 33.94L105.547 28.4854C105.04 28.2054 104.427 28.152 103.88 28.352C103.333 28.5534 102.907 28.9787 102.693 29.512L91.5333 58.712C91.4933 58.8187 91.4533 58.94 91.4267 59.06Z" fill="#373D4C"/>
<path d="M90.8534 30.192L87.6934 51.4854L84.3733 30.192H90.8534ZM84.8267 59.1134C84.8534 59.232 84.8801 59.352 84.9201 59.4587C85.2001 60.2587 85.9466 60.8054 86.8133 60.8054H88.6267C89.6134 60.8054 90.4667 60.072 90.6 59.0987L90.6267 58.94L94.8 30.78L95.1466 28.4854C95.2399 27.912 95.0667 27.3267 94.6934 26.8867C94.3067 26.4467 93.76 26.192 93.1733 26.192H84.3733H82.04C81.4533 26.192 80.8934 26.4467 80.5201 26.8867C80.1334 27.3267 79.9734 27.912 80.0534 28.5L84.8267 59.1134Z" fill="#373D4C"/>
<path d="M87.9867 247.167H79.2267C78.12 247.167 77.2267 248.06 77.2267 249.167C77.2267 250.273 78.12 251.167 79.2267 251.167H87.9867C89.08 251.167 89.9867 250.273 89.9867 249.167C89.9867 248.06 89.08 247.167 87.9867 247.167Z" fill="#373D4C"/>
<path d="M69.64 34.0187L77.4267 54.3521L63.9867 37.1921L69.64 34.0187ZM78.6 62.3521L78.6934 62.4587C79.08 62.952 79.6667 63.2321 80.2667 63.2321C80.6 63.2321 80.9333 63.1387 81.24 62.9654L82.8267 62.0721C83.6934 61.5921 84.0667 60.5534 83.7201 59.6187L72.56 30.4321C72.3467 29.8867 71.92 29.4587 71.3733 29.2587C70.8266 29.0601 70.2133 29.1134 69.7066 29.3934L60 34.8454C59.48 35.1387 59.12 35.632 59.0133 36.2054C58.8933 36.78 59.04 37.3654 59.4 37.8334L78.6 62.3521Z" fill="#373D4C"/>
<path d="M51.64 49.6454L69.84 61.5787L48.9067 55.5387L51.64 49.6454ZM45.5601 58.7387L75.6133 67.4187C75.8 67.472 75.9867 67.4854 76.1734 67.4854C76.9333 67.4854 77.6534 67.06 77.9868 66.3267L78.7467 64.6854C79.0933 63.94 78.9467 63.072 78.4133 62.5C78.3067 62.3787 78.1734 62.2587 78.0267 62.1667L51.8934 45.0321C51.4134 44.7121 50.8134 44.6187 50.2534 44.78C49.6934 44.94 49.2268 45.3387 48.9868 45.872L44.2934 55.9787C44.0534 56.5 44.0534 57.1134 44.2934 57.6454C44.5334 58.1787 45.0001 58.5787 45.5601 58.7387Z" fill="#373D4C"/>
<path d="M51.64 93.3654L48.9067 87.4721L69.84 81.432L51.64 93.3654ZM78.4133 80.512C78.9467 79.94 79.0933 79.0721 78.7467 78.3387L77.9868 76.6854C77.5734 75.792 76.5733 75.3267 75.6133 75.6067L45.5601 84.2854C45.0001 84.4467 44.5334 84.8454 44.2934 85.3654C44.0534 85.8987 44.0534 86.512 44.2934 87.0454L48.9868 97.152C49.2268 97.672 49.6934 98.072 50.2534 98.232C50.4268 98.2854 50.6134 98.312 50.8 98.312C51.1867 98.312 51.5601 98.192 51.8934 97.9787L78.0267 80.8454C78.1734 80.752 78.3067 80.632 78.4133 80.512Z" fill="#373D4C"/>
<path d="M46.5732 68.66L67.8799 71.8187L46.5732 75.1387V68.66ZM44.5732 79.472C44.6799 79.472 44.7865 79.472 44.8799 79.4587L75.4933 74.6854C76.4666 74.5254 77.1867 73.6854 77.1867 72.6987V70.8867C77.1867 69.8987 76.4665 69.0454 75.4799 68.8987L75.3999 68.8867L44.8666 64.352C44.2933 64.2734 43.7066 64.4467 43.2666 64.8187C42.8266 65.2054 42.5732 65.752 42.5732 66.3387V77.472C42.5732 78.06 42.8265 78.6187 43.2799 78.9934C43.6399 79.312 44.1066 79.472 44.5732 79.472Z" fill="#373D4C"/>
<path d="M75.1867 262.5H66.52C65.4134 262.5 64.52 263.393 64.52 264.5C64.52 265.607 65.4134 266.5 66.52 266.5H75.1867C76.2934 266.5 77.1867 265.607 77.1867 264.5C77.1867 263.393 76.2934 262.5 75.1867 262.5Z" fill="#373D4C"/>
<path d="M46.1066 159.607C44.9999 159.607 44.1066 160.5 44.1066 161.607C44.1066 162.712 44.9999 163.607 46.1066 163.607H52.76C53.8666 163.607 54.76 162.712 54.76 161.607C54.76 160.5 53.8666 159.607 52.76 159.607H46.1066Z" fill="#57B9D4"/>
<path d="M-17.28 142.925H10.0399C11.1466 142.925 12.0399 142.032 12.0399 140.925C12.0399 139.819 11.1466 138.925 10.0399 138.925H8.09328H-6.17339C-6.14672 138.792 -6.12013 138.645 -6.12013 138.485C-6.12013 134.712 -3.04013 131.632 0.746532 131.632C2.95987 131.632 5.01328 132.699 6.29328 134.472C6.62661 135.139 7.30661 135.607 8.09328 135.607C9.19994 135.607 10.0933 134.712 10.0933 133.607C10.0933 126.393 15.9599 120.525 23.1732 120.525C30.3866 120.525 36.2533 126.393 36.2533 133.607C36.2533 133.699 36.2665 133.792 36.2799 133.887C36.2399 134.447 36.3999 135.019 36.8399 135.447C37.6132 136.232 38.8799 136.232 39.6666 135.447C40.7066 134.405 42.0932 133.833 43.5732 133.833C46.6266 133.833 49.12 136.312 49.12 139.365C49.12 140.472 50.0133 141.365 51.12 141.365C52.2266 141.365 53.12 140.472 53.12 139.365C53.12 134.099 48.8399 129.833 43.5732 129.833C42.3199 129.833 41.0933 130.072 39.9599 130.539C38.5066 122.579 31.5332 116.525 23.1732 116.525C15.2132 116.525 8.53322 122.005 6.63989 129.393C4.90656 128.259 2.87987 127.632 0.746532 127.632C-5.25347 127.632 -10.1201 132.5 -10.1201 138.485C-10.1201 138.645 -10.1067 138.792 -10.0667 138.925H-17.28C-18.3867 138.925 -19.28 139.819 -19.28 140.925C-19.28 142.032 -18.3867 142.925 -17.28 142.925Z" fill="#373D4C"/>
<path d="M41.3066 248.338H6.45337C5.3467 248.338 4.45337 249.232 4.45337 250.338C4.45337 251.447 5.3467 252.338 6.45337 252.338H41.3066C42.4 252.338 43.3066 251.447 43.3066 250.338C43.3066 249.232 42.4 248.338 41.3066 248.338Z" fill="#373D4C"/>
<path d="M29.36 36.7387H38.2533C39.3467 36.7387 40.2533 35.8454 40.2533 34.7387C40.2533 33.632 39.3467 32.7387 38.2533 32.7387H29.36C28.2533 32.7387 27.36 33.632 27.36 34.7387C27.36 35.8454 28.2533 36.7387 29.36 36.7387Z" fill="#57B9D4"/>
<path d="M11.6399 67.4187C11.6399 68.5254 12.5332 69.4187 13.6399 69.4187H25.4266C26.5333 69.4187 27.4266 68.5254 27.4266 67.4187C27.4266 66.3267 26.5333 65.4187 25.4266 65.4187H13.6399C12.5332 65.4187 11.6399 66.3267 11.6399 67.4187Z" fill="#57B9D4"/>
<path d="M-3.62671 53.4054H17.9066C19.0133 53.4054 19.9066 52.5 19.9066 51.4054C19.9066 50.2987 19.0133 49.4054 17.9066 49.4054H-3.62671C-4.72004 49.4054 -5.62671 50.2987 -5.62671 51.4054C-5.62671 52.5 -4.72004 53.4054 -3.62671 53.4054Z" fill="#C5EDEA"/>
<path d="M-1.41333 149.819C-2.52 149.819 -3.41333 150.712 -3.41333 151.819C-3.41333 152.925 -2.52 153.819 -1.41333 153.819H15.2533C16.36 153.819 17.2533 152.925 17.2533 151.819C17.2533 150.712 16.36 149.819 15.2533 149.819H-1.41333Z" fill="#C5EDEA"/>
<path d="M13.64 262.045H-5.82666C-6.93333 262.045 -7.82666 262.94 -7.82666 264.045C-7.82666 265.152 -6.93333 266.045 -5.82666 266.045H13.64C14.7467 266.045 15.64 265.152 15.64 264.045C15.64 262.94 14.7467 262.045 13.64 262.045Z" fill="#373D4C"/>
<path d="M-3.62671 103.352H3.90662C5.01329 103.352 5.90662 102.459 5.90662 101.352C5.90662 100.245 5.01329 99.3521 3.90662 99.3521H-3.62671C-4.72004 99.3521 -5.62671 100.245 -5.62671 101.352C-5.62671 102.459 -4.72004 103.352 -3.62671 103.352Z" fill="#57B9D4"/>
</g>
</svg>
