<svg width="288" height="288" viewBox="0 0 288 288" fill="none" xmlns="http://www.w3.org/2000/svg">
<mask id="mask0_221:13935" style="mask-type:alpha" maskUnits="userSpaceOnUse" x="0" y="0" width="288" height="288">
<circle cx="144" cy="144" r="144" fill="#C4C4C4"/>
</mask>
<g mask="url(#mask0_221:13935)">
<path d="M1019.87 597.453H-1716V-21.996H1019.87V597.453Z" fill="#FFFEFA"/>
<path d="M287.84 178.231V161.497C287.84 161.497 279.853 154.503 276.96 154.503C274.053 154.503 262.507 153.877 258.947 155.412C255.387 156.948 243.613 162.116 238.947 162.755C234.28 163.392 220.053 167.304 215.387 168.791C210.733 170.279 200.28 178.503 200.28 178.503L287.84 178.231Z" fill="#E8C080"/>
<path d="M-0.893555 179.615V246.197H287.84V178.231L-0.893555 179.615Z" fill="#57B9D4"/>
<path d="M122.107 225.209V232.009H75.24C75.16 232.009 75.08 232.023 75 232.037L51.3867 201.757L56.7466 197.569L77.44 224.103C77.5466 224.236 77.6799 224.356 77.8133 224.451C78.1733 224.916 78.7334 225.209 79.36 225.209H122.107Z" fill="#E8DECF"/>
<path d="M263.867 75.3027C263.867 83.3027 257.413 89.756 249.48 89.756C245.507 89.756 241.907 88.144 239.293 85.516H244.147C245.253 85.516 246.147 84.6227 246.147 83.516C246.147 82.4227 245.253 81.516 244.147 81.516H236.493C235.6 79.6507 235.093 77.5694 235.093 75.3694C235.093 75.3027 240.533 75.3027 240.533 75.3027C241.64 75.3027 242.533 74.4094 242.533 73.3027C242.533 72.1961 241.64 71.3027 240.533 71.3027H235.68C237.44 65.3441 242.96 60.984 249.48 60.984C256 60.984 261.507 65.3441 263.267 71.3027H260.253C259.147 71.3027 258.253 72.1961 258.253 73.3027C258.253 74.4094 259.147 75.3027 260.253 75.3027H263.867Z" fill="#E8C080"/>
<path d="M203.147 118.956C203.76 121.289 204.547 124.289 205.16 126.676C202.76 125.503 200.36 124.183 199.547 123.383C199.08 122.916 198.427 122.704 197.787 122.823C197.48 122.876 197.2 122.996 196.96 123.183C195.547 120.849 193.693 117.609 192.933 115.451C192.733 114.849 192.253 114.383 191.64 114.196C191.04 114.009 190.387 114.117 189.867 114.489L189.573 114.704C187.707 111.716 185.973 108.543 185.867 107.636C185.76 106.796 185.133 106.103 184.32 105.929C183.493 105.743 182.64 106.089 182.187 106.811L181.627 107.716C177.773 104.769 168.547 97.6894 163.787 93.8227C165.187 92.6507 166.813 91.3294 168.307 90.1694C169.267 89.9027 172.907 89.0627 178.333 89.8627L178.2 89.9841C177.6 90.5161 177.373 91.3561 177.627 92.1027C177.88 92.8627 178.547 93.3961 179.347 93.4774C181.267 93.6507 185.627 94.2361 189.08 95.2494L188.52 95.5027C187.827 95.8227 187.36 96.5161 187.347 97.2894C187.333 98.0627 187.773 98.7694 188.467 99.1174C190.2 99.9694 194.027 101.996 197 103.969C196.307 104.117 195.747 104.636 195.533 105.329C195.307 106.063 195.52 106.863 196.08 107.383C197.787 108.956 201.987 113.144 204.347 116.596C203.413 116.956 202.893 117.969 203.147 118.956Z" fill="#CCE294"/>
<path d="M180.946 147.903C187.826 172.236 193.52 204.596 192.96 244.196H171.547C173.386 225.983 173.933 209.064 173.627 193.636C173.12 167.503 170.186 145.704 167.013 129.371C163.747 112.489 160.213 101.436 158.853 97.4628C159.307 97.4507 159.76 97.2894 160.12 96.9694C160.12 96.9694 160.16 96.9428 160.2 96.9028C163.52 102.477 173.013 119.876 180.946 147.903Z" fill="#80A0AC"/>
<path d="M193.16 64.4507C190.413 67.3294 186.6 71.3694 185.96 72.3694C185.667 72.8494 185.587 73.4094 185.72 73.9561C185.813 74.2761 185.973 74.5694 186.2 74.8107C183.507 75.9561 180.093 77.4227 178.667 78.0107C178.053 78.2627 177.613 78.7961 177.467 79.4361C177.333 80.0894 177.52 80.7561 177.987 81.2361C174.587 82.4894 169.12 84.6094 166.333 86.6628C166.28 86.7028 166.213 86.7427 166.16 86.7841C164.707 87.8761 163.147 89.1561 161.747 90.3174C161.787 89.7561 161.8 89.1561 161.787 88.5294C162.573 84.8228 164.507 76.3027 166.027 72.1827C166.947 72.5827 167.973 72.2894 168.507 71.4894C170.56 68.4774 173.093 65.6628 174.653 64.5561L175.333 65.4894C175.947 66.3174 177.08 66.5294 177.973 66.0107C178.24 65.8494 184.147 62.4627 193.16 64.4507Z" fill="#CCE294"/>
<path d="M157.8 88.6894C157.813 90.0894 157.68 91.3028 157.507 92.2894C154.933 90.3961 149.667 86.6094 145.947 84.5694L146.24 84.2628C146.707 83.7961 146.907 83.1294 146.787 82.4894C146.667 81.8361 146.227 81.2894 145.627 81.0228C145.053 80.7694 141.12 79.0761 137.507 78.3694L137.76 77.9841C138.107 77.4228 138.173 76.7294 137.92 76.1294C137.667 75.5161 137.133 75.0761 136.493 74.9428C132.307 74.0494 127.507 73.0628 124.173 72.4894L125.44 70.9294C125.507 70.8228 125.547 70.7694 125.573 70.7161C125.613 70.6508 125.653 70.5961 125.68 70.5294C125.72 70.4508 125.733 70.4094 125.747 70.3694C125.773 70.3028 125.8 70.2228 125.813 70.1561C125.827 70.0894 125.84 70.0361 125.853 69.9694C125.853 69.9028 125.867 69.8361 125.867 69.7694C125.88 69.7028 125.867 69.6361 125.867 69.5694C125.867 69.5161 125.867 69.4508 125.853 69.3961C125.84 69.3294 125.827 69.2628 125.813 69.1961C125.8 69.1441 125.787 69.0761 125.76 69.0228C125.747 68.9561 125.72 68.9028 125.693 68.8361C125.667 68.7841 125.64 68.7294 125.6 68.6774C125.573 68.6094 125.533 68.5561 125.493 68.5028C125.453 68.4508 125.413 68.3961 125.373 68.3561C125.333 68.3028 125.28 68.2494 125.227 68.2094C125.187 68.1694 125.173 68.1441 125.133 68.1174C125.04 68.0494 124.973 68.0108 124.92 67.9694C124.853 67.9428 124.8 67.9028 124.733 67.8628C123.107 67.1441 120.187 65.8894 117.693 64.8108C118.72 64.5828 119.853 64.3828 120.96 64.2228C121.613 64.1174 122.173 63.7161 122.467 63.1174C122.76 62.5294 122.747 61.8361 122.413 61.2628C126.613 61.7694 130.8 62.9694 130.853 62.9841C131.453 63.1561 132.107 63.0361 132.613 62.6508C133.067 62.3174 133.347 61.7961 133.4 61.2361C137.533 63.5694 140.627 68.2227 140.667 68.2761C141.067 68.8894 141.773 69.2228 142.48 69.1828C143.2 69.1294 143.84 68.6894 144.147 68.0361L144.293 67.7294C149.387 72.4774 151.28 77.2361 151.307 77.2761C151.573 77.9841 152.227 78.4774 152.973 78.5561C153.627 78.6228 154.24 78.3561 154.667 77.8894C156.973 81.5294 157.707 85.1828 157.787 88.1561C157.773 88.3441 157.773 88.5161 157.8 88.6894Z" fill="#CCE294"/>
<path d="M154.787 98.8627C154.933 102.396 155.013 106.063 155 108.677L154.28 108.103C153.667 107.609 152.813 107.516 152.12 107.889C151.413 108.249 150.987 108.996 151.027 109.784C151.213 112.796 151.387 117.249 151.36 120.569L150.387 119.623C149.813 119.064 148.947 118.903 148.213 119.223C147.467 119.529 146.987 120.263 147 121.064C147 124.903 146.973 129.049 146.893 132.009C146.36 131.529 145.613 131.371 144.92 131.596C144.2 131.836 143.667 132.463 143.56 133.223C142.973 137.436 142.293 141.996 141.787 144.996L141.613 144.836C141.16 144.409 140.547 144.209 139.92 144.316C139.293 144.409 138.76 144.796 138.467 145.356C138.227 145.811 137.973 146.289 137.72 146.757C137.707 144.169 137.72 141.409 137.8 139.409C137.827 138.836 137.6 138.263 137.173 137.863C136.8 137.516 136.307 137.329 135.8 137.329C135.733 137.329 135.653 137.329 135.587 137.343L134.893 137.424C135.44 134.371 136.813 129.009 140.04 124.596C140.467 124.009 140.547 123.236 140.253 122.583C139.96 121.929 139.32 121.477 138.6 121.424L137.493 121.316C139.347 117.543 142.133 112.876 144.333 111.503C144.987 111.089 145.347 110.329 145.253 109.556C145.16 108.784 144.627 108.144 143.88 107.903L142.307 107.396C144.267 104.451 148.56 99.2627 154.787 98.8627Z" fill="#CCE294"/>
<path d="M152.133 93.9427C141.653 93.3027 135.96 98.836 133.16 103.076C133.053 103.023 132.947 102.984 132.827 102.943C132.093 102.716 131.293 102.916 130.773 103.477C129.373 104.956 126.36 108.929 124.427 111.529C123.947 111.196 123.333 111.089 122.747 111.263C122.306 111.383 121.347 111.663 110.16 121.343C110.52 112.649 115.107 107.903 115.32 107.689C115.84 107.169 116.04 106.409 115.84 105.716C115.693 105.223 115.387 104.823 114.973 104.569C119 100.811 125.373 97.8107 125.453 97.7841C126.147 97.4507 126.587 96.7561 126.6 95.9961C126.613 95.2894 126.253 94.636 125.667 94.276C131.187 91.396 135.413 91.2627 135.453 91.2627C136.133 91.2494 136.773 90.8894 137.12 90.3027C137.36 89.9161 137.466 89.4627 137.413 89.0227C143.266 89.0227 148.773 91.8107 152.133 93.9427Z" fill="#CCE294"/>
<path d="M98.5466 147.956C98.6 147.996 103.853 152.103 105.373 160.689C99.64 156.916 96.3867 154.876 94.4934 153.757C92.3467 152.503 91.9601 152.451 91.7201 152.409C91.6134 152.397 91.5066 152.383 91.4133 152.383C90.9066 152.383 90.44 152.569 90.08 152.889C87.84 150.583 84.3734 147.064 82.8 145.784C82.2134 145.303 81.4 145.196 80.7067 145.516C80.5867 145.569 80.4934 145.623 80.4 145.689C77.08 141.876 70.7734 137.183 60.5601 139.144C63.5867 136.609 68.6267 133.183 74.3733 132.436C74.3867 132.863 74.5467 133.303 74.8267 133.649C75.2534 134.169 75.92 134.451 76.6 134.383C76.64 134.371 80.8134 133.969 86.6 136.076C86.08 136.516 85.8268 137.196 85.9201 137.876C86.0268 138.636 86.5601 139.276 87.2934 139.503C89.4401 140.183 94.7867 142.209 98.4667 144.823C98.1067 145.129 97.8533 145.569 97.7733 146.064C97.6667 146.784 97.96 147.503 98.5466 147.956Z" fill="#A0D7A0"/>
<path d="M87.3865 105.876C88.4799 105.889 89.6131 105.943 90.6398 106.036C88.3198 107.409 85.6398 109.011 84.1731 109.903C84.0265 109.996 83.9065 110.103 83.7865 110.209C83.5865 110.451 83.4532 110.651 83.3599 110.876C83.3465 110.903 83.3465 110.929 83.3332 110.956C83.2665 111.169 83.2265 111.397 83.2265 111.623C83.2265 111.649 83.2265 111.676 83.2265 111.704C83.2399 111.929 83.2798 112.156 83.3731 112.371C83.3865 112.397 83.3998 112.424 83.4131 112.451C83.4398 112.516 83.4665 112.583 83.5065 112.649C83.5998 112.796 83.7064 112.916 83.8131 113.037C83.8398 113.064 85.2532 114.409 85.2532 114.409C82.0532 115.424 77.4665 117.009 73.4665 118.424C72.8532 118.636 72.3864 119.144 72.2131 119.784C72.0398 120.409 72.1864 121.091 72.6131 121.596L72.8932 121.929C69.4265 123.091 65.7999 125.263 65.2532 125.596C64.6932 125.929 64.3332 126.529 64.2932 127.183C64.2532 127.849 64.5465 128.477 65.0665 128.889L65.3865 129.129C61.9999 131.623 57.3199 136.009 55.0265 138.209C54.7332 137.263 54.4531 136.091 54.2798 134.731C54.2798 134.556 54.2664 134.371 54.2131 134.196C53.9198 131.263 54.1732 127.583 55.9599 123.704C56.4399 124.117 57.0931 124.276 57.7065 124.129C58.4531 123.956 59.0265 123.383 59.1998 122.649C59.2132 122.596 60.4399 117.716 64.8532 112.356L65.0265 112.636C65.4265 113.236 66.1331 113.583 66.8398 113.543C67.5598 113.489 68.1998 113.064 68.5065 112.409C68.5465 112.356 70.9864 107.383 74.7464 104.569C74.8664 105.103 75.2131 105.556 75.7065 105.836C76.2531 106.144 76.9065 106.183 77.4932 105.929C77.5332 105.916 81.4798 104.209 85.5464 103.144C85.3064 103.756 85.3864 104.436 85.7464 104.984C86.1064 105.529 86.7199 105.863 87.3865 105.876Z" fill="#A0D7A0"/>
<path d="M83.1067 179.743L82.4267 179.757C81.8401 179.769 81.2934 180.023 80.9334 180.477C80.56 180.929 80.4 181.516 80.5067 182.091C80.7067 183.276 80.92 184.731 81.1334 186.263C81.2667 187.249 81.4001 188.263 81.5201 189.263C81.2268 188.849 80.9333 188.424 80.64 188.023C80.28 187.503 79.6934 187.196 79.0667 187.169C78.4 187.169 77.8268 187.451 77.4534 187.916L77.3201 188.076C76.4401 185.183 75.1734 180.796 74.0534 176.731C73.8534 175.996 73.2401 175.436 72.4934 175.303C71.8001 175.169 71.0801 175.409 70.6267 175.943C70.1601 173.023 69.5867 168.969 69.1067 165.209C69 164.409 68.4401 163.757 67.6534 163.529C66.8801 163.316 66.0534 163.583 65.5601 164.209L64.7334 165.249C64.6534 164.636 64.56 163.983 64.48 163.316C64.1333 160.397 63.84 157.037 63.6667 154.623C63.6134 153.823 63.0933 153.144 62.3466 152.876C61.6133 152.609 60.7734 152.811 60.2267 153.383L59.6267 154.023C59.2667 151.451 58.8801 147.836 58.5601 144.356C64.7067 143.983 69.5867 148.503 71.9067 151.144L70.4534 151.836C69.7468 152.169 69.2933 152.876 69.3067 153.649C69.3067 154.436 69.76 155.144 70.4667 155.463C72.8134 156.529 76.1467 160.743 78.4667 164.223L77.4 164.463C76.6934 164.609 76.1201 165.144 75.9201 165.823C75.7068 166.516 75.8801 167.276 76.3868 167.796C80.1334 171.716 82.1733 176.811 83.1067 179.743Z" fill="#A0D7A0"/>
<path d="M53.0399 143.196C53.0799 143.209 53.1066 143.223 53.1333 143.236C47.8666 153.303 43.72 164.569 40.4533 175.849C39.5333 179.009 38.6933 182.169 37.92 185.303C31.2133 212.169 29.2532 237.223 28.8132 244.196H21.2666C21.3333 240.556 22.0533 218.796 29.2533 193.144C31.4667 185.276 34.2933 177.049 37.8933 168.876C41.8 159.983 46.6399 151.144 52.5999 142.889C52.8666 143.076 53.0399 143.183 53.0399 143.196Z" fill="#4D7591"/>
<path d="M50.2933 135.076C50.3733 135.689 50.4666 136.263 50.5732 136.811C49.0532 135.849 47.3599 134.796 45.7999 133.903C45.7466 133.876 45.6799 133.849 45.6266 133.823C42.5866 132.156 36.9599 130.784 33.4132 130.023C33.8265 129.463 33.9333 128.769 33.72 128.156C33.4933 127.529 32.9865 127.049 32.3465 126.889C30.8532 126.489 27.3199 125.503 24.5333 124.716C24.7199 124.451 24.8399 124.144 24.8799 123.823C24.9465 123.276 24.7866 122.716 24.4266 122.289C23.6799 121.383 19.4133 117.903 16.3333 115.424C24.9466 112.316 31.1733 114.889 31.4533 115.009C32.4133 115.424 33.5065 115.049 34.0132 114.144L34.5599 113.156C36.2266 114.049 39.0799 116.489 41.4933 119.183C42.1333 119.889 43.1865 120.064 44.0132 119.569C46.0532 123.409 49.0533 131.529 50.2933 135.076Z" fill="#A0D7A0"/>
<path d="M44.1065 137.556C45.7198 138.489 47.4798 139.583 49.0131 140.556C44.8265 144.969 36.6798 153.117 33.2665 156.516L32.5998 155.716C32.0665 155.064 31.1731 154.823 30.3731 155.117C29.5865 155.397 29.0532 156.156 29.0665 157.009C29.0665 157.916 27.7732 161.249 26.3332 164.436L26.0265 164.263C25.4665 163.956 24.7999 163.943 24.2265 164.196C23.6532 164.463 23.2398 164.983 23.1065 165.609C22.6931 167.543 21.5731 170.424 20.5731 172.769C20.4265 173.103 20.2932 173.424 20.1599 173.731C19.8932 173.583 19.5999 173.503 19.2932 173.489C18.6532 173.463 18.0265 173.757 17.6265 174.263C16.9332 175.169 14.7599 176.769 12.5599 178.236C12.7065 177.009 12.8798 175.649 13.0398 174.289C13.2131 172.929 13.3865 171.569 13.5332 170.397C13.6532 169.383 13.0132 168.451 12.0532 168.209C13.9332 164.516 17.5199 159.863 18.9866 158.091C19.4799 157.503 19.5998 156.676 19.2665 155.969C18.9732 155.329 18.3598 154.889 17.6665 154.823C20.3465 152.503 23.8265 150.023 25.4265 148.956C26.0665 148.529 26.3999 147.769 26.2932 147.009C26.1732 146.236 25.6265 145.609 24.8932 145.383L24.3465 145.223C27.6131 143.796 31.7998 142.649 33.6798 142.236C34.4531 142.049 35.0532 141.436 35.1998 140.649C35.3465 139.876 35.0132 139.076 34.3599 138.623L34.2265 138.543C39.4532 137.064 43.1198 137.409 44.1065 137.556Z" fill="#A0D7A0"/>
<path d="M192.96 244.196H171.547C173.387 225.983 173.933 209.063 173.627 193.636C173.12 167.503 170.187 145.703 167.013 129.369C163.747 112.489 160.213 101.436 158.853 97.4628C159.307 97.4494 159.76 97.2894 160.12 96.9694C160.12 96.9694 160.16 96.9428 160.2 96.9028C163.52 102.476 173.013 119.876 180.947 147.903C187.827 172.236 193.52 204.596 192.96 244.196ZM167.533 244.196H116.293C116.267 244.076 116.24 243.956 116.2 243.849L113.147 236.009H124.107C125.213 236.009 126.107 235.116 126.107 234.009V223.209C126.107 222.103 125.213 221.209 124.107 221.209H80.2666L58.6799 193.529C57.9999 192.663 56.7332 192.503 55.8666 193.183L47.3465 199.836C46.9332 200.156 46.6533 200.636 46.5866 201.156C46.5333 201.689 46.6799 202.223 46.9999 202.636L54.5999 212.383H51.2399C50.1332 212.383 49.2399 213.289 49.2399 214.383C49.2399 215.489 50.1332 216.383 51.2399 216.383H56.8666C57.1199 216.383 57.3732 216.329 57.6132 216.236L72.4266 235.249C72.8266 235.743 73.4132 236.009 74.0132 236.009C74.2265 236.009 74.4399 235.983 74.6399 235.916C74.8265 235.969 75.0266 236.009 75.2399 236.009H83.7599L80.7066 243.849C80.6665 243.956 80.6399 244.076 80.6132 244.196H32.8266C33.2933 237.049 35.2533 212.476 41.7866 186.249C42.2266 184.503 42.6799 182.743 43.1599 180.983H67.5332C67.5999 181.249 67.6799 181.463 67.7465 181.609C68.0532 182.236 68.6666 182.663 69.3599 182.729C70.0666 182.796 70.7332 182.489 71.1465 181.929L71.2933 181.729C72.5199 186.063 74.2265 191.916 74.8132 193.063C75.1199 193.663 75.72 194.076 76.3866 194.143C77.0666 194.209 77.7332 193.943 78.1465 193.409L78.9065 192.476C82.4799 197.476 82.8932 197.796 83.1332 197.983C83.4932 198.249 83.9199 198.396 84.3465 198.396C84.6932 198.396 85.0266 198.316 85.3332 198.143C86.0266 197.756 86.4265 196.983 86.3465 196.183C86.3065 195.889 85.7466 190.489 85.0933 185.703C84.9999 185.023 84.9065 184.343 84.8132 183.703L85.7599 183.689C86.3599 183.676 86.9065 183.396 87.2799 182.929C87.6532 182.463 87.7999 181.863 87.6799 181.276C87.6665 181.249 87.6532 181.129 87.6132 180.983H169.187C169.4 185.076 169.547 189.303 169.64 193.636C169.933 209.036 169.387 225.969 167.533 244.196ZM75.2399 232.009C75.1599 232.009 75.0799 232.023 74.9999 232.036L51.3866 201.756L56.7465 197.569L77.4399 224.103C77.5465 224.236 77.6799 224.356 77.8132 224.449C78.1732 224.916 78.7333 225.209 79.3599 225.209H122.107V232.009H75.2399ZM84.8666 244.196L88.0399 236.063C88.0532 236.009 108.853 236.009 108.853 236.009C108.867 236.063 112.04 244.196 112.04 244.196H84.8666ZM21.2666 244.196C21.3332 240.556 22.0533 218.796 29.2533 193.143C31.4666 185.276 34.2933 177.049 37.8933 168.876C41.7999 159.983 46.6399 151.143 52.5999 142.889C52.8666 143.076 53.0399 143.183 53.0399 143.196C53.0799 143.209 53.1066 143.223 53.1332 143.236C47.8666 153.303 43.72 164.569 40.4533 175.849C39.5333 179.009 38.6933 182.169 37.92 185.303C31.2133 212.169 29.2532 237.223 28.8132 244.196H21.2666ZM23.0799 176.983C23.3999 176.289 23.7999 175.383 24.2266 174.383C24.9466 172.716 25.7199 170.769 26.3065 168.983C26.7865 169.236 27.3332 169.276 27.8399 169.116C28.3599 168.943 28.7999 168.569 29.0399 168.076C29.6265 166.863 31.0399 163.863 32.0266 161.156C32.3199 161.343 32.6666 161.463 33.0266 161.476C33.5999 161.503 34.1332 161.289 34.5332 160.903C34.7732 160.663 37.0665 158.383 40.0399 155.409C37.9065 159.329 35.9732 163.289 34.2399 167.276C32.7999 170.529 31.4932 173.769 30.3065 177.009C30.2132 176.996 30.1199 176.983 30.0266 176.983H23.0799ZM20.1599 173.729C19.8933 173.583 19.5999 173.503 19.2933 173.489C18.6533 173.463 18.0266 173.756 17.6266 174.263C16.9333 175.169 14.7599 176.769 12.5599 178.236C12.7066 177.009 12.8799 175.649 13.0399 174.289C13.2132 172.929 13.3866 171.569 13.5332 170.396C13.6532 169.383 13.0133 168.449 12.0533 168.209C13.9333 164.516 17.52 159.863 18.9866 158.089C19.48 157.503 19.5999 156.676 19.2666 155.969C18.9732 155.329 18.3599 154.889 17.6666 154.823C20.3466 152.503 23.8266 150.023 25.4266 148.956C26.0666 148.529 26.3999 147.769 26.2933 147.009C26.1733 146.236 25.6266 145.609 24.8933 145.383L24.3465 145.223C27.6132 143.796 31.7999 142.649 33.6799 142.236C34.4532 142.049 35.0532 141.436 35.1999 140.649C35.3466 139.876 35.0133 139.076 34.3599 138.623L34.2266 138.543C39.4533 137.063 43.1199 137.409 44.1065 137.556C45.7199 138.489 47.4799 139.583 49.0132 140.556C44.8265 144.969 36.6799 153.116 33.2666 156.516L32.5999 155.716C32.0666 155.063 31.1732 154.823 30.3732 155.116C29.5865 155.396 29.0532 156.156 29.0666 157.009C29.0666 157.916 27.7732 161.249 26.3332 164.436L26.0266 164.263C25.4666 163.956 24.7999 163.943 24.2266 164.196C23.6533 164.463 23.2399 164.983 23.1065 165.609C22.6932 167.543 21.5732 170.423 20.5732 172.769C20.4265 173.103 20.2933 173.423 20.1599 173.729ZM33.4132 130.023C33.8265 129.463 33.9333 128.769 33.72 128.156C33.4933 127.529 32.9865 127.049 32.3465 126.889C30.8532 126.489 27.3199 125.503 24.5332 124.716C24.7199 124.449 24.8399 124.143 24.8799 123.823C24.9465 123.276 24.7866 122.716 24.4266 122.289C23.6799 121.383 19.4132 117.903 16.3332 115.423C24.9466 112.316 31.1733 114.889 31.4533 115.009C32.4133 115.423 33.5065 115.049 34.0132 114.143L34.5599 113.156C36.2266 114.049 39.0799 116.489 41.4933 119.183C42.1333 119.889 43.1865 120.063 44.0132 119.569C46.0532 123.409 49.0533 131.529 50.2933 135.076C50.3733 135.689 50.4665 136.263 50.5732 136.809C49.0532 135.849 47.3599 134.796 45.7999 133.903C45.7466 133.876 45.6799 133.849 45.6266 133.823C42.5866 132.156 36.9599 130.783 33.4132 130.023ZM54.9465 148.529C55.3865 152.743 55.9866 157.636 56.5599 158.983C56.8133 159.609 57.3732 160.049 58.0399 160.169C58.7065 160.303 59.3865 160.076 59.8399 159.583L60.0533 159.369C60.1866 160.729 60.3333 162.263 60.52 163.769C60.8533 166.583 61.2665 169.289 61.7465 170.556C61.9865 171.236 62.5866 171.729 63.2933 171.836C64.0133 171.956 64.7333 171.676 65.1866 171.116L65.7599 170.383C66.0799 172.743 66.4132 175.063 66.7332 176.983H44.2799C47.1065 167.209 50.6132 157.463 54.9465 148.529ZM55.9599 123.703C56.4399 124.116 57.0932 124.276 57.7065 124.129C58.4532 123.956 59.0266 123.383 59.1999 122.649C59.2132 122.596 60.44 117.716 64.8533 112.356L65.0266 112.636C65.4266 113.236 66.1332 113.583 66.8399 113.543C67.5599 113.489 68.1999 113.063 68.5065 112.409C68.5465 112.356 70.9865 107.383 74.7465 104.569C74.8665 105.103 75.2132 105.556 75.7066 105.836C76.2532 106.143 76.9066 106.183 77.4933 105.929C77.5333 105.916 81.4799 104.209 85.5465 103.143C85.3065 103.756 85.3865 104.436 85.7465 104.984C86.1065 105.529 86.72 105.863 87.3866 105.876C88.48 105.889 89.6132 105.943 90.6399 106.036C88.3199 107.409 85.6399 109.011 84.1732 109.903C84.0266 109.996 83.9066 110.103 83.7866 110.209C83.5866 110.449 83.4533 110.651 83.3599 110.876C83.3466 110.903 83.3466 110.929 83.3332 110.956C83.2666 111.169 83.2266 111.396 83.2266 111.623C83.2266 111.649 83.2266 111.676 83.2266 111.703C83.2399 111.929 83.2799 112.156 83.3732 112.369C83.3866 112.396 83.3999 112.423 83.4132 112.449C83.4399 112.516 83.4665 112.583 83.5065 112.649C83.5999 112.796 83.7065 112.916 83.8132 113.036C83.8399 113.063 85.2533 114.409 85.2533 114.409C82.0533 115.423 77.4666 117.009 73.4666 118.423C72.8532 118.636 72.3865 119.143 72.2132 119.783C72.0399 120.409 72.1865 121.089 72.6132 121.596L72.8933 121.929C69.4266 123.089 65.8 125.263 65.2533 125.596C64.6933 125.929 64.3333 126.529 64.2933 127.183C64.2533 127.849 64.5466 128.476 65.0666 128.889L65.3866 129.129C62 131.623 57.3199 136.009 55.0266 138.209C54.7333 137.263 54.4532 136.089 54.2799 134.729C54.2799 134.556 54.2665 134.369 54.2132 134.196C53.9199 131.263 54.1733 127.583 55.9599 123.703ZM74.3732 132.436C74.3865 132.863 74.5466 133.303 74.8266 133.649C75.2533 134.169 75.9199 134.449 76.5999 134.383C76.6399 134.369 80.8132 133.969 86.5999 136.076C86.0799 136.516 85.8266 137.196 85.92 137.876C86.0266 138.636 86.5599 139.276 87.2933 139.503C89.4399 140.183 94.7866 142.209 98.4666 144.823C98.1066 145.129 97.8532 145.569 97.7732 146.063C97.6665 146.783 97.9599 147.503 98.5465 147.956C98.5999 147.996 103.853 152.103 105.373 160.689C99.6399 156.916 96.3866 154.876 94.4933 153.756C92.3466 152.503 91.96 152.449 91.72 152.409C91.6133 152.396 91.5065 152.383 91.4132 152.383C90.9065 152.383 90.4399 152.569 90.0799 152.889C87.8399 150.583 84.3732 147.063 82.7999 145.783C82.2132 145.303 81.3999 145.196 80.7066 145.516C80.5865 145.569 80.4932 145.623 80.3999 145.689C77.0799 141.876 70.7733 137.183 60.5599 139.143C63.5866 136.609 68.6265 133.183 74.3732 132.436ZM71.9065 151.143L70.4533 151.836C69.7466 152.169 69.2932 152.876 69.3065 153.649C69.3065 154.436 69.7599 155.143 70.4666 155.463C72.8132 156.529 76.1466 160.743 78.4666 164.223L77.3999 164.463C76.6932 164.609 76.12 165.143 75.92 165.823C75.7066 166.516 75.88 167.276 76.3866 167.796C80.1333 171.716 82.1732 176.809 83.1065 179.743L82.4266 179.756C81.8399 179.769 81.2932 180.023 80.9332 180.476C80.5599 180.929 80.3999 181.516 80.5065 182.089C80.7066 183.276 80.9199 184.729 81.1332 186.263C81.2666 187.249 81.4 188.263 81.52 189.263C81.2266 188.849 80.9332 188.423 80.6399 188.023C80.2799 187.503 79.6932 187.196 79.0666 187.169C78.3999 187.169 77.8266 187.449 77.4533 187.916L77.32 188.076C76.44 185.183 75.1733 180.796 74.0533 176.729C73.8533 175.996 73.2399 175.436 72.4933 175.303C71.7999 175.169 71.0799 175.409 70.6266 175.943C70.1599 173.023 69.5865 168.969 69.1065 165.209C68.9999 164.409 68.44 163.756 67.6533 163.529C66.88 163.316 66.0533 163.583 65.5599 164.209L64.7332 165.249C64.6532 164.636 64.5599 163.983 64.4799 163.316C64.1332 160.396 63.8399 157.036 63.6666 154.623C63.6132 153.823 63.0932 153.143 62.3465 152.876C61.6132 152.609 60.7733 152.809 60.2266 153.383L59.6266 154.023C59.2666 151.449 58.8799 147.836 58.5599 144.356C64.7066 143.983 69.5865 148.503 71.9065 151.143ZM161.787 88.5294C162.573 84.8228 164.507 76.3027 166.027 72.1827C166.947 72.5827 167.973 72.2894 168.507 71.4894C170.56 68.4761 173.093 65.6628 174.653 64.5561L175.333 65.4894C175.947 66.3174 177.08 66.5294 177.973 66.0107C178.24 65.8494 184.147 62.4627 193.16 64.4494C190.413 67.3294 186.6 71.3694 185.96 72.3694C185.667 72.8494 185.587 73.4094 185.72 73.9561C185.813 74.2761 185.973 74.5694 186.2 74.8094C183.507 75.9561 180.093 77.4227 178.667 78.0107C178.053 78.2627 177.613 78.7961 177.467 79.4361C177.333 80.0894 177.52 80.7561 177.987 81.2361C174.587 82.4894 169.12 84.6094 166.333 86.6628C166.28 86.7028 166.213 86.7427 166.16 86.7827C164.707 87.8761 163.147 89.1561 161.747 90.3174C161.787 89.7561 161.8 89.1561 161.787 88.5294ZM178.333 89.8627L178.2 89.9841C177.6 90.5161 177.373 91.3561 177.627 92.1028C177.88 92.8628 178.547 93.3961 179.347 93.4761C181.267 93.6507 185.627 94.2361 189.08 95.2494L188.52 95.5028C187.827 95.8228 187.36 96.5161 187.347 97.2894C187.333 98.0627 187.773 98.7694 188.467 99.1161C190.2 99.9694 194.027 101.996 197 103.969C196.307 104.116 195.747 104.636 195.533 105.329C195.307 106.063 195.52 106.863 196.08 107.383C197.787 108.956 201.987 113.143 204.347 116.596C203.413 116.956 202.893 117.969 203.147 118.956C203.76 121.289 204.547 124.289 205.16 126.676C202.76 125.503 200.36 124.183 199.547 123.383C199.08 122.916 198.427 122.703 197.787 122.823C197.48 122.876 197.2 122.996 196.96 123.183C195.547 120.849 193.693 117.609 192.933 115.449C192.733 114.849 192.253 114.383 191.64 114.196C191.04 114.009 190.387 114.116 189.867 114.489L189.573 114.703C187.707 111.716 185.973 108.543 185.867 107.636C185.76 106.796 185.133 106.103 184.32 105.929C183.493 105.743 182.64 106.089 182.187 106.809L181.627 107.716C177.773 104.769 168.547 97.6894 163.787 93.8227C165.187 92.6507 166.813 91.3294 168.307 90.1694C169.267 89.9028 172.907 89.0627 178.333 89.8627ZM157.507 92.2894C154.933 90.3961 149.667 86.6094 145.947 84.5694L146.24 84.2628C146.707 83.7961 146.907 83.1294 146.787 82.4894C146.667 81.8361 146.227 81.2894 145.627 81.0228C145.053 80.7694 141.12 79.0761 137.507 78.3694L137.76 77.9841C138.107 77.4227 138.173 76.7294 137.92 76.1294C137.667 75.5161 137.133 75.0761 136.493 74.9427C132.307 74.0494 127.507 73.0627 124.173 72.4894L125.44 70.9294C125.507 70.8228 125.547 70.7694 125.573 70.7161C125.613 70.6507 125.653 70.5961 125.68 70.5294C125.72 70.4494 125.733 70.4094 125.747 70.3694C125.773 70.3028 125.8 70.2227 125.813 70.1561C125.827 70.0894 125.84 70.0361 125.853 69.9694C125.853 69.9028 125.867 69.8361 125.867 69.7694C125.88 69.7028 125.867 69.6361 125.867 69.5694C125.867 69.5161 125.867 69.4494 125.853 69.3961C125.84 69.3294 125.827 69.2628 125.813 69.1961C125.8 69.1427 125.787 69.0761 125.76 69.0228C125.747 68.9561 125.72 68.9028 125.693 68.8361C125.667 68.7828 125.64 68.7294 125.6 68.6774C125.573 68.6094 125.533 68.5561 125.493 68.5028C125.453 68.4494 125.413 68.3961 125.373 68.3561C125.333 68.3027 125.28 68.2494 125.227 68.2094C125.187 68.1694 125.173 68.1427 125.133 68.1161C125.04 68.0494 124.973 68.0108 124.92 67.9694C124.853 67.9428 124.8 67.9028 124.733 67.8627C123.107 67.1427 120.187 65.8894 117.693 64.8094C118.72 64.5827 119.853 64.3828 120.96 64.2227C121.613 64.1161 122.173 63.7161 122.467 63.1161C122.76 62.5294 122.747 61.8361 122.413 61.2628C126.613 61.7694 130.8 62.9694 130.853 62.9841C131.453 63.1561 132.107 63.0361 132.613 62.6507C133.067 62.3174 133.347 61.7961 133.4 61.2361C137.533 63.5694 140.627 68.2227 140.667 68.2761C141.067 68.8894 141.773 69.2227 142.48 69.1827C143.2 69.1294 143.84 68.6894 144.147 68.0361L144.293 67.7294C149.387 72.4761 151.28 77.2361 151.307 77.2761C151.573 77.9841 152.227 78.4761 152.973 78.5561C153.627 78.6227 154.24 78.3561 154.667 77.8894C156.973 81.5294 157.707 85.1827 157.787 88.1561C157.773 88.3441 157.773 88.5161 157.8 88.6894C157.813 90.0894 157.68 91.3027 157.507 92.2894ZM155 108.677L154.28 108.103C153.667 107.609 152.813 107.516 152.12 107.889C151.413 108.249 150.987 108.996 151.027 109.783C151.213 112.796 151.387 117.249 151.36 120.569L150.387 119.623C149.813 119.063 148.947 118.903 148.213 119.223C147.467 119.529 146.987 120.263 147 121.063C147 124.903 146.973 129.049 146.893 132.009C146.36 131.529 145.613 131.369 144.92 131.596C144.2 131.836 143.667 132.463 143.56 133.223C142.973 137.436 142.293 141.996 141.787 144.996L141.613 144.836C141.16 144.409 140.547 144.209 139.92 144.316C139.293 144.409 138.76 144.796 138.467 145.356C138.227 145.809 137.973 146.289 137.72 146.756C137.707 144.169 137.72 141.409 137.8 139.409C137.827 138.836 137.6 138.263 137.173 137.863C136.8 137.516 136.307 137.329 135.8 137.329C135.733 137.329 135.653 137.329 135.587 137.343L134.893 137.423C135.44 134.369 136.813 129.009 140.04 124.596C140.467 124.009 140.547 123.236 140.253 122.583C139.96 121.929 139.32 121.476 138.6 121.423L137.493 121.316C139.347 117.543 142.133 112.876 144.333 111.503C144.987 111.089 145.347 110.329 145.253 109.556C145.16 108.783 144.627 108.143 143.88 107.903L142.307 107.396C144.267 104.449 148.56 99.2628 154.787 98.8627C154.933 102.396 155.013 106.063 155 108.677ZM133.16 103.076C133.053 103.023 132.947 102.984 132.827 102.943C132.093 102.716 131.293 102.916 130.773 103.476C129.373 104.956 126.36 108.929 124.427 111.529C123.947 111.196 123.333 111.089 122.747 111.263C122.307 111.383 121.347 111.663 110.16 121.343C110.52 112.649 115.107 107.903 115.32 107.689C115.84 107.169 116.04 106.409 115.84 105.716C115.693 105.223 115.387 104.823 114.973 104.569C119 100.809 125.373 97.8094 125.453 97.7827C126.147 97.4494 126.587 96.7561 126.6 95.9961C126.613 95.2894 126.253 94.6361 125.667 94.2761C131.187 91.3961 135.413 91.2628 135.453 91.2628C136.133 91.2494 136.773 90.8894 137.12 90.3028C137.36 89.9161 137.467 89.4627 137.413 89.0228C143.267 89.0228 148.773 91.8094 152.133 93.9427C141.653 93.3027 135.96 98.8361 133.16 103.076ZM287.027 176.983H206.533C210.453 174.929 214.667 172.729 215.573 172.276C217.4 171.369 229.293 167.183 230.96 167.063C233.347 167.063 246.467 162.263 248.133 161.423C250.067 160.463 259.6 157.116 262.613 157.116C263.693 157.116 265.4 157.036 267.373 156.956C270.733 156.809 277.707 156.503 278.907 156.903C280.267 157.596 284.4 160.449 285.88 161.503C286.773 162.129 288.027 161.916 288.667 161.023C289.307 160.116 289.093 158.876 288.187 158.236C287.613 157.836 282.587 154.276 280.693 153.329C279.173 152.569 275.48 152.596 267.2 152.956C265.267 153.049 263.6 153.116 262.613 153.116C258.533 153.116 248.173 156.929 246.347 157.849C244.533 158.756 232.627 162.943 230.96 163.063C228.573 163.063 215.453 167.863 213.787 168.703C212.133 169.529 200.373 175.689 197.92 176.983H191.667C189.693 165.889 187.307 155.823 184.76 146.836C178.827 125.863 172.013 110.689 167.467 101.849C173.56 106.609 180.493 111.889 180.933 112.223C181.387 112.569 181.947 112.703 182.507 112.596C182.867 112.529 183.2 112.369 183.467 112.129C184.8 114.716 186.613 117.543 187.373 118.676C187.667 119.129 188.147 119.449 188.68 119.543C189.213 119.636 189.76 119.516 190.2 119.209C192.107 123.183 195.213 127.943 195.36 128.183C195.76 128.783 196.44 129.129 197.173 129.089C197.893 129.036 198.533 128.596 198.84 127.956L198.907 127.836C201.88 129.689 206.28 131.636 207.347 132.103C208.04 132.396 208.84 132.289 209.413 131.809C210 131.329 210.253 130.569 210.093 129.823C209.947 129.183 208.36 123.076 207.507 119.836L207.92 119.729C208.48 119.569 208.947 119.169 209.187 118.636C209.44 118.103 209.427 117.489 209.187 116.956C207.733 113.836 204.24 109.916 201.707 107.303L202.147 107.236C202.867 107.129 203.48 106.623 203.733 105.929C203.987 105.236 203.827 104.449 203.32 103.903C201.36 101.769 197.053 99.1827 193.893 97.4494L194.84 97.0228C195.507 96.7294 195.947 96.0894 196.013 95.3827C196.08 94.6627 195.747 93.9694 195.16 93.5561C192.533 91.7294 187.693 90.6508 184.107 90.0627C184.56 89.5827 184.733 88.9027 184.573 88.2494C184.413 87.5294 183.853 86.9694 183.147 86.7827C181.093 86.2361 179.213 85.9161 177.48 85.7294C179.427 84.9961 181.187 84.4094 182.24 84.0761C182.893 83.8761 183.4 83.3441 183.573 82.6774C183.747 81.9961 183.56 81.2894 183.08 80.7961L182.88 80.5694C186.333 79.1161 191.2 77.0228 191.467 76.9028C192.173 76.5961 192.64 75.9161 192.68 75.1561C192.707 74.3828 192.307 73.6628 191.627 73.3028L190.773 72.8494C192.52 70.9161 195.547 67.7161 198.36 64.8228C198.84 64.3294 199.027 63.6227 198.867 62.9561C198.707 62.2894 198.213 61.7561 197.56 61.5294C188.013 58.2894 180.693 60.4494 177.56 61.7694L176.92 60.9028C176.48 60.3174 175.747 60.0107 175.013 60.1161C171.933 60.5827 168.147 65.1961 166.16 67.8894L165.787 67.7294C164.853 67.3174 163.747 67.6894 163.253 68.5827C162.16 70.5161 160.893 74.9841 159.84 79.1561C158.973 77.1427 157.773 75.0894 156.093 73.0761C155.68 72.5827 155.053 72.3174 154.427 72.3561C154.067 72.3828 153.72 72.5027 153.427 72.6894C151.92 70.1427 149.213 66.4227 144.853 62.9427C144.387 62.5694 143.747 62.4227 143.16 62.5561C142.667 62.6774 142.227 62.9694 141.947 63.3961C139.813 60.9161 136.213 57.4628 131.907 56.3294C131.307 56.1828 130.667 56.3027 130.173 56.6894C129.68 57.0627 129.4 57.6507 129.4 58.2761V58.4761C126.747 57.8494 122.48 56.9961 118.907 56.9961C118.173 56.9961 117.493 57.3694 117.12 57.9961C116.773 58.6094 116.76 59.3561 117.107 59.9841L117.533 60.7427C111.853 61.8627 111 63.1427 110.693 63.6094C110.373 64.1027 110.28 64.7161 110.453 65.2894C110.627 65.8494 111.04 66.3174 111.573 66.5427C111.573 66.5427 116.933 68.8361 120.68 70.4628L118.853 72.7294C118.347 73.3441 118.227 74.2094 118.6 74.9161C118.973 75.6227 119.693 76.0361 120.507 75.9694C121.427 75.9841 127.067 77.0628 132.813 78.2628L132.333 79.0228C131.907 79.6774 131.907 80.5161 132.32 81.1694C132.747 81.8361 133.507 82.1827 134.28 82.0761C135.787 81.8627 138.733 82.6894 141.267 83.5961L141.093 83.7694C140.693 84.1694 140.493 84.7028 140.507 85.2361C138.453 84.9694 136.32 84.9294 134.147 85.2761C133.52 85.3694 132.973 85.7561 132.68 86.3174C132.467 86.7294 132.4 87.1827 132.493 87.6227C129.733 88.1561 125.293 89.4894 120.387 92.7561C119.8 93.1561 119.453 93.8361 119.507 94.5561C119.533 95.1161 119.813 95.6361 120.253 95.9841C116.96 97.8627 112.173 100.984 109.68 104.516C109.293 105.063 109.2 105.769 109.44 106.383C109.627 106.876 109.987 107.263 110.453 107.476C108.307 110.743 105.387 116.983 106.32 125.823C106.4 126.556 106.893 127.196 107.587 127.463C108.28 127.743 109.067 127.609 109.627 127.116C114.52 122.836 119.933 118.236 122.587 116.129C122.933 116.663 123.507 117.023 124.147 117.076C124.827 117.129 125.507 116.809 125.907 116.249C126.947 114.836 129.187 111.809 131.08 109.383C131.413 109.889 131.973 110.236 132.613 110.276C133.533 110.356 134.4 109.756 134.667 108.863C134.8 108.449 137.093 101.344 144.733 98.7961C140.12 102.436 137.68 107.329 137.52 107.663C137.267 108.183 137.253 108.796 137.48 109.329C137.707 109.863 138.16 110.263 138.707 110.449L139.4 110.663C135.893 114.796 133.027 121.383 132.64 122.289C132.387 122.876 132.44 123.556 132.773 124.103C133.093 124.649 133.68 125.009 134.307 125.063L134.96 125.116C131.16 131.943 130.587 139.196 130.56 139.543C130.52 140.129 130.733 140.716 131.16 141.129C131.6 141.543 132.187 141.743 132.773 141.676L133.747 141.569C133.653 146.796 133.84 153.903 133.853 154.249C133.867 155.049 134.36 155.756 135.107 156.049C135.347 156.143 135.6 156.196 135.84 156.196C136.373 156.196 136.88 155.996 137.267 155.609C137.453 155.409 137.84 155.036 140.773 149.556L141.653 150.396C142.147 150.863 142.84 151.049 143.493 150.889C144.16 150.743 144.693 150.263 144.92 149.623C145.347 148.396 146.293 142.303 146.947 137.823L147.133 138.009C147.627 138.516 148.347 138.729 149.027 138.569C149.707 138.409 150.253 137.916 150.48 137.249C150.827 136.169 150.96 131.063 150.987 125.769L151.68 126.436C152.2 126.929 152.96 127.116 153.64 126.916C154.333 126.703 154.867 126.143 155.027 125.436C155.493 123.383 155.387 117.983 155.24 114.023L155.493 114.223C156.027 114.649 156.733 114.783 157.373 114.569C158.013 114.369 158.507 113.849 158.68 113.196C158.773 112.863 158.84 112.289 158.893 111.596C160.2 116.569 161.68 122.783 163.107 130.129C165.52 142.636 167.813 158.423 168.96 176.983H86.9465C86.7599 176.983 86.5866 177.009 86.4266 177.049C85.4799 174.423 83.9199 170.929 81.4799 167.663L82.1065 167.516C82.7332 167.383 83.2532 166.956 83.5065 166.369C83.7599 165.783 83.7199 165.103 83.3999 164.556C82.8932 163.716 79.2399 157.609 75.2399 153.996L75.8799 153.689C76.4132 153.449 76.7999 152.983 76.9599 152.423C77.1199 151.863 77.0132 151.263 76.7066 150.783C76.4932 150.476 73.4932 146.009 68.5332 143.023C76.3066 144.569 79.4665 151.223 79.6399 151.596C80.0266 152.449 80.9466 152.929 81.8666 152.743C82.4799 152.623 82.9866 152.209 83.2533 151.663C85.96 154.329 89.1733 157.703 89.2266 157.756C89.6933 158.263 90.3865 158.476 91.0799 158.343C91.7065 158.209 92.2266 157.783 92.4933 157.209C95.3866 158.943 101.307 162.783 106.667 166.343C107 166.569 107.387 166.689 107.773 166.689C108.107 166.689 108.44 166.596 108.733 166.436C109.387 166.076 109.787 165.383 109.773 164.636C109.56 155.823 105.88 150.049 103.347 147.103C103.76 146.836 104.067 146.409 104.187 145.903C104.347 145.249 104.173 144.569 103.72 144.076C100.8 140.929 95.7065 138.476 92.2132 137.049C92.5865 136.649 92.7866 136.103 92.7599 135.543C92.7066 134.836 92.2799 134.196 91.6399 133.889C86.3866 131.303 81.8532 130.569 79.0666 130.396C79.0932 129.943 78.9732 129.503 78.7066 129.143C78.3465 128.623 77.76 128.303 77.12 128.289C76.0133 128.263 74.9199 128.329 73.8666 128.476C72.8399 128.609 71.8266 128.809 70.8533 129.076C70.8 128.543 70.5333 128.049 70.0933 127.716L69.92 127.569C72.28 126.356 75.0533 125.183 76.5599 125.183C77.3866 125.183 78.0666 124.743 78.3999 124.036C78.7199 123.329 78.6132 122.489 78.1065 121.889L77.5465 121.223C83.0532 119.316 88.4399 117.529 89.2799 117.409C90.0799 117.369 90.7866 116.863 91.0666 116.103C91.3466 115.356 91.1465 114.516 90.5732 113.956L88.4933 111.969C91.9733 109.889 96.9332 106.956 96.9332 106.956C97.4399 106.651 97.7865 106.143 97.8799 105.556C97.9865 104.969 97.8133 104.369 97.4266 103.929C97.0666 103.503 96.0533 102.356 90.32 101.984L90.6399 101.196C90.9065 100.543 90.7999 99.7961 90.3599 99.2227C89.9333 98.6628 89.2399 98.3828 88.5332 98.4628C84.9999 98.9161 80.8932 100.317 78.3465 101.276L78.32 101.103C78.24 100.476 77.8799 99.9427 77.3465 99.6227C76.8132 99.3174 76.16 99.2628 75.5866 99.5028C71.4933 101.156 68.3865 105.023 66.6132 107.743C66.2799 107.369 65.8132 107.129 65.3065 107.076C64.6932 107.023 64.0932 107.249 63.6799 107.689C59.8399 111.663 57.6666 115.676 56.4933 118.383C56.1866 118.236 55.8399 118.156 55.4799 118.183C54.8399 118.223 54.2533 118.569 53.92 119.116C52.5333 121.303 51.6132 123.463 51.0132 125.556C49.4532 121.583 47.6265 117.383 46.3065 115.623C45.6932 114.796 44.5599 114.569 43.6799 115.089L43.3465 115.303C41.0532 112.903 36.7199 108.849 33.6266 108.796C32.9066 108.756 32.1999 109.183 31.8399 109.823L31.32 110.756C28.0533 109.849 20.5866 108.677 11.5866 113.103C10.9733 113.409 10.5599 114.009 10.4933 114.689C10.4133 115.369 10.6933 116.036 11.2266 116.463C14.3599 118.956 17.7466 121.703 19.72 123.383L18.9599 123.929C18.3333 124.383 18.0266 125.143 18.1599 125.903C18.2933 126.649 18.84 127.276 19.5866 127.476C19.5866 127.476 24.8133 128.956 28.4933 129.983L28.3332 130.209C27.9199 130.756 27.8399 131.489 28.0933 132.129C28.3466 132.769 28.9199 133.236 29.5999 133.356C30.6666 133.543 32.4532 133.889 34.4399 134.356C32.7865 134.756 30.9866 135.316 29.0533 136.103C28.3733 136.383 27.9066 137.009 27.8266 137.743C27.7599 138.409 28.0132 139.049 28.5065 139.476C25.0532 140.516 20.4399 142.196 18.0933 144.329C17.5599 144.823 17.3333 145.543 17.4933 146.249C17.6399 146.956 18.1733 147.516 18.8533 147.729L19.8132 148.023C16.9332 150.143 13.04 153.236 11.3866 155.583C10.9733 156.196 10.9066 156.983 11.2533 157.636C11.5866 158.303 12.2532 158.716 12.9999 158.729L13.4132 158.743C11.2532 161.649 8.31988 165.943 7.30654 169.196C7.11988 169.756 7.19995 170.369 7.51995 170.863C7.82662 171.356 8.34662 171.689 8.91996 171.783L9.31995 171.836C9.25329 172.369 9.18654 172.969 9.10654 173.609C8.97321 174.676 8.82652 175.849 8.67985 176.983H0.0131836C-1.09348 176.983 -1.98682 177.876 -1.98682 178.983C-1.98682 180.076 -1.09348 180.983 0.0131836 180.983H8.18662C8.11996 181.489 8.0799 181.863 8.06657 181.996C7.9999 182.743 8.3599 183.463 8.9999 183.863C9.3199 184.076 9.69324 184.169 10.0666 184.169C10.4132 184.169 10.7733 184.076 11.0933 183.889C11.7333 183.503 13.6666 182.329 15.6666 180.956C15.7466 180.969 15.8265 180.983 15.9065 180.983H28.8799C27.5999 184.716 26.4532 188.409 25.4399 192.036C22.3732 202.889 20.4666 213.063 19.2666 221.529C18.9599 221.329 18.5866 221.209 18.1999 221.209H9.4266C8.31993 221.209 7.4266 222.103 7.4266 223.209C7.4266 224.316 8.31993 225.209 9.4266 225.209H18.1999C18.3999 225.209 18.6 225.169 18.7866 225.116C17.52 235.196 17.3066 242.263 17.2666 244.196H13.1332C12.0266 244.196 11.1332 245.089 11.1332 246.196C11.1332 247.303 12.0266 248.196 13.1332 248.196H194.907C194.947 248.196 208.853 248.196 208.853 248.196C209.96 248.196 210.853 247.303 210.853 246.196C210.853 245.089 209.96 244.196 208.853 244.196H196.96C197.227 225.329 196.08 208.089 194.053 192.529C194.307 192.636 194.573 192.703 194.867 192.703H210.533C211.64 192.703 212.533 191.809 212.533 190.703C212.533 189.596 211.64 188.703 210.533 188.703H194.867C194.387 188.703 193.96 188.876 193.613 189.156C193.227 186.369 192.8 183.649 192.36 180.983H287.027C288.133 180.983 289.027 180.076 289.027 178.983C289.027 177.876 288.133 176.983 287.027 176.983Z" fill="#373D4C"/>
<path d="M235.093 75.3027H240.533C241.64 75.3027 242.533 74.4094 242.533 73.3027C242.533 72.1961 241.64 71.3027 240.533 71.3027H235.68C237.44 65.3441 242.96 60.984 249.48 60.984C256 60.984 261.507 65.3441 263.267 71.3027H260.253C259.147 71.3027 258.253 72.1961 258.253 73.3027C258.253 74.4094 259.147 75.3027 260.253 75.3027H263.867C263.867 83.3027 257.413 89.756 249.48 89.756C245.507 89.756 241.907 88.1427 239.293 85.516H244.147C245.253 85.516 246.147 84.6227 246.147 83.516C246.147 82.4227 245.253 81.516 244.147 81.516H236.493C235.6 79.6507 235.093 77.5694 235.093 75.3694C235.093 75.3441 235.093 75.3294 235.093 75.3027ZM205.2 73.3027C205.2 74.4094 206.093 75.3027 207.2 75.3027H231.093C231.093 77.5294 231.48 79.596 232.173 81.516H217.133C216.027 81.516 215.133 82.4227 215.133 83.516C215.133 84.6227 216.027 85.516 217.133 85.516H234.16C237.453 90.476 243.093 93.756 249.48 93.756C259.613 93.756 267.867 85.5027 267.867 75.3694C267.867 75.3027 287.027 75.3027 287.027 75.3027C288.133 75.3027 289.027 74.4094 289.027 73.3027C289.027 72.1961 288.133 71.3027 287.027 71.3027H267.4C265.533 63.1161 258.213 56.984 249.48 56.984C240.733 56.984 233.413 63.1161 231.56 71.3027H207.2C206.093 71.3027 205.2 72.1961 205.2 73.3027Z" fill="#373D4C"/>
<path d="M287.027 242.729H258.733C257.627 242.729 256.733 243.623 256.733 244.729C256.733 245.836 257.627 246.729 258.733 246.729H287.027C288.133 246.729 289.027 245.836 289.027 244.729C289.027 243.623 288.133 242.729 287.027 242.729Z" fill="#373D4C"/>
<path d="M284.76 89.0227C285.867 89.0227 286.76 88.1294 286.76 87.0227C286.76 85.9161 285.867 85.0227 284.76 85.0227H273.64C272.533 85.0227 271.64 85.9161 271.64 87.0227C271.64 88.1294 272.533 89.0227 273.64 89.0227H284.76Z" fill="#57B9D4"/>
<path d="M270.493 121.703C270.107 121.943 267.933 123.369 266.253 125.529C264.573 123.369 262.4 121.943 262.013 121.703C261.08 121.116 259.84 121.409 259.267 122.343C258.68 123.276 258.96 124.503 259.893 125.089C261.027 125.809 264.253 128.369 264.253 130.689C264.253 131.796 265.147 132.689 266.253 132.689C267.36 132.689 268.253 131.796 268.253 130.689C268.253 128.369 271.48 125.809 272.613 125.089C273.547 124.503 273.827 123.276 273.24 122.343C272.667 121.409 271.427 121.116 270.493 121.703Z" fill="#373D4C"/>
<path d="M264.88 196.756C265.987 196.756 266.88 195.863 266.88 194.756C266.88 193.663 265.987 192.756 264.88 192.756H248.2C247.093 192.756 246.2 193.663 246.2 194.756C246.2 195.863 247.093 196.756 248.2 196.756H264.88Z" fill="#FFFEFA"/>
<path d="M248.2 204.036H242.72C241.613 204.036 240.72 204.929 240.72 206.036C240.72 207.143 241.613 208.036 242.72 208.036H248.2C249.307 208.036 250.2 207.143 250.2 206.036C250.2 204.929 249.307 204.036 248.2 204.036Z" fill="#C5EDEA"/>
<path d="M246.493 224.703H238.547C237.44 224.703 236.547 225.596 236.547 226.703C236.547 227.809 237.44 228.703 238.547 228.703H246.493C247.6 228.703 248.493 227.809 248.493 226.703C248.493 225.596 247.6 224.703 246.493 224.703Z" fill="#FFFEFA"/>
<path d="M246.493 244.196H219.973C218.867 244.196 217.973 245.089 217.973 246.196C217.973 247.303 218.867 248.196 219.973 248.196H246.493C247.6 248.196 248.493 247.303 248.493 246.196C248.493 245.089 247.6 244.196 246.493 244.196Z" fill="#373D4C"/>
<path d="M234.853 123.849C234.853 124.956 235.747 125.849 236.853 125.849C237.96 125.849 238.853 124.956 238.853 123.849C238.853 120.449 243.253 116.929 244.96 115.863C245.893 115.276 246.173 114.049 245.587 113.103C245 112.169 243.773 111.889 242.84 112.476C242.293 112.809 239.04 114.929 236.853 118.103C234.667 114.929 231.413 112.809 230.867 112.476C229.933 111.889 228.707 112.169 228.12 113.103C227.533 114.049 227.813 115.276 228.747 115.863C230.333 116.849 234.853 120.449 234.853 123.849Z" fill="#373D4C"/>
<path d="M222.467 139.529C221.36 139.529 220.467 140.436 220.467 141.529C220.467 142.636 221.36 143.529 222.467 143.529H229.813C230.92 143.529 231.813 142.636 231.813 141.529C231.813 140.436 230.92 139.529 229.813 139.529H222.467Z" fill="#C5EDEA"/>
<path d="M206.32 52.2894H219.973C221.067 52.2894 221.973 51.3961 221.973 50.2894C221.973 49.1828 221.067 48.2894 219.973 48.2894H206.32C205.227 48.2894 204.32 49.1828 204.32 50.2894C204.32 51.3961 205.227 52.2894 206.32 52.2894Z" fill="#C5EDEA"/>
<path d="M221.973 200.556C221.973 199.449 221.067 198.556 219.973 198.556H206.32C205.227 198.556 204.32 199.449 204.32 200.556C204.32 201.663 205.227 202.556 206.32 202.556H219.973C221.067 202.556 221.973 201.663 221.973 200.556Z" fill="#FFFEFA"/>
<path d="M214.413 216.196H219.973C221.067 216.196 221.973 215.303 221.973 214.196C221.973 213.089 221.067 212.196 219.973 212.196H214.413C213.32 212.196 212.413 213.089 212.413 214.196C212.413 215.303 213.32 216.196 214.413 216.196Z" fill="#C5EDEA"/>
<path d="M219.973 262.036H128.2C127.107 262.036 126.2 262.929 126.2 264.036C126.2 265.143 127.107 266.036 128.2 266.036H219.973C221.067 266.036 221.973 265.143 221.973 264.036C221.973 262.929 221.067 262.036 219.973 262.036Z" fill="#80A0AC"/>
<path d="M172.36 41.8094H181.2C182.307 41.8094 183.2 40.9161 183.2 39.8094C183.2 38.7027 182.307 37.8094 181.2 37.8094H172.36C171.253 37.8094 170.36 38.7027 170.36 39.8094C170.36 40.9161 171.253 41.8094 172.36 41.8094Z" fill="#57B9D4"/>
<path d="M157.52 196.703H144.827C143.72 196.703 142.827 197.596 142.827 198.703C142.827 199.809 143.72 200.703 144.827 200.703H157.52C158.627 200.703 159.52 199.809 159.52 198.703C159.52 197.596 158.627 196.703 157.52 196.703Z" fill="#FFFEFA"/>
<path d="M159.52 255.809C159.52 254.703 158.627 253.809 157.52 253.809H19.2666C18.1599 253.809 17.2666 254.703 17.2666 255.809C17.2666 256.916 18.1599 257.809 19.2666 257.809H157.52C158.627 257.809 159.52 256.916 159.52 255.809Z" fill="#E8C080"/>
<path d="M157 166.689C158.107 166.689 159 165.783 159 164.689C159 163.583 158.107 162.689 157 162.689H148.96C147.853 162.689 146.96 163.583 146.96 164.689C146.96 165.783 147.853 166.689 148.96 166.689H157Z" fill="#C5EDEA"/>
<path d="M144.773 47.2628H150.693C151.787 47.2628 152.693 46.3694 152.693 45.2628C152.693 44.1561 151.787 43.2628 150.693 43.2628H144.773C143.667 43.2628 142.773 44.1561 142.773 45.2628C142.773 46.3694 143.667 47.2628 144.773 47.2628Z" fill="#C5EDEA"/>
<path d="M152.693 190.703C152.693 189.596 151.787 188.703 150.693 188.703H138.96C137.853 188.703 136.96 189.596 136.96 190.703C136.96 191.809 137.853 192.703 138.96 192.703H150.693C151.787 192.703 152.693 191.809 152.693 190.703Z" fill="#373D4C"/>
<path d="M150.693 218.036H142.867C141.76 218.036 140.867 218.929 140.867 220.036C140.867 221.143 141.76 222.036 142.867 222.036H150.693C151.787 222.036 152.693 221.143 152.693 220.036C152.693 218.929 151.787 218.036 150.693 218.036Z" fill="#C5EDEA"/>
<path d="M129.68 188.703H120.4C119.307 188.703 118.4 189.596 118.4 190.703C118.4 191.809 119.307 192.703 120.4 192.703H129.68C130.787 192.703 131.68 191.809 131.68 190.703C131.68 189.596 130.787 188.703 129.68 188.703Z" fill="#C5EDEA"/>
<path d="M128.2 207.369H125C123.893 207.369 123 208.263 123 209.369C123 210.476 123.893 211.369 125 211.369H128.2C129.307 211.369 130.2 210.476 130.2 209.369C130.2 208.263 129.307 207.369 128.2 207.369Z" fill="#FFFEFA"/>
<path d="M108.147 190.436H104.44C103.333 190.436 102.44 191.329 102.44 192.436C102.44 193.543 103.333 194.436 104.44 194.436H108.147C109.253 194.436 110.147 193.543 110.147 192.436C110.147 191.329 109.253 190.436 108.147 190.436Z" fill="#FFFEFA"/>
<path d="M87.8665 43.8494C89.7731 45.0228 94.6798 48.9427 94.6798 52.7961C94.6798 53.9027 95.5731 54.7961 96.6798 54.7961C97.7864 54.7961 98.6798 53.9027 98.6798 52.7961C98.6798 48.9694 103.6 45.0361 105.493 43.8361C106.426 43.2494 106.72 42.0227 106.133 41.0894C105.546 40.1561 104.306 39.8628 103.373 40.4494C103.133 40.5961 99.1731 43.1161 96.6798 46.8761C94.1864 43.1161 90.2399 40.5961 89.9865 40.4494C89.0532 39.8628 87.8264 40.1427 87.2398 41.0894C86.6531 42.0227 86.9331 43.2628 87.8665 43.8494Z" fill="#373D4C"/>
<path d="M69.7733 75.7427C67.76 72.9294 64.8933 71.0628 64.4133 70.7561C63.48 70.1694 62.2401 70.4628 61.6534 71.3961C61.0667 72.3294 61.3466 73.5561 62.28 74.1427C63.8133 75.1027 67.7733 78.2628 67.7733 81.2894C67.7733 82.3961 68.68 83.2894 69.7733 83.2894C70.88 83.2894 71.7733 82.3961 71.7733 81.2894C71.7733 78.2628 75.7467 75.1027 77.2667 74.1427C78.2 73.5561 78.4933 72.3294 77.9066 71.3961C77.32 70.4628 76.08 70.1694 75.1466 70.7561C74.6666 71.0628 71.7866 72.9294 69.7733 75.7427Z" fill="#373D4C"/>
<path d="M62.8799 54.0494C62.8799 55.156 63.7732 56.0494 64.8799 56.0494H72.9867C74.0933 56.0494 74.9867 55.156 74.9867 54.0494C74.9867 52.956 74.0933 52.0494 72.9867 52.0494H64.8799C63.7732 52.0494 62.8799 52.956 62.8799 54.0494Z" fill="#C5EDEA"/>
<path d="M54.2 44.1428H66.56C67.6666 44.1428 68.56 43.2494 68.56 42.1428C68.56 41.0361 67.6666 40.1428 66.56 40.1428H54.2C53.0933 40.1428 52.2 41.0361 52.2 42.1428C52.2 43.2494 53.0933 44.1428 54.2 44.1428Z" fill="#C5EDEA"/>
<path d="M37.3198 228.609C37.3198 229.716 38.2132 230.609 39.3198 230.609H46.8664C47.9731 230.609 48.8664 229.716 48.8664 228.609C48.8664 227.503 47.9731 226.609 46.8664 226.609H39.3198C38.2132 226.609 37.3198 227.503 37.3198 228.609Z" fill="#C5EDEA"/>
<path d="M33.6934 95.9427C33.6934 97.0494 34.5867 97.9427 35.6934 97.9427H42.9466C44.0399 97.9427 44.9466 97.0494 44.9466 95.9427C44.9466 94.8361 44.0399 93.9427 42.9466 93.9427H35.6934C34.5867 93.9427 33.6934 94.8361 33.6934 95.9427Z" fill="#57B9D4"/>
<path d="M23.3333 57.8094C25.2266 58.996 30.1465 62.9161 30.1465 66.7694C30.1465 67.8761 31.0399 68.7694 32.1465 68.7694C33.2532 68.7694 34.1465 67.8761 34.1465 66.7694C34.1465 62.9427 39.0533 59.0107 40.9599 57.8094C41.8933 57.2227 42.1733 55.9961 41.5866 55.0627C41 54.1161 39.7732 53.8361 38.8399 54.4227C38.5866 54.5694 34.6399 57.0894 32.1465 60.8361C29.6532 57.0894 25.6933 54.5694 25.4533 54.4227C24.52 53.8361 23.2799 54.1161 22.6933 55.0627C22.1066 55.9961 22.3999 57.2227 23.3333 57.8094Z" fill="#373D4C"/>
<path d="M12.0132 89.5161H24.3999C25.4932 89.5161 26.3999 88.6227 26.3999 87.5161C26.3999 86.4227 25.4932 85.5161 24.3999 85.5161H12.0132C10.9065 85.5161 10.0132 86.4227 10.0132 87.5161C10.0132 88.6227 10.9065 89.5161 12.0132 89.5161Z" fill="#57B9D4"/>
<path d="M8.41309 196.756H10.4532C11.5465 196.756 12.4532 195.863 12.4532 194.756C12.4532 193.663 11.5465 192.756 10.4532 192.756H8.41309C7.30642 192.756 6.41309 193.663 6.41309 194.756C6.41309 195.863 7.30642 196.756 8.41309 196.756Z" fill="#FFFEFA"/>
<path d="M6.46657 212.703C7.5599 212.703 8.46657 211.809 8.46657 210.703C8.46657 209.596 7.5599 208.703 6.46657 208.703H0.0131835C-1.09348 208.703 -1.98682 209.596 -1.98682 210.703C-1.98682 211.809 -1.09348 212.703 0.0131835 212.703H6.46657Z" fill="#FFFEFA"/>
<path d="M5.44004 244.196H1.12012C0.0134504 244.196 -0.879883 245.089 -0.879883 246.196C-0.879883 247.303 0.0134504 248.196 1.12012 248.196H5.44004C6.54671 248.196 7.44004 247.303 7.44004 246.196C7.44004 245.089 6.54671 244.196 5.44004 244.196Z" fill="#373D4C"/>
</g>
</svg>
