<svg width="288" height="288" viewBox="0 0 288 288" fill="none" xmlns="http://www.w3.org/2000/svg">
<mask id="mask0_221:13941" style="mask-type:alpha" maskUnits="userSpaceOnUse" x="0" y="0" width="288" height="288">
<circle cx="144" cy="144" r="144" fill="#C4C4C4"/>
</mask>
<g mask="url(#mask0_221:13941)">
<path d="M2343.87 329.449H-392V-290H2343.87V329.449Z" fill="#FFFEFA"/>
<path d="M11.7026 225.912V259.699H278.169V225.912H172.703L174.669 220L182.003 211.333L165.169 210.5L165.669 217.833L149.669 218L148.503 210.5H132.103L137.503 222.833L11.7026 225.912Z" fill="#C5EDEA"/>
<path d="M121.076 234.632C121.076 234.632 124.669 250.893 126.669 251.78C128.669 252.667 186.529 251.78 186.529 251.78L193.209 238.333C193.209 238.333 142.859 239.48 121.076 234.632Z" fill="#E8C080"/>
<path d="M88.1026 49.032C92.916 49.032 96.836 52.952 96.836 57.7667C96.836 62.592 92.916 66.512 88.1026 66.512C83.276 66.512 79.356 62.592 79.356 57.7667C79.356 52.952 83.276 49.032 88.1026 49.032Z" fill="#E8C080"/>
<path d="M171.476 59.592C172.476 59.1254 172.903 57.94 172.449 56.9254C168.396 48.192 161.969 43.232 161.689 43.032C160.809 42.3654 159.556 42.5387 158.889 43.4187C158.223 44.2987 158.396 45.5534 159.276 46.22C159.329 46.2587 165.183 50.7667 168.809 58.6067C169.156 59.3387 169.876 59.7667 170.636 59.7667C170.916 59.7667 171.196 59.7134 171.476 59.592ZM181.396 61.7387C181.743 63.22 182.076 64.6454 182.423 65.9934C177.156 67.232 172.236 70.072 168.796 73.78C163.609 62.472 159.423 57.9254 159.236 57.7267C158.476 56.9254 157.209 56.8867 156.409 57.632C155.609 58.3934 155.569 59.66 156.316 60.4587C156.356 60.512 160.769 65.352 166.063 77.472C165.783 77.9654 165.516 78.472 165.289 78.9787C161.609 87.1787 155.156 99.6454 152.116 105.487C148.343 98.7134 144.823 93.8987 141.823 92.22C135.783 88.8454 129.209 87.94 122.623 89.5C124.529 82.94 130.649 62.792 137.436 48.792C143.116 37.06 150.423 34.1787 157.703 34.5387C160.463 34.6853 163.223 35.2987 165.889 36.072C176.063 39.0187 179.023 51.6187 181.396 61.7387Z" fill="#4D7591"/>
<path d="M196.556 152.352C197.569 151.912 198.009 150.727 197.556 149.713C197.516 149.619 193.116 139.685 190.796 124.179C188.369 107.965 184.836 101.672 184.689 101.419C184.143 100.459 182.929 100.139 181.969 100.672C181.009 101.22 180.676 102.447 181.209 103.405C181.249 103.459 184.543 109.447 186.836 124.767C189.249 140.872 193.729 150.94 193.916 151.352C194.249 152.1 194.983 152.539 195.743 152.539C196.009 152.539 196.289 152.472 196.556 152.352ZM200.623 113.899C201.703 113.699 202.423 112.672 202.236 111.579C198.969 93.3654 193.209 82.632 192.969 82.192C192.436 81.22 191.223 80.8587 190.249 81.3934C189.289 81.912 188.929 83.1254 189.449 84.1001C189.516 84.2054 195.143 94.6987 198.303 112.285C198.476 113.259 199.316 113.925 200.263 113.925C200.383 113.925 200.503 113.925 200.623 113.899ZM228.143 186.113C229.236 185.979 230.009 184.979 229.876 183.887C229.796 183.245 227.863 168.153 219.129 155.899C210.783 144.192 205.236 129.979 204.796 126.752C204.649 125.66 203.649 124.899 202.556 125.032C201.463 125.179 200.689 126.192 200.836 127.285C201.316 130.899 207.023 145.792 215.876 158.22C223.996 169.632 225.889 184.232 225.903 184.38C226.036 185.393 226.889 186.125 227.889 186.125C227.969 186.125 228.049 186.125 228.143 186.113ZM227.316 150.579C240.169 171.66 245.783 197.273 247.476 206.459C241.889 203.685 236.449 200.979 232.063 198.767C221.169 193.259 204.569 190.019 193.623 199.005C192.409 200.005 191.116 201.125 189.769 202.326C185.143 187.859 168.543 137.273 154.396 109.752C156.356 106.019 164.556 90.3654 168.929 80.6187C171.583 74.7387 179.209 69.8867 186.689 69.3521C191.556 68.9934 198.436 70.2734 203.569 78.3387C209.463 87.6067 213.316 103.365 217.049 118.607C220.236 131.619 223.249 143.912 227.316 150.579Z" fill="#80A0AC"/>
<path d="M96.316 146.125C96.8626 145.167 96.5426 143.952 95.5826 143.393C94.6226 142.845 93.396 143.179 92.8493 144.125C92.7293 144.339 81.1293 164.579 74.7693 182.005C74.3826 183.047 74.916 184.192 75.956 184.565C76.1826 184.645 76.4093 184.685 76.6493 184.685C77.4626 184.685 78.2226 184.192 78.516 183.38C84.7693 166.285 96.2093 146.327 96.316 146.125ZM114.303 139.78C114.809 138.805 114.423 137.592 113.449 137.085C112.463 136.579 111.263 136.965 110.756 137.94C110.476 138.472 103.916 151.125 101.236 158.113C100.849 159.139 101.356 160.299 102.396 160.699C102.623 160.78 102.876 160.833 103.103 160.833C103.916 160.833 104.676 160.339 104.983 159.539C107.569 152.767 114.236 139.912 114.303 139.78ZM118.716 107.487C119.209 106.5 118.809 105.299 117.823 104.805C116.836 104.312 115.623 104.713 115.129 105.699C115.049 105.859 107.076 121.82 102.369 130.979C101.876 131.965 102.263 133.179 103.236 133.672C103.529 133.833 103.849 133.899 104.156 133.899C104.876 133.899 105.583 133.5 105.929 132.805C110.649 123.619 118.636 107.645 118.716 107.487ZM186.529 205.312C185.436 206.326 184.356 207.365 183.276 208.393C183.116 208.352 182.929 208.312 182.743 208.312H165.249L151.329 162.312C151.036 161.365 150.103 160.752 149.116 160.912C148.143 161.06 147.409 161.899 147.409 162.887V208.326C147.383 208.326 147.356 208.312 147.329 208.312H130.543C123.156 200.38 112.556 192.125 100.249 191.899C84.0893 191.607 77.516 196.299 71.716 200.459C69.2626 202.205 66.9426 203.872 64.0626 204.952C62.236 205.632 59.2493 206.447 55.6226 207.338C59.3426 195.259 71.9026 155.912 81.1293 144.299C82.8893 142.072 84.516 140.06 86.0226 138.205C94.0093 128.312 98.836 122.339 102.956 111.365C105.716 103.993 112.823 97.1254 120.623 94.2587C125.209 92.5787 132.263 91.472 139.876 95.7134C142.289 97.06 145.249 101.167 148.543 107.113C161.409 130.405 179.089 181.887 186.529 205.312Z" fill="#4D7591"/>
<path d="M269.809 221.912H175.476C180.303 216.912 189.556 207.525 196.169 202.1C205.023 194.833 219.663 196.979 230.263 202.338C241.516 208.019 259.556 216.899 269.809 221.912Z" fill="#CCE294"/>
<path d="M136.156 221.912H17.356C24.4493 218.792 39.8226 215.179 48.2093 213.22C49.596 212.887 50.9426 212.579 52.2493 212.259C52.3826 212.285 52.5026 212.312 52.636 212.312C53.0893 212.312 53.516 212.153 53.8626 211.872C58.8626 210.685 63.0093 209.619 65.476 208.699C68.8493 207.433 71.4893 205.538 74.0493 203.713C79.6093 199.738 85.3426 195.607 100.169 195.899C117.129 196.205 131.196 214.553 136.156 221.912Z" fill="#A0D7A0"/>
<path d="M249.103 61.0987H264.503C265.609 61.0987 266.503 60.192 266.503 59.0987C266.503 57.9934 265.609 57.0987 264.503 57.0987H249.103C247.996 57.0987 247.103 57.9934 247.103 59.0987C247.103 60.192 247.996 61.0987 249.103 61.0987Z" fill="#57B9D4"/>
<path d="M260.863 232.632H250.889C249.783 232.632 248.889 233.525 248.889 234.632C248.889 235.738 249.783 236.632 250.889 236.632H260.863C261.956 236.632 262.863 235.738 262.863 234.632C262.863 233.525 261.956 232.632 260.863 232.632Z" fill="#57B9D4"/>
<path d="M232.303 78.6067H252.463C253.569 78.6067 254.463 77.7121 254.463 76.6067C254.463 75.5001 253.569 74.6067 252.463 74.6067H232.303C231.196 74.6067 230.303 75.5001 230.303 76.6067C230.303 77.7121 231.196 78.6067 232.303 78.6067Z" fill="#C5EDEA"/>
<path d="M251.969 136.859H246.236C245.129 136.859 244.236 137.752 244.236 138.859C244.236 139.965 245.129 140.859 246.236 140.859H251.969C253.076 140.859 253.969 139.965 253.969 138.859C253.969 137.752 253.076 136.859 251.969 136.859Z" fill="#C5EDEA"/>
<path d="M236.129 240.632H208.276C207.169 240.632 206.276 241.525 206.276 242.632C206.276 243.738 207.169 244.632 208.276 244.632H236.129C237.236 244.632 238.129 243.738 238.129 242.632C238.129 241.525 237.236 240.632 236.129 240.632Z" fill="#57B9D4"/>
<path d="M222.209 249.379H212.796C211.703 249.379 210.796 250.285 210.796 251.379C210.796 252.485 211.703 253.379 212.796 253.379H222.209C223.303 253.379 224.209 252.485 224.209 251.379C224.209 250.285 223.303 249.379 222.209 249.379Z" fill="white"/>
<path d="M205.836 41.1254H215.356C216.463 41.1254 217.356 40.232 217.356 39.1254C217.356 38.0187 216.463 37.1254 215.356 37.1254H205.836C204.729 37.1254 203.836 38.0187 203.836 39.1254C203.836 40.232 204.729 41.1254 205.836 41.1254Z" fill="#57B9D4"/>
<path d="M200.836 127.285C201.316 130.899 207.023 145.792 215.876 158.22C223.996 169.632 225.889 184.232 225.903 184.379C226.036 185.393 226.889 186.125 227.889 186.125C227.969 186.125 228.049 186.125 228.143 186.113C229.236 185.979 230.009 184.979 229.876 183.887C229.796 183.245 227.863 168.152 219.129 155.899C210.783 144.192 205.236 129.979 204.796 126.752C204.649 125.66 203.649 124.899 202.556 125.032C201.463 125.179 200.689 126.192 200.836 127.285Z" fill="#373D4C"/>
<path d="M198.303 112.285C198.476 113.259 199.316 113.925 200.263 113.925C200.383 113.925 200.503 113.925 200.623 113.899C201.703 113.699 202.423 112.672 202.236 111.579C198.969 93.3654 193.209 82.632 192.969 82.192C192.436 81.22 191.223 80.8587 190.249 81.3934C189.289 81.912 188.929 83.1254 189.449 84.0987C189.516 84.2054 195.143 94.6987 198.303 112.285Z" fill="#373D4C"/>
<path d="M191.209 257.699H174.703C173.596 257.699 172.703 258.592 172.703 259.699C172.703 260.805 173.596 261.699 174.703 261.699H191.209C192.316 261.699 193.209 260.805 193.209 259.699C193.209 258.592 192.316 257.699 191.209 257.699Z" fill="#57B9D4"/>
<path d="M186.836 124.765C189.249 140.872 193.729 150.94 193.916 151.352C194.249 152.099 194.983 152.539 195.743 152.539C196.009 152.539 196.289 152.472 196.556 152.352C197.569 151.912 198.009 150.727 197.556 149.712C197.516 149.619 193.116 139.685 190.796 124.179C188.369 107.965 184.836 101.672 184.689 101.419C184.143 100.459 182.929 100.139 181.969 100.672C181.009 101.22 180.676 102.447 181.209 103.405C181.249 103.459 184.543 109.447 186.836 124.765Z" fill="#373D4C"/>
<path d="M159.276 46.2201C159.329 46.2587 165.183 50.7654 168.809 58.6067C169.156 59.3387 169.876 59.7654 170.636 59.7654C170.916 59.7654 171.196 59.712 171.476 59.592C172.476 59.1254 172.903 57.94 172.449 56.9254C168.396 48.192 161.969 43.2321 161.689 43.0321C160.809 42.3654 159.556 42.5387 158.889 43.4187C158.223 44.2987 158.396 45.5534 159.276 46.2201Z" fill="#373D4C"/>
<path d="M175.476 221.912C180.303 216.912 189.556 207.525 196.169 202.099C205.023 194.833 219.663 196.979 230.263 202.338C241.516 208.019 259.556 216.899 269.809 221.912H175.476ZM165.249 208.312L151.329 162.312C151.036 161.365 150.103 160.752 149.116 160.912C148.143 161.06 147.409 161.899 147.409 162.887V208.326C147.383 208.326 147.356 208.312 147.329 208.312H130.543C123.156 200.379 112.556 192.125 100.249 191.899C84.0893 191.607 77.516 196.299 71.716 200.459C69.2626 202.205 66.9426 203.872 64.0626 204.952C62.236 205.632 59.2493 206.447 55.6226 207.338C59.3426 195.259 71.9026 155.912 81.1293 144.299C82.8893 142.072 84.516 140.06 86.0226 138.205C94.0093 128.312 98.836 122.339 102.956 111.365C105.716 103.993 112.823 97.1254 120.623 94.2587C125.209 92.5787 132.263 91.472 139.876 95.712C142.289 97.06 145.249 101.167 148.543 107.113C161.409 130.405 179.089 181.887 186.529 205.312C185.436 206.326 184.356 207.366 183.276 208.393C183.116 208.352 182.929 208.312 182.743 208.312H165.249ZM151.409 216.179V176.405L161.423 209.472L163.449 216.179H151.409ZM136.156 221.912H17.356C24.4493 218.792 39.8226 215.179 48.2093 213.22C49.596 212.887 50.9426 212.579 52.2493 212.259C52.3827 212.285 52.5026 212.312 52.636 212.312C53.0893 212.312 53.516 212.152 53.8626 211.872C58.8626 210.685 63.0093 209.619 65.476 208.699C68.8493 207.432 71.4893 205.538 74.0493 203.712C79.6093 199.738 85.3426 195.607 100.169 195.899C117.129 196.205 131.196 214.554 136.156 221.912ZM137.436 48.7921C143.116 37.0601 150.423 34.1787 157.703 34.5387C160.463 34.6854 163.223 35.2987 165.889 36.072C176.063 39.0187 179.023 51.6187 181.396 61.7387C181.743 63.2201 182.076 64.6454 182.423 65.9934C177.156 67.232 172.236 70.0721 168.796 73.78C163.609 62.472 159.423 57.9254 159.236 57.7267C158.476 56.9254 157.209 56.8867 156.409 57.632C155.609 58.3934 155.569 59.66 156.316 60.4587C156.356 60.512 160.769 65.3521 166.063 77.4721C165.783 77.9654 165.516 78.472 165.289 78.9787C161.609 87.1787 155.156 99.6454 152.116 105.485C148.343 98.7121 144.823 93.8987 141.823 92.22C135.783 88.8454 129.209 87.94 122.623 89.5C124.529 82.94 130.649 62.7921 137.436 48.7921ZM186.689 69.3521C191.556 68.9934 198.436 70.2734 203.569 78.3387C209.463 87.6067 213.316 103.365 217.049 118.607C220.236 131.619 223.249 143.912 227.316 150.579C240.169 171.66 245.783 197.273 247.476 206.459C241.889 203.685 236.449 200.979 232.063 198.766C221.169 193.259 204.569 190.019 193.623 199.005C192.409 200.005 191.116 201.125 189.769 202.326C185.143 187.859 168.543 137.273 154.396 109.752C156.356 106.019 164.556 90.3654 168.929 80.6187C171.583 74.7387 179.209 69.8867 186.689 69.3521ZM279.316 222.113C279.116 222.019 265.716 215.472 251.929 208.66C251.129 203.525 245.929 173.432 230.729 148.5C226.983 142.352 224.049 130.352 220.943 117.645C217.129 102.099 213.183 86.0187 206.943 76.192C202.116 68.6067 194.823 64.7654 186.409 65.3521C186.023 63.9521 185.663 62.4187 185.289 60.8187C182.809 50.2734 179.423 35.8334 167.009 32.2321C164.223 31.4187 161.103 30.7267 157.823 30.5787C149.596 30.192 140.489 33.2987 133.836 47.0454C125.516 64.22 118.223 90.3267 118.143 90.5787C118.116 90.7121 118.089 90.8454 118.076 90.9654C109.703 94.4467 102.223 101.94 99.2093 109.965C95.3293 120.327 90.916 125.78 82.916 135.685C81.396 137.553 79.7693 139.579 77.996 141.819C67.4893 155.045 53.6493 199.979 51.116 208.419C49.876 208.712 48.6093 209.019 47.2893 209.326C25.7026 214.393 11.4226 218.099 9.79597 223.312C9.59597 223.925 9.71596 224.592 10.0893 225.099C10.4626 225.619 11.0626 225.912 11.7026 225.912H139.809C140.529 225.912 141.183 225.538 141.543 224.912C141.903 224.299 141.903 223.538 141.543 222.912C141.263 222.432 138.569 217.833 134.036 212.312H147.329C147.356 212.312 147.383 212.312 147.409 212.312V234.952C132.956 234.192 122.543 233.179 122.343 233.152C121.769 233.099 121.196 233.299 120.769 233.685C120.356 234.085 120.129 234.645 120.143 235.22C120.409 241.766 121.889 246.352 123.369 249.379H111.116C110.009 249.379 109.116 250.285 109.116 251.379C109.116 252.485 110.009 253.379 111.116 253.379H138.276C139.383 253.379 140.276 252.485 140.276 251.379C140.276 250.285 139.383 249.379 138.276 249.379H127.876C127.836 249.285 127.796 249.192 127.743 249.099C126.649 247.273 124.876 243.472 124.289 237.352C132.903 238.113 163.636 240.579 190.876 239.538L186.703 249.338C186.689 249.379 150.516 249.379 150.516 249.379C149.409 249.379 148.516 250.285 148.516 251.379C148.516 252.485 149.409 253.379 150.516 253.379H198.876C199.983 253.379 200.876 252.485 200.876 251.379C200.876 250.285 199.983 249.379 198.876 249.379H191.036L195.796 238.179C196.076 237.554 195.996 236.819 195.596 236.259C195.209 235.685 194.556 235.393 193.863 235.405C179.716 236.099 164.289 235.752 151.409 235.152V220.179H166.143C166.769 220.179 167.369 219.872 167.743 219.366C168.116 218.859 168.236 218.205 168.049 217.592L167.276 215.032L166.463 212.312H179.289C173.943 217.66 169.663 222.205 169.343 222.554C168.796 223.125 168.649 223.979 168.969 224.712C169.289 225.447 170.009 225.912 170.809 225.912H278.449C279.369 225.912 280.183 225.273 280.396 224.366C280.596 223.459 280.156 222.525 279.316 222.113Z" fill="#373D4C"/>
<path d="M153.956 257.699H134.103C132.996 257.699 132.103 258.592 132.103 259.699C132.103 260.805 132.996 261.699 134.103 261.699H153.956C155.049 261.699 155.956 260.805 155.956 259.699C155.956 258.592 155.049 257.699 153.956 257.699Z" fill="#57B9D4"/>
<path d="M116.916 38.4854H124.703C125.809 38.4854 126.703 37.5787 126.703 36.4854C126.703 35.3787 125.809 34.4854 124.703 34.4854H116.916C115.823 34.4854 114.916 35.3787 114.916 36.4854C114.916 37.5787 115.823 38.4854 116.916 38.4854Z" fill="#C5EDEA"/>
<path d="M114.529 242.632C114.529 241.525 113.636 240.632 112.529 240.632H76.6493C75.5426 240.632 74.6493 241.525 74.6493 242.632C74.6493 243.738 75.5426 244.632 76.6493 244.632H112.529C113.636 244.632 114.529 243.738 114.529 242.632Z" fill="#57B9D4"/>
<path d="M113.449 137.085C112.463 136.579 111.263 136.965 110.756 137.94C110.476 138.472 103.916 151.125 101.236 158.113C100.849 159.139 101.356 160.299 102.396 160.699C102.623 160.78 102.876 160.833 103.103 160.833C103.916 160.833 104.676 160.339 104.983 159.539C107.569 152.765 114.236 139.912 114.303 139.78C114.809 138.805 114.423 137.592 113.449 137.085Z" fill="#373D4C"/>
<path d="M117.823 104.805C116.836 104.312 115.623 104.712 115.129 105.699C115.049 105.859 107.076 121.819 102.369 130.979C101.876 131.965 102.263 133.179 103.236 133.672C103.529 133.833 103.849 133.899 104.156 133.899C104.876 133.899 105.583 133.5 105.929 132.805C110.649 123.619 118.636 107.645 118.716 107.485C119.209 106.5 118.809 105.299 117.823 104.805Z" fill="#373D4C"/>
<path d="M105.889 233.485C106.996 233.485 107.889 232.592 107.889 231.485C107.889 230.393 106.996 229.485 105.889 229.485H100.329C99.2227 229.485 98.3293 230.393 98.3293 231.485C98.3293 232.592 99.2227 233.485 100.329 233.485H105.889Z" fill="white"/>
<path d="M96.1427 251.78H88.1027C86.996 251.78 86.1027 252.672 86.1027 253.78C86.1027 254.887 86.996 255.78 88.1027 255.78H96.1427C97.2493 255.78 98.1427 254.887 98.1427 253.78C98.1427 252.672 97.2493 251.78 96.1427 251.78Z" fill="#57B9D4"/>
<path d="M72.316 121.245H79.7026C80.8093 121.245 81.7026 120.352 81.7026 119.245C81.7026 118.139 80.8093 117.245 79.7026 117.245H72.316C71.2093 117.245 70.316 118.139 70.316 119.245C70.316 120.352 71.2093 121.245 72.316 121.245Z" fill="#57B9D4"/>
<path d="M95.5827 143.393C94.6227 142.845 93.396 143.179 92.8493 144.125C92.7293 144.339 81.1293 164.579 74.7693 182.005C74.3827 183.045 74.916 184.192 75.956 184.565C76.1827 184.645 76.4093 184.685 76.6493 184.685C77.4627 184.685 78.2227 184.192 78.516 183.379C84.7693 166.285 96.2093 146.327 96.316 146.125C96.8627 145.167 96.5427 143.952 95.5827 143.393Z" fill="#373D4C"/>
<path d="M53.2227 90.752C53.2227 91.8587 54.116 92.752 55.2227 92.752H68.1293C69.236 92.752 70.1293 91.8587 70.1293 90.752C70.1293 89.6454 69.236 88.752 68.1293 88.752H55.2227C54.116 88.752 53.2227 89.6454 53.2227 90.752Z" fill="#C5EDEA"/>
<path d="M65.5027 248.125H56.4493C55.3427 248.125 54.4493 249.019 54.4493 250.125C54.4493 251.232 55.3427 252.125 56.4493 252.125H65.5027C66.6093 252.125 67.5027 251.232 67.5027 250.125C67.5027 249.019 66.6093 248.125 65.5027 248.125Z" fill="white"/>
<path d="M47.396 38.4854H55.5027C56.6093 38.4854 57.5027 37.5787 57.5027 36.4854C57.5027 35.3787 56.6093 34.4854 55.5027 34.4854H47.396C46.2893 34.4854 45.396 35.3787 45.396 36.4854C45.396 37.5787 46.2893 38.4854 47.396 38.4854Z" fill="#57B9D4"/>
<path d="M52.636 232.632H44.2626C43.156 232.632 42.2626 233.525 42.2626 234.632C42.2626 235.738 43.156 236.632 44.2626 236.632H52.636C53.7426 236.632 54.636 235.738 54.636 234.632C54.636 233.525 53.7426 232.632 52.636 232.632Z" fill="#57B9D4"/>
<path d="M33.9693 76.0854H46.4626C47.5693 76.0854 48.4626 75.192 48.4626 74.0854C48.4626 72.9787 47.5693 72.0854 46.4626 72.0854H33.9693C32.8626 72.0854 31.9693 72.9787 31.9693 74.0854C31.9693 75.192 32.8626 76.0854 33.9693 76.0854Z" fill="#C5EDEA"/>
<path d="M33.5027 153.352H39.756C40.8493 153.352 41.756 152.459 41.756 151.352C41.756 150.245 40.8493 149.352 39.756 149.352H33.5027C32.396 149.352 31.5027 150.245 31.5027 151.352C31.5027 152.459 32.396 153.352 33.5027 153.352Z" fill="#57B9D4"/>
</g>
</svg>
