<svg width="288" height="288" viewBox="0 0 288 288" fill="none" xmlns="http://www.w3.org/2000/svg">
<mask id="mask0_221:13940" style="mask-type:alpha" maskUnits="userSpaceOnUse" x="0" y="0" width="288" height="288">
<circle cx="144" cy="144" r="144" fill="#C4C4C4"/>
</mask>
<g mask="url(#mask0_221:13940)">
<path d="M688.866 329.449H-2047V-290H688.866V329.449Z" fill="#FFFEFA"/>
<path d="M121.92 240.12C121.92 240.12 198.507 196.125 296.507 205.645V262.726H192.213C192.213 262.726 141.333 241.075 121.92 240.12Z" fill="#A0D7A0"/>
<path d="M5.87988 230.925V264.038H197.373C197.373 264.038 118.253 224.019 5.87988 230.925Z" fill="#CCE294"/>
<path d="M296.08 121.833H272.893C275.76 120.805 279.613 119.952 284.48 119.952C289.36 119.952 293.213 120.805 296.08 121.833Z" fill="#C5EDEA"/>
<path d="M259.546 100.925V112.472C258.773 110.327 258.106 107.619 257.813 104.352C257.72 103.259 257.667 102.1 257.667 100.887C257.667 96.0187 258.52 92.1667 259.546 89.2987V100.925Z" fill="#C5EDEA"/>
<path d="M226.533 125.699H249.72C246.853 126.713 243 127.565 238.133 127.565C233.253 127.565 229.4 126.713 226.533 125.699Z" fill="#C5EDEA"/>
<path d="M261.907 129.393L265.373 202.82C262.92 202.845 260.36 202.912 257.693 202.993L261.173 129.393C261.293 129.393 261.413 129.419 261.547 129.419C261.667 129.419 261.787 129.393 261.907 129.393Z" fill="#C5EDEA"/>
<path d="M55.8666 229.487C55.8666 229.619 55.8933 229.767 55.9199 229.899C53.2266 229.78 50.6132 229.699 48.0798 229.645C48.0932 229.592 48.1065 229.538 48.1065 229.487L51.6132 155.125C51.7465 155.139 51.8533 155.167 51.9866 155.167C52.1066 155.167 52.2265 155.139 52.3465 155.125L55.8666 229.487Z" fill="#C5EDEA"/>
<path d="M86.52 147.565H63.3333C66.1999 146.553 70.0533 145.699 74.9333 145.699C79.7999 145.699 83.6533 146.553 86.52 147.565Z" fill="#C5EDEA"/>
<path d="M49.9865 115.032V138.22C48.9599 135.352 48.1064 131.5 48.1064 126.632C48.1064 121.752 48.9599 117.899 49.9865 115.032Z" fill="#C5EDEA"/>
<path d="M16.9866 151.433H40.1732C37.2932 152.459 33.4532 153.312 28.5732 153.312C23.7065 153.312 19.8532 152.459 16.9866 151.433Z" fill="#C5EDEA"/>
<path d="M286.467 170.299V203.153C283.893 203.032 280.92 202.925 277.587 202.859C275.053 202.805 272.307 202.78 269.373 202.78L265.813 127.393C266.2 126.925 266.52 126.405 266.747 125.833H274.107L279.32 134.487C279.693 135.113 280.347 135.459 281.027 135.459C281.28 135.459 281.533 135.405 281.773 135.312L283.747 138.952C282.573 139.859 281.12 140.393 279.533 140.393C278.427 140.393 277.533 141.285 277.533 142.393C277.533 143.5 278.427 144.393 279.533 144.393C281.813 144.393 283.92 143.685 285.68 142.5L286.4 143.82C285.96 147.22 283.04 149.859 279.533 149.859C278.427 149.859 277.533 150.752 277.533 151.859C277.533 152.965 278.427 153.859 279.533 153.859C282.16 153.859 284.573 152.925 286.467 151.365V152.38C286.467 156.205 283.347 159.327 279.533 159.327C278.427 159.327 277.533 160.22 277.533 161.327C277.533 162.419 278.427 163.327 279.533 163.327C282.16 163.327 284.573 162.393 286.467 160.833V161.845C286.467 165.672 283.347 168.792 279.533 168.792C278.427 168.792 277.533 169.685 277.533 170.792C277.533 171.887 278.427 172.792 279.533 172.792C282.16 172.792 284.573 171.845 286.467 170.299Z" fill="#80A0AC"/>
<path d="M263.546 108.299L269.826 118.727C268.306 119.38 267.066 120.047 266.12 120.645C265.493 119.727 264.586 119.032 263.546 118.619V108.299Z" fill="#80A0AC"/>
<path d="M253.84 104.727C254.453 111.859 256.72 116.645 258.346 119.245C257.48 119.859 256.787 120.699 256.373 121.699H218.773C217.96 121.699 217.227 122.192 216.92 122.952C216.613 123.713 216.8 124.579 217.4 125.139C217.68 125.405 224.293 131.565 238.133 131.565C247.706 131.565 253.813 128.619 256.773 126.713C256.92 126.952 257.08 127.179 257.266 127.393L253.68 203.154C252.466 203.205 251.227 203.273 249.973 203.338C246.2 203.538 242.28 203.805 238.213 204.138V179.352C240.093 180.899 242.52 181.845 245.146 181.845C246.253 181.845 247.146 180.94 247.146 179.845C247.146 178.739 246.253 177.845 245.146 177.845C241.32 177.845 238.213 174.727 238.213 170.899V169.887C240.093 171.447 242.52 172.38 245.146 172.38C246.253 172.38 247.146 171.487 247.146 170.38C247.146 169.273 246.253 168.38 245.146 168.38C241.32 168.38 238.213 165.259 238.213 161.433V160.419C240.093 161.979 242.52 162.912 245.146 162.912C246.253 162.912 247.146 162.019 247.146 160.912C247.146 159.805 246.253 158.912 245.146 158.912C241.32 158.912 238.213 155.792 238.213 151.979V150.952C240.093 152.512 242.52 153.447 245.146 153.447C246.253 153.447 247.146 152.553 247.146 151.447C247.146 150.339 246.253 149.447 245.146 149.447C241.32 149.447 238.213 146.339 238.213 142.512C238.213 141.405 237.306 140.512 236.213 140.512C235.106 140.512 234.213 141.405 234.213 142.512C234.213 146.339 231.093 149.447 227.266 149.447C226.16 149.447 225.266 150.339 225.266 151.447C225.266 152.553 226.16 153.447 227.266 153.447C229.906 153.447 232.32 152.512 234.213 150.952V151.979C234.213 155.792 231.093 158.912 227.266 158.912C226.16 158.912 225.266 159.805 225.266 160.912C225.266 162.019 226.16 162.912 227.266 162.912C229.906 162.912 232.32 161.979 234.213 160.419V161.433C234.213 165.259 231.093 168.38 227.266 168.38C226.16 168.38 225.266 169.273 225.266 170.38C225.266 171.487 226.16 172.38 227.266 172.38C229.906 172.38 232.32 171.447 234.213 169.887V170.899C234.213 174.727 231.093 177.845 227.266 177.845C226.16 177.845 225.266 178.739 225.266 179.845C225.266 180.94 226.16 181.845 227.266 181.845C229.906 181.845 232.32 180.899 234.213 179.352V204.5C224.906 205.38 214.933 206.685 204.573 208.554C197.933 209.726 191.133 211.138 184.24 212.833C184.24 212.512 184.16 212.179 183.987 211.887L157.573 165.167L201.413 91.752L204.946 99.6187C205.2 100.153 205.667 100.565 206.253 100.727C206.827 100.887 207.44 100.78 207.933 100.433L218.507 92.952L228.787 104.047C229.173 104.459 229.707 104.685 230.253 104.685C230.307 104.685 230.346 104.685 230.4 104.685C231 104.645 231.56 104.327 231.907 103.833L238.573 94.1787L245.653 99.7134C246.12 100.085 246.72 100.22 247.307 100.1C247.88 99.9787 248.373 99.6067 248.653 99.072L253.013 90.8334L253.946 92.38C254.08 92.592 254.24 92.752 254.426 92.8987C253.96 95.232 253.666 97.872 253.666 100.887C253.666 102.232 253.72 103.512 253.84 104.727ZM203.733 163.579C204.413 163.579 205.08 163.232 205.453 162.607L216.72 143.739C217.293 142.792 216.973 141.553 216.026 140.993C215.08 140.433 213.853 140.739 213.28 141.685L202.013 160.553C201.453 161.5 201.76 162.727 202.707 163.285C203.027 163.487 203.386 163.579 203.733 163.579ZM178.387 166.94C179.067 166.94 179.733 166.579 180.107 165.965L196.813 137.979C197.386 137.019 197.08 135.792 196.133 135.232C195.173 134.66 193.947 134.965 193.387 135.925L176.666 163.912C176.106 164.859 176.413 166.085 177.36 166.645C177.68 166.845 178.04 166.94 178.387 166.94ZM183.546 197.38C184.226 197.38 184.893 197.032 185.266 196.405L196.093 178.285C196.653 177.339 196.346 176.1 195.4 175.539C194.453 174.979 193.227 175.285 192.653 176.232L181.826 194.352C181.266 195.299 181.573 196.525 182.52 197.1C182.84 197.285 183.2 197.38 183.546 197.38Z" fill="#80A0AC"/>
<path d="M239.813 68.8867L250.613 86.8334L246.24 95.1L239.36 89.7134C238.933 89.38 238.373 89.232 237.826 89.312C237.28 89.4054 236.8 89.6987 236.48 90.1534L230.026 99.5L221.426 90.232L220.24 88.952C219.56 88.22 218.44 88.1 217.626 88.6854L207.6 95.7667L203.92 87.5534L227.387 48.2734L239.813 68.8867Z" fill="#FFFEFA"/>
<path d="M213.28 141.685C213.853 140.739 215.08 140.433 216.027 140.993C216.973 141.553 217.294 142.792 216.72 143.739L205.454 162.607C205.08 163.232 204.413 163.579 203.733 163.579C203.387 163.579 203.027 163.487 202.707 163.285C201.76 162.727 201.453 161.5 202.013 160.553L213.28 141.685Z" fill="#E8DECF"/>
<path d="M182.52 197.1C181.573 196.525 181.267 195.299 181.827 194.352L192.653 176.232C193.227 175.285 194.453 174.979 195.4 175.539C196.347 176.1 196.653 177.339 196.093 178.285L185.267 196.405C184.893 197.032 184.227 197.38 183.547 197.38C183.2 197.38 182.84 197.285 182.52 197.1Z" fill="#E8DECF"/>
<path d="M196.813 137.979L180.107 165.965C179.733 166.579 179.067 166.94 178.387 166.94C178.04 166.94 177.68 166.845 177.36 166.645C176.413 166.085 176.107 164.859 176.667 163.912L193.387 135.925C193.947 134.965 195.173 134.66 196.133 135.232C197.08 135.792 197.386 137.019 196.813 137.979Z" fill="#E8DECF"/>
<path d="M159.427 37.1134L177.173 70.8054C177.147 70.8454 177.12 70.8587 177.093 70.8987L174.44 74.6454L166.667 70.312C166.2 70.0467 165.653 69.9934 165.133 70.1254C164.627 70.2734 164.187 70.6187 163.933 71.0854L159.92 78.352L155.92 71.0854C155.627 70.5654 155.133 70.2054 154.56 70.1C154 69.9787 153.387 70.1134 152.933 70.472L146.693 75.3654L142.773 68.7134L159.427 37.1134Z" fill="#FFFEFA"/>
<path d="M145.746 80.3267C146.32 80.4334 146.893 80.2854 147.36 79.9254L153.546 75.072L158.173 83.4587C158.533 84.0854 159.2 84.4867 159.92 84.4867C160.653 84.4867 161.32 84.0854 161.68 83.4587L166.467 74.78L174.067 79.0187C174.96 79.512 176.08 79.2587 176.667 78.4334L179.253 74.7667L192.213 99.352L155.307 161.167L133.546 122.699C133.546 122.685 123.6 105.113 123.6 105.113L140.587 72.872L144.4 79.3654C144.68 79.872 145.173 80.22 145.746 80.3267ZM152.746 109.273C153.466 109.273 154.16 108.887 154.52 108.205L159.64 98.472C160.16 97.5 159.787 96.2854 158.8 95.78C157.827 95.2587 156.613 95.632 156.107 96.6187L150.973 106.339C150.467 107.312 150.84 108.525 151.813 109.047C152.106 109.192 152.426 109.273 152.746 109.273ZM135.587 110.285C136.307 110.285 137 109.899 137.36 109.22L146.6 91.6987C147.107 90.7267 146.733 89.512 145.76 88.9934C144.786 88.4867 143.573 88.8587 143.053 89.8334L133.827 107.352C133.307 108.327 133.68 109.539 134.667 110.06C134.96 110.22 135.28 110.285 135.587 110.285ZM144.826 124.299C145.546 124.299 146.24 123.912 146.6 123.232L150.013 116.767C150.52 115.792 150.147 114.579 149.173 114.06C148.2 113.553 146.987 113.925 146.467 114.899L143.053 121.365C142.547 122.352 142.92 123.565 143.893 124.072C144.186 124.232 144.506 124.299 144.826 124.299Z" fill="#4D7591"/>
<path d="M156.107 96.6187C156.613 95.632 157.827 95.2587 158.8 95.78C159.787 96.2854 160.16 97.5 159.64 98.472L154.52 108.205C154.16 108.887 153.467 109.273 152.747 109.273C152.426 109.273 152.106 109.192 151.813 109.047C150.84 108.525 150.467 107.312 150.973 106.339L156.107 96.6187Z" fill="#E8DECF"/>
<path d="M146.466 114.899C146.986 113.925 148.2 113.553 149.173 114.06C150.147 114.579 150.52 115.792 150.013 116.767L146.6 123.232C146.24 123.912 145.546 124.299 144.826 124.299C144.506 124.299 144.186 124.232 143.893 124.072C142.92 123.565 142.546 122.352 143.053 121.365L146.466 114.899Z" fill="#E8DECF"/>
<path d="M146.573 184.739L156.707 202.66C157.253 203.619 156.906 204.833 155.946 205.38C155.64 205.553 155.293 205.645 154.96 205.645C154.266 205.645 153.586 205.273 153.226 204.632L143.08 186.699C142.546 185.739 142.88 184.525 143.84 183.979C144.8 183.433 146.027 183.78 146.573 184.739Z" fill="#E8DECF"/>
<path d="M145.76 88.9934C146.733 89.512 147.106 90.7267 146.6 91.6987L137.36 109.22C137 109.899 136.307 110.285 135.587 110.285C135.28 110.285 134.96 110.22 134.666 110.06C133.68 109.539 133.306 108.327 133.826 107.352L143.053 89.8334C143.573 88.8587 144.786 88.4867 145.76 88.9934Z" fill="#E8DECF"/>
<path d="M106.653 83.2734L129.426 123.539L123.226 131.767L117.226 124.487C116.84 124.019 116.213 123.752 115.666 123.752C115.066 123.752 114.506 124.032 114.12 124.5L112.586 126.405L106.666 133.752L97.7865 122.592C97.4532 122.167 96.9598 121.899 96.4265 121.845C95.8931 121.792 95.3597 121.952 94.9464 122.299L85.7598 129.965L83.5464 123.472L106.653 83.2734Z" fill="#FFFEFA"/>
<path d="M126.853 149.887L140.347 173.739C140.893 174.699 140.56 175.925 139.587 176.459C139.28 176.645 138.947 176.727 138.613 176.727C137.907 176.727 137.24 176.352 136.867 175.713L123.373 151.845C122.827 150.887 123.16 149.672 124.133 149.125C125.093 148.579 126.307 148.912 126.853 149.887Z" fill="#E8DECF"/>
<path d="M154.96 205.645C155.293 205.645 155.64 205.553 155.947 205.38C156.907 204.833 157.253 203.619 156.707 202.66L146.573 184.739C146.027 183.78 144.8 183.433 143.84 183.979C142.88 184.525 142.547 185.739 143.08 186.699L153.226 204.632C153.586 205.273 154.266 205.645 154.96 205.645ZM180.467 213.78C160.56 218.925 139.987 226.352 120.387 237.019C120.213 237.113 120.067 237.22 119.947 237.352C111.213 235.632 102.68 234.273 94.4798 233.205C93.5332 233.072 92.5999 232.952 91.6666 232.845C88.9066 232.487 86.1865 232.179 83.5065 231.899V198.565C85.3999 200.125 87.8133 201.06 90.4533 201.06C91.5466 201.06 92.4533 200.167 92.4533 199.06C92.4533 197.952 91.5466 197.06 90.4533 197.06C86.6266 197.06 83.5065 193.94 83.5065 190.113V189.1C85.3999 190.66 87.8133 191.592 90.4533 191.592C91.5466 191.592 92.4533 190.699 92.4533 189.592C92.4533 188.487 91.5466 187.592 90.4533 187.592C86.6266 187.592 83.5065 184.472 83.5065 180.645V179.632C85.3999 181.192 87.8133 182.125 90.4533 182.125C91.5466 182.125 92.4533 181.232 92.4533 180.125C92.4533 179.019 91.5466 178.125 90.4533 178.125C86.6266 178.125 83.5065 175.019 83.5065 171.192V170.179C85.3999 171.727 87.8133 172.66 90.4533 172.66C91.5466 172.66 92.4533 171.767 92.4533 170.66C92.4533 169.553 91.5466 168.66 90.4533 168.66C86.6266 168.66 83.5065 165.553 83.5065 161.727C83.5065 160.619 82.6132 159.727 81.5065 159.727C80.3999 159.727 79.5065 160.619 79.5065 161.727C79.5065 165.553 76.3999 168.66 72.5732 168.66C71.4665 168.66 70.5732 169.553 70.5732 170.66C70.5732 171.767 71.4665 172.66 72.5732 172.66C75.1999 172.66 77.6132 171.727 79.5065 170.179V171.192C79.5065 175.019 76.3999 178.125 72.5732 178.125C71.4665 178.125 70.5732 179.019 70.5732 180.125C70.5732 181.232 71.4665 182.125 72.5732 182.125C75.1999 182.125 77.6132 181.192 79.5065 179.632V180.645C79.5065 184.472 76.3999 187.592 72.5732 187.592C71.4665 187.592 70.5732 188.487 70.5732 189.592C70.5732 190.699 71.4665 191.592 72.5732 191.592C75.1999 191.592 77.6132 190.66 79.5065 189.1V190.113C79.5065 193.94 76.3999 197.06 72.5732 197.06C71.4665 197.06 70.5732 197.952 70.5732 199.06C70.5732 200.167 71.4665 201.06 72.5732 201.06C75.1999 201.06 77.6132 200.125 79.5065 198.565V231.5C78.1065 231.366 76.7199 231.245 75.3599 231.138C74.4933 231.06 73.6265 230.993 72.7732 230.925C68.2665 230.554 63.9066 230.273 59.7332 230.072C59.8266 229.833 59.8666 229.566 59.8533 229.285L57.0933 170.912L67.8798 151.845C67.9332 151.752 67.9732 151.66 67.9999 151.565H94.2798C95.0932 151.565 95.8399 151.072 96.1332 150.312C96.4399 149.553 96.2532 148.685 95.6666 148.125C95.3866 147.859 88.7599 141.699 74.9332 141.699C74.2799 141.699 73.6666 141.727 73.0533 141.752L80.8933 128.1L82.92 134.005C83.1333 134.632 83.6399 135.113 84.2666 135.285C84.9066 135.459 85.5866 135.312 86.0933 134.899L95.9332 126.685L105.093 138.192C105.48 138.672 106.04 138.979 106.667 138.952C107.267 138.952 107.84 138.672 108.213 138.205L115.693 128.912L121.747 136.259C122.133 136.739 122.693 136.979 123.333 136.993C123.947 136.979 124.52 136.685 124.893 136.192L131.573 127.339L180.467 213.78ZM132.107 210.232C132.44 210.232 132.787 210.138 133.093 209.965C134.053 209.419 134.387 208.205 133.853 207.245L113.48 171.22C112.933 170.259 111.707 169.925 110.747 170.472C109.787 171.005 109.453 172.232 109.987 173.192L130.36 209.205C130.733 209.859 131.413 210.232 132.107 210.232ZM138.613 176.727C138.947 176.727 139.28 176.645 139.587 176.459C140.56 175.925 140.893 174.699 140.347 173.739L126.853 149.887C126.307 148.912 125.093 148.579 124.133 149.125C123.16 149.672 122.827 150.887 123.373 151.845L136.867 175.713C137.24 176.352 137.907 176.727 138.613 176.727Z" fill="#80A0AC"/>
<path d="M110.746 170.472C111.706 169.925 112.933 170.259 113.48 171.22L133.853 207.245C134.387 208.205 134.053 209.419 133.093 209.965C132.787 210.138 132.44 210.232 132.106 210.232C131.413 210.232 130.733 209.859 130.36 209.205L109.987 173.192C109.453 172.232 109.786 171.005 110.746 170.472Z" fill="#E8DECF"/>
<path d="M56.9601 46.9934C59.3067 40.8587 65.2401 36.4867 72.1868 36.4867C79.1467 36.4867 85.0801 40.8587 87.4267 46.9934H83.5334C82.4267 46.9934 81.5334 47.8867 81.5334 48.9934C81.5334 50.1 82.4267 50.9934 83.5334 50.9934H88.4133C88.48 51.592 88.5201 52.192 88.5201 52.8054C88.5201 61.82 81.2001 69.1387 72.1868 69.1387C67.6801 69.1387 63.5867 67.2987 60.6267 64.3267H63.0934C64.1867 64.3267 65.0934 63.4334 65.0934 62.3267C65.0934 61.22 64.1867 60.3267 63.0934 60.3267H57.7067C56.5333 58.072 55.8667 55.5254 55.8667 52.8054C55.8667 52.192 55.9067 51.592 55.9733 50.9934H57.8534C58.9601 50.9934 59.8534 50.1 59.8534 48.9934C59.8534 47.8867 58.9601 46.9934 57.8534 46.9934H56.9601Z" fill="#E8C080"/>
<path d="M45.9333 190.66L44.1066 229.285C44.1066 229.393 44.12 229.472 44.12 229.566C36.32 229.459 29.4666 229.566 23.8132 229.78L45.9333 190.66Z" fill="#80A0AC"/>
<path d="M265.613 54.8054H300.427C301.52 54.8054 302.427 53.912 302.427 52.8054C302.427 51.712 301.52 50.8054 300.427 50.8054H265.613C264.507 50.8054 263.613 51.712 263.613 52.8054C263.613 53.912 264.507 54.8054 265.613 54.8054Z" fill="#C5EDEA"/>
<path d="M297.853 223.152C286.427 220.993 274.227 219.805 261.573 219.632C260.453 219.632 259.56 220.5 259.546 221.607C259.52 222.699 260.413 223.619 261.507 223.632C273.933 223.805 285.907 224.966 297.12 227.085C297.24 227.099 297.36 227.113 297.493 227.113C298.426 227.113 299.267 226.447 299.453 225.485C299.653 224.405 298.947 223.352 297.853 223.152Z" fill="#373D4C"/>
<path d="M284.48 97.2587C283.387 97.2587 282.48 98.152 282.48 99.2587C282.48 100.365 283.387 101.259 284.48 101.259H292.453C293.547 101.259 294.453 100.365 294.453 99.2587C294.453 98.152 293.547 97.2587 292.453 97.2587H284.48Z" fill="#57B9D4"/>
<path d="M292.84 258.805C287.107 257.632 281.266 256.738 275.493 256.152C274.413 256.045 273.413 256.833 273.293 257.94C273.186 259.032 273.986 260.019 275.08 260.125C280.72 260.712 286.44 261.579 292.053 262.726C292.186 262.752 292.32 262.766 292.453 262.766C293.386 262.766 294.213 262.113 294.4 261.167C294.626 260.085 293.933 259.032 292.84 258.805Z" fill="#373D4C"/>
<path d="M272.893 121.833C275.76 120.805 279.613 119.952 284.48 119.952C289.36 119.952 293.213 120.805 296.08 121.833H272.893ZM257.693 202.993L261.173 129.393C261.293 129.393 261.413 129.419 261.547 129.419C261.667 129.419 261.787 129.393 261.907 129.393L265.373 202.819C262.92 202.845 260.36 202.912 257.693 202.993ZM249.72 125.699C246.853 126.712 243 127.565 238.133 127.565C233.253 127.565 229.4 126.712 226.533 125.699H249.72ZM253.68 203.152C252.467 203.205 251.227 203.273 249.973 203.338C246.2 203.538 242.28 203.805 238.213 204.138V179.352C240.093 180.899 242.52 181.845 245.147 181.845C246.253 181.845 247.147 180.94 247.147 179.845C247.147 178.739 246.253 177.845 245.147 177.845C241.32 177.845 238.213 174.727 238.213 170.899V169.887C240.093 171.447 242.52 172.379 245.147 172.379C246.253 172.379 247.147 171.485 247.147 170.379C247.147 169.273 246.253 168.379 245.147 168.379C241.32 168.379 238.213 165.259 238.213 161.432V160.419C240.093 161.979 242.52 162.912 245.147 162.912C246.253 162.912 247.147 162.019 247.147 160.912C247.147 159.805 246.253 158.912 245.147 158.912C241.32 158.912 238.213 155.792 238.213 151.979V150.952C240.093 152.512 242.52 153.447 245.147 153.447C246.253 153.447 247.147 152.553 247.147 151.447C247.147 150.339 246.253 149.447 245.147 149.447C241.32 149.447 238.213 146.339 238.213 142.512C238.213 141.405 237.307 140.512 236.213 140.512C235.107 140.512 234.213 141.405 234.213 142.512C234.213 146.339 231.093 149.447 227.267 149.447C226.16 149.447 225.267 150.339 225.267 151.447C225.267 152.553 226.16 153.447 227.267 153.447C229.907 153.447 232.32 152.512 234.213 150.952V151.979C234.213 155.792 231.093 158.912 227.267 158.912C226.16 158.912 225.267 159.805 225.267 160.912C225.267 162.019 226.16 162.912 227.267 162.912C229.907 162.912 232.32 161.979 234.213 160.419V161.432C234.213 165.259 231.093 168.379 227.267 168.379C226.16 168.379 225.267 169.273 225.267 170.379C225.267 171.485 226.16 172.379 227.267 172.379C229.907 172.379 232.32 171.447 234.213 169.887V170.899C234.213 174.727 231.093 177.845 227.267 177.845C226.16 177.845 225.267 178.739 225.267 179.845C225.267 180.94 226.16 181.845 227.267 181.845C229.907 181.845 232.32 180.899 234.213 179.352V204.5C224.907 205.379 214.933 206.685 204.573 208.554C197.933 209.726 191.133 211.138 184.24 212.833C184.24 212.512 184.16 212.179 183.987 211.887L157.573 165.167L201.413 91.752L204.947 99.6187C205.2 100.152 205.667 100.565 206.253 100.727C206.827 100.887 207.44 100.78 207.933 100.432L218.507 92.952L228.787 104.045C229.173 104.459 229.707 104.685 230.253 104.685C230.307 104.685 230.347 104.685 230.4 104.685C231 104.645 231.56 104.327 231.907 103.833L238.573 94.1787L245.653 99.712C246.12 100.085 246.72 100.22 247.307 100.099C247.88 99.9787 248.373 99.6067 248.653 99.072L253.013 90.8334L253.947 92.3787C254.08 92.592 254.24 92.752 254.427 92.8987C253.96 95.232 253.667 97.872 253.667 100.887C253.667 102.232 253.72 103.512 253.84 104.727C254.453 111.859 256.72 116.645 258.347 119.245C257.48 119.859 256.787 120.699 256.373 121.699H218.773C217.96 121.699 217.227 122.192 216.92 122.952C216.613 123.712 216.8 124.579 217.4 125.139C217.68 125.405 224.293 131.565 238.133 131.565C247.707 131.565 253.813 128.619 256.773 126.712C256.92 126.952 257.08 127.179 257.267 127.393L253.68 203.152ZM120.387 237.019C120.213 237.113 120.067 237.22 119.947 237.352C111.213 235.632 102.68 234.273 94.48 233.205C93.5333 233.072 92.6001 232.952 91.6667 232.845C88.9067 232.485 86.1867 232.179 83.5067 231.899V198.565C85.4 200.125 87.8134 201.06 90.4534 201.06C91.5468 201.06 92.4534 200.167 92.4534 199.06C92.4534 197.952 91.5468 197.06 90.4534 197.06C86.6268 197.06 83.5067 193.94 83.5067 190.113V189.099C85.4 190.66 87.8134 191.592 90.4534 191.592C91.5468 191.592 92.4534 190.699 92.4534 189.592C92.4534 188.485 91.5468 187.592 90.4534 187.592C86.6268 187.592 83.5067 184.472 83.5067 180.645V179.632C85.4 181.192 87.8134 182.125 90.4534 182.125C91.5468 182.125 92.4534 181.232 92.4534 180.125C92.4534 179.019 91.5468 178.125 90.4534 178.125C86.6268 178.125 83.5067 175.019 83.5067 171.192V170.179C85.4 171.727 87.8134 172.66 90.4534 172.66C91.5468 172.66 92.4534 171.765 92.4534 170.66C92.4534 169.553 91.5468 168.66 90.4534 168.66C86.6268 168.66 83.5067 165.553 83.5067 161.727C83.5067 160.619 82.6134 159.727 81.5067 159.727C80.4 159.727 79.5067 160.619 79.5067 161.727C79.5067 165.553 76.4 168.66 72.5734 168.66C71.4667 168.66 70.5734 169.553 70.5734 170.66C70.5734 171.765 71.4667 172.66 72.5734 172.66C75.2 172.66 77.6134 171.727 79.5067 170.179V171.192C79.5067 175.019 76.4 178.125 72.5734 178.125C71.4667 178.125 70.5734 179.019 70.5734 180.125C70.5734 181.232 71.4667 182.125 72.5734 182.125C75.2 182.125 77.6134 181.192 79.5067 179.632V180.645C79.5067 184.472 76.4 187.592 72.5734 187.592C71.4667 187.592 70.5734 188.485 70.5734 189.592C70.5734 190.699 71.4667 191.592 72.5734 191.592C75.2 191.592 77.6134 190.66 79.5067 189.099V190.113C79.5067 193.94 76.4 197.06 72.5734 197.06C71.4667 197.06 70.5734 197.952 70.5734 199.06C70.5734 200.167 71.4667 201.06 72.5734 201.06C75.2 201.06 77.6134 200.125 79.5067 198.565V231.5C78.1067 231.366 76.7201 231.245 75.3601 231.138C74.4934 231.06 73.6267 230.993 72.7734 230.925C68.2667 230.554 63.9067 230.273 59.7334 230.072C59.8267 229.833 59.8668 229.566 59.8534 229.285L57.0934 170.912L67.88 151.845C67.9333 151.752 67.9734 151.66 68 151.565H94.28C95.0933 151.565 95.84 151.072 96.1334 150.312C96.44 149.553 96.2534 148.685 95.6667 148.125C95.3867 147.859 88.76 141.699 74.9334 141.699C74.2801 141.699 73.6668 141.727 73.0534 141.752L80.8934 128.099L82.9201 134.005C83.1334 134.632 83.6401 135.113 84.2667 135.285C84.9067 135.459 85.5867 135.312 86.0934 134.899L95.9334 126.685L105.093 138.192C105.48 138.672 106.04 138.979 106.667 138.952C107.267 138.952 107.84 138.672 108.213 138.205L115.693 128.912L121.747 136.259C122.133 136.739 122.693 136.979 123.333 136.993C123.947 136.979 124.52 136.685 124.893 136.192L131.573 127.339L180.467 213.78C160.56 218.925 139.987 226.352 120.387 237.019ZM48.08 229.645C48.0933 229.592 48.1067 229.538 48.1067 229.485L51.6133 155.125C51.7467 155.139 51.8534 155.167 51.9868 155.167C52.1068 155.167 52.2267 155.139 52.3467 155.125L55.8667 229.485C55.8667 229.619 55.8934 229.765 55.9201 229.899C53.2268 229.78 50.6133 229.699 48.08 229.645ZM51.9868 147.979C52.8668 147.979 53.5734 148.685 53.5734 149.565C53.5734 150.447 52.8668 151.167 51.9868 151.167C51.1068 151.167 50.3868 150.447 50.3868 149.565C50.3868 149.352 50.4267 149.139 50.5067 148.952C50.76 148.379 51.3201 147.979 51.9868 147.979ZM48.1067 126.632C48.1067 121.752 48.9601 117.899 49.9868 115.032V138.22C48.9601 135.352 48.1067 131.5 48.1067 126.632ZM57.1868 151.565H63.44L56.7467 163.419L56.2534 153.139C56.6401 152.672 56.9734 152.152 57.1868 151.565ZM74.9334 145.699C79.8 145.699 83.6534 146.553 86.5201 147.565H63.3334C66.2001 146.553 70.0534 145.699 74.9334 145.699ZM106.653 83.2734L129.427 123.539L123.227 131.765L117.227 124.485C116.84 124.019 116.213 123.752 115.667 123.752C115.067 123.752 114.507 124.032 114.12 124.5L112.587 126.405L106.667 133.752L97.7868 122.592C97.4534 122.167 96.9601 121.899 96.4267 121.845C95.8934 121.792 95.36 121.952 94.9467 122.299L85.7601 129.965L83.5467 123.472L106.653 83.2734ZM140.587 72.872L144.4 79.3654C144.68 79.872 145.173 80.22 145.747 80.3267C146.32 80.432 146.893 80.2854 147.36 79.9254L153.547 75.072L158.173 83.4587C158.533 84.0854 159.2 84.4854 159.92 84.4854C160.653 84.4854 161.32 84.0854 161.68 83.4587L166.467 74.78L174.067 79.0187C174.96 79.512 176.08 79.2587 176.667 78.432L179.253 74.7654L192.213 99.352L155.307 161.167L133.547 122.699C133.547 122.685 123.6 105.113 123.6 105.113L140.587 72.872ZM159.427 37.1134L177.173 70.8054C177.147 70.8454 177.12 70.8587 177.093 70.8987L174.44 74.6454L166.667 70.312C166.2 70.0453 165.653 69.9933 165.133 70.1254C164.627 70.2733 164.187 70.6187 163.933 71.0854L159.92 78.352L155.92 71.0854C155.627 70.5654 155.133 70.2054 154.56 70.0987C154 69.9787 153.387 70.1134 152.933 70.472L146.693 75.3654L142.773 68.712L159.427 37.1134ZM227.387 48.2733L239.813 68.8867L250.613 86.8334L246.24 95.0987L239.36 89.712C238.933 89.3787 238.373 89.232 237.827 89.312C237.28 89.4053 236.8 89.6987 236.48 90.152L230.027 99.5L221.427 90.232L220.24 88.952C219.56 88.22 218.44 88.0987 217.627 88.6854L207.6 95.7654L203.92 87.5534L227.387 48.2733ZM259.547 89.2987V112.472C258.773 110.327 258.107 107.619 257.813 104.352C257.72 103.259 257.667 102.099 257.667 100.887C257.667 96.0187 258.52 92.1667 259.547 89.2987ZM260.067 123.205C260.32 122.632 260.893 122.232 261.547 122.232C262.093 122.232 262.573 122.512 262.853 122.94C263.027 123.192 263.133 123.5 263.133 123.833C263.133 124.045 263.093 124.259 263.013 124.447C262.76 125.019 262.2 125.419 261.547 125.419C261 125.419 260.507 125.139 260.227 124.727C260.053 124.472 259.947 124.167 259.947 123.833C259.947 123.619 259.987 123.405 260.067 123.205ZM263.547 108.299L269.827 118.727C268.307 119.379 267.067 120.045 266.12 120.645C265.493 119.727 264.587 119.032 263.547 118.619V108.299ZM44.1201 229.565C36.3201 229.459 29.4667 229.565 23.8133 229.78L45.9334 190.66L44.1067 229.285C44.1067 229.393 44.1201 229.472 44.1201 229.565ZM28.5734 153.312C23.7067 153.312 19.8534 152.459 16.9868 151.432H40.1734C37.2934 152.459 33.4534 153.312 28.5734 153.312ZM305.213 122.379C304.947 122.125 298.32 115.952 284.48 115.952C280.2 115.952 276.6 116.553 273.68 117.379L264.147 101.539C263.987 101.285 263.773 101.085 263.547 100.925V81.5387C263.547 80.712 263.04 79.9787 262.28 79.672C261.533 79.3787 260.653 79.5654 260.093 80.152C259.933 80.312 257.64 82.8054 255.84 87.752L245.64 70.8334H286.6C287.707 70.8334 288.6 69.94 288.6 68.8334C288.6 67.7267 287.707 66.8334 286.6 66.8334H243.227L229.08 43.352C229.067 43.3267 229.053 43.312 229.04 43.2854C229 43.232 228.947 43.1667 228.907 43.1134C228.867 43.06 228.827 43.0187 228.787 42.9787C228.733 42.9254 228.68 42.8867 228.627 42.8454C228.573 42.792 228.533 42.7654 228.467 42.7267C228.44 42.712 228.427 42.6853 228.4 42.672C228.373 42.6453 228.333 42.6454 228.307 42.6187C228.24 42.592 228.187 42.5654 228.12 42.5387C228.067 42.512 228 42.5 227.933 42.472C227.88 42.4587 227.813 42.4467 227.747 42.432C227.693 42.4187 227.627 42.4053 227.56 42.4053C227.493 42.3933 227.427 42.3934 227.36 42.3934C227.307 42.3934 227.24 42.3933 227.187 42.4053C227.107 42.4053 227.04 42.4187 226.973 42.432C226.92 42.4467 226.867 42.4587 226.8 42.472C226.733 42.5 226.68 42.512 226.613 42.5387C226.547 42.5654 226.493 42.592 226.427 42.632C226.4 42.6454 226.373 42.66 226.347 42.672C226.32 42.6853 226.293 42.712 226.267 42.7267C226.213 42.7654 226.16 42.8054 226.107 42.8454C226.053 42.8867 226 42.94 225.96 42.9787C225.92 43.0187 225.867 43.072 225.827 43.1254C225.787 43.1787 225.747 43.232 225.707 43.2854C225.693 43.312 225.667 43.3387 225.653 43.3654L217.693 56.6854H199.2C198.093 56.6854 197.2 57.5787 197.2 58.6854C197.2 59.792 198.093 60.6854 199.2 60.6854H215.307L194.613 95.3267L176.96 61.8187H178.733C179.84 61.8187 180.733 60.9254 180.733 59.8187C180.733 58.712 179.84 57.8187 178.733 57.8187H174.853L161.693 32.8454C161.253 32.0187 160.307 31.632 159.427 31.8587C158.547 31.6187 157.587 32.0187 157.147 32.8454L150.667 45.152H140.12C139.013 45.152 138.12 46.0454 138.12 47.152C138.12 48.2587 139.013 49.152 140.12 49.152H148.56L121.253 100.965L108.4 78.2454C108.387 78.2054 108.36 78.1787 108.333 78.152C108.293 78.0854 108.253 78.0187 108.2 77.9654C108.16 77.912 108.12 77.872 108.08 77.8187C108.027 77.78 107.987 77.7387 107.933 77.6854C107.88 77.6454 107.813 77.6067 107.76 77.5654C107.72 77.5387 107.693 77.512 107.653 77.5C107.547 77.432 107.48 77.4053 107.413 77.3787C107.347 77.3654 107.293 77.3387 107.24 77.312C107.173 77.2987 107.107 77.2854 107.04 77.2734C106.987 77.2587 106.92 77.2454 106.867 77.2454C106.787 77.232 106.72 77.232 106.653 77.232C106.587 77.232 106.533 77.232 106.48 77.2454C106.413 77.2454 106.333 77.2587 106.267 77.2734C106.213 77.2854 106.16 77.2987 106.107 77.312C106.04 77.3267 105.973 77.352 105.907 77.3787C105.853 77.4053 105.787 77.432 105.733 77.4587C105.64 77.512 105.613 77.5387 105.573 77.5654C105.507 77.592 105.453 77.632 105.4 77.6854C105.347 77.7267 105.307 77.7654 105.253 77.8187C105.213 77.8587 105.16 77.8987 105.12 77.952C105.08 78.0054 105.04 78.072 105 78.1387C104.973 78.1667 104.947 78.192 104.92 78.232L80.08 121.485L68.1601 142.232C62.6267 143.125 58.8001 144.979 56.5601 146.379C55.9334 145.472 55.0268 144.765 53.9868 144.365V107.273C53.9868 106.459 53.48 105.727 52.7334 105.419C51.9734 105.113 51.1067 105.299 50.5334 105.899C50.3067 106.139 45.48 111.327 44.3467 122.045C44.0267 121.833 43.64 121.699 43.2133 121.699H22.4934C21.4001 121.699 20.4934 122.592 20.4934 123.699C20.4934 124.792 21.4001 125.699 22.4934 125.699H43.2133C43.5467 125.699 43.8667 125.607 44.1334 125.459C44.1334 125.845 44.1067 126.22 44.1067 126.632C44.1067 135.912 46.8801 141.94 48.7868 144.993C47.9201 145.592 47.2267 146.447 46.8133 147.432H9.22675C8.40008 147.432 7.66675 147.925 7.36008 148.685C7.06675 149.447 7.25336 150.312 7.84003 150.887C8.12003 151.139 14.7334 157.312 28.5734 157.312C38.1467 157.312 44.2667 154.365 47.2133 152.459C47.36 152.699 47.5334 152.912 47.7067 153.139L46.3201 182.447C46.0134 182.619 45.7467 182.872 45.5601 183.205L19.1067 229.965C18.4134 230.005 17.7601 230.045 17.1201 230.072V209.752C19.0134 211.299 21.4268 212.232 24.0534 212.232C25.1601 212.232 26.0534 211.338 26.0534 210.232C26.0534 209.125 25.1601 208.232 24.0534 208.232C20.2268 208.232 17.1201 205.125 17.1201 201.299V200.285C19.0134 201.833 21.4268 202.765 24.0534 202.765C25.1601 202.765 26.0534 201.872 26.0534 200.765C26.0534 199.672 25.1601 198.765 24.0534 198.765C20.2268 198.765 17.1201 195.66 17.1201 191.833V190.819C19.0134 192.365 21.4268 193.312 24.0534 193.312C25.1601 193.312 26.0534 192.405 26.0534 191.312C26.0534 190.205 25.1601 189.312 24.0534 189.312C20.2268 189.312 17.1201 186.192 17.1201 182.365V181.352C19.0134 182.912 21.4268 183.845 24.0534 183.845C25.1601 183.845 26.0534 182.952 26.0534 181.845C26.0534 180.739 25.1601 179.845 24.0534 179.845C20.2268 179.845 17.1201 176.727 17.1201 172.899C17.1201 171.792 16.2268 170.899 15.1201 170.899C14.0134 170.899 13.1201 171.792 13.1201 172.899C13.1201 176.727 10.0134 179.845 6.18677 179.845C5.08011 179.845 4.18677 180.739 4.18677 181.845C4.18677 182.952 5.08011 183.845 6.18677 183.845C8.81344 183.845 11.2268 182.912 13.1201 181.352V182.365C13.1201 186.192 10.0134 189.312 6.18677 189.312C5.08011 189.312 4.18677 190.205 4.18677 191.312C4.18677 192.405 5.08011 193.312 6.18677 193.312C8.81344 193.312 11.2268 192.365 13.1201 190.819V191.833C13.1201 195.66 10.0134 198.765 6.18677 198.765C5.08011 198.765 4.18677 199.672 4.18677 200.765C4.18677 201.872 5.08011 202.765 6.18677 202.765C8.81344 202.765 11.2268 201.833 13.1201 200.285V201.299C13.1201 205.125 10.0134 208.232 6.18677 208.232C5.08011 208.232 4.18677 209.125 4.18677 210.232C4.18677 211.338 5.08011 212.232 6.18677 212.232C8.81344 212.232 11.2268 211.299 13.1201 209.752V230.312C8.60011 230.619 6.04 230.912 5.88 230.925C4.78667 231.06 4.00005 232.045 4.13339 233.152C4.26672 234.245 5.25334 235.019 6.34667 234.899C6.54667 234.872 10.4533 234.447 17.28 234.06C28.7333 233.432 48.3867 232.965 72.4667 234.887C73.3201 234.952 74.1734 235.019 75.04 235.099C80.2267 235.538 85.6267 236.099 91.1734 236.78C92.0934 236.899 93.0267 237.019 93.9601 237.138C125.467 241.273 161.813 249.726 196.507 266.312C196.787 266.447 197.08 266.512 197.373 266.512C198.12 266.512 198.84 266.099 199.173 265.379C199.653 264.379 199.24 263.179 198.24 262.712C192.08 259.766 185.88 257.085 179.653 254.632C187.173 251.872 203.293 246.685 224.8 243.78C225.893 243.632 226.667 242.619 226.52 241.525C226.373 240.432 225.347 239.66 224.267 239.805C196.493 243.566 177.973 250.859 174.093 252.485C165.76 249.379 157.413 246.685 149.147 244.338C154.933 242.152 165.04 238.592 178 235.06C179.067 234.766 179.693 233.66 179.4 232.592C179.107 231.525 178.013 230.899 176.947 231.192C158.333 236.273 145.48 241.419 142.707 242.565C137.067 241.085 131.48 239.766 125.96 238.579C152.147 224.952 179.907 217.005 205.267 212.447C221.587 209.525 236.907 208.019 250.187 207.299C260.747 206.738 270.027 206.685 277.493 206.833C289.64 207.085 297 207.872 297.253 207.912C298.347 208.045 299.347 207.259 299.467 206.152C299.6 205.06 298.813 204.072 297.72 203.94C297.653 203.94 297.213 203.887 296.4 203.819C295.187 203.699 293.187 203.538 290.467 203.365V170.299C292.12 171.645 294.16 172.539 296.4 172.752C296.733 172.78 297.067 172.792 297.4 172.792C298.507 172.792 299.4 171.887 299.4 170.792C299.4 169.685 298.507 168.792 297.4 168.792C297.053 168.792 296.72 168.765 296.4 168.712C293.04 168.232 290.467 165.327 290.467 161.845V160.833C292.12 162.192 294.16 163.072 296.4 163.285C296.733 163.312 297.067 163.327 297.4 163.327C298.507 163.327 299.4 162.419 299.4 161.327C299.4 160.22 298.507 159.327 297.4 159.327C296.333 159.327 295.333 159.085 294.44 158.66C292.093 157.553 290.467 155.152 290.467 152.379V151.365C292.387 152.94 294.787 153.859 297.4 153.859C298.507 153.859 299.4 152.965 299.4 151.859C299.4 150.752 298.507 149.859 297.4 149.859C293.573 149.859 290.467 146.739 290.467 142.912V141.899C292.36 143.459 294.773 144.393 297.4 144.393C298.507 144.393 299.4 143.5 299.4 142.393C299.4 141.285 298.507 140.393 297.4 140.393C293.573 140.393 290.467 137.273 290.467 133.459C290.467 132.352 289.573 131.459 288.467 131.459C287.36 131.459 286.467 132.352 286.467 133.459C286.467 133.607 286.467 133.752 286.44 133.899C286.32 135.952 285.293 137.78 283.747 138.952C282.573 139.859 281.12 140.393 279.533 140.393C278.427 140.393 277.533 141.285 277.533 142.393C277.533 143.5 278.427 144.393 279.533 144.393C281.813 144.393 283.92 143.685 285.68 142.5C285.947 142.299 286.213 142.113 286.467 141.899V142.912C286.467 143.22 286.44 143.525 286.4 143.819C285.96 147.22 283.04 149.859 279.533 149.859C278.427 149.859 277.533 150.752 277.533 151.859C277.533 152.965 278.427 153.859 279.533 153.859C282.16 153.859 284.573 152.925 286.467 151.365V152.379C286.467 156.205 283.347 159.327 279.533 159.327C278.427 159.327 277.533 160.22 277.533 161.327C277.533 162.419 278.427 163.327 279.533 163.327C282.16 163.327 284.573 162.393 286.467 160.833V161.845C286.467 165.672 283.347 168.792 279.533 168.792C278.427 168.792 277.533 169.685 277.533 170.792C277.533 171.887 278.427 172.792 279.533 172.792C282.16 172.792 284.573 171.845 286.467 170.299V203.152C283.893 203.032 280.92 202.925 277.587 202.859C275.053 202.805 272.307 202.78 269.373 202.78L265.813 127.393C266.2 126.925 266.52 126.405 266.747 125.833H274.107L279.32 134.485C279.693 135.113 280.347 135.459 281.027 135.459C281.28 135.459 281.533 135.405 281.773 135.312C281.867 135.273 281.973 135.22 282.067 135.167C282.613 134.845 282.933 134.285 283.013 133.699C283.067 133.273 282.987 132.819 282.747 132.419L278.773 125.833H303.84C304.653 125.833 305.387 125.339 305.693 124.579C306 123.819 305.813 122.952 305.213 122.379Z" fill="#373D4C"/>
<path d="M265.213 255.405C232.64 254.005 211.866 262.312 211 262.66C209.973 263.072 209.48 264.245 209.907 265.273C210.213 266.045 210.96 266.512 211.76 266.512C212.013 266.512 212.267 266.472 212.507 266.366C212.72 266.285 233.347 258.032 265.04 259.393C266.187 259.459 267.08 258.592 267.133 257.485C267.173 256.379 266.32 255.447 265.213 255.405Z" fill="#FFFEFA"/>
<path d="M232.427 32.3787H252.107C253.2 32.3787 254.107 31.4854 254.107 30.3787C254.107 29.2854 253.2 28.3787 252.107 28.3787H232.427C231.32 28.3787 230.427 29.2854 230.427 30.3787C230.427 31.4854 231.32 32.3787 232.427 32.3787Z" fill="#C5EDEA"/>
<path d="M296.373 240.993C288.547 239.632 280.52 238.672 272.507 238.138C260.48 237.338 248.214 237.459 236.04 238.512C234.934 238.607 234.12 239.566 234.213 240.672C234.307 241.766 235.293 242.607 236.387 242.485C248.347 241.459 260.414 241.338 272.24 242.125C280.107 242.66 288 243.607 295.693 244.925C295.813 244.952 295.933 244.965 296.04 244.965C297 244.965 297.84 244.273 298.013 243.299C298.2 242.205 297.467 241.179 296.373 240.993Z" fill="#373D4C"/>
<path d="M191.307 44.94H207.093C208.186 44.94 209.093 44.0454 209.093 42.94C209.093 41.8334 208.186 40.94 207.093 40.94H191.307C190.213 40.94 189.307 41.8334 189.307 42.94C189.307 44.0454 190.213 44.94 191.307 44.94Z" fill="#57B9D4"/>
<path d="M250.173 221.726C250.133 220.645 249.24 219.792 248.173 219.792C248.147 219.792 248.12 219.792 248.093 219.792C231.733 220.432 214.52 222.645 196.96 226.352C195.88 226.579 195.186 227.632 195.413 228.726C195.613 229.66 196.453 230.312 197.373 230.312C197.507 230.312 197.653 230.299 197.786 230.259C215.133 226.607 232.106 224.419 248.253 223.792C249.36 223.752 250.213 222.819 250.173 221.726Z" fill="#FFFEFA"/>
<path d="M155.92 262.632C147.253 259.592 137.427 256.94 126.707 254.738C125.627 254.512 124.573 255.22 124.347 256.299C124.12 257.379 124.827 258.432 125.907 258.66C136.44 260.819 146.093 263.419 154.587 266.405C154.813 266.472 155.04 266.512 155.253 266.512C156.08 266.512 156.853 266.005 157.147 265.179C157.507 264.138 156.96 262.993 155.92 262.632Z" fill="#FFFEFA"/>
<path d="M114.88 32.3787H126.2C127.307 32.3787 128.2 31.4854 128.2 30.3787C128.2 29.2854 127.307 28.3787 126.2 28.3787H114.88C113.773 28.3787 112.88 29.2854 112.88 30.3787C112.88 31.4854 113.773 32.3787 114.88 32.3787Z" fill="#57B9D4"/>
<path d="M106.667 57.8187C105.56 57.8187 104.667 58.7121 104.667 59.8187C104.667 60.9254 105.56 61.8187 106.667 61.8187H123.093C124.187 61.8187 125.093 60.9254 125.093 59.8187C125.093 58.7121 124.187 57.8187 123.093 57.8187H106.667Z" fill="#373D4C"/>
<path d="M74.9333 84.1667H49.7466C48.6399 84.1667 47.7466 85.06 47.7466 86.1667C47.7466 87.2734 48.6399 88.1667 49.7466 88.1667H74.9333C76.0266 88.1667 76.9333 87.2734 76.9333 86.1667C76.9333 85.06 76.0266 84.1667 74.9333 84.1667Z" fill="#57B9D4"/>
<path d="M74.9332 104.327H66.1465C65.0398 104.327 64.1465 105.22 64.1465 106.327C64.1465 107.419 65.0398 108.327 66.1465 108.327H74.9332C76.0265 108.327 76.9332 107.419 76.9332 106.327C76.9332 105.22 76.0265 104.327 74.9332 104.327Z" fill="#C5EDEA"/>
<path d="M111.04 251.94C95.7332 249.592 78.8 248.005 60.6933 247.22C59.6133 247.179 58.6532 248.032 58.6132 249.125C58.5599 250.232 59.4133 251.167 60.52 251.22C78.48 251.993 95.2666 253.565 110.427 255.899C110.533 255.912 110.627 255.925 110.733 255.925C111.707 255.925 112.56 255.22 112.707 254.232C112.88 253.138 112.12 252.113 111.04 251.94Z" fill="#373D4C"/>
<path d="M78.5866 262.525C63.6799 261.245 47.7866 260.819 31.3599 261.245C30.2533 261.273 29.3732 262.192 29.4132 263.299C29.4398 264.405 30.4133 265.299 31.4533 265.245C47.7333 264.833 63.4799 265.245 78.2533 266.512C78.3066 266.512 78.3599 266.512 78.4266 266.512C79.4533 266.512 80.3198 265.726 80.4132 264.685C80.5065 263.579 79.6933 262.619 78.5866 262.525Z" fill="#373D4C"/>
<path d="M55.9731 50.9934H57.8532C58.9598 50.9934 59.8532 50.0987 59.8532 48.9934C59.8532 47.8867 58.9598 46.9934 57.8532 46.9934H56.9598C59.3065 40.8587 65.2398 36.4854 72.1865 36.4854C79.1465 36.4854 85.0798 40.8587 87.4265 46.9934H83.5331C82.4264 46.9934 81.5331 47.8867 81.5331 48.9934C81.5331 50.0987 82.4264 50.9934 83.5331 50.9934H88.413C88.4797 51.592 88.5198 52.192 88.5198 52.8054C88.5198 61.8187 81.1998 69.1387 72.1865 69.1387C67.6798 69.1387 63.5865 67.2987 60.6265 64.3267H63.0931C64.1865 64.3267 65.0931 63.432 65.0931 62.3267C65.0931 61.22 64.1865 60.3267 63.0931 60.3267H57.7064C56.5331 58.072 55.8664 55.5254 55.8664 52.8054C55.8664 52.192 55.9064 51.592 55.9731 50.9934ZM23.2397 50.9934H51.9598C51.9065 51.592 51.8664 52.192 51.8664 52.8054C51.8664 55.472 52.3865 57.9934 53.3198 60.3267H35.2397C34.1331 60.3267 33.2397 61.22 33.2397 62.3267C33.2397 63.432 34.1331 64.3267 35.2397 64.3267H55.4532C59.1198 69.6454 65.2532 73.1387 72.1865 73.1387C83.3998 73.1387 92.5198 64.0187 92.5198 52.8054C92.5198 52.192 92.4798 51.592 92.4265 50.9934H113.306C114.413 50.9934 115.306 50.0987 115.306 48.9934C115.306 47.8867 114.413 46.9934 113.306 46.9934H91.6532C89.1465 38.6067 81.3732 32.4854 72.1865 32.4854C62.9998 32.4854 55.2265 38.6067 52.7198 46.9934H23.2397C22.1331 46.9934 21.2397 47.8867 21.2397 48.9934C21.2397 50.0987 22.1331 50.9934 23.2397 50.9934Z" fill="#373D4C"/>
<path d="M39.9731 29.712H49.7465C50.8531 29.712 51.7465 28.8187 51.7465 27.712C51.7465 26.6187 50.8531 25.712 49.7465 25.712H39.9731C38.8665 25.712 37.9731 26.6187 37.9731 27.712C37.9731 28.8187 38.8665 29.712 39.9731 29.712Z" fill="#57B9D4"/>
<path d="M16.4268 94.472C15.3201 94.472 14.4268 95.3787 14.4268 96.472C14.4268 97.5787 15.3201 98.472 16.4268 98.472H28.5734C29.68 98.472 30.5734 97.5787 30.5734 96.472C30.5734 95.3787 29.68 94.472 28.5734 94.472H16.4268Z" fill="#C5EDEA"/>
<path d="M6.12012 64.3267H16.7734C17.8667 64.3267 18.7734 63.432 18.7734 62.3267C18.7734 61.22 17.8667 60.3267 16.7734 60.3267H6.12012C5.01345 60.3267 4.12012 61.22 4.12012 62.3267C4.12012 63.432 5.01345 64.3267 6.12012 64.3267Z" fill="#57B9D4"/>
<path d="M22.3999 261.566C13.2799 261.979 7.61323 262.512 7.55989 262.525C6.46656 262.632 5.65323 263.607 5.75989 264.712C5.86656 265.738 6.73315 266.512 7.74648 266.512C7.81315 266.512 7.87981 266.512 7.94648 266.5C7.99981 266.5 13.5732 265.966 22.5732 265.554C23.6798 265.512 24.5331 264.566 24.4798 263.472C24.4398 262.366 23.5332 261.512 22.3999 261.566Z" fill="#373D4C"/>
<path d="M6.23984 251.379C6.35984 251.365 17.9465 250.672 35.2398 250.66C36.3465 250.66 37.2398 249.765 37.2398 248.66C37.2398 247.565 36.3465 246.66 35.2398 246.66C35.0265 246.66 34.8265 246.66 34.6131 246.66C17.5331 246.66 6.10659 247.379 5.98659 247.393C4.89325 247.459 4.05325 248.405 4.11992 249.512C4.18659 250.565 5.06659 251.379 6.11992 251.379C6.15992 251.379 6.19984 251.379 6.23984 251.379Z" fill="#FFFEFA"/>
</g>
</svg>
