<svg width="288" height="288" viewBox="0 0 288 288" fill="none" xmlns="http://www.w3.org/2000/svg">
<mask id="mask0_221:13930" style="mask-type:alpha" maskUnits="userSpaceOnUse" x="0" y="0" width="288" height="288">
<circle cx="144" cy="144" r="144" fill="#C4C4C4"/>
</mask>
<g mask="url(#mask0_221:13930)">
<path d="M2671.87 329.449H-64V-290H2671.87V329.449Z" fill="#FFFEFA"/>
<path d="M17.6631 255.112H283.392V213.941L156.725 204.897L157.613 195.167H105.613L111.613 201.611L79.1693 213.941L55.614 206.721L40.0584 205.833L17.6631 213.941V255.112Z" fill="#4D7591"/>
<path d="M103.669 255.112H166.669L141.336 195.167H128.669L103.669 255.112Z" fill="#E8DECF"/>
<path d="M149.333 59.8334H214.28C214.28 59.8334 211.725 47.388 200.725 53.6107C200.725 53.6107 198.836 38.0547 184.169 36.7214C169.503 35.388 166.067 54.388 166.067 54.388C166.067 54.388 161.896 48.3494 155.947 49.7214C149.999 51.092 149.333 59.8334 149.333 59.8334Z" fill="#C5EDEA"/>
<path d="M54.1694 88.944H119.059C119.059 88.944 117.947 77.7214 106.059 81.0547C106.059 81.0547 105.123 68.388 89.424 65.8334C73.7254 63.2774 71.7254 81.388 71.7254 81.388C71.7254 81.388 66.0651 75.3187 59.6683 78.388C53.2703 81.4574 54.1694 88.944 54.1694 88.944Z" fill="#C5EDEA"/>
<path d="M278.623 213.94H247.276L254.489 128.312L262.529 198.965C262.583 199.459 262.809 199.912 263.183 200.232L278.623 213.94Z" fill="#CA8B2F"/>
<path d="M270.636 63.2321C271.743 63.2321 272.636 64.1254 272.636 65.2321C272.636 66.3387 271.743 67.2321 270.636 67.2321H249.649C248.543 67.2321 247.649 66.3387 247.649 65.2321C247.649 64.1254 248.543 63.2321 249.649 63.2321H270.636Z" fill="#57B9D4"/>
<path d="M252.009 110.005L243.263 213.94H221.223L230.836 158.965C230.836 158.94 230.836 158.912 230.849 158.887C230.849 158.859 232.969 141.565 232.969 141.565L236.849 110.005H252.009Z" fill="#E8C080"/>
<path d="M235.223 43.512C236.329 43.512 237.223 44.4054 237.223 45.512C237.223 46.6187 236.329 47.512 235.223 47.512H228.863C227.769 47.512 226.863 46.6187 226.863 45.512C226.863 44.4054 227.769 43.512 228.863 43.512H235.223Z" fill="#C5EDEA"/>
<path d="M220.463 98.7267L226.849 158.553L217.289 213.245L217.169 213.94H182.556L183.449 204.726H191.583C192.689 204.726 193.583 203.833 193.583 202.726C193.583 201.619 192.689 200.726 191.583 200.726H183.823L184.929 189.285H199.823C200.916 189.285 201.823 188.38 201.823 187.285C201.823 186.179 200.916 185.285 199.823 185.285H185.303L190.769 128.285H195.823C196.929 128.285 197.823 127.393 197.823 126.285C197.823 125.179 196.929 124.285 195.823 124.285H191.156L193.596 98.7267H220.463Z" fill="#CA8B2F"/>
<path d="M223.863 78.0467C224.956 78.0467 225.863 78.94 225.863 80.0467C225.863 81.1387 224.956 82.0467 223.863 82.0467H212.583C211.476 82.0467 210.583 81.1387 210.583 80.0467C210.583 78.94 211.476 78.0467 212.583 78.0467H223.863Z" fill="#C5EDEA"/>
<path d="M188.503 110.005L178.703 212.273L174.583 209.273L185.756 110.005H188.503Z" fill="#E8C080"/>
<path d="M183.489 71.632C184.596 71.632 185.489 72.5254 185.489 73.632C185.489 74.7387 184.596 75.632 183.489 75.632H148.649C147.543 75.632 146.649 74.7387 146.649 73.632C146.649 72.5254 147.543 71.632 148.649 71.632H183.489Z" fill="#57B9D4"/>
<path d="M181.729 110.005L170.729 207.752L158.569 204.952L160.263 195.792C160.516 195.459 160.663 195.047 160.663 194.607C160.663 194.419 160.623 194.232 160.583 194.06L176.076 110.005H181.729Z" fill="#CA8B2F"/>
<path d="M148.649 120.447C149.743 120.447 150.649 121.352 150.649 122.447C150.649 123.553 149.743 124.447 148.649 124.447H112.436C111.329 124.447 110.436 123.553 110.436 122.447C110.436 121.352 111.329 120.447 112.436 120.447H148.649Z" fill="#57B9D4"/>
<path d="M147.329 174.1C148.436 174.1 149.329 174.993 149.329 176.1C149.329 177.192 148.436 178.1 147.329 178.1H141.716C140.609 178.1 139.716 177.192 139.716 176.1C139.716 174.993 140.609 174.1 141.716 174.1H147.329Z" fill="#57B9D4"/>
<path d="M115.943 101.192C117.049 101.192 117.943 102.085 117.943 103.192C117.943 104.299 117.049 105.192 115.943 105.192H103.649C102.543 105.192 101.649 104.299 101.649 103.192C101.649 102.085 102.543 101.192 103.649 101.192H115.943Z" fill="#C5EDEA"/>
<path d="M115.943 146.579C117.049 146.579 117.943 147.487 117.943 148.579C117.943 149.685 117.049 150.579 115.943 150.579H110.489C109.383 150.579 108.489 149.685 108.489 148.579C108.489 147.487 109.383 146.579 110.489 146.579H115.943Z" fill="#57B9D4"/>
<path d="M103.076 196.019L108.543 201.632L80.956 210.66L70.3027 121.192L70.7693 120.512L74.1427 115.685H89.6227L92.7427 138.912H84.076C82.9693 138.912 82.076 139.805 82.076 140.912C82.076 142.019 82.9693 142.912 84.076 142.912H93.2893L94.2893 150.38H86.6227C85.516 150.38 84.6227 151.285 84.6227 152.38C84.6227 153.487 85.516 154.38 86.6227 154.38H94.8227L98.476 181.553H93.9293C92.8227 181.553 91.9293 182.447 91.9293 183.553C91.9293 184.645 92.8227 185.553 93.9293 185.553H99.0093L99.9027 192.205C99.956 192.632 100.156 193.019 100.449 193.327L103.063 196.019H103.076Z" fill="#E8C080"/>
<path d="M107.743 43.512C108.849 43.512 109.743 44.4054 109.743 45.512C109.743 46.6187 108.849 47.512 107.743 47.512H84.076C82.9693 47.512 82.076 46.6187 82.076 45.512C82.076 44.4054 82.9693 43.512 84.076 43.512H107.743Z" fill="#C5EDEA"/>
<path d="M66.3828 122.085L76.916 210.592L58.1156 205.393L60.5563 119.727L66.3828 122.085Z" fill="#CA8B2F"/>
<path d="M74.956 97.9933C76.0627 97.9933 76.956 98.8867 76.956 99.9933C76.956 101.085 76.0627 101.993 74.956 101.993H54.8896C53.7823 101.993 52.8896 101.085 52.8896 99.9933C52.8896 98.8867 53.7823 97.9933 54.8896 97.9933H74.956Z" fill="#57B9D4"/>
<path d="M71.6893 37.0054C72.796 37.0054 73.6894 37.8987 73.6894 39.0054C73.6894 40.1134 72.796 41.0054 71.6893 41.0054H61.6631C60.5563 41.0054 59.6631 40.1134 59.6631 39.0054C59.6631 37.8987 60.5563 37.0054 61.6631 37.0054H71.6893Z" fill="#57B9D4"/>
<path d="M56.5828 118.792L54.1297 204.899H39.9427L35.2495 194.859L41.2896 118.792H56.5828Z" fill="#E8C080"/>
<path d="M43.0901 54.1254C44.1959 54.1254 45.0901 55.0187 45.0901 56.1254C45.0901 57.232 44.1959 58.1254 43.0901 58.1254H27.8896C26.7823 58.1254 25.8896 57.232 25.8896 56.1254C25.8896 55.0187 26.7823 54.1254 27.8896 54.1254H43.0901Z" fill="#C5EDEA"/>
<path d="M37.223 119.472L31.223 195.072C31.1959 195.405 31.2631 195.752 31.4094 196.072L35.8896 205.672L20.5964 210.487L31.636 120.993L37.223 119.472Z" fill="#CA8B2F"/>
<path d="M80.956 210.66L70.3027 121.192L70.7693 120.512L74.1426 115.685H89.6227L92.7426 138.912H84.076C82.9693 138.912 82.076 139.805 82.076 140.912C82.076 142.019 82.9693 142.912 84.076 142.912H93.2893L94.2893 150.379H86.6227C85.516 150.379 84.6227 151.285 84.6227 152.379C84.6227 153.485 85.516 154.379 86.6227 154.379H94.8227L98.476 181.553H93.9293C92.8226 181.553 91.9293 182.447 91.9293 183.553C91.9293 184.645 92.8226 185.553 93.9293 185.553H99.0093L99.9026 192.205C99.956 192.632 100.156 193.019 100.449 193.327L103.063 196.019C103.076 196.019 108.543 201.632 108.543 201.632L80.956 210.66ZM58.1166 205.393L60.5562 119.727L66.3828 122.085L76.916 210.592L58.1166 205.393ZM54.1297 204.899H39.9426L35.2494 194.859L41.2896 118.792H56.5828L54.1297 204.899ZM20.5964 210.485L31.636 120.993L37.2229 119.472L31.2229 195.072C31.1958 195.405 31.2631 195.752 31.4093 196.072L35.8896 205.672L20.5964 210.485ZM160.263 195.792C160.516 195.459 160.663 195.045 160.663 194.607C160.663 194.419 160.623 194.232 160.583 194.06L176.076 110.005H181.729L170.729 207.752L158.569 204.952L160.263 195.792ZM188.503 110.005L178.703 212.273L174.583 209.273L185.756 110.005H188.503ZM190.769 128.285H195.823C196.929 128.285 197.823 127.393 197.823 126.285C197.823 125.179 196.929 124.285 195.823 124.285H191.156L193.596 98.7267H220.463L226.849 158.553L217.289 213.245L217.169 213.94H182.556L183.449 204.726H191.583C192.689 204.726 193.583 203.833 193.583 202.726C193.583 201.619 192.689 200.726 191.583 200.726H183.823L184.929 189.285H199.823C200.916 189.285 201.823 188.379 201.823 187.285C201.823 186.179 200.916 185.285 199.823 185.285H185.303L190.769 128.285ZM230.836 158.965C230.836 158.94 230.836 158.912 230.849 158.887C230.849 158.859 232.969 141.565 232.969 141.565L236.849 110.005H252.009L243.263 213.94H221.223L230.836 158.965ZM254.489 128.312L262.529 198.965C262.583 199.459 262.809 199.912 263.183 200.232L278.623 213.94H247.276L254.489 128.312ZM156.996 227.326H172.463C173.569 227.326 174.463 226.432 174.463 225.326C174.463 224.22 173.569 223.326 172.463 223.326H155.343L144.316 196.607H156.049L154.289 206.113C154.103 207.167 154.769 208.179 155.809 208.419L171.609 212.072L179.169 217.553C179.503 217.792 179.903 217.94 180.343 217.94C180.356 217.94 283.903 217.94 283.903 217.94C284.729 217.94 285.476 217.432 285.769 216.645C286.063 215.872 285.849 214.993 285.223 214.447L266.409 197.752L256.169 107.78C256.143 107.539 256.076 107.327 255.969 107.113C255.849 106.872 255.703 106.712 255.556 106.565C255.529 106.539 255.516 106.512 255.489 106.5C255.329 106.365 255.156 106.259 254.956 106.179C254.929 106.167 254.889 106.152 254.863 106.139C254.703 106.072 254.529 106.032 254.356 106.019C254.316 106.019 254.276 106.019 254.236 106.019C254.183 106.005 235.076 106.005 235.076 106.005C234.063 106.005 233.209 106.765 233.089 107.765L229.009 141.072L224.249 96.512C224.129 95.5 223.276 94.7267 222.249 94.7267H191.783C190.756 94.7267 189.889 95.512 189.796 96.5387L189.623 98.352L188.889 106.019C188.809 106.019 188.743 106.005 188.663 106.005H174.409C173.449 106.005 172.623 106.699 172.449 107.645L156.783 192.607H105.329L103.783 191.019L93.356 113.419C93.2227 112.419 92.3827 111.685 91.3827 111.685H73.0893C72.436 111.685 71.8226 112.005 71.4493 112.539L67.5027 118.232L59.3828 114.94C59.1426 114.845 58.9297 114.792 58.6896 114.792C58.636 114.792 39.436 114.792 39.436 114.792C39.2495 114.805 39.076 114.819 38.9161 114.859L29.2896 117.485C28.5026 117.699 27.9297 118.365 27.8229 119.179L16.2494 213.072C16.1693 213.752 16.436 214.419 16.9563 214.859C17.3161 215.167 17.7693 215.326 18.2364 215.326C18.436 215.326 18.636 215.285 18.836 215.232L38.9693 208.899H55.8093L78.7026 215.245C78.8893 215.299 79.0627 215.312 79.2227 215.312C79.4893 215.312 79.6893 215.285 79.876 215.22L82.196 214.459L112.836 204.432C113.489 204.22 113.996 203.685 114.156 203.005C114.316 202.338 114.129 201.632 113.649 201.138L109.223 196.607H125.623L119.556 211.326H108.823C107.729 211.326 106.823 212.22 106.823 213.326C106.823 214.419 107.729 215.326 108.823 215.326H117.903L109.129 236.592C109.023 236.579 108.929 236.565 108.823 236.565H28.836C27.7297 236.565 26.836 237.459 26.836 238.565C26.836 239.672 27.7297 240.565 28.836 240.565H107.489L101.796 254.352C101.383 255.365 101.863 256.538 102.889 256.965C103.143 257.06 103.396 257.113 103.649 257.113C104.436 257.113 105.183 256.645 105.503 255.872L129.956 196.607H132.423V206.872C132.423 207.979 133.329 208.872 134.423 208.872C135.529 208.872 136.423 207.979 136.423 206.872V196.607H139.983L164.436 255.872C164.756 256.645 165.503 257.113 166.289 257.113C166.543 257.113 166.809 257.06 167.049 256.965C168.076 256.538 168.556 255.365 168.143 254.352L156.996 227.326Z" fill="#373D4C"/>
<path d="M283.903 237.94H257.369C256.263 237.94 255.369 238.833 255.369 239.94C255.369 241.045 256.263 241.94 257.369 241.94H283.903C284.996 241.94 285.903 241.045 285.903 239.94C285.903 238.833 284.996 237.94 283.903 237.94Z" fill="#373D4C"/>
<path d="M263.583 253.113H218.849C217.743 253.113 216.849 254.005 216.849 255.113C216.849 256.22 217.743 257.113 218.849 257.113H263.583C264.689 257.113 265.583 256.22 265.583 255.113C265.583 254.005 264.689 253.113 263.583 253.113Z" fill="#373D4C"/>
<path d="M217.383 225.565C216.276 225.565 215.383 226.459 215.383 227.565C215.383 228.66 216.276 229.565 217.383 229.565H232.623C233.716 229.565 234.623 228.66 234.623 227.565C234.623 226.459 233.716 225.565 232.623 225.565H217.383Z" fill="#373D4C"/>
<path d="M232.623 241.94C233.716 241.94 234.623 241.045 234.623 239.94C234.623 238.833 233.716 237.94 232.623 237.94H172.463C171.356 237.94 170.463 238.833 170.463 239.94C170.463 241.045 171.356 241.94 172.463 241.94H232.623Z" fill="#373D4C"/>
<path d="M138.409 62.3267H156.263C157.369 62.3267 158.263 61.4187 158.263 60.3267C158.263 59.22 157.369 58.3267 156.263 58.3267H150.716C151.223 54.4587 154.529 51.472 158.516 51.472C161.049 51.472 163.409 52.6987 164.889 54.752C165.209 55.432 165.903 55.912 166.703 55.912C167.809 55.912 168.703 55.0187 168.703 53.912C168.703 45.752 175.329 39.1254 183.489 39.1254C191.649 39.1254 198.276 45.752 198.276 53.912C198.276 54.0187 198.289 54.1254 198.316 54.22C198.263 54.792 198.436 55.3654 198.863 55.792C199.649 56.5787 200.916 56.5787 201.689 55.792C202.903 54.592 204.503 53.9254 206.209 53.9254C209.743 53.9254 212.609 56.792 212.609 60.3267C212.609 61.4187 213.503 62.3267 214.609 62.3267C215.716 62.3267 216.609 61.4187 216.609 60.3267C216.609 54.592 211.943 49.9254 206.209 49.9254C204.743 49.9254 203.316 50.2454 201.996 50.8187C200.516 41.9254 192.796 35.1254 183.489 35.1254C174.623 35.1254 167.196 41.2987 165.223 49.5654C163.276 48.22 160.956 47.472 158.516 47.472C152.316 47.472 147.223 52.2587 146.703 58.3267H138.409C137.303 58.3267 136.409 59.22 136.409 60.3267C136.409 61.4187 137.303 62.3267 138.409 62.3267Z" fill="#373D4C"/>
<path d="M202.583 253.113H174.423C173.316 253.113 172.423 254.005 172.423 255.113C172.423 256.22 173.316 257.113 174.423 257.113H202.583C203.689 257.113 204.583 256.22 204.583 255.113C204.583 254.005 203.689 253.113 202.583 253.113Z" fill="#373D4C"/>
<path d="M44.9297 91.8987H61.6631C62.7693 91.8987 63.6631 91.0054 63.6631 89.8987C63.6631 88.792 62.7693 87.8987 61.6631 87.8987H55.5828C55.6229 87.752 55.636 87.6187 55.636 87.4587C55.636 83.1254 59.1693 79.592 63.5027 79.592C66.0495 79.592 68.4093 80.8187 69.8893 82.8721C70.196 83.5534 70.8893 84.0187 71.6893 84.0187C72.796 84.0187 73.6894 83.1254 73.6894 82.0187C73.6894 73.872 80.3293 67.232 88.476 67.232C96.636 67.232 103.276 73.872 103.276 82.0187C103.276 82.1387 103.289 82.2321 103.303 82.3387C103.249 82.8987 103.423 83.4854 103.863 83.912C104.636 84.6987 105.903 84.6987 106.689 83.912C107.889 82.712 109.503 82.0454 111.209 82.0454C114.036 82.0454 116.409 83.8987 117.249 86.432H112.209C111.116 86.432 110.209 87.3267 110.209 88.432C110.209 89.5387 111.116 90.432 112.209 90.432H141.716C142.809 90.432 143.716 89.5387 143.716 88.432C143.716 87.3267 142.809 86.432 141.716 86.432H121.409C120.463 81.66 116.249 78.0454 111.209 78.0454C109.729 78.0454 108.303 78.3521 106.996 78.9401C105.516 70.0454 97.7827 63.232 88.476 63.232C79.6227 63.232 72.196 69.4054 70.2227 77.6721C68.276 76.3387 65.9427 75.592 63.5027 75.592C56.9563 75.592 51.636 80.912 51.636 87.4587C51.636 87.6187 51.6631 87.752 51.6896 87.8987H44.9297C43.8229 87.8987 42.9297 88.792 42.9297 89.8987C42.9297 91.0054 43.8229 91.8987 44.9297 91.8987Z" fill="#373D4C"/>
<path d="M134.423 241.78C133.329 241.78 132.423 242.672 132.423 243.78V255.113C132.423 256.22 133.329 257.113 134.423 257.113C135.529 257.113 136.423 256.22 136.423 255.113V243.78C136.423 242.672 135.529 241.78 134.423 241.78Z" fill="#373D4C"/>
<path d="M134.423 217.179C133.329 217.179 132.423 218.072 132.423 219.179V231.472C132.423 232.579 133.329 233.472 134.423 233.472C135.529 233.472 136.423 232.579 136.423 231.472V219.179C136.423 218.072 135.529 217.179 134.423 217.179Z" fill="#373D4C"/>
<path d="M102.676 227.326C103.783 227.326 104.676 226.432 104.676 225.326C104.676 224.22 103.783 223.326 102.676 223.326H63.6631C62.5563 223.326 61.6631 224.22 61.6631 225.326C61.6631 226.432 62.5563 227.326 63.6631 227.326H102.676Z" fill="#373D4C"/>
<path d="M88.996 253.113H54.8896C53.7833 253.113 52.8896 254.005 52.8896 255.113C52.8896 256.22 53.7833 257.113 54.8896 257.113H88.996C90.1026 257.113 90.996 256.22 90.996 255.113C90.996 254.005 90.1026 253.113 88.996 253.113Z" fill="#373D4C"/>
<path d="M51.1427 225.326C51.1427 224.22 50.2495 223.326 49.1427 223.326H18.2364C17.1297 223.326 16.2364 224.22 16.2364 225.326C16.2364 226.432 17.1297 227.326 18.2364 227.326H49.1427C50.2495 227.326 51.1427 226.432 51.1427 225.326Z" fill="#373D4C"/>
<path d="M34.9031 253.113H23.476C22.3697 253.113 21.476 254.005 21.476 255.113C21.476 256.22 22.3697 257.113 23.476 257.113H34.9031C36.0099 257.113 36.9031 256.22 36.9031 255.113C36.9031 254.005 36.0099 253.113 34.9031 253.113Z" fill="#373D4C"/>
</g>
</svg>
