<svg width="288" height="288" viewBox="0 0 288 288" fill="none" xmlns="http://www.w3.org/2000/svg">
<mask id="mask0_221:13938" style="mask-type:alpha" maskUnits="userSpaceOnUse" x="0" y="0" width="288" height="288">
<circle cx="144" cy="144" r="144" fill="#C4C4C4"/>
</mask>
<g mask="url(#mask0_221:13938)">
<path d="M354.866 597.453H-2381V-21.996H354.866V597.453Z" fill="#FFFEFA"/>
<path d="M16.6133 205.095V267.916H271.28V212.38C271.28 212.38 223.587 209.503 176.547 219.836C129.507 230.169 114.093 232.556 78.2401 212.38C42.3734 192.205 16.6133 205.095 16.6133 205.095Z" fill="#80A0AC"/>
<path d="M261.053 212.38H271.28V87.6054L258.587 37.1054L251.72 36.0588L244.84 51.6147L261.053 212.38Z" fill="#E8C080"/>
<path d="M16.6133 205.095V126.931L30.1734 115.657L35.7201 205.095H16.6133Z" fill="#CA8B2F"/>
<path d="M158.04 98.8494C158.04 97.7427 157.147 96.8494 156.04 96.8494H146.32C145.213 96.8494 144.32 97.7427 144.32 98.8494C144.32 99.9561 145.213 100.849 146.32 100.849H156.04C157.147 100.849 158.04 99.9561 158.04 98.8494ZM184.56 75.1961C186.4 78.9427 187.466 83.144 187.466 87.6094C187.466 91.8627 186.52 96.0107 184.707 99.7841L183.826 93.1827C183.693 92.1827 182.84 91.4507 181.84 91.4507H175.293C174.4 91.4507 173.613 92.0494 173.36 92.9027L167.213 114.903C166.946 114.863 166.68 114.863 166.4 114.943C164.067 115.556 161.64 115.863 159.213 115.863C144.306 115.863 132.08 104.249 131.053 89.6094H146.32C147.413 89.6094 148.32 88.7027 148.32 87.6094C148.32 86.5027 147.413 85.6094 146.32 85.6094H131.053C132.08 70.956 144.306 59.3441 159.213 59.3441C168.666 59.3441 177.04 64.0361 182.173 71.1961H175.32C174.213 71.1961 173.32 72.0894 173.32 73.1961C173.32 74.3027 174.213 75.1961 175.32 75.1961H184.56Z" fill="#E8DECF"/>
<path d="M242.64 55.0894L258.587 210.676C252.52 210.649 247.013 210.769 241.88 211.064C243.347 207.903 244.2 203.529 244.2 197.463V169.129C244.2 165.409 242.12 162.276 239.293 161.249V156.556C239.293 155.451 238.387 154.556 237.293 154.556C236.187 154.556 235.293 155.451 235.293 156.556V161.249C232.453 162.276 230.373 165.409 230.373 169.129V197.463C230.373 204.649 228.347 205.383 223.96 205.463V175.076C223.96 171.543 221.987 168.569 219.28 167.609L215.64 117.929L224.573 121.503C225.187 121.757 225.893 121.676 226.44 121.303C226.987 120.929 227.32 120.316 227.32 119.649V100.583L231.653 98.1694C232.2 97.8628 232.573 97.3174 232.667 96.6894L237.867 56.7961L242.64 55.0894Z" fill="#CA8B2F"/>
<path d="M180.093 95.4507L185.173 133.303L170.067 218.876C170.04 219.037 170.027 219.183 170.04 219.329C166.907 219.943 163.8 220.569 160.707 221.196C157.627 221.823 154.587 222.436 151.6 223.009L158.213 155.129L164.626 130.023L168.587 124.371C168.72 124.183 168.813 123.983 168.88 123.757L176.813 95.4507H180.093Z" fill="#CA8B2F"/>
<path d="M74.9067 161.103C74.9201 161.196 74.9733 161.263 75 161.356V170.969C75 172.343 74.92 173.343 74.72 174.091C74.28 175.704 73.2932 176.023 71.4265 176.103V161.757C71.4265 158.609 69.7067 155.943 67.32 154.956V149.516C67.32 148.424 66.4267 147.516 65.32 147.516C64.2267 147.516 63.32 148.424 63.32 149.516V154.956C60.9467 155.943 59.2265 158.609 59.2265 161.757V188.849C56.6398 188.784 55.0798 188.424 54.3598 186.196C54.0398 185.183 53.8799 183.796 53.8799 181.876V156.424C53.8799 156.076 53.8532 155.757 53.8132 155.424C53.8532 155.316 53.9066 155.223 53.9333 155.103L58.4265 126.529L63.12 115.663L68.1466 116.769L74.9067 161.103Z" fill="#CA8B2F"/>
<path d="M211.44 115.424L215.28 167.704C212.693 168.757 210.826 171.649 210.826 175.076V191.276C207.64 191.183 206.4 190.516 206.4 185.316V162.743C206.4 159.743 204.76 157.196 202.493 156.223V150.743C202.493 149.636 201.586 148.743 200.493 148.743C199.386 148.743 198.493 149.636 198.493 150.743V156.223C196.213 157.196 194.573 159.743 194.573 162.743V185.316C194.573 202.076 202.586 203.049 210.826 203.117V214.329C205.88 214.757 201.626 215.091 197.533 215.383C189.72 215.929 181.907 217.129 174.187 218.556L189.16 133.757L197.026 101.756L205.493 103.543L211.44 115.424Z" fill="#E8C080"/>
<path d="M149.346 137.129L154.213 154.956L147.507 223.769C139.107 225.289 131.28 226.329 124.573 226.076L126.066 199.623L128.373 181.811L135.187 173.316C135.387 173.064 135.52 172.784 135.587 172.477L139.546 153.676L144.76 150.543C145.253 150.249 145.6 149.743 145.693 149.169L147.787 137.129H149.346Z" fill="#E8C080"/>
<path d="M94.7598 196.129L96.4401 218.196C96.1067 218.037 95.7734 217.876 95.4401 217.704C90.3201 215.236 84.5201 212.436 75.8401 209.303C74.4401 208.796 72.9598 208.329 71.4265 207.876V187.144C78.8532 187.076 86.0265 186.076 86.0265 170.969V159.596H88.52L94.7598 196.129Z" fill="#E8C080"/>
<path d="M59.2265 201.676V205.091C52.7465 203.996 46.16 203.371 40.1734 203.037C39.16 202.983 38.1733 202.929 37.1999 202.889L32.5598 114.076L38.1067 98.1027H46.8132L54.4533 126.076L50.7067 149.876C50.32 149.596 49.8933 149.371 49.4666 149.209V144.397C49.4666 143.289 48.5599 142.397 47.4666 142.397C46.3599 142.397 45.4666 143.289 45.4666 144.397V149.209C42.9066 150.196 41.0533 153.064 41.0533 156.424V181.876C41.0533 185.969 41.48 189.209 42.2533 191.784C44.9866 200.983 52.0398 201.636 59.2265 201.676Z" fill="#E8C080"/>
<path d="M219.96 175.076V253.196C218.253 253.263 216.546 253.356 214.826 253.489V175.076C214.826 173.009 216.013 171.276 217.4 171.276C218.787 171.276 219.96 173.009 219.96 175.076Z" fill="#C5EDEA"/>
<path d="M82.0265 170.969C82.0265 182.303 78.2798 183.091 71.4265 183.144V180.103C74.3598 179.996 77.5599 179.249 78.6132 174.623C78.8132 173.757 78.9467 172.769 78.9734 171.623C78.9867 171.543 79 171.463 79 171.383V150.689C79 149.811 79.3067 149.064 79.72 148.636C79.9733 148.371 80.2533 148.223 80.52 148.223C81.2267 148.223 82.0265 149.276 82.0265 150.689V170.969Z" fill="#C5EDEA"/>
<path d="M59.2264 192.836V197.676C52.5731 197.649 47.9198 197.156 46.0131 190.636C45.3865 188.451 45.0532 185.596 45.0532 181.876V156.424C45.0532 154.463 46.1598 152.823 47.4665 152.823C48.7732 152.823 49.8798 154.463 49.8798 156.424V182.397C49.8798 182.489 49.8933 182.596 49.9066 182.689C49.9599 184.383 50.1597 185.784 50.4931 186.969C51.9197 192.049 55.6664 192.743 59.2264 192.836Z" fill="#C5EDEA"/>
<path d="M240.2 169.129V197.463C240.2 204.889 239.04 209.209 236.88 211.743C236.707 211.876 236.56 212.037 236.44 212.223C233.654 215.023 229.387 215.276 223.96 215.289V209.451C228.8 209.356 234.027 208.329 234.347 198.371C234.36 198.263 234.374 198.156 234.374 198.049V169.129C234.374 166.836 235.707 164.889 237.293 164.889C238.867 164.889 240.2 166.836 240.2 169.129Z" fill="#57B9D4"/>
<path d="M202.426 186.037C202.666 194.196 206.866 195.156 210.826 195.276V199.117C203.146 199.064 198.573 198.276 198.573 185.316V162.743C198.573 160.996 199.586 159.784 200.493 159.784C201.386 159.784 202.4 160.996 202.4 162.743V185.784C202.4 185.876 202.413 185.956 202.426 186.037Z" fill="#57B9D4"/>
<path d="M67.4266 161.757V231.489C66.0132 231.289 64.5999 231.103 63.2266 230.943V161.757C63.2266 159.863 64.3334 158.556 65.3201 158.556C66.3201 158.556 67.4266 159.863 67.4266 161.757Z" fill="#57B9D4"/>
<path d="M213.226 265.609C214.333 265.409 224.187 263.796 228.573 264.676C229.653 264.889 230.347 265.943 230.133 267.023C229.92 268.103 228.853 268.796 227.787 268.596C224.68 267.969 216.706 269.076 213.893 269.543C213.773 269.569 213.666 269.569 213.56 269.569C212.6 269.569 211.747 268.889 211.587 267.903C211.4 266.823 212.133 265.784 213.226 265.609Z" fill="#373D4C"/>
<path d="M216.413 52.7028C217.52 52.7028 218.413 53.5961 218.413 54.7028C218.413 55.8108 217.52 56.7028 216.413 56.7028H192.76C191.653 56.7028 190.76 55.8108 190.76 54.7028C190.76 53.5961 191.653 52.7028 192.76 52.7028H216.413Z" fill="#C5EDEA"/>
<path d="M184.12 37.1027C185.227 37.1027 186.12 37.9961 186.12 39.1027C186.12 40.2094 185.227 41.1027 184.12 41.1027H170.693C169.6 41.1027 168.693 40.2094 168.693 39.1027C168.693 37.9961 169.6 37.1027 170.693 37.1027H184.12Z" fill="#C5EDEA"/>
<path d="M163.84 265.343C164.04 266.424 163.307 267.463 162.227 267.663L151.533 269.543C151.413 269.569 151.293 269.569 151.173 269.569C150.227 269.569 149.387 268.889 149.213 267.916C149.013 266.836 149.747 265.796 150.84 265.609L161.52 263.716C162.6 263.529 163.653 264.249 163.84 265.343Z" fill="#373D4C"/>
<path d="M156.04 96.8494C157.147 96.8494 158.04 97.7427 158.04 98.8494C158.04 99.9561 157.147 100.849 156.04 100.849H146.32C145.213 100.849 144.32 99.9561 144.32 98.8494C144.32 97.7427 145.213 96.8494 146.32 96.8494H156.04Z" fill="#373D4C"/>
<path d="M135.533 124.929C136.64 124.929 137.533 125.823 137.533 126.929C137.533 128.037 136.64 128.929 135.533 128.929H110.44C109.333 128.929 108.44 128.037 108.44 126.929C108.44 125.823 109.333 124.929 110.44 124.929H135.533Z" fill="#57B9D4"/>
<path d="M127.813 43.996C128.92 43.996 129.813 44.9027 129.813 45.996C129.813 47.1027 128.92 47.996 127.813 47.996H91.9199C90.8133 47.996 89.9199 47.1027 89.9199 45.996C89.9199 44.9027 90.8133 43.996 91.9199 43.996H127.813Z" fill="#57B9D4"/>
<path d="M136.28 238.196C137.346 237.916 138.44 238.569 138.707 239.649C138.973 240.716 138.32 241.796 137.24 242.076C131.533 243.503 128.8 243.689 127.733 243.689C127.48 243.689 127.306 243.689 127.226 243.676C126.133 243.569 125.333 242.583 125.44 241.489C125.547 240.397 126.507 239.609 127.587 239.689C127.693 239.689 129.96 239.769 136.28 238.196Z" fill="#FFFEFA"/>
<path d="M116.467 100.609C117.56 100.609 118.467 101.503 118.467 102.609C118.467 103.703 117.56 104.609 116.467 104.609H72.8401C71.7468 104.609 70.8401 103.703 70.8401 102.609C70.8401 101.503 71.7468 100.609 72.8401 100.609H116.467Z" fill="#C5EDEA"/>
<path d="M113.76 151.903C114.867 151.903 115.76 152.811 115.76 153.903C115.76 155.009 114.867 155.903 113.76 155.903H102.253C101.16 155.903 100.253 155.009 100.253 153.903C100.253 152.811 101.16 151.903 102.253 151.903H113.76Z" fill="#C5EDEA"/>
<path d="M72.84 69.0494C73.9467 69.0494 74.84 69.956 74.84 71.0494C74.84 72.156 73.9467 73.0494 72.84 73.0494H56.4932C55.3865 73.0494 54.4932 72.156 54.4932 71.0494C54.4932 69.956 55.3865 69.0494 56.4932 69.0494H72.84Z" fill="#C5EDEA"/>
<path d="M62.1999 55.3441C63.2933 55.3441 64.1999 56.2361 64.1999 57.3441C64.1999 58.4507 63.2933 59.3441 62.1999 59.3441H29.5598C28.4531 59.3441 27.5598 58.4507 27.5598 57.3441C27.5598 56.2361 28.4531 55.3441 29.5598 55.3441H62.1999Z" fill="#57B9D4"/>
<path d="M43.0266 247.903C43.3866 247.876 51.7201 247.343 56.7201 247.916C57.8134 248.037 58.6133 249.023 58.48 250.117C58.3733 251.144 57.5066 251.903 56.4933 251.903C56.4266 251.903 56.3467 251.889 56.28 251.889C51.6133 251.371 43.3733 251.889 43.2933 251.889C42.1999 251.956 41.2402 251.129 41.1735 250.023C41.0935 248.929 41.9333 247.969 43.0266 247.903Z" fill="#FFFEFA"/>
<path d="M149.347 137.129H147.787L145.693 149.169C145.6 149.743 145.253 150.249 144.76 150.543L139.547 153.676L135.587 172.477C135.52 172.784 135.387 173.064 135.187 173.316L128.373 181.811L126.067 199.623L124.573 226.076C131.28 226.329 139.107 225.289 147.507 223.769L154.213 154.956L149.347 137.129ZM146.107 133.129H150.88C151.773 133.129 152.56 133.743 152.8 134.609L156.173 146.956L160.853 128.689C160.907 128.451 161.013 128.236 161.147 128.037L165.12 122.356L166.027 119.129C163.787 119.609 161.507 119.863 159.213 119.863C142.093 119.863 128.053 106.463 127.013 89.6094H91.4666C90.3733 89.6094 89.4666 88.7027 89.4666 87.6094C89.4666 86.5027 90.3733 85.6094 91.4666 85.6094H127.013C128.053 68.7427 142.093 55.3441 159.213 55.3441C171.013 55.3441 181.333 61.7161 186.96 71.1961H223.973C225.067 71.1961 225.973 72.0894 225.973 73.1961C225.973 74.3028 225.067 75.1961 223.973 75.1961H188.987C190.587 79.0108 191.467 83.2094 191.467 87.6094C191.467 94.0227 189.587 100.223 186.027 105.543C185.893 105.729 185.733 105.889 185.547 106.023L187.773 122.623L193.6 98.9294C193.853 97.8761 194.893 97.2227 195.947 97.4507L207.267 99.8228C207.867 99.9561 208.373 100.344 208.64 100.889L214.853 113.316L223.32 116.689V99.3961C223.32 98.6774 223.707 98.0107 224.347 97.6507L228.827 95.1694L234.053 55.0761C234.147 54.3294 234.653 53.7027 235.36 53.4507L242.867 50.7694L249.08 35.5161C249.387 34.7694 250.107 34.2761 250.92 34.2761H259.267C260.147 34.2761 260.933 34.8628 261.187 35.7161L265.347 50.0108C265.373 50.0628 265.387 50.1174 265.387 50.1694L273.213 88.7161C273.44 89.7961 272.733 90.8494 271.653 91.0761C270.587 91.2894 269.52 90.5961 269.293 89.5161L261.493 51.0494L257.76 38.2761H252.267L246.413 52.6507L262.613 210.716C265.4 210.769 268.28 210.836 271.333 210.956C272.44 210.983 273.293 211.916 273.253 213.023C273.213 214.129 272.293 215.009 271.187 214.943C258.4 214.489 248.133 214.596 238.933 215.276C235.067 218.943 229.547 219.263 223.96 219.289V231.343C253.187 229.209 270.56 234.249 271.293 234.477C272.347 234.784 272.96 235.903 272.64 236.956C272.387 237.823 271.587 238.383 270.72 238.383C270.533 238.383 270.347 238.356 270.16 238.303C269.973 238.249 252.56 233.223 223.96 235.356V253.129C232.88 253.129 241.52 254.276 248.56 257.371C249.573 257.811 250.04 258.996 249.587 260.009C249.147 261.023 247.973 261.477 246.96 261.037C221.96 250.037 173.147 265.836 172.653 265.996C172.453 266.076 172.24 266.103 172.027 266.103C171.187 266.103 170.413 265.569 170.133 264.731C169.787 263.676 170.36 262.543 171.413 262.196C172.653 261.796 190.813 255.916 210.827 253.849V236.757C203.24 237.743 194.693 238.876 186.067 241.663C128.813 260.183 66.5066 261.609 65.8799 261.623C64.7599 261.623 63.8667 260.743 63.8401 259.663C63.8267 258.556 64.7066 257.636 65.8 257.623C66.4266 257.609 128.16 256.196 184.84 237.863C193.96 234.916 202.853 233.757 210.707 232.743L210.827 232.716V218.343C206 218.757 201.827 219.091 197.8 219.371C185.68 220.223 173.387 222.704 161.507 225.117C148.853 227.676 136.773 230.117 126.6 230.117C124.4 230.117 122.28 230.009 120.267 229.757C108 228.223 101.693 225.169 93.7067 221.316C88.6667 218.876 82.9599 216.129 74.4932 213.064C73.5065 212.716 72.4799 212.371 71.4265 212.049V232.091C81.5465 233.704 92.5465 236.144 104.027 239.784C105.08 240.117 105.667 241.236 105.333 242.289C105.067 243.144 104.28 243.689 103.427 243.689C103.227 243.689 103.027 243.663 102.827 243.596C91.0532 239.863 79.8265 237.424 69.5599 235.836C69.5199 235.836 69.4665 235.849 69.4265 235.849C69.1599 235.849 68.9066 235.796 68.6666 235.704C37.4266 231.023 15.3467 234.409 15.0533 234.463C13.9733 234.636 12.9332 233.889 12.7599 232.796C12.5865 231.716 13.3332 230.689 14.4265 230.516C14.6799 230.463 32.7065 227.704 59.2265 230.477V222.929C48.3732 218.916 36.6533 220.757 36.5333 220.784C35.44 220.943 34.4132 220.223 34.2265 219.129C34.0532 218.037 34.7866 217.009 35.8799 216.836C36.3866 216.757 47.7999 214.943 59.2265 218.704V209.156C52.6799 207.996 45.9866 207.356 39.9333 207.009L40.1734 203.037C46.1601 203.371 52.7465 203.996 59.2265 205.091V201.676C52.0399 201.636 44.9867 200.983 42.2533 191.784L46.0132 190.636C47.9199 197.156 52.5732 197.649 59.2265 197.676V192.836C55.6665 192.743 51.9199 192.049 50.4932 186.969L54.3599 186.196C55.0799 188.424 56.6399 188.784 59.2265 188.849V161.757C59.2265 158.609 60.9467 155.943 63.32 154.956V149.516C63.32 148.424 64.2267 147.516 65.32 147.516C66.4267 147.516 67.32 148.424 67.32 149.516V154.956C69.7067 155.943 71.4265 158.609 71.4265 161.757V176.103C73.2932 176.023 74.28 175.704 74.72 174.091L78.6132 174.623C77.5599 179.249 74.3599 179.996 71.4265 180.103V183.144C78.2799 183.091 82.0265 182.303 82.0265 170.969V150.689C82.0265 149.276 81.2267 148.223 80.52 148.223C80.2533 148.223 79.9733 148.371 79.72 148.636L76.6666 146.076C77.1866 145.477 77.8133 145.009 78.52 144.689V139.049C78.52 137.943 79.4133 137.049 80.52 137.049C81.6267 137.049 82.52 137.943 82.52 139.049V144.689C84.5733 145.623 86.0265 147.956 86.0265 150.689V155.596H90.2132C91.1866 155.596 92.0267 156.289 92.1867 157.249L98.72 195.543C98.7333 195.609 98.7466 195.663 98.7466 195.731L100.6 220.156C106.267 222.716 111.707 224.636 120.573 225.757L122.08 199.343C122.08 199.316 122.093 199.289 122.093 199.263C122.093 199.196 124.467 180.731 124.467 180.731C124.52 180.371 124.667 180.023 124.893 179.743L131.773 171.183L135.813 151.996C135.933 151.451 136.267 150.983 136.747 150.689L141.907 147.583L144.133 134.796C144.307 133.836 145.133 133.129 146.107 133.129ZM131.053 89.6094C132.08 104.249 144.307 115.863 159.213 115.863C161.64 115.863 164.067 115.556 166.4 114.943C166.68 114.863 166.947 114.863 167.213 114.903L173.36 92.9028C173.613 92.0494 174.4 91.4507 175.293 91.4507H181.84C182.84 91.4507 183.693 92.1827 183.827 93.1827L184.707 99.7841C186.52 96.0107 187.467 91.8627 187.467 87.6094C187.467 83.1441 186.4 78.9428 184.56 75.1961H175.32C174.213 75.1961 173.32 74.3028 173.32 73.1961C173.32 72.0894 174.213 71.1961 175.32 71.1961H182.173C177.04 64.0361 168.667 59.3441 159.213 59.3441C144.307 59.3441 132.08 70.9561 131.053 85.6094H146.32C147.413 85.6094 148.32 86.5027 148.32 87.6094C148.32 88.7027 147.413 89.6094 146.32 89.6094H131.053ZM223.96 215.289C229.387 215.276 233.653 215.023 236.44 212.223C236.56 212.037 236.707 211.876 236.88 211.743C239.04 209.209 240.2 204.889 240.2 197.463V169.129C240.2 166.836 238.867 164.889 237.293 164.889C235.707 164.889 234.373 166.836 234.373 169.129V198.049C234.373 198.156 234.36 198.263 234.347 198.371C234.027 208.329 228.8 209.356 223.96 209.451V215.289ZM223.96 205.463C228.347 205.383 230.373 204.649 230.373 197.463V169.129C230.373 165.409 232.453 162.276 235.293 161.249V156.556C235.293 155.451 236.187 154.556 237.293 154.556C238.387 154.556 239.293 155.451 239.293 156.556V161.249C242.12 162.276 244.2 165.409 244.2 169.129V197.463C244.2 203.529 243.347 207.903 241.88 211.064C247.013 210.769 252.52 210.649 258.587 210.676L242.64 55.0894L237.867 56.7961L232.667 96.6894C232.573 97.3174 232.2 97.8628 231.653 98.1694L227.32 100.583V119.649C227.32 120.316 226.987 120.929 226.44 121.303C225.893 121.676 225.187 121.757 224.573 121.503L215.64 117.929L219.28 167.609C221.987 168.569 223.96 171.543 223.96 175.076V205.463ZM219.96 253.196V175.076C219.96 173.009 218.787 171.276 217.4 171.276C216.013 171.276 214.827 173.009 214.827 175.076V253.489C216.547 253.356 218.253 253.263 219.96 253.196ZM210.827 214.329V203.117C202.587 203.049 194.573 202.076 194.573 185.316V162.743C194.573 159.743 196.213 157.196 198.493 156.223V150.743C198.493 149.636 199.387 148.743 200.493 148.743C201.587 148.743 202.493 149.636 202.493 150.743V156.223C204.76 157.196 206.4 159.743 206.4 162.743V185.316C206.4 190.516 207.64 191.183 210.827 191.276V175.076C210.827 171.649 212.693 168.757 215.28 167.704L211.44 115.424L205.493 103.543L197.027 101.756L189.16 133.757L174.187 218.556C181.907 217.129 189.72 215.929 197.533 215.383C201.627 215.091 205.88 214.757 210.827 214.329ZM210.827 195.276C206.867 195.156 202.667 194.196 202.427 186.037C202.413 185.956 202.4 185.876 202.4 185.784V162.743C202.4 160.996 201.387 159.784 200.493 159.784C199.587 159.784 198.573 160.996 198.573 162.743V185.316C198.573 198.276 203.147 199.064 210.827 199.117V195.276ZM86.0265 170.969C86.0265 186.076 78.8532 187.076 71.4265 187.144V207.876C72.9599 208.329 74.4401 208.796 75.8401 209.303C84.5201 212.436 90.3201 215.236 95.4401 217.704C95.7734 217.876 96.1067 218.037 96.4401 218.196L94.7598 196.129L88.52 159.596H86.0265V170.969ZM67.4265 231.489V161.757C67.4265 159.863 66.32 158.556 65.32 158.556C64.3333 158.556 63.2265 159.863 63.2265 161.757V230.943C64.5999 231.103 66.0132 231.289 67.4265 231.489ZM180.093 95.4507H176.813L168.88 123.757C168.813 123.983 168.72 124.183 168.587 124.371L164.627 130.023L158.213 155.129L151.6 223.009C154.587 222.436 157.627 221.823 160.707 221.196C163.8 220.569 166.907 219.943 170.04 219.329C170.027 219.183 170.04 219.037 170.067 218.876L185.173 133.303L180.093 95.4507Z" fill="#373D4C"/>
<path d="M63.12 115.663L58.4265 126.529L53.9333 155.103C53.9066 155.223 53.8532 155.316 53.8132 155.424C53.8532 155.757 53.8799 156.076 53.8799 156.424V181.876C53.8799 183.796 54.0398 185.183 54.3598 186.196L50.4931 186.969C50.1598 185.784 49.96 184.383 49.9067 182.689C49.8934 182.596 49.8799 182.489 49.8799 182.397V156.424C49.8799 154.463 48.7733 152.823 47.4666 152.823C46.1599 152.823 45.0533 154.463 45.0533 156.424V181.876C45.0533 185.596 45.3865 188.451 46.0132 190.636L42.2533 191.784C41.48 189.209 41.0533 185.969 41.0533 181.876V156.424C41.0533 153.064 42.9066 150.196 45.4666 149.209V144.397C45.4666 143.289 46.3599 142.397 47.4666 142.397C48.5599 142.397 49.4666 143.289 49.4666 144.397V149.209C49.8933 149.371 50.32 149.596 50.7067 149.876L54.4533 126.076L46.8132 98.1028H38.1067L32.5598 114.076L37.1999 202.889C38.1733 202.929 39.16 202.983 40.1734 203.037L39.9333 207.009C27.1999 206.303 17.2133 206.903 17.0666 206.916C15.9466 206.996 15.0132 206.156 14.9465 205.049C14.8665 203.943 15.7065 202.996 16.8132 202.929C16.9332 202.916 23.68 202.503 33.1866 202.743L28.7734 118.276L18.3333 128.371C17.5333 129.144 16.2665 129.117 15.4931 128.316C14.7331 127.529 14.7599 126.263 15.5465 125.489L28.7999 112.676L34.7866 95.4361C35.0666 94.6361 35.8265 94.1028 36.6799 94.1028H48.3465C49.2399 94.1028 50.0399 94.7028 50.2799 95.5694L56.92 119.929L60.1067 112.556C60.48 111.676 61.44 111.196 62.3734 111.397L70.3465 113.156C71.1465 113.343 71.7598 113.996 71.8932 114.811L76.6666 146.076L79.72 148.636C79.3066 149.064 78.9999 149.811 78.9999 150.689V171.383C78.9999 171.463 78.9867 171.543 78.9734 171.623C78.9467 172.769 78.8132 173.757 78.6132 174.623L74.72 174.091C74.92 173.343 74.9999 172.343 74.9999 170.969V161.356C74.9733 161.263 74.92 161.196 74.9067 161.103L68.1465 116.769L63.12 115.663Z" fill="#373D4C"/>
</g>
</svg>
