<svg width="288" height="288" viewBox="0 0 288 288" fill="none" xmlns="http://www.w3.org/2000/svg">
<mask id="mask0_221:13932" style="mask-type:alpha" maskUnits="userSpaceOnUse" x="0" y="0" width="288" height="288">
<circle cx="144" cy="144" r="144" fill="#C4C4C4"/>
</mask>
<g mask="url(#mask0_221:13932)">
<path d="M2015.87 597.453H-720V-21.996H2015.87V597.453Z" fill="#FFFEFA"/>
<path d="M16.996 226.543V183.596H272.396V260.477H16.996V226.543Z" fill="#C5EDEA"/>
<path d="M272.947 183.596V145.316H250.049L237.185 154.059L226.089 155.615L219.397 163.623L207.169 165.409L194.263 182.948L272.947 183.596Z" fill="#E8C080"/>
<path d="M16.996 221.609V259.923H152.129L146.669 249.503L137.716 246.756L134.827 237.969L128.093 235.969L123.169 226.543L109.169 220.529L16.996 221.609Z" fill="#E8DECF"/>
<path d="M107.916 237.049V244.876H44.1027V237.049H47.956C48.0226 237.049 48.1027 237.037 48.1693 237.023C48.2493 237.037 48.316 237.049 48.3827 237.049H76.0093H101.996H103.623H107.916Z" fill="#57B9D4"/>
<path d="M76.0092 98.0894H92.1159V101.663H59.9026V98.0894H76.0092Z" fill="#C5EDEA"/>
<path d="M76.0093 64.4508L86.5694 76.6361H65.436L76.0093 64.4508Z" fill="#4D7591"/>
<path d="M90.1159 125.689L94.1026 163.623L61.3425 130.863L63.9959 105.663H70.1425C70.1692 105.703 70.1825 105.743 70.2092 105.784L90.1159 125.689Z" fill="#FFFEFA"/>
<path d="M100.436 223.823L101.396 233.049H73.1959C73.1426 232.969 73.1159 232.876 73.0359 232.811L53.5559 213.316C53.3159 213.076 53.0359 212.943 52.7292 212.849L56.6225 175.876L99.1559 218.409C99.3692 218.636 99.6359 218.769 99.9159 218.876L100.436 223.823Z" fill="#FFFEFA"/>
<path d="M88.0093 105.663L89.4493 119.371L75.756 105.663H88.0093Z" fill="#E36C48"/>
<path d="M94.7693 169.943L99.2893 212.889L59.436 173.049L57.9826 171.596C57.7426 171.343 57.436 171.209 57.116 171.117L60.8093 135.983L94.7693 169.943Z" fill="#E36C48"/>
<path d="M67.6226 233.049H50.6093L52.2226 217.649L67.6226 233.049Z" fill="#E36C48"/>
<path d="M272.396 217.609H237.943C236.836 217.609 235.943 218.503 235.943 219.609C235.943 220.716 236.836 221.609 237.943 221.609H272.396C273.503 221.609 274.396 220.716 274.396 219.609C274.396 218.503 273.503 217.609 272.396 217.609Z" fill="#373D4C"/>
<path d="M266.303 235.969H259.423C258.316 235.969 257.423 236.876 257.423 237.969C257.423 239.076 258.316 239.969 259.423 239.969H266.303C267.409 239.969 268.303 239.076 268.303 237.969C268.303 236.876 267.409 235.969 266.303 235.969Z" fill="#373D4C"/>
<path d="M253.169 203.769C253.169 204.876 254.063 205.769 255.169 205.769H259.423C260.516 205.769 261.423 204.876 261.423 203.769C261.423 202.663 260.516 201.769 259.423 201.769H255.169C254.063 201.769 253.169 202.663 253.169 203.769Z" fill="#57B9D4"/>
<path d="M257.289 191.196H242.089C240.983 191.196 240.089 192.089 240.089 193.196C240.089 194.303 240.983 195.196 242.089 195.196H257.289C258.396 195.196 259.289 194.303 259.289 193.196C259.289 192.089 258.396 191.196 257.289 191.196Z" fill="#FFFEFA"/>
<path d="M257.049 246.756H246.383C245.276 246.756 244.383 247.649 244.383 248.756C244.383 249.849 245.276 250.756 246.383 250.756H257.049C258.156 250.756 259.049 249.849 259.049 248.756C259.049 247.649 258.156 246.756 257.049 246.756Z" fill="#57B9D4"/>
<path d="M251.716 93.5294C253.383 93.5294 254.729 94.8894 254.729 96.5561C254.729 98.2227 253.383 99.5694 251.716 99.5694C250.049 99.5694 248.703 98.2227 248.703 96.5561C248.703 94.8894 250.049 93.5294 251.716 93.5294ZM251.716 103.569C255.583 103.569 258.729 100.423 258.729 96.5561C258.729 92.6894 255.583 89.5294 251.716 89.5294C247.849 89.5294 244.703 92.6894 244.703 96.5561C244.703 100.423 247.849 103.569 251.716 103.569Z" fill="#57B9D4"/>
<path d="M250.049 229.423C250.049 228.316 249.156 227.423 248.049 227.423H232.023C230.916 227.423 230.023 228.316 230.023 229.423C230.023 230.516 230.916 231.423 232.023 231.423H248.049C249.156 231.423 250.049 230.516 250.049 229.423Z" fill="#373D4C"/>
<path d="M194.263 203.769C194.263 204.876 195.156 205.769 196.263 205.769H246.383C247.489 205.769 248.383 204.876 248.383 203.769C248.383 202.663 247.489 201.769 246.383 201.769H196.263C195.156 201.769 194.263 202.663 194.263 203.769Z" fill="#373D4C"/>
<path d="M246.383 258.103H223.196C222.089 258.103 221.196 258.996 221.196 260.103C221.196 261.209 222.089 262.103 223.196 262.103H246.383C247.489 262.103 248.383 261.209 248.383 260.103C248.383 258.996 247.489 258.103 246.383 258.103Z" fill="#373D4C"/>
<path d="M228.089 250.756H233.636C234.743 250.756 235.636 249.849 235.636 248.756C235.636 247.649 234.743 246.756 233.636 246.756H228.089C226.983 246.756 226.089 247.649 226.089 248.756C226.089 249.849 226.983 250.756 228.089 250.756Z" fill="#373D4C"/>
<path d="M189.636 238.956C189.636 240.063 190.543 240.956 191.636 240.956H232.023C233.116 240.956 234.023 240.063 234.023 238.956C234.023 237.849 233.116 236.956 232.023 236.956H191.636C190.543 236.956 189.636 237.849 189.636 238.956Z" fill="#57B9D4"/>
<path d="M224.089 221.609C225.183 221.609 226.089 220.716 226.089 219.609C226.089 218.503 225.183 217.609 224.089 217.609H221.329C220.223 217.609 219.329 218.503 219.329 219.609C219.329 220.716 220.223 221.609 221.329 221.609H224.089Z" fill="#57B9D4"/>
<path d="M219.636 195.196C220.743 195.196 221.636 194.303 221.636 193.196C221.636 192.089 220.743 191.196 219.636 191.196H206.023C204.916 191.196 204.023 192.089 204.023 193.196C204.023 194.303 204.916 195.196 206.023 195.196H219.636Z" fill="#57B9D4"/>
<path d="M211.836 258.103H179.049C177.943 258.103 177.049 258.996 177.049 260.103C177.049 261.209 177.943 262.103 179.049 262.103H211.836C212.929 262.103 213.836 261.209 213.836 260.103C213.836 258.996 212.929 258.103 211.836 258.103Z" fill="#373D4C"/>
<path d="M156.809 219.609C156.809 220.716 157.703 221.609 158.809 221.609H209.143C210.249 221.609 211.143 220.716 211.143 219.609C211.143 218.503 210.249 217.609 209.143 217.609H158.809C157.703 217.609 156.809 218.503 156.809 219.609Z" fill="#373D4C"/>
<path d="M208.089 230.543C209.183 230.543 210.089 229.649 210.089 228.543C210.089 227.436 209.183 226.543 208.089 226.543H197.863C196.756 226.543 195.863 227.436 195.863 228.543C195.863 229.649 196.756 230.543 197.863 230.543H208.089Z" fill="#373D4C"/>
<path d="M272.396 181.409H195.983L206.903 168.623L212.023 175.796C212.423 176.343 213.036 176.636 213.663 176.636C214.063 176.636 214.463 176.516 214.823 176.263C215.716 175.623 215.929 174.383 215.289 173.476L210.609 166.929L220.316 165.623C220.836 165.556 221.303 165.289 221.623 164.876L226.156 159.129L236.103 173.063C236.489 173.609 237.103 173.903 237.729 173.903C238.129 173.903 238.529 173.783 238.889 173.529C239.783 172.889 239.996 171.636 239.356 170.743L229.676 157.183L236.289 156.289C236.583 156.249 236.876 156.143 237.129 155.969L247.543 149.049L256.223 161.209C256.623 161.756 257.236 162.049 257.849 162.049C258.263 162.049 258.663 161.929 259.009 161.676C259.916 161.036 260.129 159.783 259.476 158.889L251.929 148.303H272.396C273.503 148.303 274.396 147.409 274.396 146.303C274.396 145.196 273.503 144.303 272.396 144.303H248.049C247.849 144.316 247.689 144.343 247.516 144.383C247.476 144.396 247.449 144.409 247.409 144.423C247.263 144.463 247.116 144.529 246.983 144.623C246.876 144.689 235.289 152.383 235.289 152.383L226.116 153.623C225.596 153.703 225.129 153.969 224.809 154.369L218.983 161.769L206.783 163.409C206.529 163.449 206.329 163.516 206.143 163.609C206.103 163.636 206.076 163.649 206.049 163.663C205.996 163.703 205.943 163.716 205.889 163.756C205.756 163.849 205.649 163.956 205.556 164.063C205.529 164.089 190.116 182.116 190.116 182.116C189.609 182.703 189.503 183.543 189.823 184.249C190.156 184.956 190.863 185.409 191.636 185.409H272.396C273.503 185.409 274.396 184.516 274.396 183.409C274.396 182.316 273.503 181.409 272.396 181.409Z" fill="#373D4C"/>
<path d="M200.743 107.409C200.823 107.396 208.129 106.409 209.663 111.196C209.943 112.049 210.729 112.583 211.569 112.583C211.663 112.583 211.743 112.556 211.836 112.543C211.916 112.556 212.009 112.583 212.089 112.583C212.929 112.583 213.716 112.049 213.996 111.196C215.516 106.449 222.809 107.396 222.916 107.409C224.009 107.556 225.023 106.796 225.183 105.703C225.329 104.609 224.569 103.596 223.476 103.449C223.103 103.396 215.649 102.409 211.836 106.984C208.009 102.409 200.556 103.396 200.183 103.449C199.089 103.596 198.329 104.609 198.489 105.703C198.636 106.796 199.663 107.556 200.743 107.409Z" fill="#373D4C"/>
<path d="M178.796 240.956H183.969C185.076 240.956 185.969 240.063 185.969 238.956C185.969 237.849 185.076 236.956 183.969 236.956H178.796C177.689 236.956 176.796 237.849 176.796 238.956C176.796 240.063 177.689 240.956 178.796 240.956Z" fill="#FFFEFA"/>
<path d="M179.049 196.209H184.863C185.969 196.209 186.863 195.316 186.863 194.209C186.863 193.103 185.969 192.209 184.863 192.209H179.049C177.943 192.209 177.049 193.103 177.049 194.209C177.049 195.316 177.943 196.209 179.049 196.209Z" fill="#57B9D4"/>
<path d="M175.449 181.596H152.116C151.023 181.596 150.116 182.489 150.116 183.596C150.116 184.703 151.023 185.596 152.116 185.596H175.449C176.556 185.596 177.449 184.703 177.449 183.596C177.449 182.489 176.556 181.596 175.449 181.596Z" fill="#373D4C"/>
<path d="M175.449 202.503H170.529C169.423 202.503 168.529 203.396 168.529 204.503C168.529 205.596 169.423 206.503 170.529 206.503H175.449C176.556 206.503 177.449 205.596 177.449 204.503C177.449 203.396 176.556 202.503 175.449 202.503Z" fill="#57B9D4"/>
<path d="M169.156 250.303H163.596C162.489 250.303 161.596 251.196 161.596 252.303C161.596 253.409 162.489 254.303 163.596 254.303H169.156C170.263 254.303 171.156 253.409 171.156 252.303C171.156 251.196 170.263 250.303 169.156 250.303Z" fill="#373D4C"/>
<path d="M167.396 123.489C166.303 123.649 165.543 124.663 165.703 125.756C165.863 126.849 166.876 127.596 167.969 127.449C168.036 127.436 175.356 126.463 176.889 131.249C177.156 132.103 177.943 132.636 178.796 132.636C178.876 132.636 178.969 132.609 179.049 132.596C179.129 132.609 179.223 132.636 179.303 132.636C180.156 132.636 180.943 132.103 181.209 131.249C182.729 126.503 190.023 127.436 190.143 127.449C191.236 127.609 192.236 126.849 192.396 125.756C192.556 124.663 191.796 123.649 190.703 123.489C190.329 123.449 182.863 122.463 179.049 127.036C175.236 122.463 167.769 123.449 167.396 123.489Z" fill="#373D4C"/>
<path d="M152.116 240.956H165.489C166.596 240.956 167.489 240.063 167.489 238.956C167.489 237.849 166.596 236.956 165.489 236.956H152.116C151.023 236.956 150.116 237.849 150.116 238.956C150.116 240.063 151.023 240.956 152.116 240.956Z" fill="#57B9D4"/>
<path d="M164.823 204.503C164.823 203.396 163.929 202.503 162.823 202.503H147.289C146.183 202.503 145.289 203.396 145.289 204.503C145.289 205.596 146.183 206.503 147.289 206.503H162.823C163.929 206.503 164.823 205.596 164.823 204.503Z" fill="#FFFEFA"/>
<path d="M155.423 194.209C155.423 193.103 154.516 192.209 153.423 192.209H128.303C127.196 192.209 126.303 193.103 126.303 194.209C126.303 195.316 127.196 196.209 128.303 196.209H153.423C154.516 196.209 155.423 195.316 155.423 194.209Z" fill="#57B9D4"/>
<path d="M149.996 90.8094C150.156 91.9027 151.169 92.6507 152.263 92.5027C152.329 92.4894 159.649 91.5027 161.183 96.3027C161.449 97.1427 162.236 97.6894 163.076 97.6894C163.169 97.6894 163.249 97.6627 163.343 97.6507C163.423 97.6627 163.516 97.6894 163.596 97.6894C164.449 97.6894 165.236 97.1427 165.503 96.3027C167.023 91.5561 174.316 92.4894 174.423 92.5027C175.529 92.6507 176.529 91.9027 176.689 90.8094C176.849 89.716 176.089 88.7027 174.996 88.5427C174.623 88.4894 167.156 87.516 163.343 92.076C159.529 87.516 152.063 88.4894 151.689 88.5427C150.596 88.7027 149.836 89.716 149.996 90.8094Z" fill="#373D4C"/>
<path d="M137.436 224.529H147.289C148.396 224.529 149.289 223.636 149.289 222.529C149.289 221.423 148.396 220.529 147.289 220.529H137.436C136.329 220.529 135.436 221.423 135.436 222.529C135.436 223.636 136.329 224.529 137.436 224.529Z" fill="#373D4C"/>
<path d="M147.289 58.9294C148.543 58.9294 149.556 59.9428 149.556 61.1961C149.556 62.4361 148.543 63.4628 147.289 63.4628C146.036 63.4628 145.023 62.4361 145.023 61.1961C145.023 59.9428 146.036 58.9294 147.289 58.9294ZM147.289 67.4628C150.743 67.4628 153.556 64.6508 153.556 61.1961C153.556 57.7428 150.743 54.9294 147.289 54.9294C143.836 54.9294 141.023 57.7428 141.023 61.1961C141.023 64.6508 143.836 67.4628 147.289 67.4628Z" fill="#57B9D4"/>
<path d="M116.823 183.596C116.823 184.703 117.729 185.596 118.823 185.596H135.716C136.823 185.596 137.716 184.703 137.716 183.596C137.716 182.489 136.823 181.596 135.716 181.596H118.823C117.729 181.596 116.823 182.489 116.823 183.596Z" fill="#373D4C"/>
<path d="M118.823 211.703C117.729 211.703 116.823 212.596 116.823 213.703C116.823 214.809 117.729 215.703 118.823 215.703H130.969C132.076 215.703 132.969 214.809 132.969 213.703C132.969 212.596 132.076 211.703 130.969 211.703H118.823Z" fill="#57B9D4"/>
<path d="M123.089 135.796C124.343 135.796 125.356 136.823 125.356 138.063C125.356 139.316 124.343 140.329 123.089 140.329C121.849 140.329 120.823 139.316 120.823 138.063C120.823 136.823 121.849 135.796 123.089 135.796ZM123.089 144.329C126.543 144.329 129.356 141.516 129.356 138.063C129.356 134.609 126.543 131.796 123.089 131.796C119.636 131.796 116.823 134.609 116.823 138.063C116.823 141.516 119.636 144.329 123.089 144.329Z" fill="#57B9D4"/>
<path d="M104.409 94.8227C103.449 94.2627 102.236 94.5961 101.676 95.5561C101.129 96.5161 101.449 97.7294 102.409 98.2894L113.076 104.449C113.396 104.623 113.743 104.716 114.076 104.716C114.769 104.716 115.436 104.356 115.809 103.716C116.369 102.756 116.036 101.529 115.076 100.984L104.409 94.8227Z" fill="#E8C080"/>
<path d="M102.583 91.5827H114.903C116.009 91.5827 116.903 90.6894 116.903 89.5827C116.903 88.476 116.009 87.5827 114.903 87.5827H102.583C101.476 87.5827 100.583 88.476 100.583 89.5827C100.583 90.6894 101.476 91.5827 102.583 91.5827Z" fill="#E8C080"/>
<path d="M103.409 84.6227C103.756 84.6227 104.089 84.5294 104.409 84.3441L115.076 78.1827C116.036 77.6361 116.369 76.4094 115.809 75.4627C115.263 74.5027 114.036 74.1694 113.076 74.7294L102.409 80.8894C101.449 81.4361 101.129 82.6627 101.676 83.6227C102.049 84.2627 102.716 84.6227 103.409 84.6227Z" fill="#E8C080"/>
<path d="M101.396 233.049H73.196C73.1427 232.969 73.116 232.876 73.036 232.809L53.5559 213.316C53.3159 213.076 53.036 212.943 52.7293 212.849L56.6226 175.876L99.1559 218.409C99.3693 218.636 99.636 218.769 99.916 218.876L100.436 223.823L101.396 233.049ZM107.916 237.049V244.876H44.1026V237.049H47.9559C48.0226 237.049 48.1026 237.036 48.1693 237.023C48.2493 237.036 48.316 237.049 48.3826 237.049H76.0093H101.996H103.623H107.916ZM52.2226 217.649L67.6226 233.049H50.6093L52.2226 217.649ZM60.8093 135.983L94.7693 169.943L99.2893 212.889L59.436 173.049L57.9826 171.596C57.7426 171.343 57.436 171.209 57.116 171.116L60.8093 135.983ZM59.9026 101.663V98.0894H92.116V101.663H89.8093H76.0093H62.196H59.9026ZM63.0626 80.6361H69.0226V94.0894H63.0626V80.6361ZM78.9826 80.6361V94.0894H73.0226V80.6361H76.0093H78.9826ZM88.9559 80.6361V94.0894H82.9826V80.6361H88.9559ZM76.0093 64.4494L86.5693 76.6361H65.436L76.0093 64.4494ZM75.7559 105.663H76.0093H88.0093L89.4493 119.369L75.7559 105.663ZM94.1026 163.623L61.3426 130.863L63.996 105.663H70.1426C70.1693 105.703 70.1826 105.743 70.2093 105.783L90.116 125.689L94.1026 163.623ZM154.049 259.583C154.023 259.529 154.009 259.463 153.996 259.409C153.969 259.343 153.929 259.276 153.903 259.209C153.876 259.169 153.876 259.143 153.849 259.103L148.249 249.329C148.049 248.969 147.743 248.689 147.383 248.516L139.076 244.529L136.223 237.236C136.009 236.703 135.569 236.289 135.036 236.089L129.063 233.943L124.943 225.183C124.716 224.703 124.303 224.329 123.796 224.156L110.569 219.516C110.356 219.449 110.143 219.409 109.916 219.409H103.996L102.636 206.503H122.823C123.929 206.503 124.823 205.596 124.823 204.503C124.823 203.396 123.929 202.503 122.823 202.503H102.209L101.556 196.209H108.743C109.849 196.209 110.743 195.316 110.743 194.209C110.743 193.103 109.849 192.209 108.743 192.209H101.129L100.423 185.396C100.463 185.409 100.516 185.409 100.569 185.409H103.623C104.729 185.409 105.623 184.516 105.623 183.409C105.623 182.316 104.729 181.409 103.623 181.409H100.569C100.369 181.409 100.183 181.449 100.009 181.503L92.036 105.663H94.116C95.2093 105.663 96.116 104.769 96.116 103.663V96.0894C96.116 94.9841 95.2093 94.0894 94.116 94.0894H92.9559V78.6361C92.9559 78.5694 92.9293 78.5028 92.9293 78.4361C92.9293 78.3961 92.9293 78.3561 92.916 78.3174C92.8893 78.1427 92.8493 77.9841 92.7826 77.8361C92.7693 77.8094 92.7559 77.7961 92.7426 77.7694C92.6759 77.6361 92.596 77.5028 92.5026 77.3961C92.4893 77.3694 92.476 77.3561 92.4627 77.3294L78.0093 60.6507V43.7427C78.0093 42.6361 77.1159 41.7427 76.0093 41.7427C74.9026 41.7427 74.0093 42.6361 74.0093 43.7427V60.6507L59.5559 77.3294C59.5293 77.3561 59.5293 77.3694 59.516 77.3961C59.4226 77.5028 59.3426 77.6361 59.2759 77.7694C59.2626 77.7961 59.2493 77.8094 59.236 77.8361C59.1693 77.9841 59.1293 78.1427 59.0893 78.3174C59.0893 78.3561 59.0893 78.3961 59.0893 78.4361C59.0759 78.5028 59.0626 78.5694 59.0626 78.6361V94.0894H57.9026C56.796 94.0894 55.9026 94.9841 55.9026 96.0894V103.663C55.9026 104.769 56.796 105.663 57.9026 105.663H59.9693L53.1426 170.703L51.996 181.596H35.7026C34.596 181.596 33.7026 182.489 33.7026 183.596C33.7026 184.703 34.596 185.596 35.7026 185.596H51.5693L50.9826 191.196C50.9693 191.196 43.2626 191.196 43.2626 191.196C42.156 191.196 41.2626 192.089 41.2626 193.196C41.2626 194.303 42.156 195.196 43.2626 195.196H50.5693L48.9826 210.303H35.7026C34.596 210.303 33.7026 211.196 33.7026 212.303C33.7026 213.409 34.596 214.303 35.7026 214.303H48.5559L48.0226 219.409H17.4626C16.356 219.409 15.4626 220.303 15.4626 221.409C15.4626 222.516 16.356 223.409 17.4626 223.409H47.596L46.5826 233.049H42.1026C40.996 233.049 40.1026 233.943 40.1026 235.049V246.876C40.1026 247.983 40.996 248.876 42.1026 248.876H109.916C111.009 248.876 111.916 247.983 111.916 246.876V235.049C111.916 233.943 111.009 233.049 109.916 233.049H105.423L104.409 223.409H109.569L121.676 227.649L125.796 236.396C126.023 236.876 126.423 237.236 126.929 237.423L132.823 239.543L135.636 246.716C135.823 247.196 136.169 247.569 136.623 247.796L145.089 251.849L148.663 258.103H17.4626C16.356 258.103 15.4626 258.996 15.4626 260.103C15.4626 261.209 16.356 262.103 17.4626 262.103H152.116C152.289 262.103 152.436 262.076 152.583 262.049C152.623 262.036 152.663 262.023 152.703 262.009C152.823 261.969 152.943 261.929 153.049 261.863C153.063 261.849 153.089 261.849 153.116 261.836C153.129 261.823 153.156 261.809 153.169 261.796C153.236 261.756 153.289 261.716 153.356 261.676C153.396 261.636 153.449 261.596 153.489 261.556C153.529 261.516 153.583 261.463 153.623 261.409C153.663 261.369 153.703 261.316 153.743 261.263C153.783 261.209 153.809 261.156 153.849 261.103C153.876 261.049 153.903 260.996 153.929 260.929C153.969 260.876 153.983 260.809 154.009 260.743C154.023 260.689 154.049 260.636 154.063 260.569C154.076 260.503 154.089 260.449 154.089 260.383C154.103 260.316 154.116 260.249 154.116 260.169C154.116 260.156 154.116 260.129 154.116 260.103C154.116 260.063 154.116 260.023 154.116 259.983C154.103 259.916 154.103 259.849 154.089 259.783C154.076 259.716 154.063 259.649 154.049 259.583Z" fill="#373D4C"/>
<path d="M47.596 94.8227L36.9293 100.984C35.9693 101.529 35.6493 102.756 36.196 103.716C36.5693 104.356 37.236 104.716 37.9293 104.716C38.276 104.716 38.6227 104.623 38.9293 104.449L49.596 98.2894C50.556 97.7294 50.8893 96.5161 50.3293 95.5561C49.7827 94.5961 48.556 94.2627 47.596 94.8227Z" fill="#E8C080"/>
<path d="M37.1027 91.5827H49.4226C50.5293 91.5827 51.4226 90.6894 51.4226 89.5827C51.4226 88.476 50.5293 87.5827 49.4226 87.5827H37.1027C35.996 87.5827 35.1027 88.476 35.1027 89.5827C35.1027 90.6894 35.996 91.5827 37.1027 91.5827Z" fill="#E8C080"/>
<path d="M36.9293 78.1827L47.596 84.3441C47.916 84.5294 48.2627 84.6227 48.596 84.6227C49.2893 84.6227 49.956 84.2627 50.3293 83.6227C50.8893 82.6627 50.556 81.4361 49.596 80.8894L38.9293 74.7294C37.9693 74.1694 36.756 74.5027 36.196 75.4627C35.6493 76.4094 35.9693 77.6361 36.9293 78.1827Z" fill="#E8C080"/>
<path d="M31.196 195.196H34.196C35.3027 195.196 36.196 194.303 36.196 193.196C36.196 192.089 35.3027 191.196 34.196 191.196H31.196C30.0894 191.196 29.196 192.089 29.196 193.196C29.196 194.303 30.0894 195.196 31.196 195.196Z" fill="#57B9D4"/>
<path d="M17.4626 205.769H29.0493C30.156 205.769 31.0493 204.876 31.0493 203.769C31.0493 202.663 30.156 201.769 29.0493 201.769H17.4626C16.356 201.769 15.4626 202.663 15.4626 203.769C15.4626 204.876 16.356 205.769 17.4626 205.769Z" fill="#57B9D4"/>
<path d="M17.4626 185.596H21.8626C22.9693 185.596 23.8626 184.703 23.8626 183.596C23.8626 182.489 22.9693 181.596 21.8626 181.596H17.4626C16.356 181.596 15.4626 182.489 15.4626 183.596C15.4626 184.703 16.356 185.596 17.4626 185.596Z" fill="#373D4C"/>
<path d="M23.2626 120.383C24.5026 120.383 25.516 121.396 25.516 122.636C25.516 123.889 24.5026 124.903 23.2626 124.903C22.0093 124.903 20.996 123.889 20.996 122.636C20.996 121.396 22.0093 120.383 23.2626 120.383ZM23.2626 128.903C26.716 128.903 29.516 126.089 29.516 122.636C29.516 119.183 26.716 116.383 23.2626 116.383C19.8093 116.383 16.996 119.183 16.996 122.636C16.996 126.089 19.8093 128.903 23.2626 128.903Z" fill="#57B9D4"/>
</g>
</svg>
