<svg width="288" height="288" viewBox="0 0 288 288" fill="none" xmlns="http://www.w3.org/2000/svg">
<mask id="mask0_221:13937" style="mask-type:alpha" maskUnits="userSpaceOnUse" x="0" y="0" width="288" height="288">
<circle cx="144" cy="144" r="144" fill="#C4C4C4"/>
</mask>
<g mask="url(#mask0_221:13937)">
<path d="M674.866 597.453H-2061V-21.996H674.866V597.453Z" fill="#FFFEFA"/>
<path d="M84.2132 179.436V188.263H54.6533V179.436H84.2132Z" fill="#E8DECF"/>
<path d="M84.2132 154.863V163.689H54.6533V154.863H84.2132Z" fill="#E8DECF"/>
<path d="M84.2132 130.289V139.129H54.6533V130.289H84.2132Z" fill="#E8DECF"/>
<path d="M84.2132 105.716V114.556H54.6533V105.716H84.2132Z" fill="#E8DECF"/>
<path d="M84.2132 81.1441V89.9841H54.6533V81.1441H84.2132Z" fill="#E8DECF"/>
<path d="M94.8265 60.4894V63.7694H63.5999V60.4894H94.8265Z" fill="#E8DECF"/>
<path d="M149.72 87.0627V92.1561H124.96V87.0627H128.147H146.533H149.72Z" fill="#E8DECF"/>
<path d="M218.44 80.4508C218.44 79.3441 217.547 78.4508 216.44 78.4508H210.773C209.667 78.4508 208.773 79.3441 208.773 80.4508C208.773 81.5561 209.667 82.4508 210.773 82.4508H216.44C217.547 82.4508 218.44 81.5561 218.44 80.4508ZM237.053 80.4508C237.053 79.3441 236.16 78.4508 235.053 78.4508H225.733C224.627 78.4508 223.733 79.3441 223.733 80.4508C223.733 81.5561 224.627 82.4508 225.733 82.4508H235.053C236.16 82.4508 237.053 81.5561 237.053 80.4508ZM247.373 74.2761V88.6508H204.08V74.2761H247.373Z" fill="#E36C48"/>
<path d="M144.533 77.9561V83.0627H130.146V77.9561H144.533Z" fill="#E36C48"/>
<path d="M90.6399 56.4894H67.7732C68.8265 53.4361 71.6932 48.3828 79.2132 48.3828C86.7198 48.3828 89.5865 53.4361 90.6399 56.4894Z" fill="#E8C080"/>
<path d="M221.56 177.223C221.56 178.329 220.653 179.223 219.56 179.223H210.773C209.667 179.223 208.773 178.329 208.773 177.223V161.596C208.773 160.503 209.667 159.596 210.773 159.596H219.56C220.653 159.596 221.56 160.503 221.56 161.596V177.223ZM221.56 200.436C221.56 201.543 220.653 202.436 219.56 202.436H210.773C209.667 202.436 208.773 201.543 208.773 200.436V184.809C208.773 183.703 209.667 182.809 210.773 182.809H219.56C220.653 182.809 221.56 183.703 221.56 184.809V200.436ZM204.08 177.223C204.08 178.329 203.186 179.223 202.08 179.223H193.293C192.186 179.223 191.293 178.329 191.293 177.223V161.596C191.293 160.503 192.186 159.596 193.293 159.596H202.08C203.186 159.596 204.08 160.503 204.08 161.596V177.223ZM204.08 200.436C204.08 201.543 203.186 202.436 202.08 202.436H193.293C192.186 202.436 191.293 201.543 191.293 200.436V184.809C191.293 183.703 192.186 182.809 193.293 182.809H202.08C203.186 182.809 204.08 183.703 204.08 184.809V200.436ZM184.92 177.223C184.92 178.329 184.027 179.223 182.92 179.223H174.133C173.04 179.223 172.133 178.329 172.133 177.223V161.596C172.133 160.503 173.04 159.596 174.133 159.596H182.92C184.027 159.596 184.92 160.503 184.92 161.596V177.223ZM184.92 200.436C184.92 201.543 184.027 202.436 182.92 202.436H174.133C173.04 202.436 172.133 201.543 172.133 200.436V184.809C172.133 183.703 173.04 182.809 174.133 182.809H182.92C184.027 182.809 184.92 183.703 184.92 184.809V200.436ZM167.453 177.223C167.453 178.329 166.547 179.223 165.453 179.223H156.667C155.56 179.223 154.667 178.329 154.667 177.223V161.596C154.667 160.503 155.56 159.596 156.667 159.596H165.453C166.547 159.596 167.453 160.503 167.453 161.596V177.223ZM167.453 200.436C167.453 201.543 166.547 202.436 165.453 202.436H156.667C155.56 202.436 154.667 201.543 154.667 200.436V184.809C154.667 183.703 155.56 182.809 156.667 182.809H165.453C166.547 182.809 167.453 183.703 167.453 184.809V200.436ZM219.56 156.596H148.853V206.023H227.36V156.596H219.56Z" fill="#E8DECF"/>
<path d="M217.56 186.811V198.436H212.773V186.811H217.56Z" fill="#57B9D4"/>
<path d="M232.187 139.023V128.383C232.187 127.276 231.293 126.383 230.187 126.383H219.56C218.453 126.383 217.56 127.276 217.56 128.383V139.023C217.56 140.129 218.453 141.023 219.56 141.023H230.187C231.293 141.023 232.187 140.129 232.187 139.023ZM253.387 139.023V128.383C253.387 127.276 252.493 126.383 251.387 126.383H240.746C239.64 126.383 238.746 127.276 238.746 128.383V139.023C238.746 140.129 239.64 141.023 240.746 141.023H251.387C252.493 141.023 253.387 140.129 253.387 139.023ZM253.387 159.689V149.049C253.387 147.943 252.493 147.049 251.387 147.049H240.746C239.64 147.049 238.746 147.943 238.746 149.049V159.689C238.746 160.796 239.64 161.689 240.746 161.689H251.387C252.493 161.689 253.387 160.796 253.387 159.689ZM275.933 171.796V241.049H260.187V211.303C266.507 210.371 271.373 204.916 271.373 198.343C271.373 195.424 270.44 192.649 268.653 190.343C268.627 190.316 268.6 190.289 268.587 190.263C267.533 189.103 266.973 187.649 266.973 186.144C266.973 185.316 267.133 184.529 267.453 183.784C267.467 183.743 267.466 183.704 267.48 183.676C267.986 182.436 268.24 181.169 268.24 179.863C268.24 174.371 263.826 169.903 258.36 169.811C258.333 169.811 258.307 169.796 258.267 169.796C258.147 169.796 258.12 169.811 258.093 169.811C252.626 169.903 248.213 174.371 248.213 179.863C248.213 181.169 248.453 182.436 248.946 183.636C248.986 183.716 248.987 183.743 249 183.784C249.32 184.529 249.48 185.316 249.48 186.144C249.48 187.649 248.92 189.103 247.893 190.223C247.853 190.289 247.827 190.316 247.8 190.343C246.013 192.649 245.08 195.424 245.08 198.343C245.08 202.023 246.613 205.356 249.067 207.731L247.04 207.876C246.667 207.451 246.12 207.196 245.533 207.196H240.293H235.053C234.28 207.196 233.56 207.649 233.24 208.356C233.12 208.623 233.053 208.903 233.053 209.196H231.36V154.596C231.36 153.489 230.466 152.596 229.36 152.596H199.693V119.849H275.933V169.409V171.796Z" fill="#E8C080"/>
<path d="M265.48 192.784C266.72 194.397 267.373 196.316 267.373 198.343C267.373 202.716 264.293 206.371 260.187 207.249V181.863C260.187 180.757 259.293 179.863 258.187 179.863C257.08 179.863 256.187 180.757 256.187 181.863V207.223C252.12 206.303 249.08 202.676 249.08 198.343C249.08 196.316 249.733 194.397 250.96 192.784C252.586 190.929 253.48 188.596 253.48 186.144C253.48 184.784 253.213 183.463 252.693 182.223C252.666 182.169 252.667 182.156 252.653 182.129C252.36 181.409 252.213 180.649 252.213 179.863C252.213 176.529 254.906 173.836 258.226 173.811C261.546 173.836 264.24 176.529 264.24 179.863C264.24 180.649 264.093 181.409 263.8 182.129C263.787 182.156 263.787 182.169 263.787 182.196C263.24 183.463 262.973 184.784 262.973 186.144C262.973 188.583 263.867 190.929 265.467 192.769C265.48 192.769 265.48 192.784 265.48 192.784Z" fill="#A0D7A0"/>
<path d="M256.187 211.289V241.049H244.92V233.543C244.92 232.436 244.013 231.543 242.92 231.543H242.293V216.076L247.053 210.489C247.56 209.889 247.68 209.064 247.347 208.356C247.267 208.183 247.16 208.023 247.04 207.876L249.067 207.731C250.973 209.583 253.44 210.863 256.187 211.289Z" fill="#E8C080"/>
<path d="M238.293 216.076V231.543H237.68C236.573 231.543 235.68 232.436 235.68 233.543V241.049H231.36V216.569V209.196H233.053C233.053 209.649 233.213 210.117 233.533 210.489L238.293 216.076Z" fill="#E8C080"/>
<path d="M217.56 163.596V175.223H212.773V163.596H217.56Z" fill="#57B9D4"/>
<path d="M200.08 186.811V198.436H195.293V186.811H200.08Z" fill="#57B9D4"/>
<path d="M200.08 163.596V175.223H195.293V163.596H200.08Z" fill="#57B9D4"/>
<path d="M196.6 222.436V241.049H189.68V222.436H196.6Z" fill="#C5EDEA"/>
<path d="M185.68 222.436V241.049H178.747V222.436H185.68Z" fill="#C5EDEA"/>
<path d="M180.92 186.811V198.436H176.133V186.811H180.92Z" fill="#57B9D4"/>
<path d="M180.92 163.596V175.223H176.133V163.596H180.92Z" fill="#57B9D4"/>
<path d="M163.453 186.811V198.436H158.667V186.811H163.453Z" fill="#57B9D4"/>
<path d="M163.453 163.596V175.223H158.667V163.596H163.453Z" fill="#57B9D4"/>
<path d="M150.587 107.089H124.107C123 107.089 122.106 106.183 122.106 105.089C122.106 103.984 123 103.089 124.107 103.089H150.587C151.693 103.089 152.587 103.984 152.587 105.089C152.587 106.183 151.693 107.089 150.587 107.089ZM139.76 114.183C139.76 113.076 140.653 112.183 141.76 112.183H150.587C151.693 112.183 152.587 113.076 152.587 114.183C152.587 115.289 151.693 116.183 150.587 116.183H141.76C140.653 116.183 139.76 115.289 139.76 114.183ZM150.587 125.289H135.026C133.92 125.289 133.026 124.396 133.026 123.289C133.026 122.183 133.92 121.289 135.026 121.289H150.587C151.693 121.289 152.587 122.183 152.587 123.289C152.587 124.396 151.693 125.289 150.587 125.289ZM150.587 134.383H124.107C123 134.383 122.106 133.489 122.106 132.383C122.106 131.289 123 130.383 124.107 130.383H150.587C151.693 130.383 152.587 131.289 152.587 132.383C152.587 133.489 151.693 134.383 150.587 134.383ZM150.587 143.489H141.76C140.653 143.489 139.76 142.596 139.76 141.489C139.76 140.383 140.653 139.489 141.76 139.489H150.587C151.693 139.489 152.587 140.383 152.587 141.489C152.587 142.596 151.693 143.489 150.587 143.489ZM150.587 152.583H135.026C133.92 152.583 133.026 151.689 133.026 150.583C133.026 149.489 133.92 148.583 135.026 148.583H150.587C151.693 148.583 152.587 149.489 152.587 150.583C152.587 151.689 151.693 152.583 150.587 152.583ZM122.106 141.489C122.106 140.383 123 139.489 124.107 139.489H134.653C135.76 139.489 136.653 140.383 136.653 141.489C136.653 142.596 135.76 143.489 134.653 143.489H124.107C123 143.489 122.106 142.596 122.106 141.489ZM128.146 152.583H124.107C123 152.583 122.106 151.689 122.106 150.583C122.106 149.489 123 148.583 124.107 148.583H128.146C129.253 148.583 130.146 149.489 130.146 150.583C130.146 151.689 129.253 152.583 128.146 152.583ZM122.106 114.183C122.106 113.076 123 112.183 124.107 112.183H134.653C135.76 112.183 136.653 113.076 136.653 114.183C136.653 115.289 135.76 116.183 134.653 116.183H124.107C123 116.183 122.106 115.289 122.106 114.183ZM124.107 121.289H128.146C129.253 121.289 130.146 122.183 130.146 123.289C130.146 124.396 129.253 125.289 128.146 125.289H124.107C123 125.289 122.106 124.396 122.106 123.289C122.106 122.183 123 121.289 124.107 121.289ZM124.107 166.796H134.653C135.76 166.796 136.653 167.689 136.653 168.796C136.653 169.889 135.76 170.796 134.653 170.796H124.107C123 170.796 122.106 169.889 122.106 168.796C122.106 167.689 123 166.796 124.107 166.796ZM128.146 179.889H124.107C123 179.889 122.106 178.996 122.106 177.889C122.106 176.783 123 175.889 124.107 175.889H128.146C129.253 175.889 130.146 176.783 130.146 177.889C130.146 178.996 129.253 179.889 128.146 179.889ZM124.107 194.089H134.653C135.76 194.089 136.653 194.996 136.653 196.089C136.653 197.196 135.76 198.089 134.653 198.089H124.107C123 198.089 122.106 197.196 122.106 196.089C122.106 194.996 123 194.089 124.107 194.089ZM128.146 207.196H124.107C123 207.196 122.106 206.303 122.106 205.196C122.106 204.089 123 203.196 124.107 203.196H128.146C129.253 203.196 130.146 204.089 130.146 205.196C130.146 206.303 129.253 207.196 128.146 207.196ZM124.107 221.396H134.653C135.76 221.396 136.653 222.289 136.653 223.396C136.653 224.503 135.76 225.396 134.653 225.396H124.107C123 225.396 122.106 224.503 122.106 223.396C122.106 222.289 123 221.396 124.107 221.396ZM128.146 234.503H124.107C123 234.503 122.106 233.596 122.106 232.503C122.106 231.396 123 230.503 124.107 230.503H128.146C129.253 230.503 130.146 231.396 130.146 232.503C130.146 233.596 129.253 234.503 128.146 234.503ZM120.053 96.5294V241.049H144.853V234.503H135.026C133.92 234.503 133.026 233.596 133.026 232.503C133.026 231.396 133.92 230.503 135.026 230.503H144.853V225.396H141.76C140.653 225.396 139.76 224.503 139.76 223.396C139.76 222.289 140.653 221.396 141.76 221.396H144.853V216.303H124.107C123 216.303 122.106 215.396 122.106 214.303C122.106 213.196 123 212.303 124.107 212.303H144.853V207.196H135.026C133.92 207.196 133.026 206.303 133.026 205.196C133.026 204.089 133.92 203.196 135.026 203.196H144.853V198.089H141.76C140.653 198.089 139.76 197.196 139.76 196.089C139.76 194.996 140.653 194.089 141.76 194.089H144.853V188.996H124.107C123 188.996 122.106 188.103 122.106 186.996C122.106 185.889 123 184.996 124.107 184.996H144.853V179.889H135.026C133.92 179.889 133.026 178.996 133.026 177.889C133.026 176.783 133.92 175.889 135.026 175.889H144.853V170.796H141.76C140.653 170.796 139.76 169.889 139.76 168.796C139.76 167.689 140.653 166.796 141.76 166.796H144.853V161.689H124.107C123 161.689 122.106 160.796 122.106 159.689C122.106 158.583 123 157.689 124.107 157.689H144.853V154.596C144.853 153.489 145.76 152.596 146.853 152.596H154.64V132.383V123.289V105.089V96.5294H120.053Z" fill="#57B9D4"/>
<path d="M99.6 67.7694V241.049H58.8267V192.263H86.2132C87.3066 192.263 88.2133 191.371 88.2133 190.263V177.436C88.2133 176.329 87.3066 175.436 86.2132 175.436H58.8267V167.689H86.2132C87.3066 167.689 88.2133 166.796 88.2133 165.689V152.863C88.2133 151.757 87.3066 150.863 86.2132 150.863H58.8267V143.129H86.2132C87.3066 143.129 88.2133 142.223 88.2133 141.129V128.289C88.2133 127.183 87.3066 126.289 86.2132 126.289H58.8267V118.556H86.2132C87.3066 118.556 88.2133 117.649 88.2133 116.556V103.716C88.2133 102.609 87.3066 101.716 86.2132 101.716H58.8267V93.984H86.2132C87.3066 93.984 88.2133 93.076 88.2133 91.984V79.144C88.2133 78.036 87.3066 77.144 86.2132 77.144H58.8267V67.7694H61.6H96.8267H99.6Z" fill="#C5EDEA"/>
<path d="M32.3866 192.784C33.6266 194.397 34.2798 196.316 34.2798 198.343C34.2798 202.716 31.1865 206.371 27.0798 207.249V181.863C27.0798 180.757 26.1865 179.863 25.0798 179.863C23.9731 179.863 23.0798 180.757 23.0798 181.863V207.223C19.0265 206.303 15.9731 202.676 15.9731 198.343C15.9731 196.316 16.6265 194.397 17.8665 192.784C19.4932 190.929 20.3731 188.583 20.3731 186.144C20.3731 184.784 20.1066 183.463 19.5866 182.223C19.5599 182.169 19.5598 182.156 19.5465 182.129C19.2665 181.409 19.1065 180.649 19.1065 179.863C19.1065 176.529 21.8132 173.836 25.1199 173.811C28.4399 173.836 31.1332 176.529 31.1332 179.863C31.1332 180.649 30.9865 181.409 30.6932 182.129C30.6932 182.156 30.6931 182.183 30.6798 182.196C30.1465 183.463 29.8798 184.784 29.8798 186.144C29.8798 188.596 30.7598 190.929 32.3731 192.769C32.3865 192.769 32.3866 192.784 32.3866 192.784Z" fill="#A0D7A0"/>
<path d="M18.3732 39.9294C24.2532 39.9294 29.0399 44.7161 29.0399 50.5961C29.0399 56.4774 24.2532 61.2628 18.3732 61.2628C12.4932 61.2628 7.70654 56.4774 7.70654 50.5961C7.70654 44.7161 12.4932 39.9294 18.3732 39.9294Z" fill="#E8C080"/>
<path d="M285.747 64.1295H294.533C295.627 64.1295 296.533 63.2361 296.533 62.1295C296.533 61.0228 295.627 60.1295 294.533 60.1295H285.747C284.64 60.1295 283.747 61.0228 283.747 62.1295C283.747 63.2361 284.64 64.1295 285.747 64.1295Z" fill="#57B9D4"/>
<path d="M294.533 241.049H285.747C284.64 241.049 283.747 241.956 283.747 243.049C283.747 244.156 284.64 245.049 285.747 245.049H294.533C295.627 245.049 296.533 244.156 296.533 243.049C296.533 241.956 295.627 241.049 294.533 241.049Z" fill="#373D4C"/>
<path d="M282.093 263.916H259.427C258.32 263.916 257.427 264.823 257.427 265.916C257.427 267.023 258.32 267.916 259.427 267.916H282.093C283.2 267.916 284.093 267.023 284.093 265.916C284.093 264.823 283.2 263.916 282.093 263.916Z" fill="#4D7591"/>
<path d="M275.933 169.409V241.049H260.187V211.303C266.507 210.369 271.373 204.916 271.373 198.343C271.373 195.423 270.44 192.649 268.653 190.343C268.627 190.316 268.6 190.289 268.587 190.263C267.533 189.103 266.973 187.649 266.973 186.143C266.973 185.316 267.133 184.529 267.453 183.783C267.467 183.743 267.466 183.703 267.48 183.676C267.986 182.436 268.24 181.169 268.24 179.863C268.24 174.369 263.826 169.903 258.36 169.809C258.333 169.809 258.306 169.796 258.266 169.796C258.146 169.796 258.12 169.809 258.093 169.809C252.626 169.903 248.213 174.369 248.213 179.863C248.213 181.169 248.453 182.436 248.946 183.636C248.986 183.716 248.986 183.743 249 183.783C249.32 184.529 249.48 185.316 249.48 186.143C249.48 187.649 248.92 189.103 247.893 190.223C247.853 190.289 247.826 190.316 247.8 190.343C246.013 192.649 245.08 195.423 245.08 198.343C245.08 202.023 246.613 205.356 249.066 207.729C250.973 209.583 253.44 210.863 256.187 211.289V241.049H244.92V233.543C244.92 232.436 244.013 231.543 242.92 231.543H242.293V216.076L247.053 210.489C247.56 209.889 247.68 209.063 247.346 208.356C247.266 208.183 247.16 208.023 247.04 207.876C246.667 207.449 246.12 207.196 245.533 207.196H240.293H235.053C234.28 207.196 233.56 207.649 233.24 208.356C233.12 208.623 233.053 208.903 233.053 209.196C233.053 209.649 233.213 210.116 233.533 210.489L238.293 216.076V231.543H237.68C236.573 231.543 235.68 232.436 235.68 233.543V241.049H231.36V216.569V209.196V154.596C231.36 153.489 230.466 152.596 229.36 152.596H199.693V119.849H275.933V169.409ZM258.187 179.863C257.08 179.863 256.187 180.756 256.187 181.863V207.223C252.12 206.303 249.08 202.676 249.08 198.343C249.08 196.316 249.733 194.396 250.96 192.783C252.586 190.929 253.48 188.596 253.48 186.143C253.48 184.783 253.213 183.463 252.693 182.223C252.666 182.169 252.667 182.156 252.653 182.129C252.36 181.409 252.213 180.649 252.213 179.863C252.213 176.529 254.906 173.836 258.226 173.809C261.546 173.836 264.24 176.529 264.24 179.863C264.24 180.649 264.093 181.409 263.8 182.129C263.786 182.156 263.787 182.169 263.787 182.196C263.24 183.463 262.973 184.783 262.973 186.143C262.973 188.583 263.866 190.929 265.466 192.769C266.72 194.396 267.373 196.316 267.373 198.343C267.373 202.716 264.293 206.369 260.187 207.249V181.863C260.187 180.756 259.293 179.863 258.187 179.863ZM240.293 212.249L239.387 211.196H241.2L240.293 212.249ZM240.92 241.049H239.68V235.543H240.92V241.049ZM196.6 241.049H189.68V222.436H196.6V241.049ZM185.68 241.049H178.746V222.436H185.68V241.049ZM144.853 241.049H120.053V96.5294H154.64V105.089V123.289V132.383V152.596H146.853C145.76 152.596 144.853 153.489 144.853 154.596V157.689H124.107C123 157.689 122.106 158.583 122.106 159.689C122.106 160.796 123 161.689 124.107 161.689H144.853V166.796H141.76C140.653 166.796 139.76 167.689 139.76 168.796C139.76 169.889 140.653 170.796 141.76 170.796H144.853V175.889H135.026C133.92 175.889 133.026 176.783 133.026 177.889C133.026 178.996 133.92 179.889 135.026 179.889H144.853V184.996H124.107C123 184.996 122.106 185.889 122.106 186.996C122.106 188.103 123 188.996 124.107 188.996H144.853V194.089H141.76C140.653 194.089 139.76 194.996 139.76 196.089C139.76 197.196 140.653 198.089 141.76 198.089H144.853V203.196H135.026C133.92 203.196 133.026 204.089 133.026 205.196C133.026 206.303 133.92 207.196 135.026 207.196H144.853V212.303H124.107C123 212.303 122.106 213.196 122.106 214.303C122.106 215.396 123 216.303 124.107 216.303H144.853V221.396H141.76C140.653 221.396 139.76 222.289 139.76 223.396C139.76 224.503 140.653 225.396 141.76 225.396H144.853V230.503H135.026C133.92 230.503 133.026 231.396 133.026 232.503C133.026 233.596 133.92 234.503 135.026 234.503H144.853V241.049ZM124.96 87.0627H149.72V92.1561H124.96V87.0627ZM130.146 77.9561H144.533V83.0627H130.146V77.9561ZM148.853 212.569V210.023H227.36V212.569H148.853ZM165.453 156.596H227.36V206.023H148.853V156.596H165.453ZM204.08 88.6507V74.276H247.373V88.6507H204.08ZM210.96 100.529V92.6507H240.92V100.529H210.96ZM99.5998 241.049H58.8265V192.263H86.2131C87.3064 192.263 88.2131 191.369 88.2131 190.263V177.436C88.2131 176.329 87.3064 175.436 86.2131 175.436H58.8265V167.689H86.2131C87.3064 167.689 88.2131 166.796 88.2131 165.689V152.863C88.2131 151.756 87.3064 150.863 86.2131 150.863H58.8265V143.129H86.2131C87.3064 143.129 88.2131 142.223 88.2131 141.129V128.289C88.2131 127.183 87.3064 126.289 86.2131 126.289H58.8265V118.556H86.2131C87.3064 118.556 88.2131 117.649 88.2131 116.556V103.716C88.2131 102.609 87.3064 101.716 86.2131 101.716H58.8265V93.9841H86.2131C87.3064 93.9841 88.2131 93.076 88.2131 91.9841V79.1427C88.2131 78.036 87.3064 77.1427 86.2131 77.1427H58.8265V67.7694H61.5998H96.8265H99.5998V241.049ZM54.6532 188.263V179.436H84.2131V188.263H54.6532ZM54.6532 163.689V154.863H84.2131V163.689H54.6532ZM54.6532 139.129V130.289H84.2131V139.129H54.6532ZM54.6532 114.556V105.716H84.2131V114.556H54.6532ZM54.6532 89.9841V81.1427H84.2131V89.9841H54.6532ZM63.5998 60.4894H94.8265V63.7694H63.5998V60.4894ZM79.2131 48.3828C86.7198 48.3828 89.5865 53.4361 90.6398 56.4894H67.7731C68.8265 53.4361 71.6931 48.3828 79.2131 48.3828ZM43.6532 212.249L42.7465 211.196H44.5599L43.6532 212.249ZM44.2665 241.049H43.0265V235.543H44.2665V241.049ZM282.213 243.049C282.213 241.956 281.32 241.049 280.213 241.049H279.933V171.796V169.409V119.849V118.996H282.493C283.6 118.996 284.493 118.103 284.493 116.996V102.529C284.493 101.436 283.6 100.529 282.493 100.529H244.92V92.6507H249.373C250.48 92.6507 251.373 91.7561 251.373 90.6507V72.276C251.373 71.1694 250.48 70.276 249.373 70.276H202.08C200.973 70.276 200.08 71.1694 200.08 72.276V90.6507C200.08 91.7561 200.973 92.6507 202.08 92.6507H206.96V100.529H193.293C192.186 100.529 191.293 101.436 191.293 102.529V116.996C191.293 118.103 192.186 118.996 193.293 118.996H195.693V119.849V152.596H158.64V96.5294V94.5294C158.64 93.4227 157.747 92.5294 156.64 92.5294H153.72V85.0627C153.72 83.9561 152.827 83.0627 151.72 83.0627H148.533V75.9561C148.533 74.8494 147.64 73.9561 146.533 73.9561H139.346V41.0108C139.346 39.9028 138.453 39.0108 137.346 39.0108C136.24 39.0108 135.346 39.9028 135.346 41.0108V73.9561H128.146C127.053 73.9561 126.146 74.8494 126.146 75.9561V83.0627H122.96C121.867 83.0627 120.96 83.9561 120.96 85.0627V92.5294H118.053C116.947 92.5294 116.053 93.4227 116.053 94.5294V241.049H103.6V65.7694C103.6 64.6627 102.706 63.7694 101.6 63.7694H98.8265V58.4894C98.8265 57.3827 97.9199 56.4894 96.8265 56.4894H94.8398C93.5731 51.5294 89.2264 44.3828 79.2131 44.3828C69.1865 44.3828 64.8398 51.5294 63.5731 56.4894H61.5998C60.4932 56.4894 59.5998 57.3827 59.5998 58.4894V63.7694H56.8265C55.7199 63.7694 54.8265 64.6627 54.8265 65.7694V77.1427H52.6532C51.5599 77.1427 50.6532 78.036 50.6532 79.1427V91.9841C50.6532 93.076 51.5599 93.9841 52.6532 93.9841H54.8265V101.716H52.6532C51.5599 101.716 50.6532 102.609 50.6532 103.716V116.556C50.6532 117.649 51.5599 118.556 52.6532 118.556H54.8265V126.289H52.6532C51.5599 126.289 50.6532 127.183 50.6532 128.289V141.129C50.6532 142.223 51.5599 143.129 52.6532 143.129H54.8265V150.863H52.6532C51.5599 150.863 50.6532 151.756 50.6532 152.863V165.689C50.6532 166.796 51.5599 167.689 52.6532 167.689H54.8265V175.436H52.6532C51.5599 175.436 50.6532 176.329 50.6532 177.436V190.263C50.6532 191.369 51.5599 192.263 52.6532 192.263H54.8265V241.049H48.2665V233.543C48.2665 232.436 47.3732 231.543 46.2665 231.543H45.6532V216.076L50.4131 210.489C50.9198 209.889 51.0265 209.063 50.7065 208.356C50.3731 207.649 49.6665 207.196 48.8932 207.196H43.6532H38.4131C37.9198 207.196 37.4665 207.369 37.1065 207.676C36.8931 207.863 36.7066 208.089 36.5866 208.356C36.2666 209.063 36.3865 209.889 36.8798 210.489L41.6532 216.076V231.543H41.0265C39.9199 231.543 39.0265 232.436 39.0265 233.543V241.049H36.2798C35.1731 241.049 34.2798 241.956 34.2798 243.049C34.2798 244.156 35.1731 245.049 36.2798 245.049H41.0265H46.2665H56.8265H101.6H116.546C116.813 245.049 117.067 244.996 117.293 244.903C117.533 244.996 117.787 245.049 118.053 245.049H146.813C146.853 245.049 176.746 245.049 176.746 245.049H198.6H229.36H237.68H242.92H280.213C281.32 245.049 282.213 244.156 282.213 243.049Z" fill="#373D4C"/>
<path d="M267.067 84.5161H274.813C275.92 84.5161 276.813 83.6094 276.813 82.5161C276.813 81.4094 275.92 80.5161 274.813 80.5161H267.067C265.973 80.5161 265.067 81.4094 265.067 82.5161C265.067 83.6094 265.973 84.5161 267.067 84.5161Z" fill="#C5EDEA"/>
<path d="M239.533 58.2494H254.787C255.893 58.2494 256.787 57.3561 256.787 56.2494C256.787 55.1561 255.893 54.2494 254.787 54.2494H239.533C238.427 54.2494 237.533 55.1561 237.533 56.2494C237.533 57.3561 238.427 58.2494 239.533 58.2494Z" fill="#C5EDEA"/>
<path d="M242.747 151.049H249.387V157.689H242.747V151.049ZM240.747 161.689H251.387C252.493 161.689 253.387 160.796 253.387 159.689V149.049C253.387 147.943 252.493 147.049 251.387 147.049H240.747C239.64 147.049 238.747 147.943 238.747 149.049V159.689C238.747 160.796 239.64 161.689 240.747 161.689Z" fill="#373D4C"/>
<path d="M242.747 130.383H249.387V137.023H242.747V130.383ZM240.747 141.023H251.387C252.493 141.023 253.387 140.129 253.387 139.023V128.383C253.387 127.276 252.493 126.383 251.387 126.383H240.747C239.64 126.383 238.747 127.276 238.747 128.383V139.023C238.747 140.129 239.64 141.023 240.747 141.023Z" fill="#373D4C"/>
<path d="M236.76 263.916H214.093C212.987 263.916 212.093 264.823 212.093 265.916C212.093 267.023 212.987 267.916 214.093 267.916H236.76C237.867 267.916 238.76 267.023 238.76 265.916C238.76 264.823 237.867 263.916 236.76 263.916Z" fill="#4D7591"/>
<path d="M235.053 78.4494H225.733C224.627 78.4494 223.733 79.3441 223.733 80.4494C223.733 81.5561 224.627 82.4494 225.733 82.4494H235.053C236.16 82.4494 237.053 81.5561 237.053 80.4494C237.053 79.3441 236.16 78.4494 235.053 78.4494Z" fill="#373D4C"/>
<path d="M221.56 130.383H228.187V137.023H221.56V130.383ZM219.56 141.023H230.187C231.293 141.023 232.187 140.129 232.187 139.023V128.383C232.187 127.276 231.293 126.383 230.187 126.383H219.56C218.453 126.383 217.56 127.276 217.56 128.383V139.023C217.56 140.129 218.453 141.023 219.56 141.023Z" fill="#373D4C"/>
<path d="M212.773 186.809H217.56V198.436H212.773V186.809ZM210.773 202.436H219.56C220.653 202.436 221.56 201.543 221.56 200.436V184.809C221.56 183.703 220.653 182.809 219.56 182.809H210.773C209.667 182.809 208.773 183.703 208.773 184.809V200.436C208.773 201.543 209.667 202.436 210.773 202.436Z" fill="#373D4C"/>
<path d="M212.773 163.596H217.56V175.223H212.773V163.596ZM210.773 179.223H219.56C220.653 179.223 221.56 178.329 221.56 177.223V161.596C221.56 160.503 220.653 159.596 219.56 159.596H210.773C209.667 159.596 208.773 160.503 208.773 161.596V177.223C208.773 178.329 209.667 179.223 210.773 179.223Z" fill="#373D4C"/>
<path d="M216.44 78.4494H210.773C209.667 78.4494 208.773 79.3441 208.773 80.4494C208.773 81.5561 209.667 82.4494 210.773 82.4494H216.44C217.547 82.4494 218.44 81.5561 218.44 80.4494C218.44 79.3441 217.547 78.4494 216.44 78.4494Z" fill="#373D4C"/>
<path d="M197.72 45.076H206.44C207.547 45.076 208.44 44.1827 208.44 43.076C208.44 41.9694 207.547 41.076 206.44 41.076H197.72C196.613 41.076 195.72 41.9694 195.72 43.076C195.72 44.1827 196.613 45.076 197.72 45.076Z" fill="#57B9D4"/>
<path d="M195.293 186.809H200.08V198.436H195.293V186.809ZM193.293 202.436H202.08C203.187 202.436 204.08 201.543 204.08 200.436V184.809C204.08 183.703 203.187 182.809 202.08 182.809H193.293C192.187 182.809 191.293 183.703 191.293 184.809V200.436C191.293 201.543 192.187 202.436 193.293 202.436Z" fill="#373D4C"/>
<path d="M195.293 163.596H200.08V175.223H195.293V163.596ZM193.293 179.223H202.08C203.187 179.223 204.08 178.329 204.08 177.223V161.596C204.08 160.503 203.187 159.596 202.08 159.596H193.293C192.187 159.596 191.293 160.503 191.293 161.596V177.223C191.293 178.329 192.187 179.223 193.293 179.223Z" fill="#373D4C"/>
<path d="M191.426 263.916H168.76C167.653 263.916 166.76 264.823 166.76 265.916C166.76 267.023 167.653 267.916 168.76 267.916H191.426C192.533 267.916 193.426 267.023 193.426 265.916C193.426 264.823 192.533 263.916 191.426 263.916Z" fill="#4D7591"/>
<path d="M176.133 186.809H180.92V198.436H176.133V186.809ZM174.133 202.436H182.92C184.027 202.436 184.92 201.543 184.92 200.436V184.809C184.92 183.703 184.027 182.809 182.92 182.809H174.133C173.04 182.809 172.133 183.703 172.133 184.809V200.436C172.133 201.543 173.04 202.436 174.133 202.436Z" fill="#373D4C"/>
<path d="M176.133 163.596H180.92V175.223H176.133V163.596ZM174.133 179.223H182.92C184.027 179.223 184.92 178.329 184.92 177.223V161.596C184.92 160.503 184.027 159.596 182.92 159.596H174.133C173.04 159.596 172.133 160.503 172.133 161.596V177.223C172.133 178.329 173.04 179.223 174.133 179.223Z" fill="#373D4C"/>
<path d="M171.76 78.4494C170.653 78.4494 169.76 79.3441 169.76 80.4494C169.76 81.5561 170.653 82.4494 171.76 82.4494H178.533C179.64 82.4494 180.533 81.5561 180.533 80.4494C180.533 79.3441 179.64 78.4494 178.533 78.4494H171.76Z" fill="#C5EDEA"/>
<path d="M166.773 58.2494H176.747C177.853 58.2494 178.747 57.3561 178.747 56.2494C178.747 55.1561 177.853 54.2494 176.747 54.2494H166.773C165.667 54.2494 164.773 55.1561 164.773 56.2494C164.773 57.3561 165.667 58.2494 166.773 58.2494Z" fill="#57B9D4"/>
<path d="M158.667 186.809H163.453V198.436H158.667V186.809ZM156.667 202.436H165.453C166.547 202.436 167.453 201.543 167.453 200.436V184.809C167.453 183.703 166.547 182.809 165.453 182.809H156.667C155.56 182.809 154.667 183.703 154.667 184.809V200.436C154.667 201.543 155.56 202.436 156.667 202.436Z" fill="#373D4C"/>
<path d="M158.667 163.596H163.453V175.223H158.667V163.596ZM156.667 179.223H165.453C166.547 179.223 167.453 178.329 167.453 177.223V161.596C167.453 160.503 166.547 159.596 165.453 159.596H156.667C155.56 159.596 154.667 160.503 154.667 161.596V177.223C154.667 178.329 155.56 179.223 156.667 179.223Z" fill="#373D4C"/>
<path d="M124.107 107.089H150.587C151.693 107.089 152.587 106.183 152.587 105.089C152.587 103.984 151.693 103.089 150.587 103.089H124.107C123 103.089 122.106 103.984 122.106 105.089C122.106 106.183 123 107.089 124.107 107.089Z" fill="#373D4C"/>
<path d="M150.587 112.183H141.76C140.653 112.183 139.76 113.076 139.76 114.183C139.76 115.289 140.653 116.183 141.76 116.183H150.587C151.693 116.183 152.587 115.289 152.587 114.183C152.587 113.076 151.693 112.183 150.587 112.183Z" fill="#373D4C"/>
<path d="M150.587 121.289H135.026C133.92 121.289 133.026 122.183 133.026 123.289C133.026 124.396 133.92 125.289 135.026 125.289H150.587C151.693 125.289 152.587 124.396 152.587 123.289C152.587 122.183 151.693 121.289 150.587 121.289Z" fill="#373D4C"/>
<path d="M124.107 134.383H150.587C151.693 134.383 152.587 133.489 152.587 132.383C152.587 131.289 151.693 130.383 150.587 130.383H124.107C123 130.383 122.106 131.289 122.106 132.383C122.106 133.489 123 134.383 124.107 134.383Z" fill="#373D4C"/>
<path d="M150.587 139.489H141.76C140.653 139.489 139.76 140.383 139.76 141.489C139.76 142.596 140.653 143.489 141.76 143.489H150.587C151.693 143.489 152.587 142.596 152.587 141.489C152.587 140.383 151.693 139.489 150.587 139.489Z" fill="#373D4C"/>
<path d="M150.587 148.583H135.026C133.92 148.583 133.026 149.489 133.026 150.583C133.026 151.689 133.92 152.583 135.026 152.583H150.587C151.693 152.583 152.587 151.689 152.587 150.583C152.587 149.489 151.693 148.583 150.587 148.583Z" fill="#373D4C"/>
<path d="M146.093 263.916H123.427C122.32 263.916 121.427 264.823 121.427 265.916C121.427 267.023 122.32 267.916 123.427 267.916H146.093C147.2 267.916 148.093 267.023 148.093 265.916C148.093 264.823 147.2 263.916 146.093 263.916Z" fill="#4D7591"/>
<path d="M124.107 116.183H134.653C135.76 116.183 136.653 115.289 136.653 114.183C136.653 113.076 135.76 112.183 134.653 112.183H124.107C123 112.183 122.106 113.076 122.106 114.183C122.106 115.289 123 116.183 124.107 116.183Z" fill="#373D4C"/>
<path d="M124.107 143.489H134.653C135.76 143.489 136.653 142.596 136.653 141.489C136.653 140.383 135.76 139.489 134.653 139.489H124.107C123 139.489 122.106 140.383 122.106 141.489C122.106 142.596 123 143.489 124.107 143.489Z" fill="#373D4C"/>
<path d="M124.107 170.796H134.653C135.76 170.796 136.653 169.889 136.653 168.796C136.653 167.689 135.76 166.796 134.653 166.796H124.107C123 166.796 122.106 167.689 122.106 168.796C122.106 169.889 123 170.796 124.107 170.796Z" fill="#373D4C"/>
<path d="M124.107 198.089H134.653C135.76 198.089 136.653 197.196 136.653 196.089C136.653 194.996 135.76 194.089 134.653 194.089H124.107C123 194.089 122.106 194.996 122.106 196.089C122.106 197.196 123 198.089 124.107 198.089Z" fill="#373D4C"/>
<path d="M124.107 225.396H134.653C135.76 225.396 136.653 224.503 136.653 223.396C136.653 222.289 135.76 221.396 134.653 221.396H124.107C123 221.396 122.106 222.289 122.106 223.396C122.106 224.503 123 225.396 124.107 225.396Z" fill="#373D4C"/>
<path d="M124.107 125.289H128.146C129.253 125.289 130.146 124.396 130.146 123.289C130.146 122.183 129.253 121.289 128.146 121.289H124.107C123 121.289 122.106 122.183 122.106 123.289C122.106 124.396 123 125.289 124.107 125.289Z" fill="#373D4C"/>
<path d="M124.107 152.583H128.146C129.253 152.583 130.146 151.689 130.146 150.583C130.146 149.489 129.253 148.583 128.146 148.583H124.107C123 148.583 122.106 149.489 122.106 150.583C122.106 151.689 123 152.583 124.107 152.583Z" fill="#373D4C"/>
<path d="M124.107 179.889H128.146C129.253 179.889 130.146 178.996 130.146 177.889C130.146 176.783 129.253 175.889 128.146 175.889H124.107C123 175.889 122.106 176.783 122.106 177.889C122.106 178.996 123 179.889 124.107 179.889Z" fill="#373D4C"/>
<path d="M124.107 207.196H128.146C129.253 207.196 130.146 206.303 130.146 205.196C130.146 204.089 129.253 203.196 128.146 203.196H124.107C123 203.196 122.106 204.089 122.106 205.196C122.106 206.303 123 207.196 124.107 207.196Z" fill="#373D4C"/>
<path d="M128.146 230.503H124.107C123 230.503 122.106 231.396 122.106 232.503C122.106 233.596 123 234.503 124.107 234.503H128.146C129.253 234.503 130.146 233.596 130.146 232.503C130.146 231.396 129.253 230.503 128.146 230.503Z" fill="#373D4C"/>
<path d="M109.08 52.5961H118.053C119.16 52.5961 120.053 51.7027 120.053 50.596C120.053 49.4894 119.16 48.596 118.053 48.596H109.08C107.973 48.596 107.08 49.4894 107.08 50.596C107.08 51.7027 107.973 52.5961 109.08 52.5961Z" fill="#C5EDEA"/>
<path d="M100.76 263.916H78.0933C76.9866 263.916 76.0933 264.823 76.0933 265.916C76.0933 267.023 76.9866 267.916 78.0933 267.916H100.76C101.867 267.916 102.76 267.023 102.76 265.916C102.76 264.823 101.867 263.916 100.76 263.916Z" fill="#4D7591"/>
<path d="M48.2932 44.6627H57.0265C58.1199 44.6627 59.0265 43.7694 59.0265 42.6627C59.0265 41.5561 58.1199 40.6627 57.0265 40.6627H48.2932C47.1865 40.6627 46.2932 41.5561 46.2932 42.6627C46.2932 43.7694 47.1865 44.6627 48.2932 44.6627Z" fill="#C5EDEA"/>
<path d="M55.4267 263.916H32.76C31.6533 263.916 30.76 264.823 30.76 265.916C30.76 267.023 31.6533 267.916 32.76 267.916H55.4267C56.5333 267.916 57.4267 267.023 57.4267 265.916C57.4267 264.823 56.5333 263.916 55.4267 263.916Z" fill="#4D7591"/>
<path d="M25.0798 179.863C23.9732 179.863 23.0798 180.756 23.0798 181.863V207.223C19.0265 206.303 15.9732 202.676 15.9732 198.343C15.9732 196.316 16.6266 194.396 17.8666 192.783C19.4932 190.929 20.3732 188.583 20.3732 186.143C20.3732 184.783 20.1066 183.463 19.5866 182.223C19.5599 182.169 19.5598 182.156 19.5465 182.129C19.2665 181.409 19.1065 180.649 19.1065 179.863C19.1065 176.529 21.8133 173.836 25.1199 173.809C28.4399 173.836 31.1332 176.529 31.1332 179.863C31.1332 180.649 30.9866 181.409 30.6932 182.129C30.6932 182.156 30.6932 182.183 30.6798 182.196C30.1465 183.463 29.8798 184.783 29.8798 186.143C29.8798 188.596 30.7599 190.929 32.3732 192.769C33.6265 194.396 34.2798 196.316 34.2798 198.343C34.2798 202.716 31.1865 206.369 27.0798 207.249V181.863C27.0798 180.756 26.1865 179.863 25.0798 179.863ZM29.1065 241.049H27.0798V211.303C30.2398 210.836 33.0399 209.236 35.0533 206.943C37.0533 204.636 38.2798 201.623 38.2798 198.343C38.2798 195.423 37.3332 192.649 35.5599 190.343C35.5332 190.316 35.5065 190.289 35.4798 190.263C34.4398 189.103 33.8798 187.649 33.8798 186.143C33.8798 185.316 34.0398 184.529 34.3465 183.783C34.3598 183.743 34.3733 183.716 34.3866 183.676C34.8933 182.436 35.1332 181.169 35.1332 179.863C35.1332 174.369 30.7199 169.903 25.2533 169.809C25.2266 169.809 25.1999 169.796 25.1732 169.796C25.0532 169.796 25.0266 169.809 24.9999 169.809C19.5332 169.903 15.1065 174.369 15.1065 179.863C15.1065 181.169 15.3599 182.436 15.8399 183.636C15.8799 183.716 15.8932 183.743 15.9065 183.783C16.2132 184.529 16.3732 185.316 16.3732 186.143C16.3732 187.649 15.8132 189.103 14.7999 190.223C14.7466 190.289 14.7199 190.316 14.6932 190.343C12.9199 192.649 11.9732 195.423 11.9732 198.343C11.9732 204.889 16.7998 210.316 23.0798 211.289V241.049H11.7732C10.6799 241.049 9.77319 241.956 9.77319 243.049C9.77319 244.156 10.6799 245.049 11.7732 245.049H29.1065C30.2132 245.049 31.1065 244.156 31.1065 243.049C31.1065 241.956 30.2132 241.049 29.1065 241.049Z" fill="#373D4C"/>
<path d="M18.3732 39.9294C24.2532 39.9294 29.0399 44.7161 29.0399 50.5961C29.0399 56.4761 24.2532 61.2628 18.3732 61.2628C12.4932 61.2628 7.70654 56.4761 7.70654 50.5961C7.70654 44.7161 12.4932 39.9294 18.3732 39.9294ZM18.3732 65.2628C26.4665 65.2628 33.0399 58.6774 33.0399 50.5961C33.0399 42.5027 26.4665 35.9294 18.3732 35.9294C10.2932 35.9294 3.70654 42.5027 3.70654 50.5961C3.70654 58.6774 10.2932 65.2628 18.3732 65.2628Z" fill="#373D4C"/>
<path d="M27.08 104.743C27.08 103.651 26.1867 102.743 25.08 102.743H9.7334C8.62673 102.743 7.7334 103.651 7.7334 104.743C7.7334 105.849 8.62673 106.743 9.7334 106.743H25.08C26.1867 106.743 27.08 105.849 27.08 104.743Z" fill="#C5EDEA"/>
<path d="M5.33325 138.156C4.22659 138.156 3.33325 139.049 3.33325 140.156C3.33325 141.249 4.22659 142.156 5.33325 142.156H13.9732C15.0799 142.156 15.9732 141.249 15.9732 140.156C15.9732 139.049 15.0799 138.156 13.9732 138.156H5.33325Z" fill="#57B9D4"/>
<path d="M10.0934 263.916H-12.5732C-13.6799 263.916 -14.5732 264.823 -14.5732 265.916C-14.5732 267.023 -13.6799 267.916 -12.5732 267.916H10.0934C11.2001 267.916 12.0934 267.023 12.0934 265.916C12.0934 264.823 11.2001 263.916 10.0934 263.916Z" fill="#4D7591"/>
<path d="M-5 84.7694H9.73333C10.84 84.7694 11.7333 83.8761 11.7333 82.7694C11.7333 81.6627 10.84 80.7694 9.73333 80.7694H-5C-6.10667 80.7694 -7 81.6627 -7 82.7694C-7 83.8761 -6.10667 84.7694 -5 84.7694Z" fill="#57B9D4"/>
<path d="M-10.5732 214.316C-10.5732 212.276 -9.91988 210.356 -8.67988 208.756C-7.05322 206.889 -6.17324 204.556 -6.17324 202.103C-6.17324 200.756 -6.43996 199.436 -6.95996 198.196C-6.98663 198.143 -6.98665 198.129 -6.98665 198.103C-7.27999 197.383 -7.43991 196.609 -7.43991 195.823C-7.43991 192.503 -4.73322 189.796 -1.41322 189.769C1.90678 189.796 4.60007 192.503 4.60007 195.823C4.60007 196.609 4.44009 197.383 4.16009 198.103C3.60009 199.436 3.3334 200.756 3.3334 202.103C3.3334 204.556 4.22676 206.903 5.82676 208.743C7.08009 210.356 7.7334 212.276 7.7334 214.316C7.7334 218.676 4.64007 222.329 0.5334 223.209V197.823C0.5334 196.729 -0.359934 195.823 -1.4666 195.823C-2.55993 195.823 -3.4666 196.729 -3.4666 197.823V223.196C-7.51993 222.276 -10.5732 218.649 -10.5732 214.316ZM-12.5732 241.049C-13.6799 241.049 -14.5732 241.956 -14.5732 243.049C-14.5732 244.156 -13.6799 245.049 -12.5732 245.049H2.56009C3.66676 245.049 4.56009 244.156 4.56009 243.049C4.56009 241.956 3.66676 241.049 2.56009 241.049H0.5334V227.263C6.8534 226.329 11.7334 220.889 11.7334 214.316C11.7334 211.383 10.7867 208.623 9.01335 206.316C8.98668 206.289 8.96007 206.263 8.9334 206.236C7.8934 205.063 7.3334 203.623 7.3334 202.103C7.3334 201.289 7.4934 200.503 7.80007 199.756C7.8134 199.716 7.82671 199.676 7.84004 199.649C8.34671 198.396 8.60007 197.129 8.60007 195.823C8.60007 190.343 4.17337 185.876 -1.29329 185.783C-1.31996 185.783 -1.34657 185.769 -1.37324 185.769C-1.49324 185.769 -1.51988 185.783 -1.54655 185.783C-7.01322 185.876 -11.4399 190.343 -11.4399 195.823C-11.4399 197.129 -11.1866 198.396 -10.7066 199.609C-10.6666 199.676 -10.6532 199.716 -10.6399 199.756C-10.3332 200.503 -10.1732 201.289 -10.1732 202.103C-10.1732 203.623 -10.7332 205.076 -11.7465 206.183C-11.7999 206.263 -11.8266 206.276 -11.8399 206.316C-13.6266 208.623 -14.5732 211.383 -14.5732 214.316C-14.5732 220.863 -9.7466 226.289 -3.4666 227.249V241.049H-12.5732Z" fill="#373D4C"/>
<path d="M5.84004 208.757C7.08004 210.356 7.7334 212.276 7.7334 214.316C7.7334 218.676 4.64007 222.329 0.533399 223.209V197.823C0.533399 196.731 -0.359935 195.823 -1.4666 195.823C-2.55993 195.823 -3.4666 196.731 -3.4666 197.823V223.196C-7.51993 222.276 -10.5732 218.649 -10.5732 214.316C-10.5732 212.276 -9.91988 210.356 -8.67988 208.757C-7.05322 206.889 -6.17324 204.556 -6.17324 202.103C-6.17324 200.757 -6.43996 199.436 -6.95996 198.196C-6.98663 198.144 -6.98665 198.129 -6.98665 198.103C-7.27999 197.383 -7.43991 196.609 -7.43991 195.823C-7.43991 192.503 -4.73322 189.796 -1.41322 189.769C1.90678 189.796 4.60007 192.503 4.60007 195.823C4.60007 196.609 4.44009 197.383 4.16009 198.103C3.60009 199.436 3.3334 200.757 3.3334 202.103C3.3334 204.556 4.22676 206.903 5.82676 208.743C5.84009 208.743 5.84004 208.757 5.84004 208.757Z" fill="#B4D452"/>
</g>
</svg>
