<svg width="288" height="288" viewBox="0 0 288 288" fill="none" xmlns="http://www.w3.org/2000/svg">
<mask id="mask0_221:13939" style="mask-type:alpha" maskUnits="userSpaceOnUse" x="0" y="0" width="288" height="288">
<circle cx="144" cy="144" r="144" fill="#C4C4C4"/>
</mask>
<g mask="url(#mask0_221:13939)">
<path d="M354.867 326.449H-2381V-293H354.867V326.449Z" fill="#FFFEFA"/>
<path d="M13.3333 207.833V254.167H272.187V207.833C272.187 207.833 199.227 197.259 138.947 199.38C78.6665 201.5 13.3333 207.833 13.3333 207.833" fill="#CCE294"/>
<path d="M266.853 194.019C266.853 198.393 263.293 201.94 258.92 201.94C257.427 201.94 256.413 201.738 255.48 201.232V186.82C256.427 186.273 257.32 186.085 258.92 186.085C263.293 186.085 266.853 189.645 266.853 194.019Z" fill="#CCE294"/>
<path d="M19.7735 175.419C21.8935 175.419 23.6001 177.139 23.6001 179.245C23.6001 181.352 21.8935 183.072 19.7735 183.072C17.6668 183.072 15.96 181.352 15.96 179.245C15.96 177.139 17.6668 175.419 19.7735 175.419Z" fill="#CCE294"/>
<path d="M266.4 175.833C268.387 175.833 270.013 177.459 270.013 179.447C270.013 181.447 268.387 183.072 266.4 183.072C264.4 183.072 262.773 181.447 262.773 179.447C262.773 177.459 264.4 175.833 266.4 175.833Z" fill="#A0D7A0"/>
<path d="M33.4667 186.139V203.645C30.8801 203.887 28.5201 204.125 26.3868 204.338C26.1868 204.138 25.9467 203.979 25.68 203.859C21.9333 202.393 19.5068 198.845 19.5068 194.833C19.5068 189.487 23.8667 185.139 29.2133 185.139C30.6933 185.139 32.1467 185.5 33.4667 186.139" fill="#A0D7A0"/>
<path d="M251.48 173.525V202.738C249.12 202.447 246.733 202.179 244.346 201.925C243.746 201.859 243.146 201.792 242.546 201.726C242.546 201.685 242.546 197.685 242.546 197.685V173.525L243.373 172.685L247.013 169.032L251.48 173.525" fill="#E36C48"/>
<path d="M238.547 197.685V201.326C235.253 200.993 231.933 200.685 228.613 200.405C228.627 200.352 228.627 173.525 228.627 173.525L233.587 168.539L238.547 173.525V197.685Z" fill="#E36C48"/>
<path d="M101.093 198.085C101.093 198.365 101.16 198.645 101.267 198.887C97.8266 199.047 94.4667 199.205 91.1733 199.38V197.685V173.525L96.1332 168.539L98.2666 170.672L101.093 173.525V197.685V198.085Z" fill="#E36C48"/>
<path d="M87.1733 197.685V199.592C84.12 199.767 81.1467 199.94 78.24 200.125V197.685V173.525L82.6931 169.047L87.1733 173.539V197.685" fill="#E36C48"/>
<path d="M74.2399 197.685V200.38C73.3865 200.433 72.5463 200.487 71.693 200.554C69.1863 200.726 66.7198 200.887 64.3198 201.06V197.685V173.525L69.2797 168.539L73.4131 172.685L74.2399 173.525V197.685" fill="#E36C48"/>
<path d="M60.3201 197.685V201.352C57.2267 201.579 54.2401 201.82 51.3867 202.047V197.685V173.525L55.8534 169.032L60.3201 173.525V197.685Z" fill="#E36C48"/>
<path d="M47.3866 197.685V202.38C43.8399 202.685 40.5332 202.979 37.4666 203.259V173.525L42.4264 168.539L47.3866 173.525V197.685" fill="#E36C48"/>
<path d="M178.546 177.113V184.085H174.32V177.113H178.546Z" fill="#C5EDEA"/>
<path d="M120.973 177.113V184.085H116.747V177.113H120.973Z" fill="#C5EDEA"/>
<path d="M149.76 131.94V140.285H144.16V131.94H149.76Z" fill="#C5EDEA"/>
<path d="M148.96 187.179L156.36 196.419H148.96V187.179Z" fill="#FFFEFA"/>
<path d="M158.667 183.285V192.912L150.973 183.285H158.667Z" fill="#FFFEFA"/>
<path d="M158.667 170.032V179.285H151.267L158.667 170.032Z" fill="#FFFEFA"/>
<path d="M156.653 166.153L148.96 175.767V166.153H156.653Z" fill="#FFFEFA"/>
<path d="M144.96 166.153V175.767L137.267 166.153H144.96Z" fill="#FFFEFA"/>
<path d="M135.253 170.032L142.653 179.285H135.253V170.032Z" fill="#FFFEFA"/>
<path d="M142.947 183.285L135.253 192.912V183.285H142.947Z" fill="#FFFEFA"/>
<path d="M144.96 187.179V196.419H137.56L144.96 187.179Z" fill="#FFFEFA"/>
<path d="M205.773 132.232L223.52 163.525H191.92L176.067 132.192L205.773 132.232" fill="#E8DECF"/>
<path d="M200.133 128.22L173.253 128.179L152.96 116.113H161.013C161.067 116.113 161.133 116.1 161.187 116.1C161.24 116.1 161.293 116.113 161.36 116.113H166.533L176.64 123.405C176.987 123.66 177.4 123.78 177.8 123.78C178.12 123.78 178.427 123.713 178.72 123.565C179.387 123.22 179.8 122.525 179.8 121.78V116.113H180.213L200.133 128.22Z" fill="#80A0AC"/>
<path d="M153.76 142.285V129.94C153.76 128.833 152.866 127.94 151.76 127.94H142.16C141.053 127.94 140.16 128.833 140.16 129.94V142.285C140.16 143.38 141.053 144.285 142.16 144.285H151.76C152.866 144.285 153.76 143.38 153.76 142.285ZM171.333 131.699L181.187 151.179H112.493L122.36 131.447L146.32 116.82L171.333 131.699" fill="#E8C080"/>
<path d="M124.973 186.085V175.113C124.973 174.019 124.08 173.113 122.973 173.113H114.747C113.64 173.113 112.747 174.019 112.747 175.113V186.085C112.747 187.192 113.64 188.085 114.747 188.085H122.973C124.08 188.085 124.973 187.192 124.973 186.085ZM182.547 186.085V175.113C182.547 174.019 181.653 173.113 180.547 173.113H172.32C171.213 173.113 170.32 174.019 170.32 175.113V186.085C170.32 187.192 171.213 188.085 172.32 188.085H180.547C181.653 188.085 182.547 187.192 182.547 186.085ZM188.827 198.085C182.76 197.925 176.707 197.792 170.68 197.713C168 197.66 165.333 197.632 162.667 197.619V164.153C162.667 163.047 161.773 162.153 160.667 162.153H133.253C132.147 162.153 131.253 163.047 131.253 164.153V197.872C129.067 197.925 126.893 197.979 124.747 198.047C117.973 198.22 111.373 198.459 104.973 198.726C105.053 198.525 105.093 198.312 105.093 198.085V197.685V172.713V165.993L110.493 155.179H183.213L188.827 166.273V198.085" fill="#E8C080"/>
<path d="M208.307 180.085C209.413 180.085 210.307 180.979 210.307 182.085C210.307 183.192 209.413 184.085 208.307 184.085H202.333C201.227 184.085 200.333 183.192 200.333 182.085C200.333 180.979 201.227 180.085 202.333 180.085H208.307Z" fill="#FFFEFA"/>
<path d="M203.187 171.833C204.293 171.833 205.187 172.727 205.187 173.833C205.187 174.925 204.293 175.833 203.187 175.833H198.853C197.76 175.833 196.853 174.925 196.853 173.833C196.853 172.727 197.76 171.833 198.853 171.833H203.187Z" fill="#FFFEFA"/>
<path d="M215.987 83.192C217.533 84.872 218.453 87.1 218.507 89.2854C218.653 95.06 214.707 101.38 205.707 101.607C205.52 101.607 205.347 101.607 205.16 101.607C197.693 101.607 194.347 97.7667 191.4 94.3654C188.6 91.1254 186.36 88.5534 180.88 88.7134C178.16 88.78 176 91.0467 176.067 93.7667C176.093 94.872 175.227 95.7921 174.12 95.8201C172.987 95.7921 172.093 94.9787 172.067 93.8721C171.947 88.9401 175.853 84.8334 180.773 84.7134C188.133 84.5387 191.493 88.3654 194.427 91.7387C197.227 94.9654 199.667 97.7667 205.613 97.6067C211.893 97.4467 214.6 93.3654 214.507 89.3934C214.48 88.1534 213.947 86.8867 213.053 85.912C212.173 84.9654 211.08 84.4587 210 84.4721C208.867 84.4867 207.987 83.632 207.96 82.5254C207.92 81.4187 208.8 80.5121 209.907 80.4721C212.147 80.4334 214.32 81.3934 215.987 83.192" fill="#C5EDEA"/>
<path d="M204.333 77.6854C204.373 79.82 203.6 81.8454 202.133 83.3934C200.693 84.8987 198.773 85.7667 196.707 85.8587C195.667 86.0187 192.427 86.072 186.733 82.472C182.08 79.5387 180.293 79.0854 177.826 79.1534C171.613 79.2987 167.387 83.752 167.533 89.9654L167.626 93.792C167.653 94.8987 166.786 95.82 165.68 95.8454C164.546 95.8454 163.653 94.9787 163.626 93.8987L163.533 90.072C163.333 81.632 169.293 75.3654 177.733 75.1534C181.347 75.1 183.947 75.9787 188.867 79.1C193.76 82.192 196.093 81.8987 196.12 81.8987C196.253 81.872 196.307 81.872 196.453 81.872C197.507 81.8454 198.493 81.4054 199.226 80.632C199.96 79.8587 200.36 78.8587 200.333 77.792C200.28 75.592 198.453 73.82 196.253 73.912C195.133 73.9254 194.227 73.06 194.2 71.9654C194.173 70.8587 195.04 69.94 196.146 69.912C200.586 69.8454 204.213 73.2987 204.333 77.6854" fill="#C5EDEA"/>
<path d="M258.92 146.459C257.813 146.459 256.92 147.352 256.92 148.459C256.92 149.565 257.813 150.459 258.92 150.459H262.48C263.586 150.459 264.48 149.565 264.48 148.459C264.48 147.352 263.586 146.459 262.48 146.459H258.92Z" fill="#57B9D4"/>
<path d="M272.747 232.752C253.867 230.607 234.107 229.005 214.04 228.019C212.947 227.965 212 228.819 211.947 229.925C211.893 231.032 212.734 231.965 213.84 232.019C233.827 233.005 253.493 234.579 272.293 236.726C272.373 236.738 272.454 236.738 272.52 236.738C273.534 236.738 274.4 235.979 274.507 234.965C274.64 233.872 273.84 232.872 272.747 232.752" fill="#373D4C"/>
<path d="M272.853 217.472C259.547 215.952 245.733 214.712 231.773 213.765C230.693 213.699 229.72 214.525 229.64 215.632C229.573 216.738 230.4 217.685 231.507 217.765C245.4 218.699 259.16 219.94 272.4 221.447C272.48 221.459 272.56 221.459 272.64 221.459C273.64 221.459 274.506 220.699 274.626 219.685C274.746 218.592 273.96 217.592 272.853 217.472" fill="#373D4C"/>
<path d="M272.64 248.032C261.36 246.752 249.707 245.66 237.973 244.78C236.893 244.699 235.92 245.525 235.84 246.632C235.747 247.738 236.573 248.685 237.68 248.78C249.36 249.645 260.96 250.726 272.187 252.005C272.267 252.019 272.333 252.019 272.413 252.019C273.413 252.019 274.28 251.259 274.4 250.245C274.52 249.152 273.733 248.152 272.64 248.032Z" fill="#373D4C"/>
<path d="M226.626 126.125H233.373C234.48 126.125 235.373 125.232 235.373 124.125C235.373 123.019 234.48 122.125 233.373 122.125H226.626C225.52 122.125 224.626 123.019 224.626 124.125C224.626 125.232 225.52 126.125 226.626 126.125Z" fill="#57B9D4"/>
<path d="M212.76 52.072H220.76C221.866 52.072 222.76 51.1787 222.76 50.072C222.76 48.9654 221.866 48.072 220.76 48.072H212.76C211.653 48.072 210.76 48.9654 210.76 50.072C210.76 51.1787 211.653 52.072 212.76 52.072Z" fill="#57B9D4"/>
<path d="M195.493 212.005C194.387 211.899 193.467 212.833 193.44 213.94C193.4 215.045 194.267 215.966 195.373 216.005C204.773 216.285 214.2 216.712 223.387 217.245C223.427 217.245 223.453 217.245 223.493 217.245C224.547 217.245 225.427 216.432 225.493 215.365C225.56 214.273 224.72 213.326 223.613 213.259C214.4 212.712 204.933 212.299 195.493 212.005" fill="#373D4C"/>
<path d="M225.48 243.94C209.146 242.952 192.227 242.338 175.187 242.138C174.08 242.138 173.187 243.019 173.173 244.113C173.16 245.22 174.04 246.125 175.146 246.138C192.106 246.338 208.96 246.94 225.24 247.94C225.28 247.94 225.32 247.94 225.36 247.94C226.413 247.94 227.293 247.125 227.36 246.06C227.426 244.952 226.586 244.005 225.48 243.94" fill="#373D4C"/>
<path d="M172.853 64.06H178.147C179.253 64.06 180.147 63.1667 180.147 62.06C180.147 60.952 179.253 60.06 178.147 60.06H172.853C171.747 60.06 170.853 60.952 170.853 62.06C170.853 63.1667 171.747 64.06 172.853 64.06Z" fill="#57B9D4"/>
<path d="M174.32 177.113H178.546V184.085H174.32V177.113ZM172.32 188.085H180.546C181.653 188.085 182.546 187.192 182.546 186.085V175.113C182.546 174.019 181.653 173.113 180.546 173.113H172.32C171.213 173.113 170.32 174.019 170.32 175.113V186.085C170.32 187.192 171.213 188.085 172.32 188.085Z" fill="#373D4C"/>
<path d="M160.333 54.5H165.56C166.666 54.5 167.56 53.6067 167.56 52.5C167.56 51.3933 166.666 50.5 165.56 50.5H160.333C159.227 50.5 158.333 51.3933 158.333 52.5C158.333 53.6067 159.227 54.5 160.333 54.5Z" fill="#57B9D4"/>
<path d="M203.226 231.554C204.293 231.554 205.186 230.712 205.226 229.632C205.266 228.525 204.413 227.592 203.307 227.554C185.893 226.887 167.933 226.645 149.92 226.845C148.813 226.859 147.933 227.766 147.946 228.872C147.96 229.966 148.853 230.845 149.946 230.845C167.906 230.645 185.8 230.887 203.146 231.554C203.173 231.554 203.2 231.554 203.226 231.554" fill="#373D4C"/>
<path d="M149.76 140.285H144.16V131.94H149.76V140.285ZM151.76 127.94H142.16C141.053 127.94 140.16 128.833 140.16 129.94V142.285C140.16 143.379 141.053 144.285 142.16 144.285H151.76C152.866 144.285 153.76 143.379 153.76 142.285V129.94C153.76 128.833 152.866 127.94 151.76 127.94Z" fill="#373D4C"/>
<path d="M120.973 184.085H116.747V177.113H120.973V184.085ZM124.973 175.113C124.973 174.019 124.08 173.113 122.973 173.113H114.747C113.64 173.113 112.747 174.019 112.747 175.113V186.085C112.747 187.192 113.64 188.085 114.747 188.085H122.973C124.08 188.085 124.973 187.192 124.973 186.085V175.113Z" fill="#373D4C"/>
<path d="M63.8932 235.032C63.9465 235.032 64.0133 235.019 64.0666 235.019C80.1066 233.632 96.5467 232.579 112.92 231.859C114.027 231.819 114.88 230.887 114.826 229.78C114.786 228.672 113.893 227.819 112.747 227.872C96.3199 228.579 79.8267 229.645 63.72 231.032C62.6267 231.125 61.8134 232.099 61.9067 233.205C62 234.245 62.8665 235.032 63.8932 235.032" fill="#373D4C"/>
<path d="M156.507 242.072C139.333 242.167 121.827 242.66 104.453 243.538C103.347 243.592 102.493 244.525 102.547 245.632C102.6 246.699 103.493 247.525 104.547 247.525C104.587 247.525 104.613 247.525 104.653 247.525C121.96 246.66 139.413 246.167 156.507 246.072C157.613 246.072 158.507 245.167 158.507 244.072C158.493 242.965 157.6 242.072 156.507 242.072" fill="#373D4C"/>
<path d="M171.373 215.538C172.493 215.538 173.387 214.645 173.387 213.553C173.4 212.447 172.507 211.538 171.4 211.538C146.493 211.338 120.947 211.979 95.4798 213.472C94.3732 213.538 93.5332 214.485 93.5999 215.579C93.6532 216.645 94.5333 217.472 95.5866 217.472C95.6266 217.472 95.6667 217.472 95.7067 217.459C121.093 215.979 146.533 215.338 171.373 215.538" fill="#373D4C"/>
<path d="M62.3198 152.685H70.4131C71.5197 152.685 72.4131 151.792 72.4131 150.685C72.4131 149.579 71.5197 148.685 70.4131 148.685H62.3198C61.2132 148.685 60.3198 149.579 60.3198 150.685C60.3198 151.792 61.2132 152.685 62.3198 152.685Z" fill="#57B9D4"/>
<path d="M58.8533 60.6854H65.6931C66.7998 60.6854 67.6931 59.78 67.6931 58.6854C67.6931 57.5787 66.7998 56.6854 65.6931 56.6854H58.8533C57.7466 56.6854 56.8533 57.5787 56.8533 58.6854C56.8533 59.78 57.7466 60.6854 58.8533 60.6854Z" fill="#57B9D4"/>
<path d="M54.5999 74.3267H58.8532C59.9599 74.3267 60.8532 73.432 60.8532 72.3267C60.8532 71.232 59.9599 70.3267 58.8532 70.3267H54.5999C53.5065 70.3267 52.5999 71.232 52.5999 72.3267C52.5999 73.432 53.5065 74.3267 54.5999 74.3267Z" fill="#57B9D4"/>
<path d="M88.1199 244.472C42.9066 247.393 13.3466 251.993 13.0532 252.032C11.9599 252.205 11.2132 253.232 11.3866 254.326C11.5466 255.312 12.3997 256.019 13.3597 256.019C13.4664 256.019 13.5731 256.005 13.6798 255.993C13.9731 255.94 43.3599 251.366 88.3866 248.459C89.4799 248.393 90.3199 247.447 90.2532 246.338C90.1732 245.232 89.2266 244.393 88.1199 244.472" fill="#373D4C"/>
<path d="M26.6399 144.607C27.7465 144.607 28.6399 143.712 28.6399 142.607C28.6399 141.5 27.7465 140.607 26.6399 140.607H22.9331C21.8264 140.607 20.9331 141.5 20.9331 142.607C20.9331 143.712 21.8264 144.607 22.9331 144.607H26.6399Z" fill="#57B9D4"/>
<path d="M76.1597 216.765C76.0664 215.66 75.0931 214.819 74.0131 214.925C36.9998 217.78 13.5065 221.447 13.2798 221.472C12.1865 221.645 11.4398 222.672 11.6131 223.765C11.7598 224.752 12.6132 225.459 13.5866 225.459C13.6799 225.459 13.7864 225.447 13.8931 225.432C14.1197 225.393 37.4666 221.752 74.3199 218.912C75.4132 218.833 76.2397 217.872 76.1597 216.765" fill="#373D4C"/>
<path d="M19.5067 194.833C19.5067 189.485 23.8665 185.139 29.2132 185.139C30.6932 185.139 32.1466 185.5 33.4666 186.139V203.645C30.8799 203.887 28.5199 204.125 26.3866 204.338C26.1866 204.138 25.9465 203.979 25.6798 203.859C21.9332 202.393 19.5067 198.845 19.5067 194.833V194.833ZM15.9598 179.245C15.9598 177.139 17.6667 175.419 19.7733 175.419C21.8933 175.419 23.5999 177.139 23.5999 179.245C23.5999 181.352 21.8933 183.072 19.7733 183.072C17.6667 183.072 15.9598 181.352 15.9598 179.245ZM37.4666 173.525L42.4265 168.539L47.3866 173.525V202.379C43.8399 202.685 40.5332 202.979 37.4666 203.259V173.525ZM51.3866 197.685V173.525L55.8533 169.032L60.3199 173.525V197.685V201.352C57.2266 201.579 54.2399 201.819 51.3866 202.045V197.685ZM64.3199 197.685V173.525L69.2798 168.539L73.4132 172.685L74.24 173.525V197.685V200.379C73.3867 200.432 72.5465 200.485 71.6931 200.554C69.1865 200.726 66.7199 200.887 64.3199 201.06V197.685ZM78.24 197.685V173.525L82.6931 169.045L87.1733 173.539V197.685V199.592C84.12 199.766 81.1467 199.94 78.24 200.125V197.685ZM91.1733 197.685V173.525L96.1332 168.539L98.2666 170.672L101.093 173.525V197.685V198.085C101.093 198.366 101.16 198.645 101.267 198.887C97.8266 199.045 94.4667 199.205 91.1733 199.379V197.685ZM105.093 198.085V165.993L110.493 155.179H183.213L188.826 166.273V198.085C182.76 197.925 176.707 197.792 170.68 197.712C168 197.66 165.333 197.632 162.667 197.619V164.152C162.667 163.045 161.773 162.152 160.667 162.152H133.253C132.147 162.152 131.253 163.045 131.253 164.152V197.872C129.067 197.925 126.893 197.979 124.747 198.045C117.973 198.22 111.373 198.459 104.973 198.726C105.053 198.525 105.093 198.312 105.093 198.085V198.085ZM122.36 131.447L146.32 116.819L171.333 131.699L181.187 151.179H112.493L122.36 131.447ZM161.013 116.113C161.067 116.113 161.133 116.099 161.187 116.099C161.24 116.099 161.293 116.113 161.36 116.113H166.533L176.64 123.405C176.987 123.66 177.4 123.78 177.8 123.78C178.12 123.78 178.427 123.712 178.72 123.565C179.387 123.22 179.8 122.525 179.8 121.78V116.113H180.213L200.133 128.22L173.253 128.179L152.96 116.113H161.013ZM223.52 163.525H191.92L176.067 132.192L205.773 132.232L223.52 163.525ZM208.307 184.085H202.333C201.227 184.085 200.333 183.192 200.333 182.085C200.333 180.979 201.227 180.085 202.333 180.085H208.307C209.413 180.085 210.307 180.979 210.307 182.085C210.307 183.192 209.413 184.085 208.307 184.085ZM196.853 173.833C196.853 172.727 197.76 171.833 198.853 171.833H203.187C204.293 171.833 205.187 172.727 205.187 173.833C205.187 174.925 204.293 175.833 203.187 175.833H198.853C197.76 175.833 196.853 174.925 196.853 173.833ZM158.667 179.285H151.267L158.667 170.032V179.285ZM148.96 175.765V166.152H156.653L148.96 175.765ZM158.667 192.912L150.973 183.285H158.667V192.912ZM148.96 196.419V187.179L156.36 196.419H148.96ZM144.96 175.765L137.267 166.152H144.96V175.765ZM144.96 196.419H137.56L144.96 187.179V196.419ZM135.253 179.285V170.032L142.653 179.285H135.253ZM142.947 183.285L135.253 192.912V183.285H142.947ZM228.626 200.352V173.525L233.587 168.539L238.547 173.525V197.685V201.326C235.253 200.993 231.933 200.685 228.613 200.405C228.613 200.393 228.626 200.379 228.626 200.352ZM247.013 169.032L251.48 173.525V202.738C249.12 202.447 246.733 202.179 244.347 201.925C243.747 201.859 243.147 201.792 242.547 201.726C242.547 201.685 242.547 197.685 242.547 197.685V173.525L243.373 172.685L247.013 169.032ZM255.48 186.819C256.427 186.273 257.32 186.085 258.92 186.085C263.293 186.085 266.853 189.645 266.853 194.019C266.853 198.393 263.293 201.94 258.92 201.94C257.427 201.94 256.413 201.738 255.48 201.232V186.819ZM266.4 175.833C268.387 175.833 270.013 177.459 270.013 179.447C270.013 181.447 268.387 183.072 266.4 183.072C264.4 183.072 262.773 181.447 262.773 179.447C262.773 177.459 264.4 175.833 266.4 175.833ZM11.5332 208.019C11.6666 209.113 12.6665 209.899 13.7598 209.752C14.3331 209.685 37.4398 206.845 71.9598 204.525C87.5865 203.485 105.56 202.554 124.853 202.019C139.493 201.632 154.907 201.472 170.613 201.685C194.88 202.032 219.867 203.273 243.907 205.887C253.533 206.94 263 208.22 272.2 209.738C272.307 209.766 272.413 209.78 272.52 209.78C273.493 209.78 274.333 209.072 274.493 208.099C274.68 207.005 273.947 205.979 272.853 205.805C270.12 205.352 267.36 204.925 264.587 204.512C268.307 202.5 270.853 198.538 270.853 194.019C270.853 191.299 269.92 188.805 268.387 186.792C271.627 185.912 274.013 182.965 274.013 179.447C274.013 175.245 270.6 171.833 266.4 171.833C262.187 171.833 258.773 175.245 258.773 179.447C258.773 180.379 258.947 181.273 259.253 182.099C259.147 182.099 259.04 182.085 258.92 182.085C257.68 182.085 256.573 182.179 255.48 182.5V172.712C255.48 172.179 255.266 171.672 254.893 171.299L254.307 170.712L251.026 167.405V103.419L265.44 113.619C265.787 113.872 266.2 113.993 266.6 113.993C267.227 113.993 267.84 113.699 268.226 113.152C268.866 112.245 268.653 110.993 267.747 110.365L251.026 98.512V92.912L261.307 100.379C261.667 100.632 262.08 100.752 262.48 100.752C263.107 100.752 263.707 100.472 264.107 99.9254C264.747 99.032 264.56 97.78 263.653 97.1387L251.026 87.9654V82.872L259 88.78C259.347 89.0454 259.773 89.1667 260.187 89.1667C260.8 89.1667 261.4 88.8867 261.787 88.3654C262.453 87.472 262.267 86.22 261.373 85.5654L251.026 77.8987V72.78L257.72 77.8187C258.08 78.0854 258.493 78.22 258.92 78.22C259.52 78.22 260.12 77.94 260.52 77.4187C261.187 76.5387 261 75.2854 260.12 74.6187L251.026 67.78V63.072L255.6 66.632C255.96 66.9254 256.4 67.06 256.826 67.06C257.426 67.06 258.013 66.792 258.413 66.2854C259.093 65.4187 258.933 64.1667 258.067 63.4854L251.026 57.9934V49.4467C251.026 48.3387 250.133 47.4467 249.026 47.4467C247.92 47.4467 247.026 48.3387 247.026 49.4467V58.032L240.04 63.4854C239.173 64.1667 239.013 65.4187 239.693 66.2854C240.093 66.792 240.68 67.06 241.28 67.06C241.707 67.06 242.133 66.9254 242.507 66.632L247.026 63.1134V67.8187L237.987 74.6187C237.093 75.2854 236.92 76.5387 237.587 77.4187C237.973 77.94 238.573 78.22 239.187 78.22C239.6 78.22 240.027 78.0854 240.387 77.8187L247.026 72.8187V77.94L236.733 85.5654C235.84 86.22 235.653 87.472 236.307 88.3654C236.707 88.8867 237.307 89.1667 237.92 89.1667C238.333 89.1667 238.747 89.0454 239.107 88.78L247.026 82.912V88.0054L234.44 97.1387C233.547 97.78 233.347 99.032 234 99.9254C234.387 100.472 235 100.752 235.626 100.752C236.026 100.752 236.44 100.632 236.8 100.379L247.026 92.952V98.5534L230.347 110.365C229.453 110.993 229.24 112.245 229.88 113.152C230.267 113.699 230.88 113.993 231.507 113.993C231.907 113.993 232.307 113.872 232.667 113.619L247.026 103.447V164.539C246.4 164.447 245.773 164.607 245.307 165.072L240.547 169.872L235.213 164.5C234.773 164.06 234.173 163.887 233.587 163.952C233 163.887 232.4 164.06 231.96 164.5L228.467 168.005V164.685C228.467 164.339 228.387 163.993 228.213 163.685L208.68 129.245C208.52 128.833 208.253 128.472 207.853 128.232L181.813 112.405C181.507 112.22 181.147 112.113 180.773 112.113H179.8V102.459C179.8 101.352 178.907 100.459 177.8 100.459H161.36C160.253 100.459 159.36 101.352 159.36 102.459V112.113H146.92C146.547 112.113 146.187 112.22 145.88 112.405L144.24 113.405L134.693 119.232V88.4587L149.907 99.232C150.253 99.4854 150.653 99.6067 151.053 99.6067C151.68 99.6067 152.306 99.2987 152.693 98.752C153.333 97.8587 153.12 96.6067 152.213 95.9654L134.693 83.5534V77.472L145.587 85.3787C145.947 85.632 146.346 85.7654 146.76 85.7654C147.373 85.7654 147.987 85.472 148.387 84.94C149.027 84.0454 148.827 82.792 147.933 82.1387L134.693 72.5387V66.9787L143.173 73.2587C143.52 73.5254 143.946 73.6454 144.36 73.6454C144.973 73.6454 145.573 73.3654 145.96 72.8454C146.626 71.952 146.44 70.6987 145.547 70.0454L134.693 62.0054V56.432L141.826 61.8054C142.186 62.072 142.613 62.2054 143.04 62.2054C143.64 62.2054 144.24 61.9254 144.626 61.4054C145.293 60.5254 145.12 59.2734 144.24 58.6067L134.693 51.4187V46.2734L139.626 50.1134C139.986 50.4054 140.427 50.5387 140.853 50.5387C141.44 50.5387 142.04 50.2734 142.426 49.7654C143.106 48.8987 142.947 47.632 142.08 46.9654L134.693 41.2054V32.22C134.693 31.1134 133.8 30.22 132.693 30.22C131.586 30.22 130.693 31.1134 130.693 32.22V41.2454L123.36 46.9654C122.493 47.632 122.333 48.8987 123.013 49.7654C123.4 50.2734 124 50.5387 124.587 50.5387C125.013 50.5387 125.453 50.4054 125.813 50.1134L130.693 46.312V51.4587L121.2 58.6067C120.32 59.2734 120.147 60.5254 120.8 61.4054C121.2 61.9254 121.8 62.2054 122.4 62.2054C122.827 62.2054 123.24 62.072 123.613 61.8054L130.693 56.472V62.0454L119.893 70.0454C119 70.6987 118.813 71.952 119.48 72.8454C119.867 73.3654 120.467 73.6454 121.08 73.6454C121.493 73.6454 121.92 73.5254 122.267 73.2587L130.693 67.0187V72.5787L117.507 82.1387C116.613 82.792 116.413 84.0454 117.067 84.94C117.453 85.472 118.067 85.7654 118.68 85.7654C119.093 85.7654 119.493 85.632 119.853 85.3787L130.693 77.512V83.592L113.226 95.9654C112.32 96.6067 112.107 97.8587 112.747 98.752C113.133 99.312 113.76 99.6067 114.387 99.6067C114.787 99.6067 115.187 99.4854 115.533 99.232L130.693 88.5V121.672L119.787 128.327C119.467 128.525 119.2 128.805 119.04 129.139L118.787 129.66L101.307 164.632C101.253 164.752 101.227 164.819 101.2 164.887C101.187 164.94 101.16 165.005 101.147 165.06C101.133 165.125 101.133 165.179 101.12 165.245C101.107 165.327 101.106 165.393 101.093 165.459C101.093 165.485 101.093 165.5 101.093 165.525V167.859L97.7598 164.5C97.3198 164.06 96.7199 163.887 96.1332 163.952C95.5466 163.887 94.9467 164.06 94.5067 164.5L89.1598 169.872L88.2265 168.94V126.632L103.48 137.419C103.827 137.672 104.226 137.792 104.626 137.792C105.253 137.792 105.88 137.5 106.267 136.952C106.907 136.045 106.693 134.792 105.787 134.167L88.2265 121.727V113.167L105.493 125.285C105.84 125.539 106.24 125.66 106.64 125.66C107.267 125.66 107.88 125.352 108.28 124.805C108.907 123.899 108.693 122.66 107.787 122.019L88.2265 108.273V100.632L103.48 111.432C103.827 111.672 104.226 111.792 104.626 111.792C105.253 111.792 105.88 111.5 106.267 110.952C106.907 110.045 106.693 108.805 105.787 108.167L88.2265 95.7267V89.632L99.1465 97.5534C99.5065 97.8054 99.92 97.94 100.32 97.94C100.947 97.94 101.56 97.6454 101.947 97.1134C102.587 96.22 102.4 94.9654 101.507 94.312L88.2265 84.6854V79.1134L96.7332 85.4054C97.0799 85.672 97.5066 85.8054 97.92 85.8054C98.5333 85.8054 99.1333 85.5254 99.52 84.9934C100.187 84.0987 100 82.8454 99.1067 82.192L88.2265 74.1387V68.5387L95.3866 73.9254C95.7466 74.2054 96.1733 74.3267 96.5866 74.3267C97.2 74.3267 97.8 74.06 98.1866 73.5387C98.8533 72.6454 98.6799 71.3934 97.7999 70.7387L88.2265 63.5387V58.3654L93.1733 62.22C93.5467 62.512 93.9732 62.6454 94.3999 62.6454C94.9999 62.6454 95.5866 62.3787 95.9866 61.872C96.6666 61.0054 96.5067 59.7387 95.64 59.072L88.2265 53.2987V43.152C88.2265 42.0454 87.3331 41.152 86.2265 41.152C85.1331 41.152 84.2265 42.0454 84.2265 43.152V53.3387L76.8798 59.072C76.0132 59.7387 75.8532 61.0054 76.5332 61.872C76.9332 62.3787 77.52 62.6454 78.1067 62.6454C78.5467 62.6454 78.9732 62.512 79.3465 62.22L84.2265 58.4054V63.5787L74.7199 70.7387C73.8399 71.3934 73.6666 72.6454 74.3199 73.5387C74.7199 74.06 75.3199 74.3267 75.9199 74.3267C76.3466 74.3267 76.7599 74.2054 77.1199 73.9254L84.2265 68.5787V74.1787L73.3999 82.192C72.5199 82.8454 72.3333 84.0987 72.9866 84.9934C73.3866 85.5254 73.9866 85.8054 74.5999 85.8054C75.0132 85.8054 75.4266 85.672 75.7866 85.4054L84.2265 79.152V84.7267L71.0132 94.312C70.1198 94.9654 69.92 96.22 70.5733 97.1134C70.96 97.6454 71.5733 97.94 72.1866 97.94C72.5999 97.94 73.0131 97.8054 73.3598 97.5534L84.2265 89.672V95.7654L66.7332 108.167C65.8266 108.805 65.6133 110.045 66.2533 110.952C66.6399 111.5 67.2532 111.792 67.8798 111.792C68.2798 111.792 68.6933 111.672 69.04 111.432L84.2265 100.672V108.312L64.7332 122.019C63.8266 122.66 63.6133 123.899 64.24 124.805C64.6267 125.352 65.2532 125.66 65.8798 125.66C66.2798 125.66 66.6798 125.539 67.0265 125.285L84.2265 113.205V121.765L66.7332 134.167C65.8266 134.792 65.6133 136.045 66.2533 136.952C66.6399 137.5 67.2532 137.792 67.8798 137.792C68.2798 137.792 68.6933 137.672 69.04 137.419L84.2265 126.66V164.979C83.7865 164.607 83.2265 164.459 82.6931 164.539C82.0798 164.459 81.4532 164.607 80.9999 165.072L76.24 169.872L70.9067 164.5C70.4667 164.06 69.8665 163.887 69.2798 163.952C68.6932 163.887 68.0933 164.06 67.6533 164.5L62.3199 169.872L57.5598 165.072C57.0931 164.607 56.4666 164.447 55.8533 164.539C55.2533 164.447 54.6132 164.607 54.1465 165.072L49.3866 169.872L44.0666 164.5C43.6132 164.06 43.0131 163.887 42.4265 163.952C41.8531 163.887 41.2532 164.06 40.7999 164.5L40.7465 164.553V119.273L53.4533 128.273C53.7999 128.512 54.1999 128.632 54.5999 128.632C55.2266 128.632 55.8533 128.339 56.24 127.792C56.88 126.899 56.6665 125.645 55.7598 125.005L40.7465 114.365V109.805L49.7199 116.312C50.0799 116.565 50.4798 116.685 50.8931 116.685C51.5065 116.685 52.12 116.405 52.5067 115.859C53.16 114.965 52.9599 113.727 52.0666 113.072L40.7465 104.859V100.739L47.6265 105.845C47.9865 106.099 48.3998 106.232 48.8132 106.232C49.4265 106.232 50.0398 105.952 50.4265 105.419C51.0798 104.539 50.8932 103.285 50.0132 102.632L40.7465 95.7654V91.632L46.4666 95.94C46.8399 96.22 47.2532 96.352 47.6798 96.352C48.2798 96.352 48.8798 96.072 49.2798 95.5534C49.9332 94.672 49.7598 93.4187 48.8798 92.752L40.7465 86.632V82.872L44.5598 85.8454C44.9198 86.1387 45.3599 86.2734 45.7866 86.2734C46.3866 86.2734 46.9733 86.0054 47.3733 85.5C48.0533 84.632 47.8932 83.3787 47.0132 82.6987L40.7465 77.8054V70.1787C40.7465 69.072 39.8532 68.1787 38.7465 68.1787C37.6398 68.1787 36.7465 69.072 36.7465 70.1787V77.8454L30.5199 82.6987C29.6399 83.3787 29.4933 84.632 30.1733 85.5C30.56 86.0054 31.1465 86.2734 31.7465 86.2734C32.1732 86.2734 32.6133 86.1387 32.9733 85.8454L36.7465 82.912V86.66L28.6533 92.752C27.7733 93.4187 27.5999 94.672 28.2666 95.5534C28.6532 96.072 29.2532 96.352 29.8666 96.352C30.2799 96.352 30.7066 96.22 31.0666 95.94L36.7465 91.672V95.792L27.5332 102.632C26.6399 103.285 26.4533 104.539 27.1067 105.419C27.5067 105.952 28.1066 106.232 28.7199 106.232C29.1333 106.232 29.5467 106.099 29.9067 105.845L36.7465 100.78V104.887L25.4666 113.072C24.5732 113.727 24.3731 114.965 25.0265 115.859C25.4131 116.405 26.0267 116.685 26.64 116.685C27.0533 116.685 27.4665 116.565 27.8132 116.312L36.7465 109.833V114.405L21.7733 125.005C20.88 125.645 20.6665 126.899 21.2931 127.792C21.6931 128.352 22.3066 128.632 22.9332 128.632C23.3332 128.632 23.7331 128.512 24.0931 128.273L36.7465 119.299V168.579L34.0533 171.299C33.6799 171.672 33.4666 172.179 33.4666 172.712V181.845C32.0932 181.393 30.6665 181.139 29.2132 181.139C28.5732 181.139 27.9466 181.192 27.3332 181.285C27.5066 180.632 27.5999 179.952 27.5999 179.245C27.5999 174.925 24.0933 171.419 19.7733 171.419C15.4667 171.419 11.9598 174.925 11.9598 179.245C11.9598 182.979 14.5865 186.099 18.0798 186.887C16.4665 189.125 15.5067 191.859 15.5067 194.833C15.5067 198.819 17.2 202.472 20.04 205.019C15.8267 205.472 13.4399 205.766 13.2666 205.792C12.1732 205.925 11.3866 206.925 11.5332 208.019" fill="#373D4C"/>
<path d="M13.4667 240.738C13.5734 240.738 13.6801 240.726 13.7868 240.712C13.8801 240.699 23.0935 239.259 38.9068 237.5C40.0135 237.379 40.8 236.379 40.68 235.285C40.56 234.192 39.5734 233.405 38.4667 233.512C22.5467 235.285 13.2533 236.738 13.1599 236.752C12.0666 236.925 11.3335 237.952 11.5068 239.045C11.6535 240.032 12.5067 240.738 13.4667 240.738" fill="#373D4C"/>
</g>
</svg>
