<svg width="288" height="288" viewBox="0 0 288 288" fill="none" xmlns="http://www.w3.org/2000/svg">
<mask id="mask0_221:13934" style="mask-type:alpha" maskUnits="userSpaceOnUse" x="0" y="0" width="288" height="288">
<circle cx="144" cy="144" r="144" fill="#C4C4C4"/>
</mask>
<g mask="url(#mask0_221:13934)">
<path d="M1347.87 597.453H-1388V-21.996H1347.87V597.453Z" fill="#FFFEFA"/>
<path d="M15.6133 230.613V259.889H271.88V231.676C271.88 231.676 230.627 196.356 164.013 194.763C97.3866 193.169 72.0533 192.279 15.6133 230.613Z" fill="#A0D7A0"/>
<path d="M203.72 188.916L203.147 190.569L199.72 200.489H185.773C178 185.397 174.707 162.156 173.44 149.583C174.147 150.769 174.853 151.929 175.56 153.064C186.093 170.064 195.92 181.451 203.72 188.916Z" fill="#E8DECF"/>
<path d="M168.253 149.183C167.347 161.397 164.827 184.383 158.107 200.489H144.267L140.187 186.489C148.16 178.436 157.92 166.529 168.253 149.183Z" fill="#E8DECF"/>
<path d="M136.947 189.649L140.107 200.489H123.04C125.787 198.863 130.667 195.556 136.947 189.649Z" fill="#80A0AC"/>
<path d="M89.72 187.503H133.28C128.24 192.144 124.24 194.983 121.76 196.543V195.636C121.76 194.529 120.867 193.636 119.76 193.636C118.653 193.636 117.76 194.529 117.76 195.636V200.037V200.489H88.6533V187.503H89.72Z" fill="#80A0AC"/>
<path d="M248.747 241.343H178.4C179.107 239.064 180.867 237.183 182.613 237.183C183.813 237.183 184.92 237.716 185.773 238.676C186.067 239.236 186.6 239.649 187.267 239.743C187.36 239.743 187.453 239.757 187.547 239.757C188.52 239.757 189.387 239.037 189.52 238.037C190.6 230.316 194.4 230.316 195.653 230.316C197.76 230.316 199.72 231.489 200.92 233.451C201.507 234.383 202.733 234.676 203.68 234.103C204.293 233.731 204.627 233.064 204.627 232.397C204.627 226.849 208.6 222.383 213.493 222.383C218.373 222.383 222.347 226.849 222.347 232.329C222.347 233.064 222.68 233.731 223.293 234.103C224.24 234.676 225.467 234.383 226.053 233.451C227.253 231.489 229.227 230.316 231.32 230.316C234.027 230.316 236.867 231.196 237.56 237.649C237.64 238.424 238.173 239.049 238.867 239.303C239.667 239.704 240.667 239.503 241.267 238.784C242.133 237.757 243.293 237.183 244.533 237.183C246.28 237.183 248.04 239.064 248.747 241.343Z" fill="#B4D452"/>
<path d="M47.5999 255.183C48.5866 255.183 49.44 254.463 49.5866 253.463C50.92 243.849 55.7599 243.849 57.3465 243.849C59.9999 243.849 62.4932 245.329 64.0132 247.796C64.5999 248.743 65.8266 249.023 66.7732 248.451C67.3866 248.076 67.72 247.409 67.72 246.731C67.72 239.863 72.6666 234.329 78.7599 234.329C84.84 234.329 89.7866 239.863 89.7866 246.663C89.7866 246.689 89.7999 246.704 89.7999 246.731C89.7999 247.409 90.1199 248.076 90.7465 248.451C91.6799 249.023 92.9199 248.743 93.4933 247.796C95.0133 245.329 97.5066 243.849 100.16 243.849C104.947 243.849 107.387 246.676 108.053 252.996C108.133 253.784 108.667 254.409 109.36 254.663C110.173 255.076 111.187 254.889 111.8 254.169C112.907 252.823 114.413 252.091 116.027 252.091C118.467 252.091 120.867 254.743 121.613 257.889H36.1066C36.8532 254.743 39.2532 252.091 41.6799 252.091C43.2399 252.091 44.6933 252.796 45.7999 254.049C46.0799 254.636 46.64 255.064 47.32 255.156C47.4133 255.169 47.5066 255.183 47.5999 255.183Z" fill="#CCE294"/>
<path d="M132.227 149.556C132.227 148.451 131.32 147.556 130.227 147.556H122.773C121.667 147.556 120.773 148.451 120.773 149.556C120.773 150.663 121.667 151.556 122.773 151.556H130.227C131.32 151.556 132.227 150.663 132.227 149.556ZM158.56 142.889H167.28C156.307 162.091 145.813 175.023 137.427 183.503H89.72C98.0933 174.529 108.093 161.516 118.547 142.889H158.56Z" fill="#E36C48"/>
<path d="M270.813 241.343H259.84C258.733 241.343 257.84 242.236 257.84 243.343C257.84 244.449 258.733 245.343 259.84 245.343H270.813C271.92 245.343 272.813 244.449 272.813 243.343C272.813 242.236 271.92 241.343 270.813 241.343Z" fill="#FFFEFA"/>
<path d="M187.533 211.489C186.44 211.489 185.533 212.383 185.533 213.489C185.533 214.596 186.44 215.489 187.533 215.489H195.08C196.187 215.489 197.08 214.596 197.08 213.489C197.08 212.383 196.187 211.489 195.08 211.489H187.533Z" fill="#4D7591"/>
<path d="M195.08 257.889H181.893C180.787 257.889 179.893 258.783 179.893 259.889C179.893 260.983 180.787 261.889 181.893 261.889H195.08C196.187 261.889 197.08 260.983 197.08 259.889C197.08 258.783 196.187 257.889 195.08 257.889Z" fill="#373D4C"/>
<path d="M178.4 241.343C179.107 239.063 180.867 237.183 182.613 237.183C183.813 237.183 184.92 237.716 185.773 238.676C186.067 239.236 186.6 239.649 187.267 239.743C187.36 239.743 187.453 239.756 187.547 239.756C188.52 239.756 189.387 239.036 189.52 238.036C190.6 230.316 194.4 230.316 195.653 230.316C197.76 230.316 199.72 231.489 200.92 233.449C201.507 234.383 202.733 234.676 203.68 234.103C204.293 233.729 204.627 233.063 204.627 232.396C204.627 226.849 208.6 222.383 213.493 222.383C218.373 222.383 222.347 226.849 222.347 232.329C222.347 233.063 222.68 233.729 223.293 234.103C224.24 234.676 225.467 234.383 226.053 233.449C227.253 231.489 229.227 230.316 231.32 230.316C234.027 230.316 236.867 231.196 237.56 237.649C237.64 238.423 238.173 239.049 238.867 239.303C239.667 239.703 240.667 239.503 241.267 238.783C242.133 237.756 243.293 237.183 244.533 237.183C246.28 237.183 248.04 239.063 248.747 241.343H178.4ZM244.533 233.183C243.28 233.183 242.067 233.489 240.947 234.036C239.253 227.756 234.907 226.316 231.32 226.316C229.307 226.316 227.387 226.956 225.733 228.089C224.08 222.476 219.213 218.383 213.493 218.383C207.76 218.383 202.893 222.476 201.24 228.089C199.6 226.956 197.68 226.316 195.653 226.316C192.88 226.316 188.333 227.423 186.293 234.089C185.16 233.503 183.893 233.183 182.613 233.183C177.587 233.183 174.093 238.529 174.093 243.343C174.093 244.449 174.987 245.343 176.093 245.343H251.053C252.16 245.343 253.053 244.449 253.053 243.343C253.053 238.529 249.56 233.183 244.533 233.183Z" fill="#373D4C"/>
<path d="M167.787 241.343H158.227C157.12 241.343 156.227 242.236 156.227 243.343C156.227 244.449 157.12 245.343 158.227 245.343H167.787C168.893 245.343 169.787 244.449 169.787 243.343C169.787 242.236 168.893 241.343 167.787 241.343Z" fill="#FFFEFA"/>
<path d="M157.933 257.889H135.56C134.453 257.889 133.56 258.783 133.56 259.889C133.56 260.983 134.453 261.889 135.56 261.889H157.933C159.027 261.889 159.933 260.983 159.933 259.889C159.933 258.783 159.027 257.889 157.933 257.889Z" fill="#373D4C"/>
<path d="M115.893 234.329H153.44C154.547 234.329 155.44 233.436 155.44 232.329C155.44 231.223 154.547 230.329 153.44 230.329H115.893C114.787 230.329 113.893 231.223 113.893 232.329C113.893 233.436 114.787 234.329 115.893 234.329Z" fill="#373D4C"/>
<path d="M145.52 222.103C146.627 222.103 147.52 221.196 147.52 220.103C147.52 218.996 146.627 218.103 145.52 218.103H138.747C137.64 218.103 136.747 218.996 136.747 220.103C136.747 221.196 137.64 222.103 138.747 222.103H145.52Z" fill="#373D4C"/>
<path d="M130.227 147.556H122.773C121.667 147.556 120.773 148.449 120.773 149.556C120.773 150.663 121.667 151.556 122.773 151.556H130.227C131.32 151.556 132.227 150.663 132.227 149.556C132.227 148.449 131.32 147.556 130.227 147.556Z" fill="#373D4C"/>
<path d="M92.2799 222.103H122.773C123.88 222.103 124.773 221.196 124.773 220.103C124.773 218.996 123.88 218.103 122.773 218.103H92.2799C91.1732 218.103 90.2799 218.996 90.2799 220.103C90.2799 221.196 91.1732 222.103 92.2799 222.103Z" fill="#373D4C"/>
<path d="M94.4267 209.876C94.4267 208.769 93.5333 207.876 92.4267 207.876H78.92C77.8267 207.876 76.92 208.769 76.92 209.876C76.92 210.983 77.8267 211.876 78.92 211.876H92.4267C93.5333 211.876 94.4267 210.983 94.4267 209.876Z" fill="#FFFEFA"/>
<path d="M47.5465 224.356C46.4398 224.356 45.5465 225.249 45.5465 226.356C45.5465 227.463 46.4398 228.356 47.5465 228.356H61.9599C63.0666 228.356 63.9599 227.463 63.9599 226.356C63.9599 225.249 63.0666 224.356 61.9599 224.356H47.5465Z" fill="#4D7591"/>
<path d="M84.6533 188.649V195.036C80.04 196.423 75.6 197.916 71.32 199.476C74.3733 197.503 78.9866 194.103 84.6533 188.649ZM88.6533 187.503H133.28C128.24 192.143 124.24 194.983 121.76 196.543V195.636C121.76 194.529 120.867 193.636 119.76 193.636C118.653 193.636 117.76 194.529 117.76 195.636V200.036V200.489H88.6533V187.503ZM118.547 142.889H167.28C156.307 162.089 145.813 175.023 137.427 183.503H89.72C98.0933 174.529 108.093 161.516 118.547 142.889ZM158.107 200.489H144.267L140.187 186.489C148.16 178.436 157.92 166.529 168.253 149.183C167.347 161.396 164.827 184.383 158.107 200.489ZM175.56 153.063C186.093 170.063 195.92 181.449 203.72 188.916L203.147 190.569L199.72 200.489H185.773C178 185.396 174.707 162.156 173.44 149.583C174.147 150.769 174.853 151.929 175.56 153.063ZM218.44 200.503C217 199.956 215.533 199.423 214.04 198.903C211.267 197.903 208.413 196.943 205.493 196.023L206.92 191.876C212.067 196.436 216.067 199.103 218.44 200.503ZM123.04 200.489C125.787 198.863 130.667 195.556 136.947 189.649L140.107 200.489H123.04ZM16.1465 232.076C16.5599 232.076 16.9865 231.943 17.3465 231.676C17.5599 231.529 33.3866 219.863 58.3999 208.943C60.3466 208.089 62.3599 207.249 64.4132 206.409V207.009C64.4132 208.116 65.3065 209.009 66.4132 209.009C67.5199 209.009 68.4132 208.116 68.4132 207.009V204.836C73.5465 202.849 78.9733 200.956 84.6533 199.223V202.489C84.6533 203.596 85.56 204.489 86.6533 204.489H117.76V207.009C117.76 208.116 118.653 209.009 119.76 209.009C120.867 209.009 121.76 208.116 121.76 207.009V204.489H201.147C202 204.489 202.76 203.943 203.04 203.143L204.187 199.809C207.093 200.716 209.933 201.676 212.707 202.663C215.467 203.649 218.16 204.663 220.773 205.703V207.009C220.773 208.116 221.667 209.009 222.773 209.009C223.773 209.009 224.6 208.276 224.747 207.316C228.147 208.729 231.4 210.169 234.48 211.609C256.04 221.676 269.44 231.543 269.627 231.676C269.987 231.943 270.4 232.076 270.813 232.076C271.427 232.076 272.027 231.796 272.427 231.276C273.08 230.383 272.893 229.129 272.013 228.476C271.867 228.369 263.987 222.556 250.613 215.289V167.129L266.04 178.049C266.387 178.303 266.8 178.423 267.2 178.423C267.827 178.423 268.44 178.129 268.827 177.569C269.467 176.676 269.253 175.423 268.347 174.783L250.613 162.223V153.529L268.067 165.796C268.413 166.049 268.827 166.169 269.213 166.169C269.853 166.169 270.467 165.863 270.853 165.316C271.493 164.409 271.28 163.156 270.373 162.529L250.613 148.649V140.876L266.04 151.809C266.387 152.049 266.8 152.169 267.2 152.169C267.827 152.169 268.44 151.876 268.827 151.329C269.467 150.423 269.253 149.183 268.347 148.543L250.613 135.983V129.769L261.68 137.796C262.027 138.049 262.44 138.183 262.84 138.183C263.467 138.183 264.08 137.889 264.467 137.356C265.12 136.463 264.92 135.209 264.027 134.556L250.613 124.836V119.156L259.227 125.529C259.587 125.796 260 125.929 260.413 125.929C261.027 125.929 261.627 125.649 262.027 125.116C262.68 124.236 262.493 122.983 261.613 122.316L250.613 114.183V108.476L257.88 113.943C258.24 114.209 258.653 114.343 259.08 114.343C259.68 114.343 260.28 114.076 260.68 113.543C261.347 112.663 261.16 111.409 260.28 110.743L250.613 103.476V98.2094L255.64 102.129C256.013 102.409 256.44 102.543 256.867 102.543C257.467 102.543 258.053 102.276 258.453 101.769C259.133 100.903 258.973 99.6507 258.107 98.9694L250.613 93.1427V82.8894C250.613 81.7827 249.72 80.8894 248.613 80.8894C247.52 80.8894 246.613 81.7827 246.613 82.8894V93.1827L239.187 98.9694C238.32 99.6507 238.16 100.903 238.84 101.769C239.24 102.276 239.827 102.543 240.427 102.543C240.853 102.543 241.28 102.409 241.653 102.129L246.613 98.2494V103.516L237.013 110.743C236.133 111.409 235.947 112.663 236.613 113.543C237.013 114.076 237.613 114.343 238.213 114.343C238.627 114.343 239.053 114.209 239.413 113.943L246.613 108.529V114.209L235.68 122.316C234.8 122.983 234.613 124.236 235.267 125.116C235.653 125.649 236.267 125.929 236.88 125.929C237.293 125.929 237.707 125.796 238.067 125.529L246.613 119.196V124.876L233.267 134.556C232.373 135.209 232.173 136.463 232.827 137.356C233.213 137.889 233.827 138.183 234.44 138.183C234.853 138.183 235.267 138.049 235.613 137.796L246.613 129.809V136.023L228.933 148.543C228.04 149.183 227.827 150.423 228.467 151.329C228.853 151.876 229.467 152.169 230.093 152.169C230.493 152.169 230.893 152.049 231.253 151.809L246.613 140.916V148.676L226.92 162.529C226.013 163.156 225.8 164.409 226.44 165.316C226.827 165.863 227.44 166.169 228.067 166.169C228.467 166.169 228.867 166.049 229.227 165.796L246.613 153.569V162.263L228.933 174.783C228.04 175.423 227.827 176.676 228.467 177.569C228.853 178.129 229.467 178.423 230.093 178.423C230.493 178.423 230.893 178.303 231.253 178.049L246.613 167.169V213.156C243.387 211.463 239.893 209.729 236.147 207.996C232.573 206.316 228.773 204.649 224.773 203.009V195.636C224.773 194.529 223.88 193.636 222.773 193.636C221.667 193.636 220.773 194.529 220.773 195.636V197.223C218.027 195.596 212.187 191.663 204.533 184.009C204.533 183.983 204.533 97.9694 204.533 97.9694C204.533 97.9294 218.947 108.143 218.947 108.143C219.293 108.383 219.693 108.503 220.093 108.503C220.72 108.503 221.347 108.209 221.733 107.663C222.373 106.769 222.16 105.516 221.253 104.876L204.533 93.0227V87.4361L214.813 94.8894C215.173 95.1427 215.573 95.276 215.987 95.276C216.6 95.276 217.213 94.9841 217.6 94.4494C218.253 93.556 218.053 92.3027 217.16 91.6507L204.533 82.4894V77.3827L212.493 83.2894C212.853 83.5561 213.28 83.6894 213.693 83.6894C214.293 83.6894 214.907 83.4094 215.293 82.876C215.96 81.996 215.773 80.7427 214.88 80.076L204.533 72.4094V67.3027L211.227 72.3294C211.587 72.6094 212 72.7294 212.427 72.7294C213.027 72.7294 213.627 72.4627 214.027 71.9427C214.68 71.0494 214.507 69.7961 213.627 69.1294L204.533 62.2894V57.5827L209.107 61.1561C209.467 61.4361 209.907 61.5694 210.333 61.5694C210.933 61.5694 211.52 61.3174 211.907 60.8094C212.587 59.9294 212.44 58.6774 211.56 57.9961L204.533 52.5161V43.9694C204.533 42.8627 203.64 41.9694 202.533 41.9694C201.427 41.9694 200.533 42.8627 200.533 43.9694V52.5561L193.547 57.9961C192.68 58.6774 192.52 59.9294 193.2 60.8094C193.6 61.3174 194.187 61.5694 194.773 61.5694C195.213 61.5694 195.64 61.4361 196 61.1561L200.533 57.6227V62.3294L191.48 69.1294C190.6 69.7961 190.427 71.0494 191.093 71.9427C191.48 72.4627 192.08 72.7294 192.693 72.7294C193.107 72.7294 193.533 72.5961 193.893 72.3294L200.533 67.3294V72.4494L190.227 80.076C189.347 80.7427 189.16 81.996 189.813 82.876C190.213 83.4094 190.813 83.6894 191.427 83.6894C191.84 83.6894 192.253 83.5561 192.613 83.2894L200.533 77.4227V82.5294L187.947 91.6507C187.053 92.3027 186.853 93.556 187.507 94.4494C187.893 94.9841 188.507 95.276 189.12 95.276C189.533 95.276 189.947 95.1427 190.293 94.8894L200.533 87.4627V93.0627L183.853 104.876C182.96 105.516 182.733 106.769 183.373 107.663C183.773 108.209 184.387 108.503 185.013 108.503C185.413 108.503 185.813 108.383 186.173 108.143L200.533 97.9694V179.836C194.133 172.889 186.787 163.543 179.04 151.103C176.867 147.623 174.68 143.889 172.467 139.916C172.453 139.889 172.44 139.876 172.427 139.863C172.36 139.743 172.28 139.649 172.2 139.556C172.173 139.516 172.147 139.489 172.107 139.463C172.053 139.396 171.987 139.343 171.92 139.289C171.88 139.263 171.853 139.236 171.813 139.223C171.787 139.209 171.773 139.196 171.76 139.183C171.707 139.156 171.653 139.129 171.6 139.103C171.52 139.063 171.44 139.023 171.347 138.996C171.32 138.983 171.28 138.969 171.253 138.956C171.2 138.943 171.16 138.943 171.133 138.943C171.04 138.916 170.947 138.916 170.853 138.903C170.813 138.903 170.76 138.889 170.72 138.889H158.56V116.423C158.56 116.383 172.973 126.596 172.973 126.596C173.32 126.849 173.72 126.969 174.12 126.969C174.747 126.969 175.373 126.676 175.76 126.116C176.4 125.223 176.187 123.969 175.28 123.329L158.56 111.489V105.889L168.84 113.343C169.2 113.609 169.6 113.729 170.013 113.729C170.627 113.729 171.24 113.436 171.627 112.903C172.28 112.009 172.08 110.756 171.187 110.103L158.56 100.943V95.8494L166.52 101.743C166.88 102.011 167.307 102.143 167.72 102.143C168.333 102.143 168.933 101.863 169.32 101.329C169.987 100.449 169.8 99.1961 168.907 98.5294L158.56 90.8627V85.7561L165.253 90.7827C165.613 91.0627 166.027 91.1961 166.453 91.1961C167.053 91.1961 167.653 90.9161 168.053 90.3961C168.707 89.5161 168.533 88.2627 167.653 87.5961L158.56 80.7427V76.0361L163.133 79.6094C163.493 79.8894 163.933 80.0361 164.36 80.0361C164.96 80.0361 165.547 79.7694 165.933 79.2627C166.613 78.3827 166.467 77.1294 165.587 76.4494L158.56 70.9694V62.4227C158.56 61.3174 157.667 60.4227 156.56 60.4227C155.453 60.4227 154.56 61.3174 154.56 62.4227V71.0107L147.573 76.4494C146.707 77.1294 146.547 78.3827 147.227 79.2627C147.613 79.7694 148.213 80.0361 148.8 80.0361C149.227 80.0361 149.667 79.8894 150.027 79.6094L154.56 76.076V80.7827L145.507 87.5961C144.627 88.2627 144.453 89.5161 145.12 90.3961C145.507 90.9161 146.107 91.1961 146.72 91.1961C147.133 91.1961 147.56 91.0627 147.92 90.7827L154.56 85.7961V90.9027L144.253 98.5294C143.373 99.1961 143.187 100.449 143.84 101.329C144.227 101.863 144.84 102.143 145.453 102.143C145.867 102.143 146.28 102.011 146.64 101.743L154.56 95.876V100.984L141.973 110.103C141.08 110.756 140.88 112.009 141.533 112.903C141.92 113.436 142.533 113.729 143.147 113.729C143.56 113.729 143.973 113.609 144.32 113.343L154.56 105.916V111.516L137.88 123.329C136.987 123.969 136.773 125.223 137.4 126.116C137.8 126.676 138.413 126.969 139.04 126.969C139.44 126.969 139.84 126.849 140.2 126.596L154.56 116.423V138.889H117.373C116.653 138.889 115.973 139.276 115.627 139.916C110.64 148.889 105.733 156.556 101.067 163.089V107.996C101.067 107.956 115.48 118.169 115.48 118.169C115.827 118.409 116.227 118.529 116.627 118.529C117.253 118.529 117.867 118.236 118.267 117.689C118.907 116.796 118.693 115.543 117.787 114.903L101.067 103.049V97.4627L111.347 104.916C111.693 105.169 112.107 105.303 112.52 105.303C113.133 105.303 113.747 105.011 114.133 104.476C114.787 103.583 114.587 102.329 113.693 101.677L101.067 92.5161V87.4094L109.027 93.3174C109.387 93.5827 109.8 93.716 110.213 93.716C110.827 93.716 111.44 93.4361 111.827 92.9027C112.48 92.0227 112.293 90.7694 111.413 90.1027L101.067 82.4361V77.3294L107.747 82.356C108.107 82.6361 108.533 82.7561 108.947 82.7561C109.56 82.7561 110.16 82.4894 110.547 81.9694C111.213 81.0761 111.04 79.8227 110.16 79.1561L101.067 72.3174V67.6094L105.64 71.1827C106 71.4627 106.44 71.5961 106.867 71.5961C107.453 71.5961 108.053 71.3441 108.44 70.8361C109.12 69.9561 108.96 68.7027 108.093 68.0227L101.067 62.5427V53.9961C101.067 52.8894 100.16 51.9961 99.0666 51.9961C97.9599 51.9961 97.0666 52.8894 97.0666 53.9961V62.5827L90.0799 68.0227C89.1999 68.7027 89.0533 69.9561 89.7333 70.8361C90.1199 71.3441 90.7066 71.5961 91.3066 71.5961C91.7332 71.5961 92.1733 71.4627 92.5333 71.1827L97.0666 67.6507V72.356L88.0132 79.1561C87.1332 79.8227 86.9599 81.0761 87.6266 81.9694C88.0133 82.4894 88.6132 82.7561 89.2132 82.7561C89.6399 82.7561 90.0666 82.6361 90.4266 82.356L97.0666 77.356V82.476L86.7599 90.1027C85.88 90.7694 85.6932 92.0227 86.3465 92.9027C86.7332 93.4361 87.3466 93.716 87.9599 93.716C88.3733 93.716 88.7865 93.5827 89.1465 93.3174L97.0666 87.4494V92.5561L84.4799 101.677C83.5865 102.329 83.3866 103.583 84.0399 104.476C84.4266 105.011 85.04 105.303 85.6533 105.303C86.0666 105.303 86.4799 105.169 86.8266 104.916L97.0666 97.4894V103.089L80.3866 114.903C79.48 115.543 79.2666 116.796 79.9066 117.689C80.2932 118.236 80.9199 118.529 81.5465 118.529C81.9465 118.529 82.3466 118.409 82.6933 118.169L97.0666 107.996V168.503C84.0266 185.489 73.2932 193.463 68.4132 196.543V195.636C68.4132 194.529 67.5199 193.636 66.4132 193.636C65.3065 193.636 64.4132 194.529 64.4132 195.636V200.036V202.116C61.7865 203.169 59.2533 204.223 56.7999 205.303C54.3466 206.369 51.9733 207.436 49.6933 208.516V163.663L65.12 174.583C65.4666 174.836 65.8666 174.956 66.2666 174.956C66.8933 174.956 67.5199 174.649 67.9066 174.103C68.5466 173.209 68.3333 171.956 67.4266 171.316L49.6933 158.756V150.063L67.1465 162.329C67.4932 162.569 67.8933 162.689 68.2933 162.689C68.9199 162.689 69.5466 162.396 69.9333 161.849C70.5733 160.943 70.3466 159.689 69.4533 159.063L49.6933 145.183V137.409L65.12 148.329C65.4666 148.583 65.8666 148.703 66.2666 148.703C66.8933 148.703 67.5199 148.409 67.9066 147.863C68.5466 146.956 68.3333 145.716 67.4266 145.076L49.6933 132.516V126.303L60.7465 134.329C61.1065 134.583 61.52 134.703 61.92 134.703C62.5466 134.703 63.1465 134.423 63.5465 133.876C64.1865 132.983 64 131.743 63.0933 131.089L49.6933 121.369V115.689L58.3066 122.063C58.6666 122.329 59.0799 122.463 59.4933 122.463C60.1066 122.463 60.7066 122.183 61.1066 121.649C61.7599 120.756 61.5732 119.516 60.6799 118.849L49.6933 110.716V105.011L56.9599 110.476C57.32 110.743 57.7333 110.876 58.16 110.876C58.7599 110.876 59.36 110.609 59.7599 110.076C60.4133 109.196 60.2399 107.943 59.36 107.276L49.6933 100.011V94.7427L54.72 98.6507C55.08 98.9427 55.5199 99.076 55.9465 99.076C56.5465 99.076 57.1333 98.8094 57.52 98.3027C58.2 97.4361 58.0532 96.1827 57.1732 95.5027L49.6933 89.6774V79.4094C49.6933 78.3174 48.7999 77.4094 47.6933 77.4094C46.5866 77.4094 45.6933 78.3174 45.6933 79.4094V89.716L38.2666 95.5027C37.3999 96.1827 37.24 97.4361 37.92 98.3027C38.32 98.8094 38.9066 99.076 39.4933 99.076C39.9333 99.076 40.3599 98.9427 40.7333 98.6507L45.6933 94.7827V100.049L36.0799 107.276C35.1999 107.943 35.0266 109.196 35.6933 110.076C36.08 110.609 36.6799 110.876 37.2933 110.876C37.7066 110.876 38.1333 110.743 38.4933 110.476L45.6933 105.049V110.743L34.7599 118.849C33.8666 119.516 33.6799 120.756 34.3465 121.649C34.7332 122.183 35.3465 122.463 35.9465 122.463C36.3599 122.463 36.7865 122.329 37.1465 122.063L45.6933 115.729V121.409L32.3465 131.089C31.4532 131.743 31.2532 132.983 31.9066 133.876C32.2932 134.423 32.9066 134.703 33.52 134.703C33.9333 134.703 34.3333 134.583 34.6933 134.329L45.6933 126.343V132.543L28.0132 145.076C27.1199 145.716 26.9065 146.956 27.5465 147.863C27.9332 148.409 28.5466 148.703 29.1732 148.703C29.5732 148.703 29.9733 148.583 30.3333 148.329L45.6933 137.449V145.209L25.9999 159.063C25.0933 159.689 24.8799 160.943 25.5066 161.849C25.8932 162.396 26.5199 162.689 27.1465 162.689C27.5465 162.689 27.9466 162.569 28.2933 162.329L45.6933 150.103V158.796L28.0132 171.316C27.1199 171.956 26.9065 173.209 27.5465 174.103C27.9332 174.663 28.5466 174.956 29.1732 174.956C29.5732 174.956 29.9733 174.836 30.3333 174.583L45.6933 163.689V210.116C45.6933 210.223 45.7066 210.329 45.7333 210.436C26.7466 219.796 15.1333 228.343 14.96 228.476C14.0666 229.129 13.8799 230.383 14.5465 231.276C14.9332 231.796 15.5465 232.076 16.1465 232.076Z" fill="#373D4C"/>
<path d="M36.1067 257.889C36.8533 254.743 39.2533 252.089 41.68 252.089C43.24 252.089 44.6934 252.796 45.8 254.049C46.08 254.636 46.6401 255.063 47.3201 255.156C47.4134 255.169 47.5067 255.183 47.6 255.183C48.5867 255.183 49.4401 254.463 49.5868 253.463C50.9201 243.849 55.76 243.849 57.3466 243.849C60 243.849 62.4933 245.329 64.0133 247.796C64.6 248.743 65.8267 249.023 66.7733 248.449C67.3867 248.076 67.7201 247.409 67.7201 246.729C67.7201 239.863 72.6667 234.329 78.7601 234.329C84.8401 234.329 89.7867 239.863 89.7867 246.663C89.7867 246.689 89.8 246.703 89.8 246.729C89.8 247.409 90.12 248.076 90.7466 248.449C91.68 249.023 92.9201 248.743 93.4934 247.796C95.0134 245.329 97.5067 243.849 100.16 243.849C104.947 243.849 107.387 246.676 108.053 252.996C108.133 253.783 108.667 254.409 109.36 254.663C110.173 255.076 111.187 254.889 111.8 254.169C112.907 252.823 114.413 252.089 116.027 252.089C118.467 252.089 120.867 254.743 121.613 257.889H36.1067ZM116.027 248.089C114.427 248.089 112.867 248.529 111.467 249.316C109.96 243.036 106.173 239.849 100.16 239.849C97.6401 239.849 95.2133 240.703 93.2133 242.223C91.4266 235.369 85.6267 230.329 78.7601 230.329C71.8801 230.329 66.0801 235.369 64.2934 242.223C62.2934 240.703 59.88 239.849 57.3466 239.849C53.3733 239.849 48.48 241.609 46.3466 249.369C44.92 248.543 43.32 248.089 41.68 248.089C36.0666 248.089 31.8667 254.316 31.8667 259.889C31.8667 260.983 32.76 261.889 33.8667 261.889H123.853C124.96 261.889 125.853 260.983 125.853 259.889C125.853 254.316 121.653 248.089 116.027 248.089Z" fill="#373D4C"/>
<path d="M24.3333 257.889H16.1466C15.0399 257.889 14.1466 258.783 14.1466 259.889C14.1466 260.983 15.0399 261.889 16.1466 261.889H24.3333C25.44 261.889 26.3333 260.983 26.3333 259.889C26.3333 258.783 25.44 257.889 24.3333 257.889Z" fill="#373D4C"/>
</g>
</svg>
